<svg id="Layer_1" style="enable-background:new 0 0 4813.421 2920.314;" version="1.1" viewBox="0 0 4813.421 2920.314" x="0px" xml:space="preserve" xmlns="http://www.w3.org/2000/svg" xmlns:xlink="http://www.w3.org/1999/xlink" y="0px">
	<rect height="210.96" style="fill:#B71515;stroke:#231F20;stroke-miterlimit:10;" width="216" x="1078.621" y="1793.23"/>
	<path d="M2177.786,1326.803c0-1.1-0.9-2-2-2h-6.634c-1.1,0-2,0.9-2,2v14.357  c3.865,0.238,7.422,0.942,10.634,1.915V1326.803z" style="fill:#E22323;"/>
	<path d="M2284.046,1310.241c0.042,0.313,0.081,0.613,0.117,0.898c8.157-2.951,17.61-4.437,23.599-1.442  c3.93,1.965,6.514,6.917,8.212,12.304c0,0,0,0-0.001,0c6.576-0.767,13.529,0.742,18.418,3.698l0.051-0.004l-1.044-6.955  c-0.465-3.095,1.794-5.935,4.915-6.179l10.184-0.795c0.165-0.013,0.327-0.011,0.49-0.014c-1.486-6.831-3.432-14.754-5.286-19.203  c-0.701-1.683-3.919-2.659-8.644-3.102c-4.909-0.46-11.452-0.343-18.558,0.173c-11.815,0.858-25.151,2.807-34.99,5.008  c0.257,1.159,0.508,2.405,0.75,3.728C2282.917,1301.955,2283.515,1306.077,2284.046,1310.241z" style="fill:#ED6D15;"/>
	<path d="M3840.32,1660.524c-4.291-3.771-8.566-7.031-14.314-9.566c-1.52-0.504-3.236-3.504-4.661-3.937  c-0.346,0-1.724-0.677-0.724-1.74c-0.748-0.197-1.488-0.378-2.228-0.543c-0.74-0.165-1.669-0.354-2.504-0.496  c-6.645-1.157-5.511,4.559-0.535,6.677c3.071,0.787,4.913,2.189,4.055,4.866c-0.457,1.409,0.787,4.047,1.937,4.724  c6.141,2.417,9.928,5.622,5.763,10.574c-0.689,0.799-1.631,1.339-2.669,1.527c-0.26,0.055-0.523,0.095-0.787,0.118  c-0.194,0.013-0.389,0.013-0.583,0c-2.362,0.11-5.26-0.598-8.346-1.661c-4.11-1.157-8.787-2.716-12.684-3.992  c-0.086,0.921-1.401,0.142-2.291-0.74c-3.315-1.071-5.692-1.764-5.976-1.512c-0.346-0.236-0.646-0.464-0.913-0.685l-0.315-0.283  c-1.496-1.346-1.37-2.212-0.268-2.724c6.299-6.858-15.888-10.33-22.518-8.338c-8.779,4.197-21.408,11.527-18.857,14.117  c7.322,7.425,14.014-2.708,14.014-2.708c0.228-0.478,0.491-0.939,0.787-1.378c2.512-3.795,12.298-8.047,19.077-3.795  c1.575,1.008,0.63,1.291-0.425,2.63c0.027,0.56,0.201,1.103,0.504,1.575l0.205,0.205l0.197,0.181c0.26,0.252,0.528,0.504,0.787,0.74  c1.131,1.06,2.53,1.79,4.047,2.11l0.52,0.063l-0.512-0.055c0.164,0.022,0.327,0.053,0.488,0.094  c2.559,0.685,2.433,4.102,0.787,8.125c-0.205,0.48-0.425,0.969-0.669,1.457c-0.004,0.06-0.004,0.121,0,0.181l-0.181,0.205  c-1.195,2.297-2.645,4.453-4.323,6.425c-0.814,0.956-1.684,1.863-2.606,2.716c-0.283,0.26-0.567,0.496-0.858,0.732v0.504  c-4.511,6.425-9.117,13.503-11.558,17.55c-0.442,0.889-0.824,1.807-1.142,2.748c-0.11,0.134-0.205,0.236-0.283,0.323  c-10.794,12.408-19.353-2.315-25.525-15.999c-0.709-0.787-1.457-1.575-2.22-2.425c-0.496-0.559-1-1.142-1.504-1.724l-0.449-0.527  c-0.181-0.205-0.346-0.417-0.52-0.622l-0.496-0.598l-0.496-0.606l-0.496-0.622l-0.449-0.591l-0.496-0.653  c-0.142-0.189-0.276-0.378-0.417-0.559l-0.488-0.693l-0.354-0.504c-0.189-0.283-0.37-0.559-0.543-0.835l-0.22-0.339  c-0.236-0.378,0-4.323-1.929-4.204c-0.921,0.063-5.834,9.377-5.96,10.535c-0.606,5.59,1.008,20.723,8.047,38.068  c3.346,6.503,27.202,36.312,29.336,38.304c6.645,4.598,11.424,7.275,20.164,7.826c2.913-1.315,3.283-1.96,6.236-3.653l2.598-1.575  c3.212-1.85,8.724-6.228,6.889-6.795c-2.811-3.197-18.896-1.905-30.855-7.921c-4.738-2.37-9.315-5.05-13.7-8.023  c-1.11-0.603-2.139-1.343-3.063-2.205c-11.086-8.346-16.605-17.18-7.542-22.368c1.068-0.443,2.242-0.564,3.377-0.346  c13.983,1.496,57.539,24.864,57.192,2.661c0,0,5.511-8.094,6.897-10.18h0.291c0-0.102-0.055-0.205-0.087-0.307l3.614-5.346  c0-0.102,0.071-0.173,0.126-0.197c10.81-15.975,25.061-18.109,29.352-37.627C3844.288,1664.646,3842.368,1662.521,3840.32,1660.524z  " style="fill:#1B8FEF;"/>
	<path d="M1503.511,1208.568l11.268,28.742l17.383,44.338c0,0,13.118,2.539,23.696-2.962  c10.579-5.501,13.964-17.772,13.964-17.772l-3.625-5.331l-38.447-56.54l-1.089-1.602c0,0-5.229-1.062-11.023,0.566  c-0.904,0.254-1.821,0.568-2.735,0.968C1506.132,1201.939,1503.511,1208.568,1503.511,1208.568z" style="fill:#161616;"/>
	<path d="M1520.422,1701.508c-3.087-2.539-6.667-4.018-10.5-4.018c-1.303,0-2.573,0.19-3.81,0.512  c-5.236,1.362-9.774,5.48-12.85,11.237c7.536,3.055,12.856,10.434,12.856,19.065c0,2.457-0.453,4.803-1.243,6.987l25.219-1.128  c0.429-2.338,0.697-4.769,0.697-7.296C1530.791,1716.039,1526.617,1706.603,1520.422,1701.508z" style="fill:#E5B51A;"/>
	<path d="M1526.758,882.01l-6.76,9.77c-4.12,3.77-24.7,19.85-28.83,22.94  c-4.12,3.09-39.15,21.66-46.14,24c-25.2,8.43-61.7,17.38-80.4,18.56c-28.51,1.78-74.71-7.22-97.92-12.37  c-18.51-4.11-27.12-11.9-37.11-15.46c-16.42-5.86-36.07-2.06-49.47-3.61c-13.4-1.55-54.15-5.88-69.06-7.73  c-20.27-2.52-47.43-16.64-47.43-16.64l-4.54-4.24c0.97,0.41,31.98,13.67,49.45,16.48c14.84,2.39,55.66,6.19,69.06,7.73  c0,0-7.46-20.49-9.34-40.27c-1.88-19.78,0-63.11,0-76.29c0-13.19,6.82-53.45,8.89-81.29c2.06-27.84,11.66-151.46,11.66-151.46  l2.44,1.58c0,0-9.6,123.62-11.66,151.46c-2.06,27.84-8.89,68.1-8.89,81.29c0,13.18-1.88,56.51,0,76.29  c1.59,16.73,7.17,33.96,8.85,38.88c13.3,1.04,31.81-1.98,47.52,3.42c16.5,5.67,24.3,12.53,37.11,15.46  c27.07,6.2,84.83,13.52,97.92,12.37c21.23-1.86,73.56-15.77,80.4-18.55c14.14-5.76,42.77-20.62,46.89-23.71  C1493.528,907.53,1515.138,894.71,1526.758,882.01z" style="opacity:0.84;fill:#F2F2F1;"/>
	<path d="M1139.348,594.15c-3.59-8.52-1.34-29.15-1.34-42.15s3.58-64.56,3.58-64.56l2.21-0.83  c0,0-3.59,51.56-3.59,64.57c0,13-2.24,33.62,1.35,42.14s11.21,19.73,16.59,21.52c5.38,1.8,7.17,4.04,13.9,4.49  c6.72,0.44,10.76,1.34,10.76,1.34l-2.21,0.83c0,0-4.04-0.9-10.76-1.35c-6.73-0.45-8.52-2.69-13.9-4.48  C1150.558,613.87,1142.938,602.67,1139.348,594.15z" style="opacity:0.84;fill:#F2F2F1;"/>
	<path d="M1608.446,1146.77l-2.192-48.826c0,0-4.97-2.125-8.835-2.125s-8.028,1.973-8.028,1.973l-5.36,29.89  l10.893,57.806L1608.446,1146.77z" style="fill:#BF1682;"/>
	<path d="M3898.654,1855.42c-0.065-0.49-0.356-0.922-0.787-1.165c-0.669-0.283-1.724,0.134-3.323,1.575  c-0.52,1.512-1.008,2.764-1.464,3.827c-2.732,6.393-4.338,5.976-5.976,12.763c-0.618,2.098-1.474,4.119-2.551,6.023  c-0.661,1.26-1.378,2.551-2.079,3.811c-2.023,3.622-3.937,7.007-3.874,8.739c0.409,25.195-10.306,16.534-28.832,1.268  c-4.228-3.516-8.273-7.248-12.117-11.18c-1.294-1.321-2.508-2.717-3.637-4.181c-1-1.283-1.921-2.59-2.795-3.874  c-6.511-9.558-10.409-18.306-22.36-13.385c-10.503,4.409-14.873,13.29-42.107,10.645c-3.33-0.323-6.999-0.787-11.07-1.512  c-10.708-1.819-9.117-9.849-3.283-18.833c2.581-3.857,5.447-7.515,8.574-10.944c0.724-0.787,1.457-1.575,2.197-2.362  c0.74-0.787,1.653-1.756,2.472-2.606c7.558-7.747,14.645-13.597,14.629-13.212c0.181-4.259,15.747-20.856,28.927-35.131  c2.283-2.472,4.133-5.267,6.551-7.133c18.266-14.172-6.551-5.015-14.645-1.677c-6.48,3.937-11.172,3.598-17.053,8.81  c-0.971,0.856-1.921,1.719-2.85,2.59c-6.299,5.889-11.66,11.936-15.109,17.109c-2.448,3.669-3.937,6.897-4.118,9.298  c-2.362-3.212-0.402-3.008-4.85-4.519c-0.765-0.073-1.537-0.034-2.291,0.118c-0.543,0.425-1.031,0.787-1.331,1  c-1.441,1.094-4.952,1.937-9.763,2.677c-1.346,0.213-2.795,0.409-4.33,0.606c-15.07,1.913-38.225,3.33-52.885,7.291  c-1.205,0.331-2.362,0.669-3.409,1.031c-4.37,1.457-7.653,3.22-9.251,5.401c0,0,0-0.047-0.039-0.063  c0.26,1.189,0.535,2.276,0.787,3.204l-0.606-0.071c-2.598-0.283-10.417-0.488-17.392-0.874c-15.55-0.85-14.597-17.573-14.44-17.99  c0.064-0.138,0.135-0.272,0.213-0.402l0.134-0.213l0.165-0.26l0.559-0.787l0,0l0,0c0.441-0.606,1-1.338,1.661-2.173l0.063-0.079  c0.212-0.276,0.433-0.559,0.669-0.85c0-0.047,0.071-0.094,0.11-0.134c0.354-0.449,0.74-0.921,1.142-1.417l0.622-0.787l0.417-0.504  c0.37-0.464,0.787-0.929,1.15-1.409v-0.126c0.378-1.26-2.512-1.779-3.811-2.102c-3.047-0.787-38.312,26.195-46.823,21.943  c-0.535-0.26-1.149-0.394-1.732-0.606l-0.126-0.039l-1.819-0.669h-0.102l-11.448,0.37c-0.22,0.11-2.929,8.732,0.787,10.637  c2.693,1.38,5.54,2.716,8.543,4.008c3.251,1.409,6.677,2.756,10.235,4.039c4.897,1.779,10.038,3.433,15.337,4.929  c8.034,2.26,16.181,4.099,24.407,5.511c17.322,2.945,34.761,3.866,49.437,1.732c0.914-0.274,1.858-0.433,2.811-0.472  c4.858-0.858,13.944,5.811,13.904,8.661c0.079,6.062-0.331,10.613-1.181,13.959l-1.142,0.331c-2.748,5.866-7.795,5.787-14.385,4.031  l-5.141,1.401c-12.18-3.882-28.124-9.448-44.303,3.071c-2.142,1.673-4.146,3.516-5.992,5.511c-1.525,1.633-2.968,3.341-4.323,5.118  l-3.149,0.654c-10.495,10.369-20.872,2.913-30.935-9.55c-1.889-2.362-3.763-4.85-5.629-7.456c-1.638-2.283-3.26-4.63-4.874-6.999  l-3.464-4.456c-2.409-2.85-4.803-5.669-7.149-8.314c-8.558-11.692-16.762-19.951-24.47-15.447c-3.423,1.88-5.634,5.392-5.85,9.291  c3,35.548,103.582,120.312,108.589,127.06c40.099,54.145,94.543,42.729,150.68,32.832c15.946-2.64,30.769-9.897,42.634-20.872  c5.367-4.987,10.165-10.553,14.306-16.597c18.628-26.88,27.557-64.215,33.17-100.842c0.606-3.937,2.118-10.015,2.622-14.4  C3898.909,1858.225,3898.896,1856.808,3898.654,1855.42z M3696.309,1836.91c-0.843-0.094-8.212-2.59-9.086-2.685  c-2.323-0.268-4.157-5.196-2.732-5.511c1.425-0.315,3.149-0.716,4.874-1.016c1.275-0.22,2.582-0.433,3.937-0.606l1.504-0.181  c7.243-0.787,14.888-0.787,20.014,0.787c4.763,1.464,7.362,4.252,5.456,8.928c0,0-2.756-0.315-7.495-0.866l-0.512-0.063  c-5.354-0.669-6.692,2.26-15.92,1.213H3696.309z M3767.169,1960.624c-2.086,2.023-6.251,3.708-11.55,4.929  c-3.338,0.75-6.72,1.291-10.125,1.622c-5.192,0.531-10.415,0.681-15.628,0.449c-18.81-0.866-36.218-6.976-30.368-21.4  c0.015-0.051,0.033-0.101,0.055-0.15c0.173-0.409,0.362-0.835,0.567-1.252c0.024-0.047,0.063-0.086,0.11-0.11  c1.26-0.858,12.243,0.496,24.99,2.795c6.661,1.205,13.794,2.661,20.274,4.204c8.44,2,15.747,4.133,19.447,5.999  c0.409,0.213,0.787,0.409,1.102,0.614c1.401,0.85,1.913,1.638,1.181,2.276L3767.169,1960.624z M3790.482,1900.141  c-5.732,2.575-12.046,5.299-18.723,8.015c-21.919,8.897-47.713,17.684-69.018,20.967l0,0c-1.173,0.173-2.362,0.339-3.48,0.488  c0,0.079-0.055,0.157-0.079,0.236c-0.149,0.488-0.26,0.787-0.291,0.921c0-0.102,0.118-0.386,0.291-0.921  c0-0.071,0.055-0.157,0.079-0.236c-4.343,0.582-8.72,0.866-13.101,0.85h-0.299h-0.74c-6.11-0.165-11.408-1.15-15.55-3.197  c-0.291-0.142-0.559-0.291-0.787-0.433c-7.74-4.417-0.275-10.157,14.731-16.148c6.653-2.661,14.802-5.37,23.754-8.031  c7.267-2.157,15.07-4.283,23.053-6.299c10.975-2.819,22.289-5.511,33.013-7.873c4.881-1.079,9.621-2.094,14.172-3.039  c2.241-0.472,4.427-0.921,6.559-1.346l2.055-0.417c6.259-1.26,11.936-2.362,16.739-3.197c7.779-1.394,13.274-2.228,15.282-2.315  h0.346c3.236,0,4.228,0.835,3.937,2.063c-0.081,0.279-0.203,0.544-0.362,0.787c-1.574,2.614-7.165,6.393-11.022,8.802  c-1.283,0.787-2.362,1.464-3.023,1.866c-0.661,0.401-0.929,0.567-0.354,0.276l0.26-0.134h0.039l0,0h-0.039l-0.213,0.11h-0.047  h-0.039l0,0l0,0c-1.496,0.787-3.149,1.575-4.85,2.409c-3.677,1.858-7.771,3.779-12.235,5.795L3790.482,1900.141z M3857.563,1933.044  c-0.118,0.354-0.22,0.693-0.338,1.055c0.086-0.26,0.11-0.339,0,0c-1.575,4.582-8.81,27.809-18.896,40.894  c-6.401,8.283-13.968,12.495-22.045,5.338c-0.417-0.37-0.787-0.787-1.189-1.126c-8.046-7.747-10.574-16.605-9.558-25.399  c1.181-10.18,7.086-20.258,14.605-28.399c1.113-1.186,2.249-2.336,3.409-3.448c2.411-2.273,4.976-4.378,7.677-6.299  c6.543-4.661,13.204-7.629,18.518-7.999c5.59-0.394,9.661,2.118,10.495,8.511C3860.751,1920.21,3860.019,1925.737,3857.563,1933.044  z" style="fill:#1B8FEF;"/>
	<path d="M2267.589,1324.406h-7.218c-1.611,0-2.917,1.306-2.917,2.916v14.453  c1.599,0.737,3.161,1.538,4.667,2.389c1.931-1.993,4.39-3.83,7.478-5.224C2268.577,1335.901,2266.804,1329.58,2267.589,1324.406z" style="fill:#0DCC5A;"/>
	<path d="M3277.809,1073.337c-85.411,0-154.65,69.239-154.65,154.65  c0,85.411,69.239,154.65,154.65,154.65c85.411,0,154.65-69.239,154.65-154.65S3363.22,1073.337,3277.809,1073.337z   M3277.809,1091.657c32.5,0,62.338,11.38,85.763,30.362h-171.526C3215.471,1103.037,3245.309,1091.657,3277.809,1091.657z   M3258.685,1178.137l14.215,14.215h-20.948l19.968,19.968c-3.666,1.872-6.506,5.115-7.85,9.058l-21.433-21.433v20.916  l-13.337-13.337L3258.685,1178.137z M3239.891,1180.292c3.424-2.777,7.164-5.176,11.148-7.158l-9.153,9.153L3239.891,1180.292z   M3325.93,1207.089l-13.347,13.347v-18.437l-18.62,18.62c-1.604-4.021-4.79-7.233-8.796-8.866l19.401-19.401h-19.457l13.042-13.042  L3325.93,1207.089z M3302.129,1171.98c5.109,2.258,9.852,5.192,14.098,8.71l-2.694,2.694L3302.129,1171.98z M3298.797,1276.017  l-13.718-13.718h19.91l-20.693-20.693c3.944-1.344,7.187-4.184,9.059-7.85l19.227,19.227v-19.837l14.542,14.542L3298.797,1276.017z   M3316.228,1273.537c-4.01,3.322-8.46,6.129-13.245,8.333l10.789-10.789L3316.228,1273.537z M3227.836,1246.988l14.8-14.8v22.096  l21.751-21.751c1.633,4.006,4.845,7.192,8.866,8.796l-20.97,20.97h20.233l-13.935,15.433L3227.836,1246.988z M3251.952,1281.533  c-4.163-1.984-8.069-4.421-11.64-7.265l2.188-2.188L3251.952,1281.533z M3271.537,1225.993c0-3.951,3.203-7.154,7.154-7.154  s7.154,3.203,7.154,7.154c0,3.951-3.203,7.154-7.154,7.154S3271.537,1229.943,3271.537,1225.993z M3278.324,1262.298h0.658  l16.767,16.767l-17.917,17.917l-16.198-16.198L3278.324,1262.298z M3279.013,1192.353h-0.017l-17.263-17.263l16.099-16.099  l17.271,17.271L3279.013,1192.353z M3223.822,1200.349c2.077-4.181,4.614-8.093,7.564-11.654l2.045,2.045L3223.822,1200.349z   M3226.25,1210.573l15.952,15.952l-17.414,17.414l-15.952-15.952L3226.25,1210.573z M3233.669,1263.25l-2.283,2.283  c-3.171-3.828-5.873-8.057-8.03-12.595L3233.669,1263.25z M3236.183,1278.4c7.42,6.149,16.201,10.708,25.818,13.183l15.635,15.635  l15.015-15.015c10.645-2.282,20.349-7.099,28.438-13.803l40.533,40.534h-72.383l-11.755,11.755l-11.755-11.755h-70.08  L3236.183,1278.4z M3322.226,1262.628l10.343-10.343c-2.115,4.59-4.79,8.868-7.937,12.749L3322.226,1262.628z M3330.173,1244.641  l-17.591-17.591v-0.518l16.396-16.396l17.85,17.85L3330.173,1244.641z M3322.365,1192.217l2.599-2.599  c3.189,4.005,5.873,8.429,7.971,13.169L3322.365,1192.217z M3321.089,1175.831c-8.239-6.828-18.156-11.695-29.034-13.923  l-14.895-14.895l-15.8,15.8c-9.541,2.561-18.239,7.183-25.581,13.368l-39.139-39.139h69.74l11.755-11.755l11.755,11.755h69.988  L3321.089,1175.831z M3173.909,1316.24c-20.221-23.783-32.428-54.59-32.428-88.252c0-33.663,12.208-64.47,32.428-88.252V1316.24z   M3175.108,1228.312l11.755-11.755v-72.383l40.488,40.488c-6.015,7.258-10.516,15.815-13.026,25.186l-17.03,17.03l16.873,16.873  c2.476,9.617,7.034,18.398,13.183,25.818l-40.488,40.488v-69.988L3175.108,1228.312z M3277.809,1364.316  c-32.5,0-62.338-11.38-85.763-30.362h171.527C3340.148,1352.936,3310.31,1364.316,3277.809,1364.316z M3368.755,1239.417v69.74  l-39.185-39.185c6.88-8.169,11.824-18.016,14.148-28.837l13.783-13.783l-13.657-13.657c-2.228-10.878-7.095-20.794-13.923-29.034  l38.835-38.835v70.08l11.755,11.755L3368.755,1239.417z M3381.71,1316.24v-176.505c20.221,23.783,32.428,54.59,32.428,88.252  C3414.138,1261.65,3401.931,1292.457,3381.71,1316.24z" style="fill:#F2F2F1;stroke:#231F20;stroke-miterlimit:10;"/>
	<path d="M1607.793,2293.639c-1.302-33.462-7.729-184.51-13.448-252.87  c-12.716-151.983-49.392-307.27-49.392-307.27l-11.629,0.52l-3.229,0.144l-25.219,1.128l-14.792,0.662l-17.348,0.776l-5.828,0.261  l-25.196,1.127l-4.247,0.19l-18.697,0.836l-2.589,0.116c0,0-11.992,111.353-11.992,253.543c0,173.986,14.602,288.821,16.843,305.419  c0.186,1.379,0.288,2.087,0.288,2.087c0,17.266,3.164,33.623,8.798,48.286c2.311,6.015,5.044,11.737,8.146,17.122  c10.328,17.933,24.779,32.056,41.681,40.332c10.741,5.26,22.458,8.182,34.74,8.182c1.929,0,3.839-0.094,5.738-0.235  c15.564-1.153,30.104-6.935,42.687-16.267c14.041-10.414,25.647-25.223,33.548-42.857c7.26-16.204,11.392-34.794,11.392-54.563  C1608.049,2300.308,1607.96,2297.929,1607.793,2293.639z" style="fill:#F2F2F1;"/>
	<path d="M2227.469,1443.499c-7.333-20.361-18.061-34.88-33.752-34.88c-12.085,0-19.28,6.911-23.567,15.142  c5.924,2.169,12.671,5.815,15.323,11.65c5.152,11.335,12.365,44.31,12.365,44.31h11.335  C2209.173,1479.721,2204.591,1445.865,2227.469,1443.499z" style="fill:#F464BA;"/>
	<path d="M2262.489,1320.46h-6.634c-1.1,0-2-0.9-2-2v-5.146c0-1.1,0.9-2,2-2h6.634c1.1,0,2,0.9,2,2v5.146  C2264.489,1319.56,2263.589,1320.46,2262.489,1320.46z" style="fill:#E22323;"/>
	<path d="M968.875,1687.96c-1.415-1.186-3.074-2.086-4.891-2.621c-1.224-0.361-2.516-0.562-3.857-0.562  c-7.527,0-13.629,6.102-13.629,13.63c0,7.527,6.102,13.63,13.629,13.63c7.527,0,13.63-6.102,13.63-13.63  C973.756,1694.21,971.857,1690.46,968.875,1687.96z" style="fill:#161616;"/>
	<path d="M3738.242,1678.144c-0.021,0.122-0.034,0.246-0.039,0.37c0,0.071,0,0.157,0,0.236  c0.008,0.129,0.024,0.258,0.047,0.386c0,0.087,0.039,0.181,0.055,0.268c0.016,0.087,0.079,0.283,0.126,0.425l0.094,0.291  l0.197,0.472c0.039,0.094,0.087,0.197,0.134,0.291c0.047,0.094,0.181,0.37,0.283,0.559c0.102,0.189,0.079,0.165,0.126,0.252  c0.157,0.276,0.323,0.551,0.496,0.835l0.165,0.252l0.409,0.63l0.268,0.378l0.362,0.52l0.315,0.417  c0.118,0.165,0.244,0.323,0.37,0.488l0.338,0.441c0.126,0.157,0.244,0.315,0.378,0.472l0.362,0.457  c0.126,0.15,0.252,0.291,0.37,0.449c0.118,0.157,0.26,0.307,0.394,0.465l0.339,0.394l1.126,1.291l0,0  c0.575,0.638,1.134,1.252,1.669,1.827c4.63,10.235,11.023,21.305,19.148,11.999l0.213-0.244c0.243-0.705,0.53-1.394,0.858-2.063  c1.834-3.031-1.874-9.306-3.267-11.519l0,0c-0.459-0.752-0.809-1.566-1.039-2.417c-0.279-0.986-0.5-1.988-0.661-3  c-0.787-4.866-0.898-10.479-3.819-11.377c-2.606-0.787-9.046,0.929-10.102,0.228c-0.814-0.562-1.791-0.838-2.779-0.787  c-2.187,1.598-4.29,3.309-6.299,5.125l-0.37,0.52c-0.098,0.142-0.173,0.299-0.22,0.465  C3738.258,1678.026,3738.258,1678.089,3738.242,1678.144z" style="fill:#F7CB14;"/>
	<path d="M2221.358,1342.282c0.017-0.207,0.035-0.419,0.052-0.632c0.013-0.164,0.026-0.329,0.039-0.497  c0.015-0.196,0.031-0.392,0.045-0.592c0.019-0.248,0.036-0.502,0.054-0.757c0.013-0.179,0.025-0.358,0.037-0.54  c0.022-0.336,0.044-0.677,0.065-1.022c0.009-0.147,0.017-0.296,0.026-0.444c0.016-0.284,0.032-0.57,0.047-0.859  c0.008-0.147,0.015-0.295,0.022-0.443c0.017-0.342,0.032-0.686,0.046-1.032c0.004-0.091,0.008-0.181,0.012-0.273  c0.017-0.44,0.032-0.883,0.044-1.328c0.003-0.094,0.005-0.188,0.007-0.281c0.009-0.36,0.017-0.72,0.023-1.081  c0.002-0.121,0.004-0.242,0.005-0.363c0.005-0.364,0.007-0.728,0.008-1.092c0-0.09,0.001-0.181,0.001-0.271  c0-0.459-0.004-0.917-0.011-1.371c-0.001-0.032-0.002-0.063-0.002-0.095c-0.007-0.413-0.018-0.823-0.032-1.23  c-0.004-0.106-0.008-0.21-0.012-0.315c-0.013-0.349-0.029-0.696-0.048-1.039c-0.005-0.099-0.01-0.198-0.016-0.297  c-0.05-0.861-0.119-1.698-0.207-2.503c-0.01-0.093-0.022-0.183-0.032-0.275c-0.036-0.309-0.075-0.613-0.117-0.912  c-0.014-0.101-0.029-0.203-0.044-0.303c-0.05-0.329-0.104-0.65-0.162-0.963c-0.008-0.046-0.016-0.093-0.024-0.138  c-0.068-0.357-0.143-0.702-0.223-1.035c-0.017-0.071-0.036-0.138-0.054-0.208c-0.064-0.255-0.132-0.502-0.204-0.741  c-0.027-0.091-0.056-0.181-0.084-0.269c-0.073-0.226-0.15-0.444-0.231-0.653c-0.026-0.067-0.05-0.137-0.077-0.202  c-0.108-0.265-0.222-0.517-0.344-0.75c-0.02-0.039-0.043-0.073-0.064-0.111c-0.103-0.189-0.211-0.366-0.323-0.532  c-0.043-0.063-0.087-0.121-0.131-0.181c-0.101-0.136-0.207-0.261-0.316-0.377c-0.046-0.049-0.09-0.1-0.137-0.145  c-0.155-0.15-0.316-0.286-0.487-0.396c-0.258-0.166-0.548-0.327-0.864-0.483c-0.121-0.06-0.263-0.115-0.392-0.173  c-0.206-0.093-0.407-0.187-0.633-0.275c-0.178-0.069-0.376-0.133-0.566-0.2c-0.2-0.07-0.392-0.142-0.603-0.209  c-0.222-0.07-0.463-0.133-0.698-0.198c-0.2-0.056-0.394-0.114-0.602-0.167c-0.255-0.064-0.526-0.122-0.793-0.181  c-0.208-0.046-0.41-0.094-0.624-0.137c-0.276-0.055-0.565-0.103-0.852-0.152c-0.223-0.038-0.443-0.078-0.672-0.113  c-0.286-0.043-0.581-0.079-0.875-0.116c-0.246-0.031-0.49-0.064-0.74-0.09c-0.283-0.03-0.573-0.053-0.861-0.078  c-4.932-0.416-10.649,0.02-15.369,1.897c-3.783,1.505-6.924,3.925-8.487,7.572c-5.174,12.073,6.036,26.302,6.036,26.302h29.751  c0,0,0.208-1.582,0.453-4.045c0.069-0.69,0.14-1.455,0.211-2.27C2221.338,1342.506,2221.348,1342.396,2221.358,1342.282z" style="fill:#ED6D15;"/>
	<rect height="21.6" style="fill:#F79514;stroke:#231F20;stroke-miterlimit:10;" transform="matrix(6.123234e-17 -1 1 6.123234e-17 -595.8236 2960.0669)" width="29.183" x="1167.53" y="1767.145"/>
	<path d="M2321.979,1414.889c-5.201-11.823-13.13-20.8-25.217-19.667  c-13.919,1.305-23.122,17.163-29.183,38.874c3.043,0.353,6.194,0.54,9.423,0.54c15.594,0,29.378-4.334,37.781-10.971  C2318.088,1421.055,2320.557,1418.089,2321.979,1414.889z" style="fill:#F7CB14;"/>
	<path d="M959.257,1507.003c0.347,0,0.681-0.058,1.003-0.147c1.238-0.343,2.246-1.296,2.617-2.576  c1.447-4.998,4.303-15.801,4.303-23.212c0-5.151,0-14.695,0-22.69c-9.03,3.881-20.783,7.603-34.192,8.705  c1.838,8.947,4.456,20.425,6.655,25.191c2.671,5.788,6.581,10.648,8.716,13.072c0.54,0.613,1.224,1.051,1.972,1.329  c0.538,0.2,1.105,0.328,1.694,0.328H959.257z" style="fill:#E5B51A;"/>
	<path d="M1663.531,2370.255l-39.949-40.583c-1.255,7.692-4.747,14.342-9.564,18.908l32.244,24.535  c5.019,3.819,7.753,9.927,7.257,16.214l-23.769,301.681c-0.351,4.458,3.172,8.27,7.644,8.27h18.762c3.388,0,6.652-1.276,9.142-3.574  l0,0c1.855-1.712,0.943-4.809-1.545-5.241l-15.631-2.719c-4.532-0.788-7.692-4.933-7.253-9.512l28.103-292.637  C1669.517,2379.929,1667.524,2374.312,1663.531,2370.255z" style="fill:#161616;"/>
	<path d="M3547.282,1678.625c0,0-1.173-0.228-3.149-0.622c-3.7-0.583-9.779-2.023-15.951-3.685  c-6.661-1.63-3.976-3.527-8.078-5.141c-1.52-0.598-12.912-1.74-12.96-1.787c-2.897-1.795-15.172,45.28-15.148,45.319  c3.598,4.826,5.086-6.637,5.259-6.944c0.003-0.024,0.003-0.047,0-0.071c0.181-0.323,1.228-1.992,1.236-2.008l0.677-0.984  c0,0,1.504-2.031,2.362-3.023c1.843-2.167,3.829-4.208,5.944-6.11c1.031-0.929,2.086-1.819,3.149-2.685  c2.146-1.75,4.388-3.38,6.716-4.881l0,0c0.701-0.449,1.394-0.882,2.086-1.283l0,0c0.685-0.402,1.362-0.787,2.031-1.142l0,0  c0.669-0.354,1.331-0.693,1.976-1l0,0c0.638-0.307,1.268-0.59,1.882-0.85l0,0c0.614-0.252,1.212-0.488,1.795-0.685l0,0  c0.583-0.197,1.142-0.378,1.685-0.52l0,0c0.543-0.142,1.063-0.26,1.575-0.339l0,0c0.469-0.078,0.942-0.129,1.417-0.15  c2.724-0.102,6.708,0.787,11.645,2.275l0.079-0.039l0.354-0.189l0.212-0.11l0.331-0.165l0.252-0.134l0.197-0.102l0.228-0.118  l0.189-0.102l0.22-0.118l0.173-0.102l0.22-0.126c0.049-0.039,0.102-0.073,0.157-0.102l0.22-0.142l0.126-0.087l0.315-0.236h0.039  l0.244-0.22l0.094-0.087l0.149-0.165l0.079-0.11l0.118-0.157l0.063-0.118C3547.755,1679.388,3547.259,1678.68,3547.282,1678.625z" style="fill:#F7CB14;"/>
	<path d="M3622.3,1414.293c-1.795-3.212-73.679,1.575-60.255,8.55c2.541,1.26,5.172,2.325,7.873,3.189  c5.346-0.205,1.417-0.055,0,0c3.425-0.134,11.739,0.504,20.809,0.693c13.141,0.268,27.879-0.417,31.635-5.771  C3621.221,1422.662,3621.134,1412.159,3622.3,1414.293z" style="fill:#D6293A;"/>
	<path d="M2797.042,1345.234c-1.457-0.435-3.012-0.682-4.637-0.682c-1.998,0-3.9,0.358-5.628,1.003  c-5.14,1.917-8.744,6.377-8.744,11.576c0,0.713,0.084,1.407,0.214,2.087c-4.828,0.992-10.707,1.963-15.218,1.963  c-9.21,0-22.769-4.051-22.769-4.051l7.765,25.371c0,0,7.585-6.822,19.097-12.792c5.205-2.699,10.145-4.088,14-4.803  c2.632,2.921,6.703,4.803,11.283,4.803c7.938,0,14.372-5.632,14.372-12.579c0-0.29-0.028-0.574-0.05-0.859  C2806.33,1351.125,2802.405,1346.835,2797.042,1345.234z" style="fill:#0DCC5A;"/>
	<path d="M2406.36,1298.468c8.36-0.944,16.473-0.801,19.543,1.31c6.388,4.392,7.969,25.773,8.168,28.919  l8.605,1.658l5.953-9.303c0,0,0.071-0.586,0.175-1.623c0.759-7.573,3.318-39.447-6.5-46.974c-11.163-8.558-29.04-2.605-34.241,4.093  c-1.306,1.682-1.952,4.647-2.193,8.138C2405.577,1288.945,2405.887,1293.988,2406.36,1298.468z" style="fill:#ED6D15;"/>
	<path d="M1439.919,1736.529c-4.191-4.14-6.783-9.844-6.783-16.144c0-5.492,1.975-10.524,5.259-14.464  c-3.131-2.177-6.929-3.461-11.031-3.461c-4.718,0-9.039,1.692-12.397,4.497c-4.252,3.551-6.961,8.888-6.961,14.861  c0,7.6,4.39,14.158,10.763,17.326l18.697-0.836C1438.328,1737.775,1439.152,1737.186,1439.919,1736.529z" style="fill:#0A0A0A;"/>
	<path d="M3665.107,1721.093c-0.402-0.971-0.901-1.9-1.488-2.771c-0.079-0.48-0.181-0.921-0.268-1.378  c-0.286-1.502-0.673-2.983-1.157-4.433c-0.454-1.353-1.012-2.67-1.669-3.937c-0.385-0.736-0.808-1.45-1.268-2.142  c-0.78-1.175-1.674-2.269-2.669-3.267c-0.055-0.055-0.11-0.118-0.173-0.173c-9.928-9.716-28.226-8.117-48.626-2.685  c-3.013,0.803-6.07,1.68-9.173,2.63c1.664,1.241,2.908,2.961,3.567,4.929c1.685,3.397,3.584,6.684,5.685,9.842l0.197-0.197  c0.724-0.787,3.701-1.213,3.937-1.213c0.055,0,4.031,2.945-1.394,4.724l-0.394,0.126c8.976,12.637,22.715,25.36,26.399-6.566  c0,0,0-0.055,0-0.087s0-0.039,0.063-0.055c9.385-7.283,18.77,3.008,24.014,6.582c0.638,0.433,1.244,0.882,1.819,1.339  C3664.713,1724.085,3665.973,1722.826,3665.107,1721.093z M3629.197,1718.731c-0.086,8.59-4.771,3.598-8.661-2.149  c-0.535-0.787-1.055-1.575-1.575-2.362l-0.331-0.535c-1.161-1.836-2.213-3.74-3.149-5.7c1.398-0.178,2.814-0.178,4.212,0  c4.929,0.701,8.07,3.984,9.448,9.889c0-1.055-0.04-1.693-0.047-2.047c-0.019,0.683-0.003,1.366,0.047,2.047  c0.042,0.278,0.06,0.554,0.055,0.827V1718.731z" style="fill:#D6293A;"/>
	<path d="M3785.868,1666.24c-0.122-0.022-0.246-0.035-0.37-0.039c-1.094,0-0.512,0,0,0  c-1.146-0.131-2.235-0.572-3.149-1.276c-0.22-0.15-0.433-0.315-0.646-0.48c-0.39-0.328-0.709-0.733-0.937-1.189  c0.037-0.079,0.079-0.155,0.126-0.228c0.685-1.055,1.929-2.685,0.646-3.275c-0.831-0.361-1.724-0.556-2.63-0.575  c0,0,0-0.047,0-0.063l0,0c-0.047-0.008-0.095-0.008-0.142,0h-0.669h-0.339h-0.047h-0.346l0,0h-0.307l0,0h-0.244h-0.087h-0.173  l-0.787,0.173l-0.323,0.079c-3.559,0.929-6.661,2.748-8.243,5.732c-1.212,2.283-1.527,5.236-0.48,8.976  c0.466,1.731,1.085,3.418,1.85,5.039c0.487,1.044,1.094,2.027,1.811,2.929c0.694,0.911,1.592,1.647,2.622,2.149l0,0  c0.186,0.09,0.378,0.166,0.575,0.228l0.189,0.055l0.441,0.102h0.189c0.196,0.03,0.393,0.048,0.591,0.055h0.055  c0.213,0,0.425,0,0.63,0h0.047c0.052,0.004,0.105,0.004,0.157,0c0.385-0.046,0.765-0.131,1.134-0.252l0.142-0.047l0.488-0.189  l0.157-0.071c0.207-0.089,0.41-0.188,0.606-0.299c0.068-0.035,0.134-0.074,0.197-0.118c0.955-0.569,1.835-1.254,2.622-2.039  c0.283-0.276,0.559-0.559,0.834-0.866c0.621-0.697,1.2-1.43,1.732-2.197c1.095-1.581,2.011-3.279,2.732-5.062l0.118-0.299  c0.142-0.386,0.268-0.787,0.386-1.126C3787.962,1669.098,3787.805,1666.563,3785.868,1666.24z" style="fill:#D6293A;"/>
	<path d="M2204.021,1375.645c0,0,9.274-12.933,21.64-15.519c12.366-2.587,25.761,7.76,25.761,7.76  L2204.021,1375.645z" style="fill:#BF1682;"/>
	<path d="M2357.41,1318.96c-0.556-4.101-4.02-7.11-8.075-7.199c-0.116-0.003-0.232-0.012-0.349-0.009  c-0.163,0.003-0.325,0.002-0.49,0.014l-10.184,0.795c-3.121,0.244-5.379,3.083-4.915,6.179l1.044,6.955l0.006,0.04  c0.625,0.381,1.22,0.783,1.771,1.209c1.217,0.941,2.175,2.104,2.927,3.413h19.741h0.069L2357.41,1318.96z" style="fill:#ED6D15;"/>
	<path d="M3540.251,1783.553c2.235,2.529,4.679,4.865,7.306,6.984c0.512,0.409,1.031,0.787,1.575,1.213  l0.465,0.354l1.134,0.835l0.496,0.362l1.228,0.85l0.354,0.244c0.543,0.37,1.086,0.724,1.63,1.071h0.055  c0.52,0.323,1.031,0.646,1.575,0.953l0.339,0.197c0.441,0.268,0.882,0.52,1.315,0.787l0.315,0.173  c1.087,0.606,2.165,1.173,3.205,1.677l0,0l17.754,3.094c0.787-1.85-1.354-2.787-4-3.197c-0.105-0.354-0.32-0.666-0.614-0.89  c-0.882-0.685-2.307-0.512-2.913-0.724c-0.606-0.213-5.472-5.464-11.668-12.196c-7.74-8.409-24.069-25.195-24.069-25.147  c-0.088,0.212-0.159,0.43-0.213,0.653c-0.493,2.178-0.903,4.278-1.228,6.299C3533.929,1769.105,3539.826,1783.072,3540.251,1783.553  z" style="fill:#0DCC5A;"/>
	<path d="M3187.496,291.499l-171.83,122.21v360h342v-359.68  L3187.496,291.499z M3040.276,606.279h-5.4v-21.6h5.4V606.279z M3104.916,378.409l17.82-12.21l3.05,4.45l-17.82,12.21  L3104.916,378.409z M3204.206,751.449h-21.6v-5.4h21.6V751.449z M3186.666,605.749c-35.13,0-63.61-28.47-63.61-63.6  s28.48-63.6,63.61-63.6c35.12,0,63.6,28.47,63.6,63.6S3221.786,605.749,3186.666,605.749z M3266.376,382.419l-17.81-12.2l3.05-4.46  l17.82,12.21L3266.376,382.419z M3335.766,606.279h-5.4v-21.6h5.4V606.279z" style="fill:#F9E712;stroke:#231F20;stroke-miterlimit:10;"/>
	<rect height="210.96" style="fill:#B71515;stroke:#231F20;stroke-miterlimit:10;" width="216" x="1078.621" y="1793.23"/>
	<path d="M2422.133,1313.055l-6.11,0.617c-1.094,0.11-2.08-0.695-2.191-1.789l-0.617-6.11  c-0.11-1.094,0.695-2.08,1.789-2.191l6.11-0.617c1.094-0.11,2.08,0.695,2.191,1.789l0.617,6.11  C2424.032,1311.959,2423.227,1312.945,2422.133,1313.055z" style="fill:#ED6D15;"/>
	<path d="M3726.653,1745.383c-4.307-7.873-8.527-15.605-12.094-22.093c-0.126-0.228-0.26-0.465-0.378-0.693  c-0.118-0.228-0.142-0.26-0.22-0.386c-0.079-0.126-0.071-0.142-0.11-0.213l-0.315-0.575l-0.228-0.409v-0.079l-1.528-2.771  c-0.897-1.638-1.74-3.149-2.488-4.527l-2.299-4.157c-0.001-0.026-0.001-0.052,0-0.079c-0.646-1.157-1.15-2.071-1.496-2.708v-0.047  l-0.535-0.968c-2.958,0.299-5.775,1.417-8.133,3.228c-4.874,3.606-8.771,9.952-11.81,17.92c-1.619,4.289-2.96,8.679-4.015,13.141  c-0.181,0.787-0.362,1.52-0.535,2.291c-0.063,0.276-0.126,0.551-0.181,0.827c-0.055,0.276-0.102,0.48-0.157,0.717  c-0.055,0.236-0.142,0.661-0.205,0.992c0,0.087,0,0.173-0.055,0.26s-0.063,0.26-0.087,0.394c-0.897,4.409-1.637,8.999-2.252,13.66  c-0.591,4.535-1.047,9.133-1.386,13.692l0,0c-0.094,1.173-0.173,2.362-0.244,3.496c-0.11,1.764-0.197,3.511-0.276,5.244  c-0.079,1.732-0.134,3.535-0.173,5.275c-0.338,14.085,5.842,12.739,9.306,0c6.85-25.155,14.172-86.079,50.145,0  c1.575,3.795,6.724,4.574,10.716,5.7c2.134,0.611,4.333,0.968,6.551,1.063c0.004-0.018,0.004-0.037,0-0.055  c-0.063-0.496-1.236-2.937-3.149-6.708c-1.016-1.984-2.236-4.33-3.63-6.96c-2.952-5.59-6.622-12.432-10.542-19.683  C3732.078,1755.35,3729.377,1750.327,3726.653,1745.383z" style="fill:#1B8FEF;"/>
	<path d="M2507.431,1660.642h-844.724c-4.677,0-8.504-3.827-8.504-8.504  l0,0c0-4.677,3.827-8.504,8.504-8.504h844.724c4.677,0,8.504,3.827,8.504,8.504l0,0  C2515.935,1656.815,2512.108,1660.642,2507.431,1660.642z" style="fill:#E22323;stroke:#000000;stroke-miterlimit:10;"/>
	<path d="M3798.198,1885.158h-0.26c-1.472,0.063-5.511,0.677-11.204,1.701  c-3.52,0.63-7.685,1.417-12.275,2.362l-1.504,0.307l-4.818,1c-3.33,0.701-6.811,1.441-10.385,2.228  c-7.873,1.74-16.164,3.693-24.218,5.755c-5.85,1.496-11.574,3.055-16.904,4.637c-6.566,1.953-12.534,3.937-17.424,5.889  c-11.023,4.393-16.479,8.605-10.802,11.81c0.189,0.11,0.394,0.213,0.606,0.323c3.039,1.496,6.929,2.22,11.401,2.362h0.543h0.22  c3.212,0.015,6.422-0.193,9.605-0.622c0.842-0.11,1.693-0.228,2.551-0.362c15.621-2.362,34.54-8.85,50.618-15.377  c4.897-1.984,9.535-3.984,13.731-5.874c3.275-1.472,6.299-2.89,8.944-4.181c1.26-0.622,2.457-1.213,3.551-1.772l0,0l0,0l0,0  c-0.425,0.213-0.275,0.118,0.252-0.205c0.528-0.323,1.283-0.787,2.22-1.37c2.811-1.764,6.905-4.535,8.062-6.448  c0.113-0.188,0.202-0.389,0.268-0.598C3801.3,1885.804,3800.568,1885.166,3798.198,1885.158z" style="fill:#D6293A;"/>
	<rect height="21.6" style="fill:#F79514;stroke:#231F20;stroke-miterlimit:10;" transform="matrix(6.123234e-17 -1 1 6.123234e-17 -799.641 3158.4968)" width="5.4" x="1176.728" y="1968.269"/>
	<polygon points="1214.548,585.66 1188.818,572.13 1163.078,585.66 1167.998,557   1147.168,536.71 1175.948,532.52 1188.818,506.45 1201.688,532.52 1230.458,536.71 1209.638,557 " style="opacity:0.84;fill:#F2F2F1;"/>
	<path d="M393.086,1685.618l-9.19-0.08v-3.13h5.09c0-2.25-2.2-4.11-5.09-4.45v-3.77c2.67,0.25,5.4,1.25,7,3.2  C393.986,1681.178,393.086,1685.618,393.086,1685.618z" style="fill:#0A0A0A;"/>
	<path d="M3710.843,1828.62c-3.228-0.992-8.039-1.016-12.597-0.496l-0.945,0.11  c-0.843,0.11-1.661,0.244-2.464,0.386c-1.079,0.189-2.11,0.401-3.071,0.638c-0.961,0.236-1.732,0.457-2.472,0.709  c-1.071,0.354-2.134-0.134-2.59,1.126c0.038,0.099,0.085,0.194,0.142,0.283c0.67,1.054,1.718,1.811,2.929,2.118  c1.574,0.165,2.252-0.906,3.716-0.74c0.543,0.063,5.188,1.63,5.724,1.693c5.803,0.653,6.645-1.189,10.031-0.787h0.323  c2.984,0.354,4.724,0.559,4.724,0.551C3715.473,1831.297,3713.843,1829.541,3710.843,1828.62z M3702.608,1830.69l-0.37,0.063  C3701.954,1830.557,3702.151,1830.557,3702.608,1830.69z" style="fill:#F7CB14;"/>
	<polygon points="1214.548,585.66 1188.818,572.13 1163.078,585.66 1167.998,557   1147.168,536.71 1175.948,532.52 1188.818,506.45 1201.688,532.52 1230.458,536.71 1209.638,557 " style="opacity:0.84;fill:#F2F2F1;"/>
	<path d="M643.987,249.91c-49.71,0-90,40.29-90,90c0,49.7,40.29,90,90,90  c49.7,0,90-40.3,90-90C733.987,290.2,693.688,249.91,643.987,249.91z M643.987,411.91c-39.77,0-72-32.24-72-72  c0-39.77,32.23-72,72-72c39.76,0,72,32.23,72,72C715.987,379.67,683.747,411.91,643.987,411.91z" style="fill:#0DCC5A;stroke:#231F20;stroke-miterlimit:10;"/>
	<path d="M3705.434,1632.629c-6.972,3.144-28.01,0.229-32.769-1.205c-6.95,2.171-35.614,0.526-35.776,1.055  c-2.967,3.11-30.273,18.689-34.958,21.266l0,0l0,0c0.85,9.102,70.073,8.007,79.883,22.108  C3699.86,1678.388,3708.694,1633.07,3705.434,1632.629z M3696.632,1662.642c-0.033,0.045-0.07,0.087-0.11,0.126l0.189-0.22  C3696.689,1662.582,3696.662,1662.614,3696.632,1662.642z" style="fill:#1B8FEF;"/>
	<path d="M2956.631,1490.556v-23.132h-27.041v34.86h-10.425v33.557l-9.774,0.326v-50.173l-25.737-0.326v24.109  h-21.828v16.615h-9.122v-47.565h-29.427v485.263h144v-473.534H2956.631z M2830.305,1500.082h-3.339v-4.163h3.339V1500.082z   M2836.457,1487.481h-3.339v-4.163h3.339V1487.481z M2842.609,1500.082h-3.339v-4.163h3.339V1500.082z M2842.609,1493.781h-3.339  v-4.163h3.339V1493.781z M2842.609,1487.481h-3.339v-4.163h3.339V1487.481z M2848.761,1493.781h-3.339v-4.163h3.339V1493.781z   M2869.965,1554.668h-3.083v-39.377h3.083V1554.668z M2881.327,1554.668h-3.083v-39.377h3.083V1554.668z M2887.008,1554.668h-3.083  v-39.377h3.083V1554.668z M2892.689,1554.668h-3.083v-39.377h3.083V1554.668z M2925.77,1556.132h-2.513v-4.898h2.513V1556.132z   M2925.77,1533.894h-2.513v-4.898h2.513V1533.894z M2925.77,1519.068h-2.513v-4.898h2.513V1519.068z M2925.77,1511.655h-2.513  v-4.898h2.513V1511.655z M2930.399,1548.719h-2.513v-4.898h2.513V1548.719z M2930.399,1511.655h-2.513v-4.898h2.513V1511.655z   M2935.028,1526.481h-2.513v-4.898h2.513V1526.481z M2935.028,1519.068h-2.513v-4.898h2.513V1519.068z M2936.643,1502.262h-2.871  v-4.84h2.871V1502.262z M2936.67,1495.524h-2.871v-9.68h2.871V1495.524z M2936.67,1483.946h-2.871v-9.68h2.871V1483.946z   M2939.657,1563.545h-2.513v-4.898h2.513V1563.545z M2939.657,1548.719h-2.513v-4.898h2.513V1548.719z M2939.657,1533.894h-2.513  v-4.898h2.513V1533.894z M2939.657,1519.068h-2.513v-4.898h2.513V1519.068z M2939.657,1511.655h-2.513v-4.898h2.513V1511.655z   M2941.932,1502.262h-2.871v-4.84h2.871V1502.262z M2941.959,1483.946h-2.871v-9.68h2.871V1483.946z M2947.222,1502.262h-2.871  v-4.84h2.871V1502.262z M2947.249,1495.524h-2.871v-9.68h2.871V1495.524z M2952.511,1502.262h-2.871v-4.84h2.871V1502.262z   M2952.538,1495.524h-2.871v-9.68h2.871V1495.524z M2952.538,1483.946h-2.871v-9.68h2.871V1483.946z" style="fill:#0A0A0A;"/>
	<path d="M2427.654,1417.939c4.3,6.093,12.254,10.186,21.361,10.186c7.453,0,14.131-2.743,18.67-7.078  c-4.027-6.51-8.524-12.635-13.49-17.853C2450.817,1409.74,2440.872,1415.149,2427.654,1417.939z" style="fill:#F7CB14;"/>
	<path d="M1466.69,2315.454c-12.256,0-22.191,11.531-22.191,25.755c0,14.224,9.935,25.756,22.191,25.756  s22.191-11.531,22.191-25.756C1488.881,2326.985,1478.946,2315.454,1466.69,2315.454z" style="fill:#BF1682;"/>
	<path d="M393.086,1685.618l-9.19-0.08v-3.13h5.09c0-2.25-2.2-4.11-5.09-4.45v-3.77c2.67,0.25,5.4,1.25,7,3.2  C393.986,1681.178,393.086,1685.618,393.086,1685.618z" style="fill:#0A0A0A;"/>
	<path d="M3854.689,1595.703c-5.96-11.125-18.565-24.455-33.068-37.572l-0.425-0.402  c-3.622-3.393-5.637-6.582-6.677-9.542c-0.047-0.134-0.102-0.276-0.142-0.409c-1.378-4.275-0.787-8.047,0-11.204  c0.559-2.456,1.165-4.527,0.921-6.173c0,0,0-0.039,0-0.055l0,0c0-0.134-0.047-0.26-0.079-0.386l-0.047-0.15  c-0.036-0.124-0.081-0.245-0.134-0.362l0,0v-0.055c-0.066-0.133-0.139-0.262-0.221-0.386l-0.079-0.118  c-0.071-0.102-0.15-0.197-0.236-0.299l-0.063-0.071l0,0c-0.116-0.121-0.24-0.234-0.37-0.339l0,0l-0.079-0.055  c-0.115-0.092-0.236-0.176-0.362-0.252h-0.047l-0.071-0.047l-0.551-0.283l-0.134-0.055l-0.535-0.213l-0.157-0.055l0,0  c-0.236-0.079-0.48-0.157-0.787-0.228h-0.11c-0.236-0.063-0.496-0.118-0.787-0.173l-0.268-0.055l-0.976-0.165  c-3.362-0.48-8.417-0.52-15.896-0.079c-1.116,0.417-2.323,0.528-3.496,0.323c0.283,0.126-1.433,0.543-4.071,1.118  c-2.451,0.595-4.827,1.461-7.086,2.582c-6.865,3.299-13.526,8.503-14.668,11.023c-5.244,11.731-15.51,34.013-22.471,49.382  c0.04,0.228-4.503,9.983-5.039,11.212c-1.575,3.574-2.362,5.566-2.063,5.149c3.149,3.008,7.511,3.637,12.487,2.921  c1.766-0.265,3.512-0.646,5.228-1.142c4.847-2.286,9.874-4.169,15.03-5.629l4.425-1.866c4.663-2.078,9.474-3.807,14.393-5.173  c2.065-0.579,4.254-0.544,6.299,0.102c7.621,2.551,10.7,14.392,13.204,25.084c7.747,8.755,12.731,2.401,18.053,2.89  C3857.492,1627.503,3863.373,1611.89,3854.689,1595.703z" style="fill:#0DCC5A;"/>
	<path d="M3958.263,1627.621c-0.103-1.622-0.22-3.22-0.37-4.771c-1.969-2.332-13.015-13.058-16.841-14.896  c-3.177,5.155-5.338,10.657-7.102,16.487c1.361,3.671,3.882,9.275,3.882,9.275c-0.551,10.954,2.037,20.017,7.763,27.187  c-0.22,1.331-0.428,2.669-0.646,4.016l0,0c-3.992,24.762-18.676,80.78-22.313,82.213c-6.79,22.33-21.591,70.438-23.211,102.739  c1.362,1.15,2.953-0.512,4.669-3.937c8.372-20.432,24.47-79.269,24.47-79.269  C3932.308,1732.248,3954.874,1666.228,3958.263,1627.621z" style="fill:#1B8FEF;"/>
	<path d="M3443.425,1499.947c-5.622,7.944,7.794,21.376,12.597,19.242  c53.649-19.628,29.328-45.524,41.886-58.893c0.174-0.276,0.398-0.516,0.661-0.709c3.425-3.559,27.423-16.825,31.084-19.683  c-0.693-1.228,3.937-38.91,93.606-31.95c5.511-1.008,5.826,13.188,16.534,19.431c18.195-3.685,32.595-28.187,39.445-32.604  c27.761-21.534,51.248-27.336,52.972-33.344c0.173-0.59,20.809-14.172,10.196-20.471c-10.235-6.078-70.671-3.559-77.631,10.818  c-7.22,14.896-25.273,26.077-29.793,23.998c-0.614-0.276-8.661-6.692-15.416-4.433c-0.546,0.177-1.073,0.407-1.575,0.685  l-0.433,0.165c-3.488,1.937-7.74,3.551-8.897,3.519l-0.134,0.055h-0.142c-3.748,1.425-7.322,2.724-10.495,3.811l-0.197,0.142  c-0.386,0.268-0.748,0.543-1.102,0.787c-2.086,1.85-3.937,4.409-4.724,4.724c-1.128,0.728-2.345,1.307-3.622,1.724  c-0.579,0.266-1.177,0.493-1.787,0.677l-0.614,0.173c-1.693,0.646-4.354,1.409-4.842,1.323c0,0-31.604,7.495-39.162,11.023  c0.055,0-25.943,14.818-61.483,30.32c-2.142,0.913-33.367,24.801-32.69,40.477l0,0c0.018,0.116,0.05,0.23,0.094,0.339  L3443.425,1499.947z" style="fill:#F7CB14;"/>
	<path d="M1593.675,2722.501l-14.638-19.572c-1.77-2.366-2.705-5.253-2.66-8.208l3.456-223.841  c0.073-4.727-0.76-9.425-2.454-13.839l-14.144-36.855c-4.099,5.444-11.108,9.084-19.125,9.296l16.22,29.796  c1.699,3.121,2.252,6.725,1.559,10.21c-3.091,15.55-9.861,37.574-11.043,75.465c-0.989,31.699,9.292,116.133,11.436,148.704  c0.431,6.542,3.166,12.703,7.72,17.418l11.691,13.139c2.619,2.711,5.227,4.243,8.998,4.243  C1593.759,2728.457,1595.512,2724.957,1593.675,2722.501z" style="fill:#161616;"/>
	<path d="M2482.917,1451.802c-11.247-27.963-31.391-64.191-60.438-64.823  c-33.028-0.718-48.998,21.396-56.712,42.148c4.212-0.243,8.673-0.231,13.433,0.101c88.619,6.183,85.528,116.442,85.528,116.442  h11.335C2476.062,1545.67,2470.277,1494.322,2482.917,1451.802z" style="fill:#F464BA;"/>
	<path d="M2319.882,1356.997l-1.26-16.374c-0.094-1.228,0.821-2.302,2.049-2.402l6.334-0.52  c1.278-0.105,2.436,0.755,2.706,2.009l3.369,15.689L2319.882,1356.997z" style="fill:#ED6D15;"/>
	<path d="M4571.694,1617.674c-79.529,0-144,64.471-144,144c0,79.529,64.471,144,144,144  c71.625,0,131.01-52.301,142.112-120.791c0.935-7.446,1.586-15.201,1.885-23.328  C4715.626,1682.082,4651.183,1617.674,4571.694,1617.674z M4576.542,1872.865c-71.965,0-107.418-50.169-110.244-103.557  c-3.478-65.702,43.731-102.41,92.215-103.016c48.148-0.602,84.1,29.583,87.267,81.85c2.407,39.722-27.783,76.426-70.071,77.696  c-36.371,1.092-65.791-25.904-65.791-62.291c0-30.148,24.22-58.188,54.368-58.188c24.844,0,47.222,17.694,47.222,42.538  c0,15.969-12.058,35.631-26.287,40.75c-16.309,5.867-34.901-2.634-40.797-18.933c-6.125-16.931,6.331-32.862,22.437-32.862  c5.184,0,9.899,2.127,12.939,5.836c1.855,2.264,3.843,6.075,2.781,11.366c-0.057,0.283-0.289,0.839-0.671,1.424  c-0.997,1.489-3.229,0.81-3.533-0.45l0,0c-1.099-3.999-4.723-6.954-9.071-6.954c-4.648,0-8.491,3.364-9.278,7.787l-0.019-0.004  c-1.463,8.183,1.945,13.211,4.107,15.48c4.697,4.929,11.613,6.008,16.522,5.374c12.626-1.635,18.915-11.224,20.464-18.939  c1.935-9.644-0.504-19.505-6.69-27.056c-6.642-8.106-16.684-12.755-27.552-12.755c-23.664,0-42.916,19.252-42.916,42.916  c0,26.921,21.902,48.823,48.823,48.823c30.754,0,55.603-25.02,55.773-55.772c0.227-41.007-29.06-69.188-64.315-69.792  c-50.169-0.859-81.962,31.793-82.392,79.842c-0.418,46.802,33.978,90.345,93.243,92.057c46.792,1.351,85.58-31.162,100.508-81.263  c0.627-2.106,3.775-1.438,3.45,0.735C4669.966,1836.064,4629.533,1872.865,4576.542,1872.865z" style="fill:#E5B51A;"/>
	<path d="M2454.196,1403.195c-9.023-9.479-19.593-15.953-31.718-16.216  c-24.771-0.539-39.942,11.769-49.237,26.709c8.719,3.892,20.716,6.298,33.963,6.298c7.312,0,14.24-0.736,20.45-2.047  C2440.872,1415.149,2450.817,1409.74,2454.196,1403.195z" style="fill:#1B8FEF;"/>
	<path d="M903.995,1483.94c-0.666,0.406-1.426,0.649-2.225,0.649h-6.082c-0.473,0-0.934-0.085-1.369-0.236  l10.918,161.866h7.244L903.995,1483.94z" style="fill:#0A0A0A;"/>
	<rect height="21.6" style="fill:#F79514;stroke:#231F20;stroke-miterlimit:10;" width="5.4" x="754.133" y="2179.196"/>
	<path d="M901.769,1484.59c0.799,0,1.559-0.244,2.225-0.649c0.42-0.256,0.811-0.563,1.125-0.957  c2.268-2.847,6.825-9.132,9.002-16.007c-11.334-0.864-21.84-2.923-30.565-5.175c0.594,4.558,1.359,8.748,2.296,10.622  c1.764,3.528,4.742,7.966,6.426,10.388c0.507,0.729,1.225,1.259,2.041,1.543c0.435,0.151,0.895,0.236,1.369,0.236H901.769z" style="fill:#BF1682;"/>
	<path d="M906.752,1886.016l-171.83,122.21v360h342v-359.68h1.8  L906.752,1886.016z M905.922,2200.266c-35.13,0-63.61-28.47-63.61-63.6c0-35.13,28.48-63.6,63.61-63.6c35.12,0,63.6,28.47,63.6,63.6  C969.522,2171.796,941.042,2200.266,905.922,2200.266z" style="fill:#282828;stroke:#231F20;stroke-miterlimit:10;"/>
	<path d="M2541.44,1336.487c0,0-42.708-22.67-60.226-22.67c-17.518,0-25.761,22.67-25.761,22.67H2541.44z" style="fill:#0DCC5A;"/>
	<path d="M1663.531,2370.255l-39.949-40.583c-1.255,7.692-4.747,14.342-9.564,18.908l32.244,24.535  c5.019,3.819,7.753,9.927,7.257,16.214l-23.769,301.681c-0.351,4.458,3.172,8.27,7.644,8.27h18.762c3.388,0,6.652-1.276,9.142-3.574  l0,0c1.855-1.712,0.943-4.809-1.545-5.241l-15.631-2.719c-4.532-0.788-7.692-4.933-7.253-9.512l28.103-292.637  C1669.517,2379.929,1667.524,2374.312,1663.531,2370.255z" style="fill:#161616;"/>
	<path d="M2861.783,1292.877c0,0,3.411-14.416-10.233-12.284c-13.645,2.132-3.411,16.695-3.411,16.695  s-9.807,13.153-17.909,21.569c-5.572,5.788-21.832,11.954-31.444,15.24c-0.601,3.522-1.217,7.549-1.743,11.137  c5.362,1.601,9.288,5.891,9.686,11.037c5.572-6.379,13.372-15.906,19.664-25.878c11.086-17.57,27.716-23.79,27.716-23.79  s27.289,20.041,28.569-1.867C2883.955,1282.829,2861.783,1292.877,2861.783,1292.877z" style="fill:#F464BA;"/>
	<path d="M4042.413,108.617l-36.024-0.708l-294.991,0.342h-36.031  l-36.031,62.408l36.031,62.408h36.031l292.538-0.366l36.024,0.708l37.251-61.688L4042.413,108.617z M4052.667,163.792l2.95,5.43  l-4.634,1.196C4051.699,168.274,4052.267,166.062,4052.667,163.792z M3979.089,126.869c0.805-0.777,1.637-1.525,2.505-2.233  l30.697,0.015l-17.15,23.477c-4.548-4.451-10.033-7.947-16.143-10.144c0.546-1.819,0.848-3.743,0.848-5.74  C3979.845,130.379,3979.571,128.581,3979.089,126.869z M4008.383,175.636c1.767-0.517,3.631-0.807,5.565-0.807  c3.578,0,6.932,0.95,9.828,2.609l-15.192,3.92c0.012-0.414,0.029-0.827,0.029-1.245  C4008.613,178.602,4008.529,177.11,4008.383,175.636z M4008.385,184.548l18.608-4.802c2.202,1.932,3.978,4.34,5.154,7.07  c-6.889,5.589-15.665,8.944-25.227,8.944c-0.38,0-0.755-0.018-1.132-0.029C4007.107,192.192,4007.996,188.444,4008.385,184.548z   M4006.88,181.798l-9.82,2.534c2.237-3.664,5.627-6.544,9.677-8.13c0.116,1.289,0.182,2.592,0.182,3.912  C4006.919,180.679,4006.902,181.239,4006.88,181.798z M3971.958,136.107c0.618-1.1,1.284-2.169,2-3.202  c-0.057,1.201-0.256,2.365-0.594,3.469C3972.899,136.273,3972.427,136.194,3971.958,136.107z M3972.756,137.971  c-0.885,1.982-2.22,3.716-3.867,5.086c0.617-1.86,1.366-3.658,2.238-5.386C3971.673,137.764,3972.218,137.857,3972.756,137.971z   M3971.732,124.631c0.091,0.14,0.172,0.287,0.257,0.43c-2.725,3.105-5.048,6.57-6.874,10.324c-0.422-0.012-0.841-0.035-1.266-0.035  c-3.673,0-7.24,0.452-10.656,1.287c-0.703-4.428-2.427-8.516-4.922-12.018L3971.732,124.631z M3953.396,138.328  c3.348-0.835,6.848-1.284,10.454-1.284c0.168,0,0.333,0.011,0.501,0.013c-1.276,2.912-2.27,5.976-2.929,9.163  c-0.495,0.053-0.994,0.089-1.503,0.089c-2.385,0-4.629-0.598-6.597-1.646c0.144-1.16,0.226-2.339,0.226-3.539  C3953.548,140.18,3953.486,139.25,3953.396,138.328z M3951.81,141.125c0,0.847-0.043,1.683-0.12,2.51  c-1.373-0.994-2.553-2.232-3.492-3.645c1.145-0.447,2.312-0.847,3.502-1.196C3951.767,139.562,3951.81,140.338,3951.81,141.125z   M3947.238,126.19c2.166,3.208,3.659,6.908,4.267,10.899c-1.418,0.406-2.806,0.88-4.163,1.418c-0.945-1.886-1.489-4.008-1.489-6.263  C3945.853,130.073,3946.358,128.025,3947.238,126.19z M3950.38,149.742c-1.294,3.79-3.41,7.2-6.142,10.011  c-2.045-1.438-4.237-2.678-6.555-3.688c-1.004-2.449-2.271-4.763-3.757-6.912c2.665-2.576,5.659-4.811,8.916-6.635  C3944.667,145.543,3947.271,148.045,3950.38,149.742z M3886.366,198.949c-2.593-1.572-4.963-3.474-7.039-5.662  c1.121-2.476,1.942-5.117,2.402-7.881c1.158-0.231,2.353-0.359,3.578-0.359c0.146,0,0.287,0.019,0.432,0.022  c-0.244,1.727-0.378,3.488-0.378,5.282C3885.363,193.312,3885.717,196.187,3886.366,198.949z M3886.284,182.111  c-0.215-0.006-0.426-0.032-0.642-0.032c-1.213,0-2.4,0.103-3.559,0.294c0.052-0.747,0.085-1.499,0.085-2.259  c0-5.003-1.172-9.724-3.22-13.941l2.024-4.183c0.668-1.061,1.223-2.198,1.645-3.4l9.834-20.327c1.43-0.511,2.902-0.933,4.413-1.251  c-0.194,1.343-0.3,2.716-0.3,4.113c0,6.675,2.302,12.81,6.147,17.666C3894.51,164.011,3888.485,172.333,3886.284,182.111z   M3873.83,185.566c-0.779-1.504-1.437-3.079-1.987-4.704l3.929-8.121c0.789,2.521,1.219,5.2,1.219,7.982  c0,1.099-0.087,2.175-0.216,3.239C3875.748,184.421,3874.766,184.961,3873.83,185.566z M3876.096,187.563  c-0.109,0.413-0.247,0.813-0.375,1.218c-0.154-0.231-0.301-0.467-0.45-0.702C3875.542,187.901,3875.816,187.727,3876.096,187.563z   M3863.636,186.112l-16.013-16.013c3.046-0.837,5.895-2.149,8.444-3.879c2.899,2.324,6.573,3.722,10.578,3.722  c0.195,0,0.387-0.01,0.58-0.017c0,0.006,0,0.011,0,0.017c0,2.482,0.257,4.903,0.729,7.245L3863.636,186.112z M3864.289,199.465  c-0.289,1.398-0.451,2.841-0.458,4.323c-1.28,0.759-2.626,1.42-4.029,1.964l3.513-7.262L3864.289,199.465z M3868.179,137.662  c4.239,0.419,7.964,2.562,10.49,5.709c-3.527,3.34-6.389,7.371-8.368,11.881c-1.123-0.912-2.304-1.758-3.547-2.513  c1.196-3.147,1.857-6.558,1.857-10.125C3868.612,140.925,3868.461,139.27,3868.179,137.662z M3870.12,168.023  c0.092-1.541,0.286-3.054,0.577-4.532c0.851,1.015,1.627,2.093,2.323,3.226l-0.186,0.385  C3871.966,167.484,3871.062,167.802,3870.12,168.023z M3871.868,169.097l-1.707,3.528c-0.064-0.849-0.108-1.704-0.108-2.57  c0-0.158,0.01-0.314,0.012-0.472C3870.679,169.453,3871.281,169.288,3871.868,169.097z M3868.329,161.003  c-0.598,2.38-0.96,4.852-1.065,7.391c-0.207,0.008-0.409,0.035-0.619,0.035c-3.493,0-6.704-1.175-9.29-3.133  c2.694-2.055,5.018-4.571,6.837-7.441C3865.676,158.767,3867.057,159.827,3868.329,161.003z M3862.524,150.584  c-3.265-1.368-6.806-2.208-10.515-2.42c1.691-5.112,5.977-9.035,11.304-10.21c0.33,1.576,0.512,3.207,0.512,4.882  C3863.825,145.55,3863.364,148.155,3862.524,150.584z M3859.992,155.761c-1.569,2.41-3.564,4.515-5.877,6.214  c-1.646-2.296-2.67-5.058-2.846-8.054C3854.339,154.047,3857.273,154.689,3859.992,155.761z M3852.868,162.833  c-2.7,1.729-5.774,2.92-9.073,3.438l-8.124-8.124c4.073-2.618,8.899-4.165,14.083-4.243  C3849.929,157.225,3851.052,160.289,3852.868,162.833z M3870.176,184.308c0.426,0.996,0.881,1.978,1.39,2.927  c-1.228,1.039-2.337,2.213-3.31,3.496l-0.8-0.8L3870.176,184.308z M3873.075,189.782c0.465,0.719,0.947,1.425,1.46,2.108  c-0.528,1.148-1.143,2.247-1.82,3.301l-2.351-2.351C3871.163,191.726,3872.062,190.693,3873.075,189.782z M3875.792,160.989  c-0.986-1.316-2.058-2.563-3.229-3.714c1.775-4.337,4.425-8.22,7.732-11.434c0.535,1.018,0.958,2.103,1.259,3.237L3875.792,160.989z   M3881.433,144.784c1.108-0.983,2.284-1.89,3.515-2.721l-2.443,5.05C3882.201,146.307,3881.847,145.527,3881.433,144.784z   M3932.929,166.696l-1.993-4.966c2.159,0.613,4.222,1.453,6.15,2.514c0.041,0.238,0.088,0.474,0.125,0.713  C3935.846,165.653,3934.416,166.237,3932.929,166.696z M3937.435,166.793c0.103,1.074,0.16,2.161,0.16,3.261  c0,2.267-0.235,4.476-0.661,6.617l-3.356-8.362C3934.906,167.893,3936.198,167.391,3937.435,166.793z M3929.873,153.662  c0.638-0.819,1.299-1.62,1.994-2.39c0.726,1.082,1.404,2.2,2.004,3.366C3932.57,154.234,3931.229,153.924,3929.873,153.662z   M3927.977,153.335c-0.141-0.02-0.286-0.028-0.428-0.046l-4.363-10.869c2.932,2.064,5.531,4.572,7.677,7.442  C3929.844,150.97,3928.88,152.128,3927.977,153.335z M3925.406,160.702c0.379,0.034,0.753,0.082,1.127,0.129l2.694,6.711  c-1.36,0.214-2.75,0.337-4.17,0.337c-0.833,0-1.654-0.05-2.467-0.125C3923.322,165.303,3924.27,162.947,3925.406,160.702z   M3920.886,167.551c-3.917-0.614-7.553-2.074-10.712-4.193c3.823-1.785,8.084-2.788,12.581-2.788c0.269,0,0.534,0.018,0.802,0.026  C3922.479,162.817,3921.589,165.144,3920.886,167.551z M3923.382,152.982c-0.21-0.004-0.415-0.023-0.626-0.023  c-6.751,0-13.078,1.798-18.545,4.928c-3.693-4.587-5.908-10.414-5.908-16.761c0-1.515,0.132-2.998,0.374-4.443  c1.679-0.257,3.396-0.397,5.147-0.397c5.039,0,9.81,1.116,14.1,3.098L3923.382,152.982z M3908.418,164.247  c3.493,2.518,7.577,4.265,12.005,4.991c-0.87,3.483-1.338,7.124-1.338,10.876c0,6.352,1.331,12.391,3.717,17.864  c-4.467,3.042-9.698,5.046-15.35,5.65c-0.11-9.069-5.756-16.794-13.711-19.98C3895.666,175.289,3901.101,168.274,3908.418,164.247z   M3907.303,206.372c6.129-0.578,11.813-2.675,16.685-5.898c0.413,0.807,0.851,1.598,1.311,2.376l-18.186,4.693  C3907.179,207.153,3907.259,206.768,3907.303,206.372z M3924.208,196.972c-2.206-5.178-3.428-10.875-3.428-16.858  c0-3.682,0.464-7.255,1.334-10.667c0.969,0.1,1.947,0.169,2.943,0.169c1.649,0,3.265-0.141,4.837-0.41l5.326,13.27  C3932.927,188.261,3929.093,193.268,3924.208,196.972z M3936.665,186.073l5.035,12.545l-14.677,3.787  c-0.575-0.949-1.128-1.912-1.63-2.907C3930.156,196.017,3934.034,191.408,3936.665,186.073z M3941.509,124.616  c-0.975,2.35-1.519,4.925-1.519,7.628c0,3.154,0.741,6.132,2.046,8.783c-3.329,1.862-6.393,4.138-9.128,6.756  c-3.104-4.073-7.047-7.466-11.561-9.944l-5.312-13.235L3941.509,124.616z M3911.99,124.602l4.403,10.969  c-3.918-1.439-8.151-2.228-12.571-2.228c-1.506,0-2.988,0.1-4.447,0.277c0.969-3.321,2.563-6.372,4.649-9.022L3911.99,124.602z   M3899.063,124.596l2.793,0.001c-1.979,2.773-3.478,5.912-4.364,9.3c-1.119,0.196-2.212,0.46-3.294,0.754L3899.063,124.596z   M3893.399,124.593l-6.169,12.752c-2.686,1.37-5.19,3.046-7.442,5.01c-2.87-3.528-7.125-5.885-11.944-6.224  c-1.003-4.304-2.957-8.242-5.664-11.553L3893.399,124.593z M3855.246,124.575c3.67,3.048,6.402,7.184,7.713,11.91  c-5.983,1.33-10.773,5.817-12.525,11.629c-0.091-0.001-0.181-0.007-0.272-0.007c-6.929,0-13.338,2.21-18.576,5.954l-12.371-12.371  l22.671-17.122L3855.246,124.575z M3835.011,171.009c0,3.69-1.266,7.077-3.372,9.777c-2.235-2.285-4.843-4.2-7.716-5.671  c0.556-2.613,1.492-5.086,2.748-7.357c2.568,1.372,5.363,2.373,8.323,2.908C3834.997,170.781,3835.011,170.893,3835.011,171.009z   M3818.89,186.93c-2.729-0.033-5.292-0.753-7.526-1.994c0.936-2.496,1.644-5.104,2.076-7.805c1.651,0.253,3.238,0.689,4.763,1.254  c-0.03,0.572-0.048,1.148-0.048,1.728C3818.156,182.454,3818.413,184.733,3818.89,186.93z M3808.286,149.944l3.667-2.769  c0.454,2.815,1.312,5.495,2.526,7.97c-1.079,0.315-2.115,0.73-3.092,1.245C3810.542,154.138,3809.498,151.986,3808.286,149.944z   M3811.148,185.506c2.341,1.284,5.025,2.019,7.88,2.028c0.378,1.591,0.879,3.134,1.484,4.623l-9.419-6.521  C3811.111,185.592,3811.132,185.55,3811.148,185.506z M3818.936,173.099c-1.616-0.483-3.29-0.833-5.009-1.036  c0.016-0.467,0.034-0.933,0.034-1.404c0-4.809-0.849-9.416-2.381-13.698c0.999-0.535,2.064-0.96,3.176-1.275  c1.807,3.496,4.321,6.563,7.345,9.028C3820.673,167.31,3819.601,170.127,3818.936,173.099z M3824.961,124.56l8.114,0.004  l-15.857,11.976C3818.524,131.784,3821.269,127.622,3824.961,124.56z M3818.028,124.557c-2.496,3.047-4.344,6.631-5.405,10.541  l-10.548-10.548L3818.028,124.557z M3789.366,124.544l18.818,18.818l-2.907,2.195c-3.757-4.781-8.553-8.707-14.059-11.418  c-0.501-3.468-1.686-6.715-3.419-9.596L3789.366,124.544z M3780.891,204.393c-1.409,0.317-2.847,0.556-4.315,0.695  c-0.067-9.337-5.951-17.288-14.209-20.413c-0.003-0.015-0.007-0.029-0.01-0.044l20.817-15.722l11.147,7.717  c-8.161,5.283-13.571,14.45-13.571,24.897C3780.75,202.492,3780.8,203.449,3780.891,204.393z M3762.586,185.949  c7.544,3.132,12.856,10.552,12.888,19.222c-0.729,0.046-1.462,0.077-2.203,0.077c-4.106,0-8.044-0.72-11.698-2.033  c0.985-3.48,1.52-7.149,1.52-10.944C3763.093,190.119,3762.914,188.009,3762.586,185.949z M3802.672,172.888  c-2.225,0.601-4.34,1.466-6.326,2.538l-11.374-7.875l18.401-13.897c1.216,2.152,2.214,4.443,2.953,6.849  c-2.354,2.856-3.768,6.515-3.768,10.505C3802.558,171.645,3802.602,172.27,3802.672,172.888z M3798.512,179.529l6.611,4.577  c-3.732,8.827-11.011,15.786-20.066,19.068c-0.036-0.546-0.061-1.095-0.061-1.65  C3784.997,191.915,3790.497,183.604,3798.512,179.529z M3800.807,178.514c1.004-0.387,2.03-0.73,3.092-0.984  c0.589,1.368,1.361,2.637,2.279,3.786c-0.08,0.248-0.176,0.49-0.262,0.735L3800.807,178.514z M3804.5,177.399  c0.91-0.194,1.837-0.345,2.781-0.436c-0.228,1.238-0.538,2.445-0.894,3.633C3805.642,179.611,3805.002,178.543,3804.5,177.399z   M3803.255,172.737c-0.061-0.568-0.097-1.144-0.097-1.728c0-3.698,1.271-7.092,3.386-9.795c0.851,3.004,1.317,6.169,1.317,9.446  c0,0.439-0.015,0.875-0.031,1.311C3806.266,172.106,3804.739,172.369,3803.255,172.737z M3791.28,141.125  c3.507,2.143,6.596,4.897,9.13,8.109l-20.037,15.133l-4.156-2.877C3784.272,157.859,3790.137,150.228,3791.28,141.125z   M3780.58,138.17c0,8.276-6.709,14.985-14.985,14.985c-0.525,0-1.04-0.037-1.55-0.092l-3.158-2.186  c0.129-1.064,0.219-2.14,0.219-3.239c0-3.074-0.512-6.026-1.449-8.782c4.178-1.791,8.779-2.786,13.613-2.786  c2.485,0,4.907,0.268,7.244,0.766C3780.553,137.276,3780.58,137.72,3780.58,138.17z M3759.417,124.529l12.368,0.006  c2.71,1.233,4.984,3.251,6.543,5.758c-1.658-0.206-3.343-0.324-5.056-0.324c-5.765,0-11.246,1.206-16.215,3.368  c-0.957-1.553-2.059-3.007-3.297-4.334C3755.247,127.086,3757.183,125.542,3759.417,124.529z M3757.518,147.637  c0,0.298-0.021,0.589-0.034,0.883l-5.295-3.666c-0.194-0.388-0.376-0.782-0.536-1.188c1.483-1.19,3.066-2.259,4.735-3.195  C3757.107,142.735,3757.518,145.135,3757.518,147.637z M3751.832,132.244c0.718,0.842,1.363,1.747,1.96,2.684  c-1.068,0.583-2.105,1.215-3.112,1.888C3750.825,135.206,3751.218,133.668,3751.832,132.244z M3728.262,124.514l10.996,0.005  c1.206,0.286,2.372,0.675,3.499,1.137c-1.708,3.189-2.77,6.776-3.007,10.588l-15.194-10.519  C3725.747,125.225,3726.984,124.816,3728.262,124.514z M3739.74,138.838c0.094,2.457,0.518,4.828,1.247,7.065  c-1.981,2.579-3.658,5.402-4.982,8.417c-4.09-1.406-8.475-2.18-13.043-2.18c-4.222,0-8.288,0.659-12.109,1.87  c-0.563-2.029-0.871-4.164-0.871-6.372c0-8.992,5.002-16.803,12.368-20.839L3739.74,138.838z M3742.664,186.768  c-1.971-3.741-3.281-7.884-3.766-12.277c1.334-0.255,2.639-0.592,3.897-1.033c2.804,2.954,4.95,6.536,6.218,10.509  C3746.729,184.563,3744.594,185.52,3742.664,186.768z M3749.332,185.047c0.212,0.774,0.379,1.567,0.524,2.367l-4.606,3.478  c-0.733-1.014-1.432-2.055-2.053-3.147C3745.057,186.532,3747.125,185.62,3749.332,185.047z M3740.375,194.573l-5.663,4.277  c0.833-2.583,2.138-4.955,3.84-6.991C3739.124,192.79,3739.735,193.693,3740.375,194.573z M3738.682,170.66  c0-0.24,0.013-0.478,0.018-0.717c0.334,0.236,0.676,0.462,0.999,0.713c-0.332,0.085-0.672,0.155-1.011,0.227  C3738.688,170.808,3738.682,170.735,3738.682,170.66z M3732.599,171.352c-5.609-0.27-10.713-2.461-14.644-5.959  c1.625-0.301,3.296-0.467,5.007-0.467c3.462,0,6.762,0.664,9.809,1.84c-0.122,1.282-0.19,2.58-0.19,3.893  C3732.581,170.892,3732.594,171.121,3732.599,171.352z M3719.042,124.509l0.053,0.036c-7.632,4.854-12.7,13.378-12.7,23.093  c0,2.644,0.383,5.197,1.082,7.616c-0.987,0.414-1.948,0.878-2.894,1.366l-6.764-11.716l8.795-20.401L3719.042,124.509z   M3698.853,160.226c-0.229,0.172-0.467,0.331-0.692,0.508c-1.452-1.86-3.151-3.516-5.042-4.931l1.36-3.154L3698.853,160.226z   M3702.628,124.501l-7.092,16.451l-9.503-16.459L3702.628,124.501z M3681.97,130.985l10.227,17.713l-2.198,5.099  c-3.765-2.067-8.084-3.25-12.683-3.25c-2.155,0-4.248,0.264-6.253,0.751L3681.97,130.985z M3657.01,173.466  c-1.683,2.657-5.202,3.446-7.859,1.762c-2.657-1.683-3.446-5.202-1.762-7.859c1.683-2.657,5.202-3.446,7.859-1.762  S3658.694,170.809,3657.01,173.466z M3672.448,194.508l-12.051-23.349l9.422-17.546c2.364-0.758,4.882-1.171,7.497-1.171  c4.332,0,8.398,1.13,11.929,3.101L3672.448,194.508z M3675.655,200.72c1.49-3.138,4.047-5.664,7.211-7.109  c0.079,2.414,0.367,4.775,0.854,7.063c-2.042,0.551-4.187,0.849-6.403,0.849c-0.424,0-0.845-0.011-1.264-0.032L3675.655,200.72z   M3684.397,217.659l-7.353-14.247c0.091,0.001,0.181,0.007,0.272,0.007c2.367,0,4.659-0.316,6.841-0.899  c1.482,5.625,4.152,10.766,7.729,15.139H3684.397z M3683.018,188.444c-1.817,0.583-3.506,1.437-5.046,2.495l14.373-33.34  c1.625,1.262,3.092,2.717,4.355,4.342C3689.115,168.515,3684.018,177.88,3683.018,188.444z M3701.77,174.995  c0.053,0.656,0.087,1.318,0.087,1.988c0,4.711-1.33,9.111-3.632,12.848c-0.761-0.409-1.56-0.752-2.377-1.059  C3696.511,183.585,3698.622,178.852,3701.77,174.995z M3703.167,211.123c-3.904-4.098-6.546-9.403-7.312-15.301  c0.39-0.382,0.768-0.777,1.134-1.184c4.066,2.63,6.764,7.195,6.764,12.398C3703.752,208.456,3703.541,209.824,3703.167,211.123z   M3710.927,216.813c-1.364-0.67-2.669-1.442-3.893-2.322c0.95-2.298,1.481-4.813,1.481-7.454c0-6.765-3.441-12.723-8.666-16.228  c2.474-4.023,3.903-8.757,3.903-13.826c0-1.318-0.1-2.613-0.286-3.879c0.585-0.595,1.205-1.156,1.842-1.695l19.961,34.573  L3710.927,216.813z M3718.623,217.66l9.324-7.042l4.066,7.042H3718.623z M3730.709,201.873l-19.731-34.176  c0.95-0.464,1.93-0.875,2.938-1.229c4.784,5.037,11.461,8.251,18.895,8.502c0.605,5.738,2.409,11.116,5.147,15.888  c-2.23,2.574-3.852,5.678-4.698,9.088L3730.709,201.873z M3738.243,214.923l-4.446-7.701c-0.031-0.32-0.056-0.642-0.075-0.965  l10.057-7.595c1.382,1.457,2.864,2.818,4.449,4.057C3746.163,207.705,3742.659,211.937,3738.243,214.923z M3750.01,196.258  c-0.458-0.417-0.889-0.862-1.324-1.303l1.563-1.18C3750.201,194.612,3750.128,195.442,3750.01,196.258z M3751.204,163.765  c-2.819-2.793-6.053-5.164-9.596-7.028c0.697-1.583,1.51-3.103,2.427-4.551c2.395,3.597,5.654,6.569,9.495,8.596  C3752.829,161.835,3752.06,162.84,3751.204,163.765z M3756.867,162.254c2.727,0.976,5.665,1.512,8.728,1.512  c2.875,0,5.639-0.469,8.222-1.334l4.756,3.293l-17.716,13.38c-1.628-4.684-4.085-8.98-7.218-12.693  C3754.844,165.135,3755.924,163.741,3756.867,162.254z M3754.038,217.659c2.163-2.645,3.993-5.572,5.431-8.715  c4.31,1.554,8.956,2.405,13.802,2.405c0.438,0,0.871-0.019,1.305-0.033c-0.701,2.314-1.806,4.445-3.212,6.343H3754.038z   M3772.742,217.659c1.322-1.931,2.341-4.084,2.996-6.391c2.169-0.13,4.29-0.438,6.354-0.895c0.812,2.602,1.979,5.046,3.433,7.286  L3772.742,217.659L3772.742,217.659z M3820,217.659h-28.989c-2.113-2.441-3.754-5.299-4.783-8.436  c10.666-3.581,19.349-11.46,24.007-21.578l12.204,8.449c0.023,0.041,0.043,0.084,0.067,0.124c-2.797,3.487-4.479,7.905-4.479,12.727  C3818.028,212.066,3818.749,215.013,3820,217.659z M3819.788,155.117c0.055,0.002,0.11,0.01,0.165,0.013l5.129,5.129  c-0.147,0.185-0.304,0.362-0.446,0.55C3822.74,159.176,3821.091,157.267,3819.788,155.117z M3823.341,181.01  c1.514,1.015,2.92,2.18,4.174,3.495c-1.122,0.703-2.34,1.264-3.625,1.675C3823.544,184.509,3823.359,182.78,3823.341,181.01z   M3824.026,186.768c1.39-0.439,2.703-1.051,3.909-1.818c1.334,1.468,2.489,3.1,3.443,4.856c-1.893,0.7-3.651,1.676-5.233,2.871  C3825.218,190.82,3824.502,188.84,3824.026,186.768z M3829.375,216.349c-1.649-2.018-2.64-4.595-2.64-7.405  c0-2.028,0.523-3.93,1.431-5.592c1.659,1.571,3.48,2.971,5.445,4.161C3832.794,210.76,3831.333,213.752,3829.375,216.349z   M3834.344,201.732l-2.999-2.076c0.842-0.643,1.766-1.185,2.764-1.585c0.159,1.128,0.243,2.28,0.243,3.452  C3834.352,201.593,3834.345,201.662,3834.344,201.732z M3846.256,217.659h-10.936c1.513-2.33,2.709-4.885,3.526-7.604  c1.953,0.738,3.999,1.284,6.112,1.629l3.836,2.656C3848.143,215.591,3847.298,216.725,3846.256,217.659z M3849.634,212.318  l-0.325-0.225c0.134,0.003,0.266,0.012,0.4,0.014C3849.689,212.18,3849.656,212.247,3849.634,212.318z M3839.82,205.484  c0.174-1.297,0.276-2.616,0.276-3.96c0-1.429-0.104-2.834-0.3-4.209c5.375,0.617,9.635,4.868,10.274,10.235  C3846.438,207.538,3842.977,206.803,3839.82,205.484z M3838.448,188.523c-0.448,0-0.886,0.039-1.327,0.067  c-1.317-2.708-3.026-5.189-5.065-7.361c2.22-2.814,3.556-6.358,3.556-10.221c0-0.077-0.01-0.153-0.012-0.23l23.894,23.894  l-2.652,5.482C3853.56,193.282,3846.573,188.523,3838.448,188.523z M3867.908,217.659h-10.561l-0.35-0.242  c0.92-2.009,1.538-4.184,1.766-6.476c1.955-0.544,3.831-1.275,5.616-2.162c0.74,3.236,2.2,6.195,4.203,8.706L3867.908,217.659z   M3871.709,216.678c-2.335-2.579-3.972-5.815-4.607-9.415c1.013-0.633,1.982-1.33,2.914-2.069l9.476,9.476L3871.709,216.678z   M3880.07,217.659l1.918-0.495l0.495,0.495H3880.07z M3889.59,212.065l-13.386-13.386c0.644-0.902,1.253-1.831,1.803-2.799  c2.751,2.738,5.939,5.034,9.444,6.79c1.098,3.148,2.617,6.094,4.469,8.794L3889.59,212.065z M3895.184,217.659l-3.1-3.1l1.807-0.466  c1.036,1.258,2.145,2.454,3.334,3.566H3895.184z M3903.218,208.548l-3.326,0.858c-0.908-1.087-1.749-2.232-2.497-3.443  c2.025,0.359,4.103,0.562,6.228,0.573C3903.528,207.221,3903.384,207.889,3903.218,208.548z M3895.717,202.833  c-1.756-3.797-2.742-8.023-2.742-12.481c0-1.182,0.077-2.346,0.211-3.493c6.255,3.006,10.601,9.459,10.634,16.966  C3901.024,203.824,3898.313,203.474,3895.717,202.833z M3934.641,217.659h-23.771c-2.14-0.933-4.151-2.106-5.994-3.492  c0.555-1.041,1.013-2.138,1.397-3.27l20.763-5.358c2.849,4.119,6.358,7.746,10.395,10.703  C3936.526,216.757,3935.602,217.241,3934.641,217.659z M3939.006,215.285c-3.955-2.798-7.399-6.257-10.212-10.199l14.047-3.625  l3.044,7.583C3943.927,211.46,3941.618,213.579,3939.006,215.285z M3948.287,217.659c0.259-0.242,0.505-0.496,0.756-0.745  l0.299,0.745H3948.287z M3948.441,205.343l-1.938-4.827l4.645-1.199C3950.477,201.444,3949.549,203.453,3948.441,205.343z   M3952.005,195.959l-6.641,1.714l-6.668-16.613c1.118-3.506,1.728-7.24,1.728-11.118c0-1.256-0.087-2.491-0.213-3.714  c7.466,5.411,12.326,14.197,12.326,24.123C3952.535,192.269,3952.351,194.143,3952.005,195.959z M3953.385,217.659l-0.548-1.365  l1.869,1.365H3953.385z M3945.653,160.799c2.782-2.91,4.952-6.41,6.307-10.291c2.439,1.064,5.127,1.663,7.957,1.663  c0.23,0,0.455-0.019,0.683-0.026c-0.088,1.17-0.148,2.348-0.148,3.541c0,10.312,3.37,19.827,9.057,27.529l-7.406,10.138l-2.133,0.55  c0.113-1.169,0.177-2.353,0.177-3.552C3960.147,178.329,3954.468,167.64,3945.653,160.799z M3984.943,217.66l-22.893-0.001  l16.949-23.202c0,0.06-0.005,0.12-0.005,0.18c0,8.307,2.903,15.932,7.743,21.93C3986.146,216.941,3985.553,217.315,3984.943,217.66z   M3973.483,177.774c-4.194-6.331-6.637-13.922-6.637-22.087c0-1.653,0.112-3.279,0.306-4.879c5.142-2.01,9.244-6.094,11.28-11.226  c5.954,2.142,11.294,5.562,15.701,9.924L3973.483,177.774z M3995.336,187.915l11.292-2.914c-0.426,3.71-1.318,7.277-2.621,10.642  c-3.41-0.245-6.699-0.925-9.82-1.97C3994.284,191.659,3994.684,189.726,3995.336,187.915z M3995.055,200.604  c1.957,0.515,3.961,0.911,6.01,1.169c-0.928,1.59-1.961,3.112-3.078,4.565C3996.721,204.614,3995.714,202.69,3995.055,200.604z   M4013.948,214.448c-5.935,0-11.247-2.624-14.877-6.759c1.415-1.805,2.711-3.708,3.84-5.72c1.322,0.113,2.657,0.183,4.008,0.183  c9.979,0,19.219-3.148,26.789-8.503c0.016,0.33,0.05,0.655,0.05,0.989C4033.758,205.579,4024.888,214.448,4013.948,214.448z   M4041.309,172.914c-6.402-8.054-16.272-13.226-27.36-13.226c-3.331,0-6.55,0.476-9.602,1.346c-0.12-0.255-0.254-0.502-0.379-0.755  l26.021-35.62l1.411,0.001l15.509,28.537c0.051,0.824,0.085,1.653,0.085,2.49c0,5.964-1.313,11.617-3.651,16.703L4041.309,172.914z   M4047.643,185.355c-0.434-1.578-0.972-3.113-1.613-4.593c1.392-2.169,2.597-4.467,3.62-6.862l5.693-1.469L4047.643,185.355z" style="fill:#0A0A0A;stroke:#000000;stroke-miterlimit:10;"/>
	<path d="M1408.666,2346.492c3.44,3.037,7.623,4.835,12.148,4.835c3.343,0,6.492-1,9.303-2.733  c-5.634-14.664-8.798-31.021-8.798-48.286c0,0-0.102-0.708-0.288-2.087c-0.073-0.001-0.144-0.014-0.217-0.014  c-9.435,0-17.421,7.758-20.148,18.466c-0.65,2.553-1.008,5.27-1.008,8.094C1399.657,2333.756,1403.223,2341.686,1408.666,2346.492z" style="fill:#BF1682;"/>
	<path d="M3926.329,1656.69c-0.598-1.307-1.953-2.464-1.638-3.708c0.732-2.89-1.016-2.449-1.441-3.574  c-0.11-0.299-3.59,1.063-4.582,3.937c-4.685,13.841-20.093,30.903-20.723,26.179c-0.236-1.795,0.654-5.669-2.409-4.724  c-0.236,0.079-16.778,9.85-26.36,26.769c-1.779,3.149-3.622,6.299-5.511,9.519c-2.669,4.574-5.393,9.172-8.094,13.676  c-9.889,16.534-19.361,31.879-23.896,40.154c-1.882,3.441-2.929,5.669-2.779,6.236l-0.228,0.913  c-0.961,2.047-4.913,6.645-10.023,12.282l-4.724,6.299h-1.047c-11.637,12.597-25.36,27.234-25.518,30.989  c0-0.339-6.236,4.818-12.896,11.66c-0.732,0.74-1.464,1.512-2.189,2.291s-1.291,1.401-1.929,2.118  c-2.758,3.025-5.287,6.252-7.566,9.653c-5.149,7.921-6.551,15.007,2.897,16.613c3.59,0.614,6.818,1.047,9.763,1.331  c24.014,2.362,27.911-9.755,37.217-13.55c10.542-4.307,13.896,7.574,19.636,16.006c0.787,1.134,1.575,2.276,2.472,3.409  c0.993,1.294,2.063,2.527,3.204,3.693c3.403,3.45,6.979,6.725,10.716,9.81c16.345,13.456,25.793,21.132,25.439-1.118  c0-1.527,1.63-4.511,3.417-7.708c0.614-1.118,1.244-2.252,1.835-3.362c0.95-1.679,1.703-3.463,2.244-5.315  c1.441-5.984,2.858-5.614,5.275-11.259c0.401-0.937,0.787-2.039,1.291-3.37c1.409-1.252,2.362-1.622,2.929-1.37l1.315-3.842  c0.149-1.181,0.283-2.362,0.433-3.504c1.087-8.881,2.071-17.526,3.071-25.667c5.125-21.187,12.896-47.768,15.81-57.578l1.157-3.874  c3.22-1.26,16.156-50.665,19.683-72.513l0,0c0.071-0.417,0.134-0.787,0.197-1.22c0.126-0.787,0.252-1.575,0.378-2.323  C3928.126,1674.313,3925.851,1666.327,3926.329,1656.69z" style="fill:#0DCC5A;"/>
	<rect height="21.6" style="fill:#F79514;stroke:#231F20;stroke-miterlimit:10;" width="5.4" x="358.427" y="2273.037"/>
	<path d="M1652.795,1287.894c0-2.224-0.096-4.427-0.279-6.607c-0.762-9.074-3.08-17.735-6.705-25.748  l-8.24,12.89l-4.771,7.463c0,0-5.303-2.392-11.604-6.56l-4.154,16.075c0,0-9.514,2.081-25.57-7.136s-16.141-18.713-16.141-18.713  l6.684-9.437c-2.783,1.666-5.801,3.221-8.383,3.971c-2.64,0.767-5.23,1.222-7.435,1.492l3.625,5.331c0,0-3.385,12.271-13.964,17.772  c-10.579,5.501-23.696,2.962-23.696,2.962l-17.383-44.338c-6,2.173-11.268,3.496-11.268,3.496l-0.32-0.468l-4.574-6.694  c-7.06,7.635-12.652,16.5-16.371,26.209c-3.354,8.756-5.186,18.197-5.186,28.041c0,3.068,0.183,6.095,0.529,9.076  c1.74,14.991,7.734,28.778,16.828,40.267c6.522,8.239,14.636,15.295,23.913,20.767c-0.179-14.886-0.109-26.877-0.109-26.877  c0-15.181,9.652-27.488,21.559-27.488s21.559,12.307,21.559,27.488c0,0-0.096,21.101-0.107,39.37  c1.226,0.048,2.457,0.081,3.695,0.081c9.855,0,19.332-1.527,28.177-4.343C1627.812,1355.186,1652.795,1324.285,1652.795,1287.894z" style="fill:#F2F2F1;"/>
	<path d="M2339.147,1330.355c-0.12-0.208-0.254-0.406-0.384-0.607c-0.688-1.06-1.519-2.015-2.543-2.805  c-0.552-0.426-1.146-0.828-1.771-1.209c-0.019-0.012-0.037-0.025-0.057-0.036c-4.889-2.956-11.842-4.465-18.418-3.698  c-0.439,0.051-0.876,0.113-1.31,0.184c-0.006,0.001-0.013,0.002-0.019,0.003c-0.427,0.071-0.852,0.152-1.274,0.243  c-0.017,0.004-0.034,0.008-0.051,0.011c-0.41,0.09-0.818,0.189-1.222,0.298c-0.03,0.008-0.059,0.017-0.089,0.025  c-0.39,0.107-0.777,0.223-1.16,0.349c-0.045,0.015-0.089,0.031-0.134,0.046c-0.367,0.123-0.73,0.254-1.089,0.395  c-0.062,0.024-0.122,0.051-0.183,0.075c-0.34,0.137-0.677,0.281-1.01,0.435c-0.078,0.036-0.154,0.076-0.232,0.113  c-0.312,0.149-0.622,0.303-0.926,0.468c-0.094,0.051-0.185,0.106-0.279,0.159c-0.285,0.16-0.567,0.323-0.844,0.496  c-0.107,0.067-0.209,0.14-0.315,0.209c-0.257,0.169-0.514,0.339-0.763,0.52c-0.12,0.087-0.234,0.181-0.352,0.271  c-0.229,0.175-0.457,0.349-0.678,0.535c-0.13,0.109-0.254,0.228-0.381,0.341c-0.201,0.179-0.403,0.356-0.597,0.545  c-0.121,0.118-0.235,0.245-0.353,0.367c-0.016,0.016-0.032,0.033-0.047,0.049c-0.175,0.182-0.352,0.361-0.521,0.551  c-0.143,0.162-0.277,0.336-0.416,0.505c-0.148,0.181-0.3,0.357-0.443,0.546c-0.149,0.198-0.288,0.409-0.431,0.616  c-0.12,0.174-0.245,0.341-0.36,0.52c-0.159,0.249-0.306,0.512-0.455,0.773c-0.087,0.151-0.18,0.295-0.263,0.45  c-0.226,0.423-0.44,0.859-0.64,1.311c-0.256,0.58-0.481,1.153-0.69,1.723c-0.05,0.137-0.098,0.273-0.145,0.409  c-0.178,0.508-0.343,1.012-0.487,1.511c-0.015,0.053-0.033,0.107-0.048,0.16c-0.223,0.788-0.391,1.56-0.537,2.323  c-0.078,0.408-0.159,0.817-0.217,1.217c-1.124,7.785,1.471,14.017,3.095,17.014c0.674,1.245,1.185,1.945,1.185,1.945l38.375-4.743  c0,0,0.596-2.052,1.119-5.086C2341.715,1344.508,2342.41,1336.039,2339.147,1330.355z" style="fill:#E5B51A;"/>
	<rect height="21.6" style="fill:#F79514;stroke:#231F20;stroke-miterlimit:10;" width="29.183" x="1049.464" y="2175.567"/>
	<path d="M2200.854,1433.208c3.144,3.497,8.137,5.769,13.778,5.769c3.728,0,7.169-0.998,9.989-2.676  c-2.466-5.662-5.255-10.7-8.415-14.872C2213.678,1426.784,2208.046,1431.093,2200.854,1433.208z" style="fill:#F7CB14;"/>
	<path d="M1503.191,1240.339l0.32,0.468c0,0,5.269-1.323,11.268-3.496l-11.268-28.742  c0,0,2.622-6.629,9.392-9.591c0.914-0.4,1.831-0.714,2.735-0.968l-2.22-7.221l-53.959-58.208c0,0-6.244-0.595-12.785,4.46  c-6.541,5.055-6.541,11.001-6.541,11.001l41.696,61.03l16.789,24.574L1503.191,1240.339z" style="fill:#BF1682;"/>
	<rect height="21.6" style="fill:#F79514;stroke:#231F20;stroke-miterlimit:10;" width="5.4" x="1049.617" y="2175.849"/>
	<path d="M2321.979,1414.889c-5.201-11.823-13.13-20.8-25.217-19.667  c-13.919,1.305-23.122,17.163-29.183,38.874c3.043,0.353,6.194,0.54,9.423,0.54c15.594,0,29.378-4.334,37.781-10.971  C2318.088,1421.055,2320.557,1418.089,2321.979,1414.889z" style="fill:#F7CB14;"/>
	<path d="M2678.442,1301.619c1.93-1.706,3.124-4.054,3.124-6.647c0-5.212-4.817-9.437-10.758-9.437  c-5.942,0-10.758,4.225-10.758,9.437c0,4.798,4.084,8.75,9.367,9.349c0.258,1.827,0.35,4.406-0.528,6.84  c-1.59,4.409-7.364,9.012-7.364,9.012l18.388,2.482l-2.278-19.148C2677.637,1303.507,2678.004,1302.772,2678.442,1301.619z" style="fill:#F464BA;"/>
	<path d="M2277.773,1329.1c-2.267,0-4.105-1.838-4.105-4.105s1.838-4.105,4.105-4.105s4.105,1.838,4.105,4.105  S2280.04,1329.1,2277.773,1329.1z" style="fill:#E22323;"/>
	<path d="M643.987,1091.941c-37.41,0-67.75,30.33-67.75,67.75  c0,37.41,30.34,67.75,67.75,67.75c37.42,0,67.75-30.34,67.75-67.75C711.737,1122.271,681.407,1091.941,643.987,1091.941z   M588.138,1168.431h-4.25v-18h4.25V1168.431z M652.737,1219.791h-18v-4.25h18V1219.791z M653.247,1103.841h-18v-4.26h18V1103.841z   M699.837,1168.941v-18h4.26v18H699.837z" style="fill:#0DCC5A;stroke:#231F20;stroke-miterlimit:10;"/>
	<path d="M1438.395,1705.92c2.02-2.424,4.533-4.436,7.392-5.884c-1.609-3.418-2.521-7.228-2.521-11.259  c0-3.214,0.6-6.28,1.647-9.131c-2.007-0.584-4.11-0.921-6.291-0.921c-13.158,0-23.825,11.333-23.825,25.314  c0,0.988,0.066,1.958,0.17,2.916c3.359-2.805,7.679-4.497,12.397-4.497C1431.466,1702.459,1435.264,1703.744,1438.395,1705.92z" style="fill:#E5B51A;"/>
	<path d="M3857.241,291.499l-171.83,122.21v360h342v-359.68  L3857.241,291.499z M3710.021,606.279h-5.4v-21.6h5.4V606.279z M3774.661,378.409l17.82-12.21l3.05,4.45l-17.82,12.21  L3774.661,378.409z M3873.951,751.449h-21.6v-5.4h21.6V751.449z M3936.121,382.419l-17.81-12.2l3.05-4.46l17.82,12.21  L3936.121,382.419z M4005.511,606.279h-5.4v-21.6h5.4V606.279z" style="fill:#F2F2F2;stroke:#231F20;stroke-miterlimit:10;"/>
	<path d="M2243.439,1327.989c0,2.909-2.358,5.267-5.267,5.267c-2.909,0-5.267-2.358-5.267-5.267  c0-2.909,2.358-5.267,5.267-5.267C2241.081,1322.722,2243.439,1325.08,2243.439,1327.989z" style="fill:#2D88E2;"/>
	<path d="M2267.729,1298.588c0,4.726-3.831,8.557-8.557,8.557c-4.726,0-8.557-3.831-8.557-8.557  c0-4.726,3.831-8.557,8.557-8.557C2263.898,1290.031,2267.729,1293.862,2267.729,1298.588z" style="fill:#E5B51A;"/>
	<path d="M1532.118,2311.711c0-4.802-4.487-8.695-10.021-8.695s-10.021,3.893-10.021,8.695l16.131,156.436  c0.022,0.211,0.025,0.424,0.009,0.635l-16.091,213.047c-0.032,0.423,0.012,0.848,0.129,1.256l12.308,42.786  c0.584,2.031,2.795,3.113,4.758,2.328l0,0c1.617-0.647,2.531-2.365,2.165-4.067l-9.269-43.054c-0.078-0.364-0.099-0.738-0.062-1.109  l21.56-214.426c0.021-0.208,0.024-0.418,0.008-0.627L1532.118,2311.711z" style="fill:#161616;"/>
	<path d="M1526.661,1197.442l1.089,1.602l-7.34-45.057c0,0,5.947-7.136,11.893-8.92  c0.331-0.099,0.674-0.178,1.02-0.247l-34.32-54.428c0,0-4.46-1.156-8.028,0c-3.568,1.156-6.244,7.103-6.244,7.103l28.686,93.292  l2.22,7.221C1521.431,1196.38,1526.661,1197.442,1526.661,1197.442z" style="fill:#161616;"/>
	<path d="M2204.021,1375.645c0,0,9.274-12.933,21.64-15.519c12.366-2.587,25.761,7.76,25.761,7.76  L2204.021,1375.645z" style="fill:#BF1682;"/>
	<path d="M367.736,1696.068h-4.63l-0.11-4.53c0,0,0,1.76-2.78,3.7c-1.07,0.73-2.52,1.1-4.11,1.15v-4.75  c3.98-0.61,4.87-4.29,4.87-7.07c0-2.62-1.66-5.04-4.87-5.61v-4.82c3.63,0.49,6.89,2.71,6.89,2.71l0.05-2.34l4.11,0.05  L367.736,1696.068z" style="fill:#0A0A0A;"/>
	<path d="M1561.233,1370.498c-0.007,10.858,0.016,20.716,0.107,24.548c0.006,0.269,0.007,0.576,0.005,0.911  c1.48,3.097,2.735,5.459,3.584,6.585c2.765,3.67,5.989,12.664,8.106,19.204c0.751,2.32,0.244,4.801-1.146,6.804  c-1.313,1.89-2.079,4.188-2.065,6.668c0.035,6.131,5.034,11.309,11.16,11.548c6.631,0.258,12.087-5.041,12.087-11.615  c0-2.176-0.6-4.21-1.642-5.95c-1.112-1.857-1.674-3.991-1.417-6.141c1.091-9.124,2.982-25.883,3.059-32.982  c0.059-5.523,0.053-15.771,0.036-23.843c-8.845,2.816-18.321,4.343-28.177,4.343  C1563.689,1370.579,1562.459,1370.546,1561.233,1370.498z" style="fill:#161616;"/>
	<path d="M1698.476,1366.915c18.874-7.844,20.845-17.894,20.845-17.894l-1.766-3.047  c-1.408-3.764-10.08-4.158-20.869-1.407c-8.861-2.349-19.72-9.451-26.653-13.718c-11.669-7.182-30.098-28.737-30.098-28.737  s-12.994,6.344-18.74,13.526c-5.746,7.182-7.582,26.83-7.582,26.83c0.023,0.449,18.615,6.854,28.275,9.39  c6.409,1.683,20.618,4.126,26.603,6.759c-2.614,2.582-3.823,5.008-3.122,6.882l0.797,3.964l0,0  C1666.167,1369.463,1679.602,1374.759,1698.476,1366.915z" style="fill:#161616;"/>
	<path d="M1636.188,1203.951l15.457-11.674l31.403-77.537c0,0-0.594-2.676-2.676-3.271s-5.947,0-5.947,0  l-41.222,50.756l-3.651,37.523C1633.023,1201.041,1635.048,1202.672,1636.188,1203.951z" style="fill:#BF1682;"/>
	<path d="M3540.251,1783.553c2.235,2.529,4.679,4.865,7.306,6.984c0.512,0.409,1.031,0.787,1.575,1.213  l0.465,0.354l1.134,0.835l0.496,0.362l1.228,0.85l0.354,0.244c0.543,0.37,1.086,0.724,1.63,1.071h0.055  c0.52,0.323,1.031,0.646,1.575,0.953l0.339,0.197c0.441,0.268,0.882,0.52,1.315,0.787l0.315,0.173  c1.087,0.606,2.165,1.173,3.205,1.677l0,0l17.754,3.094c0.787-1.85-1.354-2.787-4-3.197c-0.105-0.354-0.32-0.666-0.614-0.89  c-0.882-0.685-2.307-0.512-2.913-0.724c-0.606-0.213-5.472-5.464-11.668-12.196c-7.74-8.409-24.069-25.195-24.069-25.147  c-0.088,0.212-0.159,0.43-0.213,0.653c-0.493,2.178-0.903,4.278-1.228,6.299C3533.929,1769.105,3539.826,1783.072,3540.251,1783.553  z" style="fill:#0DCC5A;"/>
	<path d="M2383.321,1349.883c0,0-0.012-9.079-6.173-16.236c-4.005-4.653-10.602-8.495-21.508-8.495  c-7.62,0-13.028,1.879-16.878,4.596c0.13,0.201,0.265,0.399,0.384,0.607c0.186,0.323,0.355,0.658,0.516,0.999  c0.05,0.106,0.096,0.214,0.143,0.321c0.108,0.244,0.212,0.491,0.308,0.742c0.046,0.12,0.092,0.24,0.135,0.361  c0.096,0.268,0.186,0.541,0.27,0.816c0.029,0.095,0.061,0.189,0.089,0.285c0.106,0.368,0.203,0.742,0.289,1.12  c0.02,0.088,0.036,0.177,0.055,0.265c0.064,0.297,0.124,0.596,0.176,0.898c0.023,0.132,0.044,0.264,0.065,0.397  c0.043,0.271,0.082,0.544,0.116,0.818c0.016,0.128,0.033,0.256,0.048,0.385c0.038,0.34,0.071,0.682,0.097,1.024  c0.004,0.054,0.01,0.107,0.014,0.161c0.029,0.398,0.049,0.796,0.064,1.194c0.004,0.113,0.006,0.226,0.009,0.339  c0.008,0.293,0.013,0.586,0.014,0.878c0,0.126,0,0.251,0,0.376c-0.002,0.304-0.007,0.606-0.016,0.907  c-0.003,0.093-0.004,0.187-0.007,0.28c-0.014,0.401-0.033,0.8-0.057,1.193c0,0.005-0.001,0.009-0.001,0.014  c-0.024,0.388-0.054,0.771-0.086,1.149c-0.007,0.079-0.014,0.156-0.021,0.234c-0.029,0.32-0.061,0.636-0.095,0.948  c-0.007,0.065-0.014,0.13-0.021,0.194c-0.131,1.155-0.292,2.245-0.462,3.229v0.001L2383.321,1349.883L2383.321,1349.883z" style="fill:#0DCC5A;"/>
	<path d="M1584.611,1227.987l4.64,11.917l28.594-40.368c0,0,3.937-2.483,11.138,0  c0.199,0.069,0.378,0.143,0.569,0.214l3.651-37.523l6.732-69.191c0,0-2.379-1.784-5.352-2.379c-2.973-0.595-6.541,0-6.541,0  l-19.597,56.114l-13.522,38.719L1584.611,1227.987z" style="fill:#161616;"/>
	<path d="M3776.184,1780.813c-4.565,0.684-9.165,1.102-13.778,1.252c-3.282,0.414-6.608,0.31-9.857-0.307  c-0.315-0.047-0.606-0.102-0.858-0.157c1.323,2.519,2.496,4.763,3.464,6.661c1.85,3.598,2.968,5.929,3.031,6.409  c0,0-1.299,4.26-1.291,4.267c0.378,1.354,1.866,5.378,5.59,5.448c3.596-5.107,7.741-9.803,12.361-14.007  c0.787-0.709,1.575-1.417,2.362-2.118C3782.002,1783.994,3780.916,1781.608,3776.184,1780.813z M3761.453,1794.032  c-0.086,0.014-0.174,0.014-0.26,0C3760.752,1793.63,3761.697,1793.961,3761.453,1794.032L3761.453,1794.032z M3764.02,1797.78  c0-0.055,0-0.094,0-0.142s0.071,0.126,0.11,0.189L3764.02,1797.78z" style="fill:#F7CB14;"/>
	<path d="M2310.843,1348.21h-2.56c-2.824,0-5.135-2.311-5.135-5.135l0,0c0-2.824,2.311-5.135,5.135-5.135h2.56  c2.824,0,5.135,2.311,5.135,5.135l0,0C2315.978,1345.899,2313.667,1348.21,2310.843,1348.21z" style="fill:#0DCC5A;"/>
	<path d="M2149.376,1345.805l11.371-0.842c0.234-0.017,0.457-0.066,0.679-0.116  c-0.721-3.809-2.46-13.573-3.074-22.199c-0.215,0.106-0.427,0.227-0.633,0.371l-1.81,1.259l-3.177,2.21  c-1.126,0.783-2.539,1.035-3.867,0.689c-3.248-0.847-6.311,1.888-5.834,5.211l1.35,9.402c0.127,0.882,0.498,1.669,1.029,2.313  C2146.349,1345.242,2147.802,1345.922,2149.376,1345.805z" style="fill:#ED6D15;"/>
	<path d="M1512.356,2391.755c0-6.082-4.909-11.012-10.965-11.012c-6.056,0-10.965,4.93-10.965,11.012  l-8.687,85.56c-0.296,2.919-0.366,5.857-0.208,8.787l10.048,185.996c0.105,1.936,0.064,3.877-0.122,5.806l-3.834,39.805  c-0.307,3.185,1.69,6.139,4.759,7.042l0,0c2.38,0.7,4.844-0.805,5.307-3.242l7.35-38.661c0.258-1.357,0.378-2.737,0.357-4.119  l-2.869-192.017c-0.059-3.956,0.131-7.912,0.569-11.845L1512.356,2391.755z" style="fill:#161616;"/>
	<path d="M2216.207,1421.429c-6.048-7.987-13.445-12.811-22.491-12.811c-13.389,0-20.777,8.482-24.856,17.845  c4.884,4.947,12.865,8.173,21.89,8.173c3.574,0,6.983-0.51,10.104-1.428C2208.046,1431.093,2213.678,1426.784,2216.207,1421.429z" style="fill:#1B8FEF;"/>
	<path d="M3277.809,1073.337c-85.411,0-154.65,69.239-154.65,154.65  c0,85.411,69.239,154.65,154.65,154.65c85.411,0,154.65-69.239,154.65-154.65S3363.22,1073.337,3277.809,1073.337z   M3277.809,1091.657c32.5,0,62.338,11.38,85.763,30.362h-171.526C3215.471,1103.037,3245.309,1091.657,3277.809,1091.657z   M3258.685,1178.137l14.215,14.215h-20.948l19.968,19.968c-3.666,1.872-6.506,5.115-7.85,9.058l-21.433-21.433v20.916  l-13.337-13.337L3258.685,1178.137z M3239.891,1180.292c3.424-2.777,7.164-5.176,11.148-7.158l-9.153,9.153L3239.891,1180.292z   M3325.93,1207.089l-13.347,13.347v-18.437l-18.62,18.62c-1.604-4.021-4.79-7.233-8.796-8.866l19.401-19.401h-19.457l13.042-13.042  L3325.93,1207.089z M3302.129,1171.98c5.109,2.258,9.852,5.192,14.098,8.71l-2.694,2.694L3302.129,1171.98z M3298.797,1276.017  l-13.718-13.718h19.91l-20.693-20.693c3.944-1.344,7.187-4.184,9.059-7.85l19.227,19.227v-19.837l14.542,14.542L3298.797,1276.017z   M3316.228,1273.537c-4.01,3.322-8.46,6.129-13.245,8.333l10.789-10.789L3316.228,1273.537z M3227.836,1246.988l14.8-14.8v22.096  l21.751-21.751c1.633,4.006,4.845,7.192,8.866,8.796l-20.97,20.97h20.233l-13.935,15.433L3227.836,1246.988z M3251.952,1281.533  c-4.163-1.984-8.069-4.421-11.64-7.265l2.188-2.188L3251.952,1281.533z M3271.537,1225.993c0-3.951,3.203-7.154,7.154-7.154  s7.154,3.203,7.154,7.154c0,3.951-3.203,7.154-7.154,7.154S3271.537,1229.943,3271.537,1225.993z M3278.324,1262.298h0.658  l16.767,16.767l-17.917,17.917l-16.198-16.198L3278.324,1262.298z M3279.013,1192.353h-0.017l-17.263-17.263l16.099-16.099  l17.271,17.271L3279.013,1192.353z M3223.822,1200.349c2.077-4.181,4.614-8.093,7.564-11.654l2.045,2.045L3223.822,1200.349z   M3226.25,1210.573l15.952,15.952l-17.414,17.414l-15.952-15.952L3226.25,1210.573z M3233.669,1263.25l-2.283,2.283  c-3.171-3.828-5.873-8.057-8.03-12.595L3233.669,1263.25z M3236.183,1278.4c7.42,6.149,16.201,10.708,25.818,13.183l15.635,15.635  l15.015-15.015c10.645-2.282,20.349-7.099,28.438-13.803l40.533,40.534h-72.383l-11.755,11.755l-11.755-11.755h-70.08  L3236.183,1278.4z M3322.226,1262.628l10.343-10.343c-2.115,4.59-4.79,8.868-7.937,12.749L3322.226,1262.628z M3330.173,1244.641  l-17.591-17.591v-0.518l16.396-16.396l17.85,17.85L3330.173,1244.641z M3322.365,1192.217l2.599-2.599  c3.189,4.005,5.873,8.429,7.971,13.169L3322.365,1192.217z M3321.089,1175.831c-8.239-6.828-18.156-11.695-29.034-13.923  l-14.895-14.895l-15.8,15.8c-9.541,2.561-18.239,7.183-25.581,13.368l-39.139-39.139h69.74l11.755-11.755l11.755,11.755h69.988  L3321.089,1175.831z M3173.909,1316.24c-20.221-23.783-32.428-54.59-32.428-88.252c0-33.663,12.208-64.47,32.428-88.252V1316.24z   M3175.108,1228.312l11.755-11.755v-72.383l40.488,40.488c-6.015,7.258-10.516,15.815-13.026,25.186l-17.03,17.03l16.873,16.873  c2.476,9.617,7.034,18.398,13.183,25.818l-40.488,40.488v-69.988L3175.108,1228.312z M3277.809,1364.316  c-32.5,0-62.338-11.38-85.763-30.362h171.527C3340.148,1352.936,3310.31,1364.316,3277.809,1364.316z M3368.755,1239.417v69.74  l-39.185-39.185c6.88-8.169,11.824-18.016,14.148-28.837l13.783-13.783l-13.657-13.657c-2.228-10.878-7.095-20.794-13.923-29.034  l38.835-38.835v70.08l11.755,11.755L3368.755,1239.417z M3381.71,1316.24v-176.505c20.221,23.783,32.428,54.59,32.428,88.252  C3414.138,1261.65,3401.931,1292.457,3381.71,1316.24z" style="fill:#F2F2F1;stroke:#231F20;stroke-miterlimit:10;"/>
	<path d="M2396.833,1315.597h-3.69c-1.1,0-2-0.9-2-2v-3.69c0-1.1,0.9-2,2-2h3.69c1.1,0,2,0.9,2,2v3.69  C2398.833,1314.697,2397.933,1315.597,2396.833,1315.597z" style="fill:#2D88E2;"/>
	<path d="M3143.527,2154.044c-16.515-5.653-26.521-19.762-17.666-30.328  c8.115-9.683,27.328-12.78,44.432-13.687c20.882-1.107,45.558,0.826,56.364,12.321c10.826,11.516,1.917,26.368-9.016,37.843  c-10.933,11.475-24.38,23.534-22.125,36.898c1.651,9.784,13.281,18.926,28.409,20.665c15.128,1.739,31.982-5.212,33.959-14.972  c3.27-16.138-29.957-30.502-20.097-45.501c4.688-7.13,18.595-10.599,30.354-8.823c11.759,1.776,21.106,7.836,26.338,14.809  c5.232,6.973,6.875,14.814,7.711,22.531c1.308,12.082,0.453,25.004-10.065,35.069c-10.488,10.037-29.534,15.63-48.383,16.041  c-18.849,0.411-37.399-3.882-53.372-10.303c-10.142-4.077-20.882-9.257-32.718-8.095c-15.968,1.568-23.719,14.95-17.485,24.493  c6.234,9.543,21.711,15.3,37.174,18.292c52.751,10.21,115.104-7.284,139.141-39.037c24.037-31.753,6.854-73.932-38.342-94.122  c-12.098-5.404-26.911-10.227-31.091-19.285c-4.253-9.216,6.251-19.719,20.765-22.166c14.514-2.446,30.719,2.556,38.438,10.797  c5.964,6.368,7.287,14.005,9.761,21.26c2.474,7.254,6.839,14.869,16.52,18.956c9.682,4.087,25.706,2.295,28.941-4.836  c3.301-7.278-7.821-14.609-5.748-22.071c1.961-7.054,15.462-10.725,26.388-9.178c10.926,1.547,19.605,6.709,27.507,11.782  c11.556,7.419,23.143,15.594,26.911,25.791s-3.342,22.787-19.038,25.753c-16.835,3.181-36.263-5.407-51.774-0.146  c-14.591,4.949-14.727,18.391-9.754,28.473c4.973,10.082,13.075,20.639,8.019,30.704c-7.295,14.52-38.883,20.874-41.868,36.006  c-2.367,12,15.505,21.856,33.395,25.741c17.89,3.885,37.676,4.425,54.113,10.386c21.072,7.643,33.162,24.287,28.713,39.53  c-4.449,15.243-25.11,27.968-49.071,30.222c-23.961,2.254-49.465-6.129-60.572-19.908c-5.19-6.438-7.284-14.354-2.504-20.921  s17.856-10.78,28.072-7.665c8.417,2.567,12.412,9.1,11.896,15.061c-0.516,5.961-4.64,11.515-8.689,16.892  c8.649,2.346,19.283,0.155,25.476-4.368c6.193-4.523,8.325-10.913,7.333-16.894c-2.466-14.87-25.091-27.163-48.405-26.301  c-23.314,0.862-43.578,14.742-43.353,29.694c0.184,12.232,11.687,25.707,0.845,35.779c-10.132,9.413-33.536,8.094-47.903,1.307  c-15.899-7.511-25.308-20.327-24.198-32.958c1.11-12.631,12.705-24.69,29.819-31.012c6.168-2.278,13.014-3.87,18.535-6.75  c5.521-2.88,9.574-7.617,7.412-11.961c-2.445-4.911-11.365-7.085-19.332-7.825c-26.823-2.491-55.316,4.374-72.921,17.569  c-17.605,13.195-23.745,32.288-15.713,48.863c3.174,6.55,8.42,13.5,4.649,19.919c-2.926,4.98-10.863,8.205-19.019,9.223  c-8.155,1.018-16.577,0.177-24.73-0.85c-16.141-2.033-32.24-4.84-46.626-9.949c-14.386-5.108-27.043-12.71-33.591-22.373  c-6.548-9.663-6.267-21.487,2.868-30.246c9.135-8.76,27.698-13.493,43.098-9.791c15.401,3.702,24.497,16.408,17.011,25.787  c-5.724,7.172-19.693,13.831-14.23,21.085c2.863,3.802,10.566,5.353,16.967,4.345c6.401-1.008,11.587-4.026,15.631-7.359  c14.271-11.761,16.744-28.898,6.079-42.134c-10.665-13.236-33.909-21.877-57.148-21.246c-21.647,0.588-44.483,8.299-63.767,1.975  c-11.316-3.711-18.11-11.651-20.117-19.69c-2.007-8.038,0.114-16.25,2.702-24.22c2.452-7.549,5.566-15.352,13.404-21.206  c7.838-5.854,21.764-9.073,32.301-5.34c17.796,6.305,12.389,25.003,27.212,33.921c10.668,6.418,29.513,4.861,39.236-2.145  c9.723-7.006,10.759-17.845,4.904-26.435c-5.855-8.59-17.593-15.089-30.564-19.432c-17.932-6.004-38.659-8.434-55.362-15.748  c-16.703-7.314-28.04-22.707-16.289-33.255c11.553-10.372,37.217-8.857,53.874-1.89s28.614,17.814,45.118,24.928  c15.178,6.543,34.579,9.606,52.234,6.527c17.655-3.079,32.68-12.942,34.471-24.602c1.792-11.66-11.761-23.929-29.941-25.258  c-6.612-0.483-13.854,0.554-18.329,3.708s-5.003,8.661-0.023,11.487c4.266,2.421,10.7,2.237,16.317,1.616  c6.258-0.692,15.294-2.154,20.185,1.437c5.09,3.737,1.741,6.875-4.169,8.727C3176.516,2160.024,3155.688,2158.208,3143.527,2154.044  z" style="fill:#D6293A;"/>
</svg>
