<svg id="Layer_1" style="enable-background:new 0 0 4813.421 2920.314;" version="1.1" viewBox="0 0 4813.421 2920.314" x="0px" xml:space="preserve" xmlns="http://www.w3.org/2000/svg" xmlns:xlink="http://www.w3.org/1999/xlink" y="0px">
	<path d="M2227.469,1443.499c-7.333-20.361-18.061-34.88-33.752-34.88c-12.085,0-19.28,6.911-23.567,15.142  c5.924,2.169,12.671,5.815,15.323,11.65c5.152,11.335,12.365,44.31,12.365,44.31h11.335  C2209.173,1479.721,2204.591,1445.865,2227.469,1443.499z" style="fill:#F464BA;"/>
	<path d="M4571.694,1617.674c-79.529,0-144,64.471-144,144c0,79.529,64.471,144,144,144  c71.625,0,131.01-52.301,142.112-120.791c0.935-7.446,1.586-15.201,1.885-23.328  C4715.626,1682.082,4651.183,1617.674,4571.694,1617.674z M4576.542,1872.865c-71.965,0-107.418-50.169-110.244-103.557  c-3.478-65.702,43.731-102.41,92.215-103.016c48.148-0.602,84.1,29.583,87.267,81.85c2.407,39.722-27.783,76.426-70.071,77.696  c-36.371,1.092-65.791-25.904-65.791-62.291c0-30.148,24.22-58.188,54.368-58.188c24.844,0,47.222,17.694,47.222,42.538  c0,15.969-12.058,35.631-26.287,40.75c-16.309,5.867-34.901-2.634-40.797-18.933c-6.125-16.931,6.331-32.862,22.437-32.862  c5.184,0,9.899,2.127,12.939,5.836c1.855,2.264,3.843,6.075,2.781,11.366c-0.057,0.283-0.289,0.839-0.671,1.424  c-0.997,1.489-3.229,0.81-3.533-0.45l0,0c-1.099-3.999-4.723-6.954-9.071-6.954c-4.648,0-8.491,3.364-9.278,7.787l-0.019-0.004  c-1.463,8.183,1.945,13.211,4.107,15.48c4.697,4.929,11.613,6.008,16.522,5.374c12.626-1.635,18.915-11.224,20.464-18.939  c1.935-9.644-0.504-19.505-6.69-27.056c-6.642-8.106-16.684-12.755-27.552-12.755c-23.664,0-42.916,19.252-42.916,42.916  c0,26.921,21.902,48.823,48.823,48.823c30.754,0,55.603-25.02,55.773-55.772c0.227-41.007-29.06-69.188-64.315-69.792  c-50.169-0.859-81.962,31.793-82.392,79.842c-0.418,46.802,33.978,90.345,93.243,92.057c46.792,1.351,85.58-31.162,100.508-81.263  c0.627-2.106,3.775-1.438,3.45,0.735C4669.966,1836.064,4629.533,1872.865,4576.542,1872.865z" style="fill:#E5B51A;"/>
	<path d="M2244.87,1297.91c-3.895-6.486-9.204-10.951-16.444-11.066c-6.667-0.106-11.304,3.248-14.511,8.362  c-3.047,4.859-4.805,11.306-5.774,17.903c0.201,0.014,0.394,0.037,0.593,0.054c0.289,0.024,0.578,0.048,0.861,0.078  c0.251,0.027,0.495,0.059,0.74,0.09c0.294,0.037,0.589,0.073,0.875,0.116c0.229,0.035,0.448,0.075,0.672,0.113  c0.287,0.049,0.576,0.097,0.852,0.152c0.214,0.043,0.417,0.091,0.624,0.137c0.267,0.059,0.538,0.116,0.793,0.181  c0.209,0.053,0.402,0.111,0.602,0.167c0.235,0.065,0.475,0.129,0.698,0.198c0.212,0.066,0.404,0.139,0.603,0.209  c0.189,0.066,0.388,0.13,0.566,0.2c0.226,0.088,0.426,0.182,0.633,0.275c0.129,0.058,0.271,0.113,0.392,0.173  c0.316,0.156,0.605,0.317,0.864,0.483c0.171,0.11,0.332,0.246,0.487,0.396c0.047,0.045,0.092,0.096,0.137,0.145  c0.109,0.116,0.215,0.242,0.316,0.377c0.044,0.059,0.089,0.118,0.131,0.181c0.113,0.165,0.22,0.343,0.323,0.532  c0.021,0.038,0.043,0.072,0.064,0.111c0.122,0.234,0.236,0.485,0.344,0.75c0.027,0.065,0.051,0.135,0.077,0.202  c0.081,0.209,0.158,0.427,0.231,0.653c0.029,0.089,0.057,0.178,0.084,0.269c0.072,0.239,0.14,0.486,0.204,0.741  c0.018,0.07,0.037,0.137,0.054,0.208c0.08,0.333,0.155,0.678,0.223,1.035c0.009,0.045,0.016,0.093,0.024,0.138  c0.058,0.313,0.112,0.634,0.162,0.963c0.015,0.1,0.029,0.202,0.044,0.303c0.042,0.298,0.081,0.602,0.117,0.912  c0.011,0.092,0.022,0.183,0.032,0.275c0.088,0.805,0.156,1.643,0.207,2.503c0.006,0.098,0.011,0.198,0.016,0.297  c0.018,0.343,0.034,0.69,0.048,1.039c0.004,0.105,0.008,0.21,0.012,0.315c0.014,0.407,0.024,0.817,0.032,1.23  c0.001,0.032,0.002,0.063,0.002,0.095c0.007,0.455,0.011,0.913,0.011,1.371c0,0.09-0.001,0.181-0.001,0.271  c-0.001,0.364-0.003,0.728-0.008,1.092c-0.002,0.121-0.003,0.242-0.005,0.363c-0.006,0.361-0.014,0.722-0.023,1.081  c-0.002,0.094-0.004,0.188-0.007,0.281c-0.013,0.445-0.027,0.888-0.044,1.328c-0.004,0.091-0.008,0.182-0.012,0.273  c-0.014,0.346-0.029,0.69-0.046,1.032c-0.007,0.148-0.015,0.296-0.022,0.443c-0.015,0.289-0.031,0.575-0.047,0.859  c-0.009,0.148-0.017,0.297-0.026,0.444c-0.021,0.345-0.042,0.685-0.065,1.022c-0.012,0.182-0.025,0.361-0.037,0.54  c-0.018,0.255-0.036,0.508-0.054,0.757c-0.015,0.2-0.03,0.396-0.045,0.592c-0.013,0.167-0.026,0.333-0.039,0.497  c-0.017,0.213-0.035,0.426-0.052,0.632c-0.01,0.114-0.019,0.224-0.029,0.335c-0.071,0.815-0.142,1.58-0.211,2.27  c0,0.002,0,0.005-0.001,0.008l34.473,4.037c0,0,0-2.195-0.182-5.757C2254.881,1332.885,2252.833,1311.171,2244.87,1297.91z" style="fill:#E5B51A;"/>
	<path d="M393.086,1685.618l-9.19-0.08v-3.13h5.09c0-2.25-2.2-4.11-5.09-4.45v-3.77c2.67,0.25,5.4,1.25,7,3.2  C393.986,1681.178,393.086,1685.618,393.086,1685.618z" style="fill:#0A0A0A;"/>
	<path d="M1584.611,1227.987l4.64,11.917l28.594-40.368c0,0,3.937-2.483,11.138,0  c0.199,0.069,0.378,0.143,0.569,0.214l3.651-37.523l6.732-69.191c0,0-2.379-1.784-5.352-2.379c-2.973-0.595-6.541,0-6.541,0  l-19.597,56.114l-13.522,38.719L1584.611,1227.987z" style="fill:#161616;"/>
	<path d="M2088.991,2295.592c35.1-7.4,50.5-33.3,52-45.4c0.1-0.8-0.1-1.6-0.6-2.2c-10.9-15.4-46-10.3-62.7-3.5  c-0.7,0.3-1.3-0.7-0.7-1.2c38-33.6,2-54.4-37.5-37.4c35-52.5,6.4-80.3-46.1-37.5c2.1-18.9-3.1-49.3-25-62.7  c-0.8-0.5-1.8-0.7-2.7-0.6c-24.3,3.3-38.6,25.1-42,63.3c-16.1-26.7-26.7-33.2-34.7-32.6c-2.4,0.2-4.6,1.5-6,3.5  c-7,10.6-9.5,19.1-5.7,41.1c0.3,1.8-1.9,2.8-3.1,1.5c-15.8-19-46-27-64.4-11.2c-0.7,0.6-1.2,1.4-1.5,2.4  c-6.6,25.9,11.2,48.3,20.5,53.4c0.4,0.2,0.3,0.9-0.2,0.9c-20.6,0.5-27.8,9.1-31.3,15.3c-0.8,1.4-1.1,3.1-0.8,4.7  c1.3,6.7,7.8,17.1,13.8,23.9c0.3,0.4-0.1,0.9-0.5,0.6c-18.1-10.9-56-7.9-67.1,19.7c-0.8,1.9-0.8,4.1,0,6c10.7,25.5,42.5,27,55.9,27  c1.2,0,1.6,1.5,0.6,2.1c-11,7.5-19.1,21.9-15.8,29c8.4,12.7,41.9,8.8,55.5,2.4c0.7-0.4,1.5,0.5,1,1.2c-2.5,3.4-5.1,8.2-5.4,14.8  c-0.1,2.4-1.9,4.4-4.2,5c-17.5,4-40.1,20.3-33,56.7c0.3,1.5,1.5,2.7,3.1,3c29.6,4.7,54.1-10.1,62.8-29.4c0.4-0.9,1.8-0.6,1.8,0.4  c-0.4,14.3,2.3,22,4.3,25.8c0.9,1.7,0.9,3.6,0,5.3c-10.6,20.3-9.4,61.7,20.8,62.3c0.8,0,1.7-0.2,2.4-0.6  c20.8-12.1,35.1-36.1,39.7-51.2c0.5-1.8,2.9-2,3.8-0.4c8.8,15.9,23.9,21.7,29.6,20.5c4.9-1.1,10-8,13-14.8c0.6-1.4,2.7-1.2,3.1,0.3  c5.8,23,29.5,49.3,46.6,46.3c17.1-3,27-33.2,21.4-51.1c-0.6-1.9,1-3.9,3-3.6c12.8,1.4,22.4-6.7,25.9-10.3c1-1,1.6-2.3,1.7-3.7  c2.1-27.1-10.7-43-19.6-51c-1.2-1.1-0.6-3.2,1.1-3.3c13.8-1.5,20.9-7,23.7-9.9c1-1,1.5-2.4,1.4-3.8c-0.5-7-2.7-11.9-4.2-14.6  c-0.5-0.8,0.3-1.7,1.2-1.4c22.3,8.4,45.7,3.2,57-11.1c0.8-1,1.2-2.4,1.1-3.7c-3-24.8-21.8-37.2-53.1-38.7  C2088.391,2296.692,2088.391,2295.692,2088.991,2295.592z M2131.091,2247.292c1.9,0.6,2.9,2.8,2,4.6c-23.3,48.6-72,40.5-83.1,31.4  c-1.3-1-1.8-2.7-1.2-4.3c0.6-1.7,1.3-4.4,1.3-7.8c0-0.8,0.2-1.6,0.8-2.2C2077.191,2239.792,2112.291,2241.192,2131.091,2247.292z   M1983.291,2271.892l-5.5-4.4c1.1-5.5,10.9-12.2,21.4-12.8c1.4-0.1,2.6,1.2,2.3,2.6  C2000.291,2263.192,1989.891,2270.492,1983.291,2271.892l-0.8-0.7C1982.691,2271.392,1982.991,2271.692,1983.291,2271.892z   M1997.891,2296.392L1997.891,2296.392c7.6,1.8,11.4,10.8,1.5,10.9L1997.891,2296.392L1997.891,2296.392L1997.891,2296.392z   M1997.791,2321.092c13.9-4.5,23.1,6.6,22.3,19.6c-0.1,1.6-1.1,3-2.5,3.6c-13.6,5.8-24.4,1.7-27.7-6.4L1997.791,2321.092z   M2008.091,2271.792c-2.5-16.6,32.8-18,36.3,0.7c0.2,1.1,0,2.2-0.5,3.1C2035.591,2290.192,2011.491,2285.492,2008.091,2271.792z   M2026.891,2302.092c0.1-0.7,0.3-1.3,0.7-1.9c9.9-14,43.8-10.2,50.6,9.6c0.3,2.1-0.8,4.8-2.8,5.6c-6.2,2.3-19,7.2-27.3,5.7  C2036.891,2319.192,2025.091,2314.692,2026.891,2302.092z M2084.191,2215.092c-7,30.8-35.8,42.9-62.1,32.4c-1-0.4-1.7-1.4-1.8-2.5  c-2-29.3,41.9-46.4,61.8-34.7C2083.791,2211.292,2084.591,2213.192,2084.191,2215.092z M2046.991,2158.192  c5.5,11.7-5.2,46.6-28.6,51.8c-1.3,0.3-2.7-0.4-3.4-1.6c-2.4-4.3-11.8-3.7-17.8-2.5c-1.3,0.3-2.6-0.5-3-1.8  c-9.2-29.9,20.8-49.2,48.6-48.6C2044.591,2155.492,2046.191,2156.492,2046.991,2158.192z M2009.591,2211.492  c0.9,0.5,1.4,1.4,1.5,2.4c1.7,24.9-10.5,34.8-21.5,28.8C1967.491,2225.292,1997.991,2204.492,2009.591,2211.492z M1966.891,2111.192  c22.8,13.3,17.8,44.1,9.3,60.6c-0.9,1.7-3.1,2-4.4,0.7c-10-10-11.9-11.1-24.2-6c-1.4,0.6-3,0-3.7-1.4c-15.3-31.2,8-52.7,20.5-54.4  C1965.191,2110.592,1966.091,2110.792,1966.891,2111.192z M1890.791,2141.492c13,3.3,41,38.9,26.1,65.9c-0.5,1-1.6,1.6-2.8,1.4  c-4.5-0.7-6.5,0.5-8.8,3.3c-1,1.2-2.7,1.4-3.9,0.4c-9-7.2-30.6-39.2-14.9-69.1  C1887.291,2141.892,1889.091,2141.092,1890.791,2141.492z M1902.991,2325.792L1902.991,2325.792  C1902.991,2325.792,1902.991,2325.692,1902.991,2325.792c0.1,0,4.7,9.4,4.7,9.5l0,0l0,0c-3.7,1-7.4,0.9-7.8-0.3  C1899.391,2333.292,1900.191,2328.592,1902.991,2325.792L1902.991,2325.792z M1905.991,2260.792c4.5-0.5,9.1,5,10.5,10.6l-9.1,10.7  c-5.3-2.6-8.6-12.4-3.8-19.9C1904.191,2261.392,1905.091,2260.892,1905.991,2260.792z M1899.991,2306.892c0-0.1,0-0.1,0-0.2  V2306.892c-4.7,4.9-12.1,0.3-14.5-5.7c-0.6-1.5,0.1-3.2,1.5-3.9c3.9-1.9,11-2.1,14.1,0.6  C1900.891,2299.192,1900.091,2305.692,1899.991,2306.892z M1860.091,2218.792c0.5-2.4,3-4.4,5.4-4.4c23.3-0.2,32.5,11.6,23.9,38  c-0.3,1-1.1,1.7-2.2,2C1873.891,2257.492,1851.891,2257.192,1860.091,2218.792z M1877.691,2290.792c-12.1,5-20.1-8.7-18.3-19.8  c0.2-1.1,1.2-2,2.3-2.1c12.5-0.9,25.8,9.5,17.4,20.8C1878.691,2290.192,1878.191,2290.592,1877.691,2290.792z M1870.991,2309.592  c-12.6,15.9-35,16.3-47.2,0.2c-1.3-1.7-1.4-4.1-0.3-6c10.4-16.5,47.3-19.1,48.3,3.5  C1871.791,2308.092,1871.491,2308.892,1870.991,2309.592z M1858.791,2337.492c2-5.5,23-20.7,30.1-2.6c0.3,0.7,0.2,1.5-0.1,2.2  C1883.691,2348.292,1856.891,2342.892,1858.791,2337.492z M1815.091,2174.092c30.2-20.6,65.1,10.8,64.8,30.3c0,1.4-1.2,2.5-2.6,2.3  c-7.3-1-17.7,1.5-18.8,2.5c-1.1,0.9-3,2.7-4.9,9.8c-0.3,1.2-1.5,1.9-2.7,1.8c-29.5-4.4-42.6-33.8-37.2-44.9  C1813.991,2174.992,1814.491,2174.492,1815.091,2174.092z M1806.391,2242.392c18.9-14.7,53.1-8.7,51.1,18.3c-0.1,1-0.6,2-1.5,2.5  c-16,10.6-44.9,7.4-51.4-15.6C1804.091,2245.592,1804.791,2243.592,1806.391,2242.392z M1747.991,2290.592  c11.2-18.3,52.9-25.5,77.8,2.4c0.5,0.6,0.5,1.5-0.1,2.1c-10.2,9.3-9.3,12.1-7.2,15.5c0.4,0.6,0.1,1.4-0.5,1.7  c-16.4,7-49.2,13.7-69.7-15.2C1746.791,2295.192,1746.791,2292.592,1747.991,2290.592z M1791.091,2355.092c-2.2-1.2-2.9-4-1.6-6.2  c23.5-35.5,52.6-19.2,56.8-10.3c0.2,0.4,0.3,0.9,0.3,1.3C1845.591,2355.792,1810.191,2365.492,1791.091,2355.092z   M1805.691,2434.992c-1.9,0.1-3.5-1.2-4-3c-6.2-21.7,12.5-47.1,33.1-49.6c0.9-0.1,1.8,0.4,2.2,1.2c3.3,6,11.5,5.9,15.1,5.5  c1-0.1,1.9,0.6,2.1,1.5C1856.791,2404.992,1848.591,2433.792,1805.691,2434.992z M1844.691,2383.292c-1.2-0.4-2-1.5-2.1-2.8  c-0.9-28,16.7-31,33.4-20.5c0.5,0.3,1,0.9,1.1,1.5C1879.191,2369.192,1860.891,2388.392,1844.691,2383.292z M1889.491,2497.892  c-15.3,2.3-29.7-22.6-15.9-53.8c0.5-1.2,2-1.6,3.1-0.8c8.5,6.1,17.2,1.1,25.1-7.6c0.9-1,2.4-0.9,3.2,0.2  C1915.391,2449.692,1904.791,2492.292,1889.491,2497.892z M1888.891,2436.592c-3.5,2.4-8.2,1.6-10.7-1.8  c-13.9-19.3,0-41.7,15.5-47.8c0.8-0.3,1.6-0.2,2.3,0.3c1.6,1.1,5.4,2.8,11.2,0.2c1.2-0.5,2.7-0.1,3.4,1.1  C1916.891,2399.192,1908.091,2423.192,1888.891,2436.592z M1903.291,2383.592c-2.1,0.5-4.3-0.5-5.4-2.4  c-10.6-17.7,3.6-40.9,19.6-28.1C1924.891,2359.092,1919.491,2379.792,1903.291,2383.592z M1916.191,2252.992  c-18.6,0.1-20.6-25.1-6.9-39.5c0.6-0.6,1.8-1.1,2.6-1.1C1926.291,2212.292,1946.591,2252.992,1916.191,2252.992z M1930.191,2196.492  c0-12.5,5.4-22.9,26.5-27.6c1.9-0.4,2.9-0.3,4,1.5c3.3,4.9,14.3,20.1,12.7,29.9c-1.9,11.6-16.5,23.8-24.8,24.8  C1940.291,2226.092,1930.191,2209.092,1930.191,2196.492z M1946.691,2253.092c-5.3-6.8-2.9-17.6,6.5-23.1c1.2-0.7,2.8-0.3,3.6,0.9  c6.2,9.6,2.9,19.2-6.6,23.1C1948.991,2254.492,1947.591,2254.092,1946.691,2253.092z M1946.291,2373.392c13.8-1,10.4,26.4,0,32.7  C1935.991,2412.392,1926.691,2374.792,1946.291,2373.392z M1967.691,2461.892c-11.8,15.3-40.5-29.4-24.3-50.1c0.5-0.6,1.2-1,1.9-1.1  c4.6-0.4,8-3.6,9.7-5.5c0.8-0.9,2-1,3-0.4C1977.991,2416.992,1977.891,2444.092,1967.691,2461.892z M1958.391,2357.492  L1958.391,2357.492L1958.391,2357.492L1958.391,2357.492c0.1-0.1,19.9-8.4,20-8.4l0,0l0,0c1.4,4.5,0.8,9.8-2.2,14.3  c-0.6,0.9-1.7,1.4-2.7,1.3C1966.091,2364.092,1961.091,2361.192,1958.391,2357.492z M1983.291,2362.192c16.4-4.8,45.6,5.3,36.2,40.9  c-1,3.7-4.7,5.9-8.4,5.3C1964.891,2400.192,1976.691,2365.592,1983.291,2362.192z M2022.491,2495.092c-14.2-4.4-28.1-21.8-36.9-49.3  c-0.6-1.7-0.7-3.6-0.4-5.4c1.2-7.5,1.5-17.6-1.4-34.1c-0.2-0.9,0.9-1.6,1.7-1.1c4.5,3,15.2,9.5,24.7,9.2c1.1,0,2.1,0.6,2.5,1.6  c3.5,8.5,14.6,21.4,24.5,26.7c0.2,0.1,0.4,0.2,0.5,0.4c8.9,7.6,6.6,42.3-8.1,51.2  C2027.491,2495.492,2024.891,2495.792,2022.491,2495.092z M2073.291,2433.192c-13.4,10.8-45.3-1.6-52.7-19.3  c-0.5-1.2-0.1-2.5,0.8-3.3c3.4-2.9,9.9-9.7,8.7-23.4c-0.1-1.3,0.8-2.5,2.1-2.6c17.9-2.1,40.4,21.7,42.7,44.8  C2075.091,2430.792,2074.491,2432.292,2073.291,2433.192z M2076.091,2366.392c-25.9,14.8-54.7-6.7-49.7-29c0.2-0.7,0.5-1.3,1.1-1.7  c14.7-11,47.6,6.1,51.4,24.5C2079.491,2362.592,2078.291,2365.092,2076.091,2366.392z M2076.991,2341.992  c-4.3-5.2-9.4-10.5-16.8-13.9c-1-0.5-0.9-2,0.2-2.3c6.7-1.7,20.5-5.6,23.1-9.5c1.5-2.3,0.3-6.4-1.6-11.1c-0.5-1.1,0.3-2.4,1.5-2.5  c20.9-1.7,44,5.6,50.7,29.9c0.4,1.6,0,3.2-1,4.5c-12.1,13.6-41.8,10.2-53.5,6.7  C2078.591,2343.492,2077.691,2342.792,2076.991,2341.992z" style="fill:#D6293A;"/>
	<path d="M3936.493,1581.184l-0.134-0.197l0,0l0.126,0.189c-0.047-0.063-0.079-0.134-0.126-0.197  c-0.433-0.661-0.834-1.354-1.22-2.079c-2.141-4.307-3.691-8.883-4.606-13.605c-1.842-8.385-2.771-17.817-3.937-26.124l-0.26-1.803  l0,0c-0.453-3.223-1.07-6.422-1.85-9.582c-1.024-3.937-2.362-7.031-4.173-8.921c-1.811-1.89-3.984-2.472-6.897-1.63  c-7.551,2.173-5.377-20.132-9.031-18.006c0.362-0.213-3.638,3.488-4.063,1.74c-0.276-1.102-0.669-2.362-1.181-3.834  c-0.787-2.149-1.764-4.63-2.945-7.314l-0.543-1.244c-4.07-9.102-7.637-26.266-15.203-28.769c-0.458,0.148-0.923,0.271-1.394,0.37  h-0.079l-0.465,0.094l0,0c-0.449,0.087-0.921,0.157-1.409,0.228c-3.149,0.425-6.763,0.496-8.81,0.622  c-2.063-1.575,0.543-5.062-0.079-9.653c-0.837-6.015-2.267-11.933-4.267-17.668c-0.99-2.876-2.255-5.65-3.779-8.283l-0.134-0.22l0,0  c-0.591-0.96-1.016-3.937-0.89-7.598c0.142-4.204,1-9.314,3.149-13.385c0.504-0.945,0.968-1.89,1.37-2.827l0,0  c1.026-2.19,1.594-4.566,1.669-6.984c0.088-2.437-1.142-4.732-3.22-6.007c-0.669-0.407-1.382-0.737-2.126-0.984l-9.275,1.48  l-2.086,14.589c-5.417,3.937-6.188,2.362-7.661,0.63c-0.312-0.344-0.476-0.796-0.457-1.26c0.173-2.764,0.323-5.354,0.26-7.795  c-0.103-3.787-0.732-7.236-2.661-10.503c-1.448-2.457-0.409-2.496-3.645-4.811c-0.055,0-5.85,2.575-5.905,2.575  c-1.26,0,3.212,7.086,2.52,8.495c-1.11,2.315-3.425-0.299-5.33-2.157c-0.787-0.787-1.527-1.575-2.26-2.362  c-1.764-1.929-3.409-3.937-4.96-5.85c-6.811-8.338-11.991-14.503-18.699-1.653c-0.039,0.071-6.448-2.173-12.668-3.819  c-0.583-0.15-1.165-0.299-1.732-0.433l-0.362-0.094l-1.071-0.244h-0.11l0,0c-3.567-0.787-6.637-1.189-7.81-0.543  c2.362,4.645,6.299,5.582,7.606,7.259c0.653,0.834,0.685,1.85-0.433,3.598c-0.101,0.162-0.223,0.31-0.362,0.441  c-0.104,0.099-0.22,0.184-0.346,0.252l-0.087,0.063c-0.157,0.085-0.323,0.151-0.496,0.197l0,0c-0.186,0.048-0.375,0.08-0.567,0.094  l0,0c-0.149,0-0.315,0-0.48,0h-0.126c-0.157,0-0.323,0-0.496-0.055h-0.157l-0.535-0.11l-0.15-0.047  c-0.197-0.047-0.386-0.11-0.591-0.173h-0.118c-1.313-0.502-2.587-1.102-3.811-1.795c-2.795-1.457-12.377-12.448-11.361,6.716  l0.843,1.315c2.96,4.661,5.511,8.897,5.425,9.448c-0.268,2.417-0.787,2.716-5.425,5.031c-17.927,9.007-8.314,1.976-26.935,3.543  c-6.503,0.551-4.228-11.243,4.937-27.1c1.181-2.047,2.472-4.186,3.874-6.417c0.221-0.645,0.152-1.354-0.189-1.945  c-0.673-1.044-1.64-1.866-2.779-2.362c-0.866-0.432-1.774-0.778-2.708-1.031c-1.527-0.483-3.148-0.589-4.724-0.307  c-0.186,0.048-0.365,0.116-0.535,0.205c-5.818-6.7-35.997,19.754-63.168,42.044c-6.106,4.977-12.646,9.396-19.542,13.204  c-9.645,5.314-16.747,7.543-16.266,6.165c0.236-0.677-4.937-0.787-12.786-0.787c-7.204,0.047-16.652,0.236-26.265,0.307  c-2.624,0.476-5.312,0.476-7.937,0c-17.534-0.039-33.619-0.787-35.123-3.937c-1.047-2.34-2.646-4.391-4.661-5.976  c-0.207-0.174-0.422-0.337-0.646-0.488c-0.053-0.022-0.113-0.022-0.166,0c-2.134,0.15-13.259,19.935-9.448,22.494  c-12.211,4.653-10.385,3.149-26.281,13.794c-2.827,4.346,3.33,3.149,4.055,4.346c0.685,1.3,1.214,2.677,1.575,4.102  c-1.291,4.874-10.739,4.763-12.038,5.763c-0.259,0.198-0.478,0.444-0.646,0.724c-0.496,0.787-0.575,1.976-0.11,3.567  c4.385,14.959-21.447,26.376-18.487,53.161c-0.346-0.323-0.701-0.638-1.055-0.937c-12.755-11.172-26.958-8.157-39.863,2.173  c-5.291,4.341-10.048,9.293-14.172,14.755c-6.545,8.635-12.064,18.002-16.448,27.911c-0.26,0.59-0.52,1.181-0.787,1.779  l-0.094,0.213l-0.189,0.433l0,0l-0.787,1.929c-0.014,0.046-0.032,0.091-0.055,0.134c-0.575,1.417-1.126,2.827-1.646,4.244  c-0.719,1.932-1.383,3.853-1.992,5.763c-0.039,0.142-0.087,0.283-0.126,0.417c-0.354,1.118-0.701,2.236-1.016,3.354l-0.425,1.575  l0,0c-1.825,6.478-2.882,13.148-3.149,19.872c0,0.646,0,1.283,0,1.905c0,1.315,0.079,2.59,0.197,3.826l0.275,2.26  c0.15,0.929,5.511,4.252,7.488,9.448c0.079,0.213,0.166,0.425,0.252,0.653l0,0c0.094,0.252,0.173,0.472,0.276,0.732  c0.85,0,2.543,9.448,12.212,6.511c0.118-0.039,37.666,17.88,57.342,77.946c2.189,6.692,9.078,28.533,11.282,33.375  c0.48,1.055,0.945,2.063,1.401,3.047l0.543,1.173c1.882,4.007,0.701,6.897-1.26,5.338c-1.879-1.476-3.677-3.053-5.385-4.724  c-2.913-2.897-8.944-4.267-1.575,8.007c0.866,1.433,1.756,2.834,2.646,4.212c1.441,2.228,2.897,4.37,4.354,6.346  c4.519,6.125,8.928,10.637,12.093,11.18c0.646,0.118,1.244-0.394,1.78-0.165c13.172,5.511,19.943-33.596,19.951-33.596  s0.331-0.732,0.449-0.882l0.724-0.929l0.827-1.063c4.401-5.653,15.369-19.557,27.218-31.202l0.094-0.087l0.732-0.709l0.787-0.787  l0.087-0.079c2.685-2.567,5.393-5,8.078-7.165l-11.645,4.11c-4.063,1.441-8.062,2.842-11.968,4.173  c-2.1,0.709-4.155,1.394-6.165,2.055c-10.354,3.385-19.794,6.023-27.635,7.086c-1.575,0.213-3.055,0.378-4.472,0.449  c-7.157,0.386-12.542-1.008-15.448-5.031c-5.511-7.684-2.039-24.958,15.597-57.893c0.075,0.063,0.154,0.12,0.236,0.173  c1.305,0.716,2.673,1.312,4.086,1.779c4.945,1.819,13.306,4.338,21.542,6.551c8.015,2.157,15.337,3.693,19.605,4.535  c2.425,0.488,3.874,0.748,3.866,0.787c-0.008,0.039,0.583,0.937,0.551,1.008l-0.086,0.142l-0.134,0.197  c-0.039,0.047-0.071,0.094-0.11,0.134c-0.039,0.039-0.118,0.134-0.181,0.205c-0.063,0.071-0.071,0.079-0.11,0.11l-0.299,0.268  h-0.047l-0.386,0.283l-0.166,0.11l-0.268,0.173l-0.197,0.126l-0.268,0.157l-0.213,0.126l-0.268,0.15l-0.228,0.118l-0.283,0.15  l-0.244,0.126l-0.307,0.165l-0.409,0.205l-0.268,0.134l-0.433,0.228l-0.094,0.047l0,0l-0.724,0.394l-0.134,0.071l-0.661,0.402  l-0.118,0.079c-0.212,0.142-0.417,0.283-0.606,0.433l-0.079,0.063c-0.189,0.157-0.37,0.315-0.528,0.472l0,0  c-0.147,0.155-0.279,0.324-0.394,0.504c-0.017,0.027-0.035,0.054-0.055,0.079c-0.1,0.168-0.179,0.348-0.236,0.535  c-0.003,0.034-0.003,0.068,0,0.102c-0.048,0.191-0.072,0.386-0.071,0.583c0,0,0,0.055,0,0.087c0.016,0.228,0.061,0.453,0.134,0.669  c0.142,0.409,0.292,0.787,0.457,1.181c0.047,0.118,0.102,0.228,0.157,0.346c0.118,0.252,0.236,0.496,0.362,0.74  c0.063,0.126,0.134,0.244,0.205,0.37c0.115,0.216,0.241,0.427,0.378,0.63c0.071,0.118,0.142,0.236,0.22,0.346l0.26,0.354l0.189,0.26  l0.197,0.26c0.22,0.268,0.457,0.527,0.693,0.787l0.15,0.134c0.197,0.197,0.401,0.378,0.606,0.551l0.291,0.228  c0.165,0.134,0.339,0.26,0.512,0.386l0.331,0.22c0.173,0.11,0.354,0.213,0.527,0.307l0.346,0.197l0.614,0.283l0.299,0.134  c0.299,0.126,0.606,0.236,0.913,0.331l0.37,0.11l0.622,0.157l0,0l0.441,0.094l0.567,0.102l0.504,0.071l0.559,0.063l0.528,0.047  h0.583c0.323,0,0.646,0,0.976,0h0.669h0.654l0.504-0.039l0.693-0.079l0.472-0.055l0.732-0.11l0.433-0.071l0.787-0.15h0.149  c1.031-0.205,2.086-0.472,3.149-0.787l0.244-0.071l1-0.307l0.236-0.071l1.055-0.354h0.063c1.992-0.685,4.039-1.52,6.11-2.449  c10.613-4.803,21.809-12.408,29.848-18.337l0.157-0.118l1.803-1.346l0.15-0.11l1.094-0.827l0.606-0.457l0,0l1.575-1.205l0.102-0.071  l1.339-1.039l0.086-0.079l0.11-0.087l0.787-0.59l0,0l2.693-2.134l0.165-0.134l0.165-0.126l0.189-0.15l0.079-0.063l0.165-0.126  c-0.669,0.039-1.346,0.063-2.031,0.079h-0.331c-0.656,0-1.317,0-1.984,0h-0.37c-0.677,0-1.354-0.039-2.039-0.079h-0.236  c-0.685-0.039-1.378-0.087-2.079-0.15h-0.126l-2.142-0.228l-0.323-0.039c-0.701-0.087-1.401-0.181-2.11-0.291h-0.276  c-1.496-0.236-2.992-0.499-4.488-0.787h-0.118l-2.212-0.48l-0.205-0.047l-2.212-0.535h-0.055c-1.527-0.388-3.036-0.806-4.527-1.252  h-0.047l-2.189-0.677h-0.063c-2.197-0.701-4.33-1.449-6.354-2.228h-0.047c-1.323-0.512-2.598-1.024-3.826-1.575  s-2.362-1.047-3.52-1.575l-0.086-0.039l-0.976-0.472l-0.15-0.071l-0.882-0.441l-0.165-0.087h-0.055l-0.787-0.409l-0.15-0.071  c-0.291-0.157-0.921-0.48-0.937-0.504c-0.338-0.483-0.604-1.014-0.787-1.575c-3.149-9.905,13.692-12.282,12.211-20.045  c-0.063-0.362-0.118-0.787-0.149-1.165v-0.055v-0.37l0,0c0-0.276,0-0.559,0-0.858c0-0.126,0-0.26,0-0.394v-0.157  c0-0.283,0-0.575,0-0.882l0,0v-0.307c0-0.102,0-0.205,0-0.307c0-0.307,0.055-0.614,0.086-0.937v-0.055l0.071-0.606l0,0  c0.04-0.331,0.087-0.677,0.134-1.024c0-0.071,0-0.15,0-0.22c0-0.071,0-0.291,0.063-0.441l0,0c0.063-0.386,0.134-0.787,0.205-1.189  c0-0.079,0-0.165,0-0.244s0.039-0.228,0.063-0.346l0,0c0.102-0.551,0.213-1.11,0.331-1.685c1.622-7.755,11.487-17.644,21.573-24.219  c1.575-1.047,3.882-1.315,4.787-2.866c23.573-40.154,25.234,7.007,25.51,7.393c1.496,2.142,2.748,5.653,4.976,6.834  c8.259,4.354,23.801,3.504,22.589-2.559c-1.693-8.535-8.401-12.983-12.345-19.865c-2.425-4.212,19.03-14.078,28.903-8.251  c1.646,0.898,3.212,1.933,4.685,3.094c0.394,0.299,0.787,0.598,1.142,0.897c0.443,0.384,0.992,0.623,1.575,0.685  c1.96,0.087,4.126-2.008,6.59-1.834c1.205,0.063,2.488,0.685,3.882,2.425c3.149,3.937,11.755,5.968,15.66,6.354  c0.657,0.043,1.316,0.02,1.969-0.071l0,0c1.054-0.151,2.081-0.456,3.047-0.905c0.583-1.464,5.921-4.33,7.763-6.692  c2.721-3.591,5.069-7.451,7.007-11.519c2.079-4.197,4.063-8.889,5.952-13.92c0.614-1.638,1.22-3.302,1.819-4.992  c0.843-2.417,1.661-4.897,2.472-7.401c0.598-1.842,1.184-3.703,1.756-5.582c0.701-2.291,1.386-4.606,2.047-6.921l0.165-0.575  c0.575-2.016,1.142-4.039,1.693-6.055c0.039-0.126,0.071-0.26,0.11-0.386c0.751-2.75,1.478-5.48,2.181-8.188  c1.055-4.063,0-0.047,0-0.071c0.74-2.834,1.449-5.614,2.134-8.361c0.268-1.063,0.543-2.149,0.787-3.197  c1.882-7.574,3.567-14.621,5.062-20.597c0.087-0.331,0.165-0.661,0.252-0.984c2.236-8.913,4.015-15.266,5.338-17.109  c16.03-22.392,28.95-12.345,37.981,4.677c2.044,3.912,3.853,7.942,5.417,12.07l0,0c3.34,8.811,6.009,17.863,7.984,27.076  c0.236,1.126,0.441,2.173,0.622,3.11c0.319-0.162,0.686-0.201,1.031-0.11c1.575,0.268,4.26,2.023,7.543,4.724  c0.693,0.567,1.409,1.165,2.157,1.803l1.717,1.496c3.803,3.378,8.086,7.511,12.345,11.81l0.583,0.583  c1.771,1.771,3.519,3.567,5.236,5.33c9.865,10.188,18.266,19.526,18.329,19.605c1.866,2.181,4.26,7.377,6.921,13.881l22.746,59.963  l0,0c1.012,2.464,2.194,4.855,3.535,7.157l0,0l0,0c0.953-5.33,6.606-11.432,13.385-17.739l1.157-1.087  c1.872-3.658,4.943-6.563,8.7-8.228c0.96-0.443,1.946-0.827,2.953-1.15c0.346-0.118,0.716-0.22,1.079-0.323l0.882-0.244  c0.708-1.701,1.401-3.37,2.071-4.992c1.465-1.504,2.803-2.992,4-4.448c1.512-0.685,3.819-2.362,7.149-5.433  c0.131-0.408,0.334-0.789,0.598-1.126c0-0.457,0.283-1.126,0.362-0.362l0,0C3940.682,1585.333,3937.233,1582.271,3936.493,1581.184z   M3514.561,1557.855c-16.534,12.597-5.322-23.344-5.047-23.541C3526.009,1529.929,3518.844,1554.58,3514.561,1557.855  L3514.561,1557.855z M3528.93,1646.037c-4.118-7.558-5.866-13.629-5.984-18.298c-0.236-8.999,5.582-12.802,12.172-12.07  c7.299,0.787,15.542,7.188,17.565,18.227c1.165,6.362-22.502,14.448-23.754,12.172V1646.037z M3849.272,1464.068  c0.009,0.107,0.03,0.213,0.063,0.315c0,0.079,0,0.142,0,0.22c-2.362,3.441-4.685,7.543-4.566,10.448  c-0.89,1.535-1.449,2.945-1.205,3.834c-2.952-1.575-9.188-4.504-8.519-3.724c-7.96-6.952,9.243-19.392,14.337-12.991l-0.268,0.244  C3848.847,1461.974,3848.981,1462.62,3849.272,1464.068z" style="fill:#D6293A;"/>
	<path d="M2357.41,1318.96c-0.556-4.101-4.02-7.11-8.075-7.199c-0.116-0.003-0.232-0.012-0.349-0.009  c-0.163,0.003-0.325,0.002-0.49,0.014l-10.184,0.795c-3.121,0.244-5.379,3.083-4.915,6.179l1.044,6.955l0.006,0.04  c0.625,0.381,1.22,0.783,1.771,1.209c1.217,0.941,2.175,2.104,2.927,3.413h19.741h0.069L2357.41,1318.96z" style="fill:#ED6D15;"/>
	<path d="M4275.687,1308.575c-79.529,0-144,64.471-144,144c0,79.529,64.471,144,144,144  c71.625,0,131.01-52.301,142.112-120.791c0.935-7.446,1.586-15.201,1.885-23.328  C4419.619,1372.982,4355.176,1308.575,4275.687,1308.575z M4280.535,1563.765c-71.965,0-107.418-50.169-110.244-103.557  c-3.478-65.702,43.731-102.41,92.215-103.016c48.148-0.602,84.1,29.583,87.267,81.85c2.407,39.722-27.783,76.426-70.071,77.696  c-36.371,1.092-65.791-25.904-65.791-62.291c0-30.148,24.22-58.188,54.368-58.188c24.844,0,47.222,17.694,47.222,42.538  c0,15.969-12.058,35.631-26.287,40.75c-16.309,5.867-34.901-2.634-40.797-18.933c-6.125-16.931,6.331-32.862,22.437-32.862  c5.184,0,9.899,2.127,12.939,5.836c1.855,2.264,3.843,6.075,2.781,11.366c-0.057,0.283-0.289,0.839-0.671,1.424  c-0.997,1.489-3.23,0.81-3.533-0.45l0,0c-1.099-3.999-4.723-6.954-9.071-6.954c-4.648,0-8.491,3.364-9.278,7.787l-0.019-0.004  c-1.463,8.183,1.945,13.211,4.107,15.48c4.697,4.929,11.613,6.008,16.522,5.374c12.626-1.635,18.915-11.224,20.464-18.939  c1.935-9.644-0.504-19.505-6.69-27.056c-6.642-8.106-16.684-12.755-27.552-12.755c-23.664,0-42.916,19.252-42.916,42.916  c0,26.921,21.902,48.823,48.823,48.823c30.754,0,55.603-25.02,55.773-55.772c0.227-41.007-29.06-69.188-64.315-69.792  c-50.169-0.859-81.962,31.793-82.392,79.842c-0.418,46.802,33.978,90.345,93.243,92.057c46.792,1.351,85.58-31.162,100.508-81.263  c0.627-2.106,3.775-1.438,3.45,0.735C4373.958,1526.965,4333.526,1563.765,4280.535,1563.765z" style="fill:#E5B51A;"/>
	<path d="M2216.207,1421.429c-6.048-7.987-13.445-12.811-22.491-12.811c-13.389,0-20.777,8.482-24.856,17.845  c4.884,4.947,12.865,8.173,21.89,8.173c3.574,0,6.983-0.51,10.104-1.428C2208.046,1431.093,2213.678,1426.784,2216.207,1421.429z" style="fill:#1B8FEF;"/>
	<rect height="21.6" style="fill:#F79514;stroke:#231F20;stroke-miterlimit:10;" width="5.4" x="1049.617" y="2175.849"/>
	<path d="M2189.56,1786.71c-9.17-49.35-31.35-79.03-48.9-87.35  c-17.55-8.31-40.9-14.56-55.79-15.59c0,0-45.16,3.59-61.52,19.29c-15.16,14.53-43.74,46.3-46.27,87.42  c-1.97,32.14,20.66,91.45,30.17,102.75c10.12,12.01,56.02,44.59,77.62,44.98c21.61,0.39,70.33-36.36,76.33-44.22  C2167.21,1886.14,2198.48,1834.68,2189.56,1786.71z M2007.48,1763.47l2.19-9.63c0,0,7.02-21.06,19.74-11.41  c12.72,9.65,16.67,21.94,24.13,21.5c7.46-0.44,14.48-1.75,14.48-1.75s-15.65,8.16-22.38,5.7c-5.31-1.94-14.42-14.74-18.45-16.75  c-3.24-1.62-9.63-0.36-12.26,2.71C2012.38,1756.81,2007.77,1763.08,2007.48,1763.47z M2027.69,1813.38  c-6.12-2.29-14.15-9.94-14.15-9.94s11.47-19.13,22.57-13.39c11.09,5.74,24.09,14.92,25.24,16.45c1.15,1.53,1.53,1.91-7.27,4.59  C2045.29,1813.77,2033.81,1815.68,2027.69,1813.38z M2084.1,1875.45c-13.2-0.1-36.83-7.98-36.83-7.98s23.07-9.92,36.27-9.82  c13.21,0.11,37.13,11.54,37.13,11.54S2097.31,1875.56,2084.1,1875.45z M2145.26,1814.91c-6.12,2.3-17.6,0.39-26.4-2.29  c-8.79-2.68-8.41-3.06-7.26-4.59c1.14-1.53,14.15-10.71,25.24-16.45c11.09-5.74,22.57,13.39,22.57,13.39  S2151.38,1812.62,2145.26,1814.91z M2158.02,1753.84c-2.64-3.07-9.02-4.33-12.26-2.71c-4.03,2.01-13.14,14.81-18.45,16.75  c-6.73,2.46-22.38-5.7-22.38-5.7s7.02,1.31,14.48,1.75c7.46,0.44,11.4-11.85,24.13-21.5c12.72-9.65,19.74,11.41,19.74,11.41  l2.18,9.63C2165.17,1763.08,2160.57,1756.81,2158.02,1753.84z" style="fill:#E22323;stroke:#000000;stroke-miterlimit:10;"/>
	<path d="M2406.36,1298.468c8.36-0.944,16.473-0.801,19.543,1.31c6.388,4.392,7.969,25.773,8.168,28.919  l8.605,1.658l5.953-9.303c0,0,0.071-0.586,0.175-1.623c0.759-7.573,3.318-39.447-6.5-46.974c-11.163-8.558-29.04-2.605-34.241,4.093  c-1.306,1.682-1.952,4.647-2.193,8.138C2405.577,1288.945,2405.887,1293.988,2406.36,1298.468z" style="fill:#ED6D15;"/>
	<path d="M3857.241,291.499l-171.83,122.21v360h342v-359.68  L3857.241,291.499z M3710.021,606.279h-5.4v-21.6h5.4V606.279z M3774.661,378.409l17.82-12.21l3.05,4.45l-17.82,12.21  L3774.661,378.409z M3873.951,751.449h-21.6v-5.4h21.6V751.449z M3936.121,382.419l-17.81-12.2l3.05-4.46l17.82,12.21  L3936.121,382.419z M4005.511,606.279h-5.4v-21.6h5.4V606.279z" style="fill:#F2F2F2;stroke:#231F20;stroke-miterlimit:10;"/>
	<path d="M1545.118,894.37c-1.33-1.63-4-6.98-5.93-8.76c-1.93-1.78-8.46-7.86-8.46-7.86s-0.3-10.39-0.89-11.58  c-0.6-1.19-1.64-5.05-4.16-5.94c-2.52-0.89-5.87-0.57-8.39-0.06c-2.51,0.5-16.33,3.01-18.09,3.26s-15.33,0.76-20.61,1.26  c-5.28,0.5-24.63,4.52-26.64,4.77c-2.01,0.26-31.91,2.27-34.93,1.26c-3.01-1-27.29-6.14-28.88-6.67c-1.6-0.53-17.52-5.31-19.64-6.37  c-2.13-1.06-18.58-11.15-19.91-11.95c-1.33-0.79-11.41-9.02-12.74-10.88c-1.33-1.86-8.49-6.37-9.02-7.43  c-0.54-1.06-18.58-20.97-19.65-22.03c-1.06-1.06-6.67-9.84-7.84-10.68c-1.17-0.83-7.01-4.84-7.85-5.68  c-0.83-0.83-0.83-5.68-2.33-7.51c-1.51-1.84-3.34-4.01-4.18-4.68c-0.83-0.67-0.67-3.17-0.83-3.67c-0.17-0.5-1.34-2.01-1.34-2.01  s1.5-9.18,1.5-11.19c0-2,0.17-13.86,0.34-15.69c0.16-1.84-0.34-8.85,0.33-10.19c0.67-1.34,2.01-6.51,2.01-7.85  c0-1.34,0.83-3.84,0-5.18c-0.84-1.33-1.01-1.67-0.84-2.67c0.17-1,1.17-2,1-3c-0.16-1.01-1.17-7.52-1.33-8.19  c-0.17-0.67,0.83-12.86,1.83-18.37c1.01-5.51,4.18-41.41,4.18-42.58s2-24.05,2-25.22c0-1.17,0.67-23.71,0.67-26.55  c0-2.84,0.27-9.34,0.54-9.52c0.26-0.18,1.15-2.76,1.33-3.39c0.18-0.62,0.89-9.07,0.71-10.14c-0.18-1.07-0.71-5.52-0.53-6.59  s0.66-1.53,0.66-1.53s1.25-4.34,2.71-9.96c2.05-7.89,4.52-18.31,4.52-22.86c0-7.78-0.56-24.47-7.23-30.03  c-6.68-5.56-17.28-13.03-20.22-12.66c-2.93,0.37-8.81-4.4-21.65-4.77c-12.85-0.37-45.48-7.85-55.89-7.2  c-10.41,0.65-51.39,1.3-65.05,3.25s-33.17,1.95-42.28,8.46c-9.11,6.5-16.32,17.91-16.88,20.14c-0.55,2.22-1.39,23.86,0,28.58  c1.39,4.72,3.33,20.26,3.61,22.48c0.28,2.22-4.92,167.44-4.92,171.56s-9.35,47.07-12.84,57.02c-3.48,9.95-9.44,45.76-9.94,54.71  c-0.5,8.95-0.15,28.05-0.15,30.01c0,1.95,2.94,16.46,2.94,16.46s-3.83,3.73-3.83,4.86s0.45,5.86,1.57,8.1  c1.13,2.25,30.15,69.52,30.15,69.52s6.98,4.03,11.71,5.61c4.73,1.58,7.57,1.89,12.3,2.21c4.73,0.31,81.06,0.95,83.27,0.31  c2.21-0.63,2.21-0.63,2.21-0.63l5.36-16.4l1.52-24.7c0,0,17.26,4.72,19.54,5.21c2.28,0.48,28.69,6.83,32.55,8.42  c3.85,1.59,25.88,7.27,31.55,11.35c5.68,4.09,23.16,6.13,26.79,7.04c3.63,0.91,37,3.86,40.86,3.18c3.86-0.68,16.12,0.23,19.3,0.23  s14.08-1.59,19.98-2.5c5.9-0.91,31.1-6.36,34.51-7.49c3.4-1.14,47.44-16.8,51.08-19.07c3.63-2.27,29.05-15.89,31.78-17.48  c2.72-1.59,21.57-12.49,24.97-15.44c3.41-2.95,13.62-10.44,14.3-12.03C1546.088,897.21,1546.458,896,1545.118,894.37z   M1246.938,505.46c0,0,25.79,6.16,30.41,12.8s15.02,31.76,16.17,35.08c1.16,3.32,1.16,8.53,1.16,8.53l-0.77,1.66  c0,0,0-5.21-1.16-8.53c-1.15-3.32-11.55-28.45-16.17-35.08c-4.62-6.64-30.41-12.8-30.41-12.8L1246.938,505.46z M1267.388,812.77  c5.16-4.5,6.38-10.19,6.98-18.29c0.61-8.09,0.8-32.77,0.8-41.08c0-8.3,1.05-31.66,1.57-40.48c0.53-8.82,3.59-22.78,5.58-28.17  c1.98-5.39,3.61-4.23,3.61-4.23l0.09,0.19c-0.23-0.3-0.94-0.6-2.53,3.77c-1.99,5.48-5.07,19.7-5.6,28.68  c-0.53,8.98-1.59,32.75-1.59,41.2c0,8.45-0.18,33.57-0.79,41.81c-0.61,8.24-1.83,14.04-7.02,18.62c-5.19,4.57-17.7,7.01-24.1,7.93  c-6.41,0.91-23.19,0.91-31.43,0.3s-36.56-9.05-36.56-9.05l-0.67-2c0,0,28.19,8.29,36.39,8.89c8.2,0.6,24.9,0.6,31.28-0.3  C1249.778,819.66,1262.228,817.27,1267.388,812.77z M1239.328,490.28l2.13,1.01c0,0-0.92,51.68-2.06,64.63  c-1.13,12.95-0.7,33.69-5.01,41.87c-4.32,8.17-12.89,18.67-18.4,19.99c-5.52,1.32-7.5,3.39-14.24,3.26  c-6.74-0.14-10.84,0.4-10.84,0.4l-2.12-1.02c0,0,4.09-0.54,10.83-0.4s8.72-1.94,14.24-3.25c5.52-1.32,14.09-11.82,18.4-20  c4.32-8.17,3.88-28.91,5.01-41.86C1238.408,541.95,1239.328,490.28,1239.328,490.28z M1188.818,497.82  c6.01,0.76,45.5,5.72,46.84,7.06l0.48,2.35c-1.34-1.33-40.83-6.3-46.83-7.06c-6.01-0.76-42.4,3.62-42.4,3.62l-0.49-2.35  C1146.418,501.44,1182.818,497.06,1188.818,497.82z M1138.008,552c0-13,3.58-64.56,3.58-64.56l2.21-0.83c0,0-3.59,51.56-3.59,64.57  c0,13-2.24,33.62,1.35,42.14s11.21,19.73,16.59,21.52c5.38,1.8,7.17,4.04,13.9,4.49c6.72,0.44,10.76,1.34,10.76,1.34l-2.21,0.83  c0,0-4.04-0.9-10.76-1.35c-6.73-0.45-8.52-2.69-13.9-4.48c-5.38-1.8-13-13-16.59-21.52C1135.758,585.63,1138.008,565,1138.008,552z   M1082.098,540.18c0,0,3.61-15.5,11.08-22.24c7.48-6.74,16.98-15.54,27.17-15.94c10.19-0.4,14.86-0.58,14.86-0.58l-0.83,3.91  c0,0-4.67,0.18-14.86,0.58c-10.19,0.4-19.69,9.2-27.17,15.94c-7,6.32-10.62,20.34-11.05,22.06L1082.098,540.18z M1070.728,779.65  c0,0,25.99,22.37,47.02,25.84c21.03,3.47,44.41,7.67,44.41,7.67l-2.42,1.46c0,0-23.31-4.54-44.28-8.33  c-20.98-3.79-46.61-26.54-46.61-26.54L1070.728,779.65z M1519.998,891.78c-4.12,3.77-24.7,19.85-28.83,22.94  c-4.12,3.09-39.15,21.66-46.14,24c-25.2,8.43-61.7,17.38-80.4,18.56c-28.51,1.78-74.71-7.22-97.92-12.37  c-18.51-4.11-27.12-11.9-37.11-15.46c-16.42-5.86-36.07-2.06-49.47-3.61c-13.4-1.55-54.15-5.88-69.06-7.73  c-20.27-2.52-47.43-16.64-47.43-16.64l-4.54-4.24c0.97,0.41,31.98,13.67,49.45,16.48c14.84,2.39,55.66,6.19,69.06,7.73  c0,0-7.46-20.49-9.34-40.27c-1.88-19.78,0-63.11,0-76.29c0-13.19,6.82-53.45,8.89-81.29c2.06-27.84,11.66-151.46,11.66-151.46  l-25.74,13.53l4.92-28.66l-20.83-20.29l28.78-4.19l12.87-26.07l12.87,26.07l28.77,4.19l-20.82,20.29l4.91,28.66l-25.73-13.53  l2.44,1.58c0,0-9.6,123.62-11.66,151.46c-2.06,27.84-8.89,68.1-8.89,81.29c0,13.18-1.88,56.51,0,76.29  c1.59,16.73,7.17,33.96,8.85,38.88c13.3,1.04,31.81-1.98,47.52,3.42c16.5,5.67,24.3,12.53,37.11,15.46  c27.07,6.2,84.83,13.52,97.92,12.37c21.23-1.86,73.56-15.77,80.4-18.55c14.14-5.76,42.77-20.62,46.89-23.71  c4.13-3.09,25.74-15.91,37.36-28.61L1519.998,891.78z" style="fill:#E5B51A;"/>
	<rect height="21.6" style="fill:#F79514;stroke:#231F20;stroke-miterlimit:10;" transform="matrix(6.123234e-17 -1 1 6.123234e-17 -620.4389 2987.9468)" width="5.4" x="1181.054" y="1793.393"/>
	<path d="M3794.867,1602.056c-2.461-0.305-4.948-0.345-7.417-0.118c-5.259,1.307-34.052,12.204-39.8,14.896  c-4.555,2.135-8.981,4.533-13.259,7.18c-27.486,16.999-44.209,41.563-18.66,47.342c0.827,0.181,1.701,0.354,2.614,0.496l0.748,0.126  h0.275c0.622-1.181,1.276-2.362,2-3.464l0.126-0.173c0.331-0.496,0.669-0.976,1.008-1.457c4.058-5.527,9.136-10.228,14.959-13.849  c0.14-0.163,0.327-0.279,0.535-0.331c0.787-0.496,1.614-0.984,2.441-1.464l1.535-0.85l0.953-0.504l0.071-0.039l1.252-0.646  c1.653-0.835,3.362-1.622,5.11-2.362c2.173-0.929,4.433-1.771,6.732-2.575l1.071-0.37c0.504-0.173,1-0.362,1.52-0.528l2.094-0.646  c1.039-0.315,2.086-0.614,3.149-0.905l1.26-0.346c1.126-0.291,2.26-0.575,3.409-0.842c1.15-0.268,2.307-0.528,3.48-0.787  c0.535-0.11,1.063-0.252,1.575-0.323C3812.464,1634.526,3797.041,1609.93,3794.867,1602.056z" style="fill:#F7CB14;"/>
	<path d="M2184.878,1322.631c1.563-3.647,4.704-6.067,8.487-7.572c-1.937-4.551-5.079-7.287-7.06-9.488  c-3.349-3.721-6.326-3.721-11.535-3.721c-0.977,0-1.941,0.026-2.895,0.105c-4.129,0.34-8.059,1.664-11.989,6.102  c-1.816,2.051-2.006,7.982-1.535,14.59c0.615,8.626,2.354,18.39,3.074,22.199c0.198,1.044,0.321,1.655,0.321,1.655l29.167,2.431  C2190.914,1348.933,2179.703,1334.704,2184.878,1322.631z" style="fill:#E5B51A;"/>
	<path d="M3817.251,1659.477c-0.953-0.535-1.945-2.669-1.574-3.819c0.52-1.614-0.858-2.921-3.291-3.937  c-4.07-1.716-11.085-2.653-17.179-2.905c-2.545-0.129-5.095-0.102-7.637,0.079c-6.44,0.543-6.732,2.472,11.865,5.441l0.858,0.15  c0.638,0.598,3.574,5.385-0.244,5.118c-2.693-0.189-3.055,3.779-0.362,4.645l1.858,0.606c3.149,1.031,6.968,2.299,10.306,3.236  c2.198,0.711,4.469,1.165,6.771,1.354c0.16,0.009,0.32,0.009,0.48,0c0.222-0.021,0.443-0.055,0.661-0.102  c0.839-0.159,1.602-0.594,2.165-1.236C3824.51,1665.004,3821.621,1661.925,3817.251,1659.477z" style="fill:#F7CB14;"/>
	<path d="M1621.196,1269.331c6.301,4.168,11.604,6.56,11.604,6.56l4.771-7.463l8.24-12.89l22.757-35.598  l17.453-27.301c0,0-2.379-8.028-5.947-10.704c-3.568-2.676-10.406-3.271-10.406-3.271l-18.023,13.612l-15.457,11.674  c1.058,1.187,1.369,2.068,1.369,2.068L1621.196,1269.331z" style="fill:#161616;"/>
	<path d="M3904.685,1855.42c0.234,1.394,0.234,2.818,0,4.212c-0.496,4.385-2.016,10.448-2.622,14.4  c9.968-9.078,17.699-25.494,23.47-59.192c0.826-3.77,1.84-7.496,3.039-11.164l0,0c0.055-0.346,0.11-0.677,0.173-1.031  c0.071-0.48,0.15-0.945,0.228-1.433c0.441-2.779,0.89-5.511,1.331-8.283c1.465-9.06,2.876-17.815,4.236-26.266  c-1.354,7.566-2.441,8.267-4.126,13.479c-0.606,1.866-1.244,3.795-1.913,5.763c-5.086,14.959-12.526,48.153-18.424,60.026  c-1.724,3.456-3.315,5.118-4.677,3.937l-1.496,4.362C3904.339,1854.481,3904.629,1854.923,3904.685,1855.42z" style="fill:#0DCC5A;"/>
	<path d="M3904.685,1855.42c0.234,1.394,0.234,2.818,0,4.212c-0.496,4.385-2.016,10.448-2.622,14.4  c9.968-9.078,17.699-25.494,23.47-59.192c0.826-3.77,1.84-7.496,3.039-11.164l0,0c0.055-0.346,0.11-0.677,0.173-1.031  c0.071-0.48,0.15-0.945,0.228-1.433c0.441-2.779,0.89-5.511,1.331-8.283c1.465-9.06,2.876-17.815,4.236-26.266  c-1.354,7.566-2.441,8.267-4.126,13.479c-0.606,1.866-1.244,3.795-1.913,5.763c-5.086,14.959-12.526,48.153-18.424,60.026  c-1.724,3.456-3.315,5.118-4.677,3.937l-1.496,4.362C3904.339,1854.481,3904.629,1854.923,3904.685,1855.42z" style="fill:#0DCC5A;"/>
	<path d="M2888.646,1379.09c-17.482-3.411-10.66,9.807-10.66,9.807s-12.792,0.853-40.081-2.985  c-27.289-3.838-42.265-13.218-42.265-13.218l-8.476,23.878c0,0,2.859-1.632,7.956-3.283c1.542-0.5,3.301-0.998,5.237-1.457  c2.995-0.709,6.427-1.318,10.259-1.656c14.497-1.279,67.37,5.969,67.37,5.969s5.543,11.939,14.814,5.97  C2902.07,1396.146,2906.128,1382.501,2888.646,1379.09z" style="fill:#58DB5E;"/>
	<path d="M879.515,1255.626c11.205-23.593,34.667-73.578,34.606-78.356  c-0.053-4.157,9.722-29.161,16.33-45.574c-3.284-2.642-6.279-6.073-8.686-10.183l-55.421,129.913  C871.427,1251.316,875.95,1253.204,879.515,1255.626z" style="fill:#0A0A0A;"/>
	<path d="M2678.442,1301.619c1.93-1.706,3.124-4.054,3.124-6.647c0-5.212-4.817-9.437-10.758-9.437  c-5.942,0-10.758,4.225-10.758,9.437c0,4.798,4.084,8.75,9.367,9.349c0.258,1.827,0.35,4.406-0.528,6.84  c-1.59,4.409-7.364,9.012-7.364,9.012l18.388,2.482l-2.278-19.148C2677.637,1303.507,2678.004,1302.772,2678.442,1301.619z" style="fill:#F464BA;"/>
	<path d="M643.987,1091.941c-37.41,0-67.75,30.33-67.75,67.75  c0,37.41,30.34,67.75,67.75,67.75c37.42,0,67.75-30.34,67.75-67.75C711.737,1122.271,681.407,1091.941,643.987,1091.941z   M588.138,1168.431h-4.25v-18h4.25V1168.431z M652.737,1219.791h-18v-4.25h18V1219.791z M653.247,1103.841h-18v-4.26h18V1103.841z   M699.837,1168.941v-18h4.26v18H699.837z" style="fill:#0DCC5A;stroke:#231F20;stroke-miterlimit:10;"/>
	<path d="M1608.446,1146.77l-2.192-48.826c0,0-4.97-2.125-8.835-2.125s-8.028,1.973-8.028,1.973l-5.36,29.89  l10.893,57.806L1608.446,1146.77z" style="fill:#BF1682;"/>
	<rect height="360" style="fill:#F79514;stroke:#231F20;stroke-miterlimit:10;" width="215.511" x="1078.391" y="2005.195"/>
	<path d="M1593.675,2722.501l-14.638-19.572c-1.77-2.366-2.705-5.253-2.66-8.208l3.456-223.841  c0.073-4.727-0.76-9.425-2.454-13.839l-14.144-36.855c-4.099,5.444-11.108,9.084-19.125,9.296l16.22,29.796  c1.699,3.121,2.252,6.725,1.559,10.21c-3.091,15.55-9.861,37.574-11.043,75.465c-0.989,31.699,9.292,116.133,11.436,148.704  c0.431,6.542,3.166,12.703,7.72,17.418l11.691,13.139c2.619,2.711,5.227,4.243,8.998,4.243  C1593.759,2728.457,1595.512,2724.957,1593.675,2722.501z" style="fill:#161616;"/>
	<path d="M4191.353,2235.871c-0.228-7.471,2.6-37.095-35.442-42.706c-1.76-0.26-3.296,1.209-3.099,2.977l0,0  c16.2,59.52-22.36,86.52-57.096,88.608c-27.614,1.66-57.939-24.536-57.647-59.227c0.299-35.615,15.511-61.027,50.464-60.39  c24.563,0.448,44.967,21.336,44.809,51.732c-0.119,22.794-17.431,41.34-38.857,41.34c-18.756,0-34.015-16.234-34.015-36.189  c0-17.54,13.413-31.811,29.9-31.811c7.572,0,14.568,3.446,19.195,9.454c4.31,5.597,6.009,12.906,4.661,20.055  c-1.08,5.718-5.461,12.826-14.258,14.038c-3.42,0.47-8.238-0.33-11.511-3.983c-1.506-1.682-3.881-5.409-2.861-11.474l0.014,0.003  c0.548-3.278,3.226-5.772,6.464-5.772c3.029,0,5.554,2.19,6.32,5.154c0.211,0.934,1.767,1.437,2.461,0.333  c0.266-0.433,0.428-0.845,0.467-1.055c0.74-3.922-0.645-6.746-1.938-8.425c-2.117-2.749-5.403-4.326-9.014-4.326  c-11.221,0-19.899,11.808-15.632,24.358c4.108,12.081,17.061,18.382,28.423,14.033c9.913-3.794,18.314-18.369,18.314-30.205  c0-18.415-15.59-31.53-32.9-31.53c-21.004,0-37.878,20.784-37.878,43.13c0,26.971,20.497,46.981,45.837,46.172  c29.462-0.942,50.496-28.147,48.819-57.59c-2.207-38.742-44.095-96.192-77.677-94.879c-16.115,0.63-20.924,8.057-28.836,15.16  c-0.198,0.178-0.471,0.259-0.735,0.223c-64.963-9.018-69.675,31.591-75.924,93.376c-2.21,33.861-10.537,42.957-24.323,37.648  c-14.692-5.658-5.165-13.327-1.238-15.917c0.757-0.499,0.905-1.546,0.314-2.234l-7.949-9.274c-0.5-0.583-1.301-0.798-2.032-0.561  c-36.805,11.933-20.535,46.633-7.857,59.875c12.741,13.307,52.578,20.973,79.628-16.993c0.26-0.365,0.752-0.489,1.141-0.266  c2.89,1.652,6.775,2.114,10.995,1.872l-0.002,0.002c0,0-0.963,24.74,0,48.128c0.935,22.718,28.87,19.734,30.47,19.544  c0.049-0.006,0.094-0.007,0.143-0.004c1.147,0.064,15.771,0.507,21.816-17.827c1.775-5.703,66.916-4.843,67.671,1.739  c0.277,18.284,6.261,19.252,26.485,19.25C4201.001,2351.429,4191.521,2241.41,4191.353,2235.871z" style="fill:#E5B51A;"/>
	<path d="M1399.657,2324.767c0-2.824,0.358-5.541,1.008-8.094l-42.25,54.026  c-3.504,4.481-4.962,10.229-4.018,15.838l47.436,281.755c1.35,8.021-3.411,15.812-11.165,18.268l-7.457,2.362  c-2.151,0.681-2.843,3.381-1.286,5.013h0c3.097,3.246,7.822,4.351,12.037,2.816l18.863-6.871c4.348-1.584,6.954-6.036,6.207-10.602  l-46.543-284.516c-1.564-9.56,1.995-19.24,9.378-25.51l26.799-22.76C1403.223,2341.686,1399.657,2333.756,1399.657,2324.767z" style="fill:#161616;"/>
	<path d="M959.257,1507.003c0.347,0,0.681-0.058,1.003-0.147c1.238-0.343,2.246-1.296,2.617-2.576  c1.447-4.998,4.303-15.801,4.303-23.212c0-5.151,0-14.695,0-22.69c-9.03,3.881-20.783,7.603-34.192,8.705  c1.838,8.947,4.456,20.425,6.655,25.191c2.671,5.788,6.581,10.648,8.716,13.072c0.54,0.613,1.224,1.051,1.972,1.329  c0.538,0.2,1.105,0.328,1.694,0.328H959.257z" style="fill:#E5B51A;"/>
	<path d="M2186.305,1305.571c1.981,2.201,5.122,4.937,7.06,9.488c4.72-1.877,10.437-2.313,15.369-1.897  c-0.199-0.017-0.392-0.04-0.593-0.054c0.969-6.596,2.727-13.044,5.774-17.903l-0.648-10.549c-0.286-4.653-4.654-7.955-9.209-6.96  l-24.153,5.277c-5.112,1.117-8.671,5.763-8.417,10.989l0.387,7.992c0.953-0.079,1.918-0.105,2.895-0.105  C2179.98,1301.85,2182.956,1301.85,2186.305,1305.571z" style="fill:#ED6D15;"/>
	<path d="M2425.904,1299.779c-3.071-2.111-11.183-2.255-19.543-1.31c-5.214,0.589-10.523,1.601-14.768,2.825  c-4.24,1.223-7.418,2.656-8.374,4.091c-3.449,5.174,1.725,23.715,1.725,23.715h4.42h44.734c0,0-0.008-0.149-0.024-0.401  C2433.873,1325.552,2432.292,1304.17,2425.904,1299.779z" style="fill:#E5B51A;"/>
	<path d="M2307.766,1309.697c-5.989-2.995-15.442-1.509-23.599,1.442c-5.937,2.148-11.188,5.07-13.913,7.612  c-1.539,1.437-2.329,3.443-2.664,5.655c-0.785,5.174,0.987,11.495,2.01,14.535c0.115,0.34,0.222,0.651,0.312,0.902  c0.207,0.576,0.342,0.91,0.342,0.91h26.764c0,0,0,0,0-0.001c0.166-1.149,0.413-2.33,0.754-3.54c0.012-0.052,0.029-0.106,0.045-0.159  c0.144-0.499,0.309-1.003,0.487-1.511c0.048-0.136,0.095-0.272,0.145-0.409c0.209-0.57,0.434-1.143,0.69-1.723  c0.199-0.452,0.413-0.888,0.64-1.311c0.083-0.155,0.176-0.299,0.263-0.45c0.149-0.26,0.296-0.524,0.455-0.773  c0.115-0.18,0.24-0.347,0.36-0.52c0.143-0.206,0.281-0.418,0.431-0.616c0.142-0.188,0.294-0.365,0.443-0.546  c0.138-0.169,0.272-0.343,0.416-0.505c0.168-0.191,0.346-0.369,0.521-0.551c0.016-0.016,0.031-0.033,0.047-0.049  c0.118-0.122,0.233-0.249,0.354-0.367c0.194-0.189,0.396-0.366,0.597-0.545c0.127-0.113,0.251-0.231,0.381-0.341  c0.221-0.186,0.45-0.361,0.678-0.535c0.118-0.09,0.232-0.184,0.352-0.271c0.249-0.181,0.506-0.352,0.763-0.52  c0.105-0.069,0.208-0.142,0.315-0.209c0.276-0.174,0.559-0.336,0.844-0.496c0.093-0.052,0.185-0.108,0.279-0.159  c0.304-0.164,0.614-0.318,0.926-0.468c0.078-0.037,0.154-0.077,0.232-0.113c0.332-0.154,0.669-0.297,1.01-0.435  c0.061-0.025,0.122-0.051,0.183-0.075c0.359-0.141,0.722-0.272,1.089-0.395c0.045-0.015,0.089-0.031,0.134-0.046  c0.383-0.126,0.77-0.242,1.16-0.349c0.03-0.008,0.059-0.017,0.089-0.025c0.404-0.109,0.812-0.209,1.222-0.298  c0.017-0.004,0.034-0.008,0.051-0.011c0.422-0.091,0.846-0.172,1.274-0.243c0.006-0.001,0.013-0.002,0.019-0.003  c0.435-0.072,0.872-0.133,1.31-0.184c0,0,0,0,0.001,0C2314.281,1316.615,2311.696,1311.662,2307.766,1309.697z" style="fill:#E5B51A;"/>
	<path d="M1476.986,1709.608c2.608-1.196,5.499-1.88,8.555-1.88c2.732,0,5.335,0.544,7.72,1.511  c3.077-5.757,7.614-9.876,12.85-11.237c-0.024-5.042-1.992-9.668-5.248-13.39c-1.737-1.985-3.823-3.726-6.215-5.108  c-3-1.732-6.44-2.928-10.145-3.428c-0.633-0.085-1.272-0.152-1.919-0.196c-0.006,0-0.012-0.001-0.018-0.001  c-0.652-0.044-1.312-0.068-1.977-0.068c-13.89,0-25.165,9.689-25.497,21.745c0.446-0.025,0.889-0.067,1.342-0.067  C1465.336,1697.49,1473.064,1702.399,1476.986,1709.608z" style="fill:#F7CB14;"/>
	<path d="M2243.439,1327.989c0,2.909-2.358,5.267-5.267,5.267c-2.909,0-5.267-2.358-5.267-5.267  c0-2.909,2.358-5.267,5.267-5.267C2241.081,1322.722,2243.439,1325.08,2243.439,1327.989z" style="fill:#2D88E2;"/>
	<path d="M1503.191,1240.339l0.32,0.468c0,0,5.269-1.323,11.268-3.496l-11.268-28.742  c0,0,2.622-6.629,9.392-9.591c0.914-0.4,1.831-0.714,2.735-0.968l-2.22-7.221l-53.959-58.208c0,0-6.244-0.595-12.785,4.46  c-6.541,5.055-6.541,11.001-6.541,11.001l41.696,61.03l16.789,24.574L1503.191,1240.339z" style="fill:#BF1682;"/>
	<path d="M1466.69,2315.454c-12.256,0-22.191,11.531-22.191,25.755c0,14.224,9.935,25.756,22.191,25.756  s22.191-11.531,22.191-25.756C1488.881,2326.985,1478.946,2315.454,1466.69,2315.454z" style="fill:#BF1682;"/>
	<path d="M3589.544,940.883l-60.46-85.15l23.73-16.85l-12.51-17.61  l-23.73,16.84l-52.08-73.35l-78.26,55.57l-16.68-23.51l-17.62,12.51l16.69,23.5l-76.14,54.06l125.05,176.12l75.98-53.95l16.81,23.67  l17.61-12.51l-16.81-23.66L3589.544,940.883z M3375.385,964.913l-12.51-17.61l4.41-3.12l12.5,17.61L3375.385,964.913z   M3505.465,846.063l4.4-3.13l12.51,17.61l-4.4,3.13L3505.465,846.063z" style="fill:#B71515;stroke:#231F20;stroke-miterlimit:10;"/>
	<path d="M2568.017,1325.152c0,0-30.785-13.527-52.589-11.335c-21.804,2.192-31.124,11.335-31.124,11.335  l37.027,5.241L2568.017,1325.152z" style="fill:#BF1682;"/>
	<path d="M3747.013,1795.748c-4.606-1.488-12.967-3.937-15.29-8.149  c-37.201-67.089-32.501-36.635-41.603-7.574c-4.606,14.707-8.377,29.218-6.393,34.296c2.244,3.748,53.177-5.157,61.546-5.826  c0.359-0.22,0.795-0.275,1.197-0.15c0.31-0.057,0.623-0.093,0.937-0.11l-0.189-0.039  C3748.187,1807.574,3750.178,1797.992,3747.013,1795.748z" style="fill:#0DCC5A;"/>
	<path d="M1607.793,2293.639c-1.302-33.462-7.729-184.51-13.448-252.87  c-12.716-151.983-49.392-307.27-49.392-307.27l-11.629,0.52l-3.229,0.144l-25.219,1.128l-14.792,0.662l-17.348,0.776l-5.828,0.261  l-25.196,1.127l-4.247,0.19l-18.697,0.836l-2.589,0.116c0,0-11.992,111.353-11.992,253.543c0,173.986,14.602,288.821,16.843,305.419  c0.186,1.379,0.288,2.087,0.288,2.087c0,17.266,3.164,33.623,8.798,48.286c2.311,6.015,5.044,11.737,8.146,17.122  c10.328,17.933,24.779,32.056,41.681,40.332c10.741,5.26,22.458,8.182,34.74,8.182c1.929,0,3.839-0.094,5.738-0.235  c15.564-1.153,30.104-6.935,42.687-16.267c14.041-10.414,25.647-25.223,33.548-42.857c7.26-16.204,11.392-34.794,11.392-54.563  C1608.049,2300.308,1607.96,2297.929,1607.793,2293.639z" style="fill:#F2F2F1;"/>
	<path d="M1608.446,1146.77l-2.192-48.826c0,0-4.97-2.125-8.835-2.125s-8.028,1.973-8.028,1.973l-5.36,29.89  l10.893,57.806L1608.446,1146.77z" style="fill:#BF1682;"/>
	<path d="M3945.414,1584.357c-0.15-0.197-0.992,1.079-0.984,1.834c0,0.976,0,1.96,0,2.96  c0,0.339,0,0.677,0,1.016c0,1.15,0,2.323,0,3.511l0,0c0,1.22,0,2.464,0,3.724c0,2.535,0.018,5.144,0.055,7.826  c2.135,1.536,4.186,3.186,6.141,4.944l0.527,0.488c0.15,0.134,0.292,0.26,0.433,0.402c3.656,3.337,6.865,7.132,9.55,11.29  C3972.529,1622.716,3954.948,1587.522,3945.414,1584.357z" style="fill:#0DCC5A;"/>
	<path d="M2787.147,1422.834c-0.252-0.015-0.501-0.01-0.749-0.005c-1.823-3.053-4.275-7.108-5.919-9.617  c-2.909-4.439,1.246-21.514,1.246-21.514l-21.762,10.075c0,0,10.723,6.6,15.936,12.455c2.591,2.909,4.452,6.829,5.669,10.039  c-2.524,1.579-4.274,4.309-4.459,7.507c-0.303,5.24,3.699,9.735,8.939,10.038c5.24,0.303,9.735-3.699,10.038-8.939  C2796.39,1427.632,2792.388,1423.137,2787.147,1422.834z" style="fill:#BF1682;"/>
	<path d="M1022.672,1251.418c-5.853-0.516-10.549,0.359-14.483,2.096c-6.416,2.833-10.783,7.985-14.677,13.325  c-5.662,7.763-10.353,15.89-18.989,17.741c-15.071,3.229-21.24-5.111-30.656-7.724c-1.967-0.546-4.071-0.847-6.432-0.735  c-4.676,0.223-8.133,1.589-11.179,3.446c-5.855,3.569-10.192,8.951-18.752,11.519c-13.013,3.904-21.472,0-24.074-7.157  c-2.603-7.157,6.507-14.965,3.904-20.171c-0.994-1.989-3.797-5.399-7.819-8.132c-3.565-2.422-8.088-4.311-13.172-4.2  c-4.194,0.091-8.767,1.54-13.494,5.176c-15.457,11.89-9.404,74.293-7.748,108.801c0.309,6.437,1.01,12.845,2.123,19.193  l10.487,59.783c1.058,6.028,5.307,10.993,11.092,12.992c3.929,1.358,8.955,2.934,14.752,4.431  c8.724,2.253,19.231,4.311,30.565,5.175c3.582,0.273,7.237,0.44,10.952,0.44c2.696,0,5.334-0.121,7.915-0.333  c13.408-1.102,25.162-4.825,34.192-8.705c5.841-2.51,10.547-5.084,13.818-7.054c3.336-2.009,5.824-5.151,7.045-8.849  C998.417,1411.065,1049.027,1253.741,1022.672,1251.418z" style="fill:#F2F2F1;"/>
	<path d="M1526.758,882.01l-6.76,9.77c-4.12,3.77-24.7,19.85-28.83,22.94  c-4.12,3.09-39.15,21.66-46.14,24c-25.2,8.43-61.7,17.38-80.4,18.56c-28.51,1.78-74.71-7.22-97.92-12.37  c-18.51-4.11-27.12-11.9-37.11-15.46c-16.42-5.86-36.07-2.06-49.47-3.61c-13.4-1.55-54.15-5.88-69.06-7.73  c-20.27-2.52-47.43-16.64-47.43-16.64l-4.54-4.24c0.97,0.41,31.98,13.67,49.45,16.48c14.84,2.39,55.66,6.19,69.06,7.73  c0,0-7.46-20.49-9.34-40.27c-1.88-19.78,0-63.11,0-76.29c0-13.19,6.82-53.45,8.89-81.29c2.06-27.84,11.66-151.46,11.66-151.46  l2.44,1.58c0,0-9.6,123.62-11.66,151.46c-2.06,27.84-8.89,68.1-8.89,81.29c0,13.18-1.88,56.51,0,76.29  c1.59,16.73,7.17,33.96,8.85,38.88c13.3,1.04,31.81-1.98,47.52,3.42c16.5,5.67,24.3,12.53,37.11,15.46  c27.07,6.2,84.83,13.52,97.92,12.37c21.23-1.86,73.56-15.77,80.4-18.55c14.14-5.76,42.77-20.62,46.89-23.71  C1493.528,907.53,1515.138,894.71,1526.758,882.01z" style="opacity:0.84;fill:#F2F2F1;"/>
	<path d="M2372.466,753.538c2.57,21.02,24.38,218.35-49.91,308.39  c-76.19,92.33-197.63,103.39-204.82,103.96c-0.22,0.02-0.43,0.03-0.64,0.03h-19.1c-0.17,0-0.34-0.01-0.5-0.02  c-6.34-0.5-128.42-11.29-204.9-103.97c-74.62-90.44-52.29-289.09-49.88-308.66c-10.64-7.75-16.45-15.68-16.45-23.32  c0-35.82,127.78-90.1,283.14-90.1c155.36,0,279.46,54.28,279.46,90.1C2388.866,737.678,2383.086,745.708,2372.466,753.538z" style="fill:#ED6D15;stroke:#231F20;stroke-miterlimit:10;"/>
	<path d="M1532.118,2311.711c0-4.802-4.487-8.695-10.021-8.695s-10.021,3.893-10.021,8.695l16.131,156.436  c0.022,0.211,0.025,0.424,0.009,0.635l-16.091,213.047c-0.032,0.423,0.012,0.848,0.129,1.256l12.308,42.786  c0.584,2.031,2.795,3.113,4.758,2.328l0,0c1.617-0.647,2.531-2.365,2.165-4.067l-9.269-43.054c-0.078-0.364-0.099-0.738-0.062-1.109  l21.56-214.426c0.021-0.208,0.024-0.418,0.008-0.627L1532.118,2311.711z" style="fill:#161616;"/>
	<path d="M1532.118,2311.711c0-4.802-4.487-8.695-10.021-8.695s-10.021,3.893-10.021,8.695l16.131,156.436  c0.022,0.211,0.025,0.424,0.009,0.635l-16.091,213.047c-0.032,0.423,0.012,0.848,0.129,1.256l12.308,42.786  c0.584,2.031,2.795,3.113,4.758,2.328l0,0c1.617-0.647,2.531-2.365,2.165-4.067l-9.269-43.054c-0.078-0.364-0.099-0.738-0.062-1.109  l21.56-214.426c0.021-0.208,0.024-0.418,0.008-0.627L1532.118,2311.711z" style="fill:#161616;"/>
	<path d="M1445.64,2412.199c3.668,1.302,7.677,2.032,11.887,2.032c8.79,0,16.724-3.139,22.417-8.182  c-16.903-8.276-31.353-22.399-41.681-40.332c-7.348,4.966-12.09,12.685-12.09,21.379c0,4.194,1.131,8.149,3.094,11.695  C1432.612,2404.834,1438.443,2409.643,1445.64,2412.199z" style="fill:#BF1682;"/>
	<path d="M903.995,1483.94c-0.666,0.406-1.426,0.649-2.225,0.649h-6.082c-0.473,0-0.934-0.085-1.369-0.236  l10.918,161.866h7.244L903.995,1483.94z" style="fill:#0A0A0A;"/>
	<path d="M1735.136,1368.366c-1.115-3.294-3.192-9.354-4.173-11.734c-1.377-3.344-11.642-7.61-11.642-7.61  s-1.971,10.05-20.845,17.894s-32.31,2.548-32.31,2.548l0,0l0,0c0,0-2.676,2.316-2.872,5.66c-0.156,2.647,2.276,15.521,3.297,20.776  c0.253,1.303,1.394,2.24,2.722,2.24c0.695,0,1.259-0.564,1.259-1.259v-9.941c0-0.533,0.46-0.95,0.991-0.897l0.004,0  c0.552,0.055,0.972,0.52,0.972,1.074v4.443c0,0.809,0.656,1.464,1.464,1.464c0.176,0,0.324-0.129,0.349-0.303l2.098-14.846  c0.239-1.692,1.687-2.949,3.395-2.949c1.033,0,1.943,0.681,2.234,1.672l4.476,15.251c0.204,0.696,0.843,1.174,1.568,1.174h1.479  c0.354,0,0.641-0.287,0.641-0.641v-2.78c0-0.609,0.494-1.103,1.103-1.103h0.097c0.537,0,1.012,0.348,1.175,0.859l0.922,2.899  c0.145,0.456,0.569,0.766,1.047,0.766h1.754c0.326,0,0.59-0.264,0.59-0.59v-20.432c0-0.786,0.637-1.423,1.423-1.423  c0.699,0,1.342,0.383,1.675,0.997l6.606,12.19c0.326,0.601,0.985,0.942,1.663,0.862l1.326-0.157  c0.461-0.054,0.762-0.509,0.633-0.955l-1.279-4.406c-0.136-0.47,0.123-0.963,0.587-1.118l0.333-0.111  c0.344-0.115,0.718,0.052,0.864,0.384l3.656,8.331c0.175,0.398,0.64,0.578,1.037,0.402l1.213-0.539  c0.416-0.185,0.636-0.645,0.52-1.085l-4.857-18.348c-0.135-0.509,0.201-1.022,0.722-1.102l0.38-0.058  c1.531-0.235,3.087,0.223,4.246,1.251l7.166,6.357c1.051,0.932,2.426,1.416,3.829,1.345l2.015-0.101  c0.413-0.021,0.645-0.485,0.412-0.827l-5.592-8.241c-0.21-0.309-0.099-0.733,0.235-0.9l0.366-0.183  c0.306-0.153,0.677-0.07,0.889,0.2l6.139,7.825c0.381,0.486,1.127,0.454,1.465-0.062  C1735.411,1371.295,1735.609,1369.762,1735.136,1368.366z" style="fill:#E5B51A;"/>
	<path d="M3672.594,1825.266c-1.464-8.07-5.803-37.721-8.393-35.973c-0.126,0.158-11.456,10.661-11.959,12.597  c-0.299,1.134-0.961,3.441-0.969,3.472c-0.354,0.433-1.252,1.575-1.378,1.685l-1.574,1.929l-0.094,0.118l-0.646,0.787  c-0.575,0.732-1.071,1.378-1.464,1.913l0,0l-0.654,0.953l-0.11,0.181c-0.073,0.113-0.136,0.231-0.189,0.354  c-0.142,0.37,7.157,14.361,12.188,14.889l1.511,0.157C3663.776,1828.911,3672.602,1826.124,3672.594,1825.266z" style="fill:#F7CB14;"/>
	<path d="M3955.979,2466.904c-3.368,2.646-12.564,4.512-21-0.356c8.275-6.256,14.781-13.013,19.151-19.369  c4.985-7.054,7.506-13.644,8.098-19.434c13.316-7.332,15.495-17.115,15.397-24.337c-0.039-2.858-3.076-4.673-5.634-3.398  c-4.758,2.372-11.625,6.143-14.825,9.576c-0.264,0.284-0.543,0.563-0.83,0.839c-1.589-1.49-3.443-2.726-5.525-3.66  c-7.941-3.797-18.09-5.331-27.892-6.743c5.909-2.858,15.009-3.536,16.345-3.82c14.904-3.169,31.241-26.477,18.566-30.134  c-17.41-7.116-39.726,10.508-47.629,31.939c-1.236-0.238-2.446-0.492-3.618-0.767c-14.033-2.543-23.438-7.93-30.707-9.444  c-7.476-2.027-15.455,1.168-30.639,5.126c-6.799,2.049-15.202,4.269-23.963,7.168c3.863-7.824,12.988-10.76,17.676-14.589  c1.406-1.148,2.158-2.924,1.983-4.731c-1.823-18.904,21.751-20.29,17.136-25.044c-17.913-17.302-57.141,7.965-52.426,45.241  c0.22,1.737,0.449,3.328,0.687,4.783c-4.872,2.128-9.641,4.545-14.087,7.359c-3.25,2.403-6.147,4.852-8.695,7.361  c-3.974,4.078-6.55,9.078-7.504,14.533c-36.651-1.069-46.354,9.958-47.843,12.023c-0.133,0.185-0.245,0.384-0.339,0.591  c-3.771,8.327-3.483,17.496-2.959,22.301c0.197,1.812,1.743,3.183,3.564,3.124c5.771-0.188,10.359,1.143,12.182,1.772  c0.47,0.162,0.912,0.398,1.281,0.731c7.713,6.975,31.381,6.021,50.268-5.614c5.073,4.273,11.382,8.217,18.648,11.526  c-0.068,0.133-0.134,0.268-0.186,0.412c-10.512,29.021,12.342,65.791,60.013,78.176c2.57,0.668,4.972-1.617,4.399-4.21  c-1.706-7.719-5.762-14.208-8.627-18.056c-1.829-2.456-2.997-5.342-3.391-8.379c-2.227-17.175-17.203-30.827-23.579-31.873  c-0.62-0.102-1.201-0.384-1.681-0.788c-2.512-2.114-4.02-5.133-4.927-8.055c11.596,2.498,24.405,3.387,37.77,1.948  c19.28-1.458,36.434-7.33,50.463-15.092c0.012,0.264,0.021,0.41,0.021,0.41c33.669,29.692,69.723,19.263,75.086-9.043  C3976.138,2452.669,3960.151,2463.626,3955.979,2466.904z M3866.906,2479.23c-23.814,1.651-44.258-5.515-54.905-15.443  c-10.976-9.994-12.155-22.748-5.032-33.803c0.508-0.804,2.526-0.112,2.242,0.76c-3.479,10.299,0.049,21.717,10.925,30.149  c10.637,8.431,28.622,13.875,48.54,12.217c25.493-1.934,43.475-12.425,52.164-21.997c8.96-9.879,8.627-18.839,3.758-24.804  c-5.166-6.251-13.308-9.515-21.366-11.743c-8.239-2.135-16.394-3.232-25.748-3.01c-6.623,0.136-12.903,1.929-19.473,5.445  c-6.406,3.532-13.102,8.788-16.769,16.217c-2.714,5.501-1.467,11.614,4.091,16.222c5.422,4.6,15.155,7.695,26.276,6.966  c9.738-0.538,18.332-4.068,23.531-8.31c5.294-4.276,7.193-9.264,5.728-13.515c-3.005-7.409-13.921-11.187-24.55-11.028  c-5.071,0.169-9.922,1.559-13.948,4.21c-3.704,2.462-6.198,5.872-6.053,9.518c0.072,2.87,3.05,6.884,11.03,7.456  c3.065,0.225,7.519-0.384,10.383-2.382c1.344-0.912,3.283-2.882,2.307-5.666c-0.004,0.001-0.007,0.002-0.011,0.002  c-0.523-1.506-2.662-2.5-5.207-2.391c-2.383,0.106-4.47,1.172-5.255,2.616c-0.216,0.456-1.535,0.703-2.038,0.156  c-0.192-0.214-0.297-0.417-0.316-0.519c-0.337-1.923,0.962-3.276,2.04-4.082c1.789-1.32,4.283-2.088,6.973-2.219  c8.043-0.31,15.842,3.583,13.415,9.973c-2.377,6.21-15.12,11.17-25.842,8.821c-9.453-1.916-14.509-10.336-12.209-16.135  c3.785-9.052,15.625-13.459,25.915-13.859c6.488-0.192,12.658,1.306,18.451,3.645c5.681,2.395,10.987,5.63,13.159,10.211  c2.617,5.405,0.547,12.138-6.716,18.062c-7.097,5.855-19.388,10.902-33.374,11.335c-16.311,0.715-29.344-4.818-35.433-11.759  c-6.341-7.011-5.738-15.429-0.594-22.113c6.89-8.931,15.765-14.677,23.539-18.278c7.991-3.582,14.882-5.02,22.797-4.889  c7.953,0.034,16.397,1.866,26.413,4.081c9.737,2.48,21.045,5.345,28.298,13.559c5.495,6.702,6.879,16.855-3.25,28.966  C3920.975,2463.495,3899.645,2477.069,3866.906,2479.23z" style="fill:#0DCC5A;"/>
	<path d="M2363.223,1365.855c0,0,3.373-21.831,22.048-22.67s19.544,14.588,19.544,14.588L2363.223,1365.855z" style="fill:#BF1682;"/>
	<path d="M2454.196,1403.195c-9.023-9.479-19.593-15.953-31.718-16.216  c-24.771-0.539-39.942,11.769-49.237,26.709c8.719,3.892,20.716,6.298,33.963,6.298c7.312,0,14.24-0.736,20.45-2.047  C2440.872,1415.149,2450.817,1409.74,2454.196,1403.195z" style="fill:#1B8FEF;"/>
	<path d="M2685.53,1420.841c-5.684-16.631-15.264-34.413-30.168-33.861  c-17.785,0.659-29.556,19.033-37.35,42.544c19.48,27.362,16.741,61.532,16.741,61.532h9.274  C2644.027,1491.056,2637.521,1422.168,2685.53,1420.841z" style="fill:#F464BA;"/>
	<path d="M349.926,1685.148c0.04,4.57,2.1,6.42,4.64,6.57v4.62c-2.75-0.25-5.59-0.85-7.62-2.97  c-2.66-2.79-2.41-9.44-1.71-12.37c1.01-4.21,3.47-5.72,7.64-6.75c0.56-0.13,1.13-0.2,1.69-0.2v4.83  C351.636,1679.048,349.896,1681.368,349.926,1685.148z" style="fill:#0A0A0A;"/>
	<path d="M2310.843,1348.21h-2.56c-2.824,0-5.135-2.311-5.135-5.135l0,0c0-2.824,2.311-5.135,5.135-5.135h2.56  c2.824,0,5.135,2.311,5.135,5.135l0,0C2315.978,1345.899,2313.667,1348.21,2310.843,1348.21z" style="fill:#0DCC5A;"/>
	<path d="M643.987,1069.691c-49.7,0-90,40.29-90,90c0,49.7,40.3,90,90,90  c49.71,0,90-40.3,90-90C733.987,1109.981,693.698,1069.691,643.987,1069.691z M643.987,1231.691c-39.76,0-72-32.24-72-72  c0-39.77,32.24-72,72-72c39.77,0,72,32.23,72,72C715.987,1199.451,683.758,1231.691,643.987,1231.691z" style="fill:#0DCC5A;stroke:#231F20;stroke-miterlimit:10;"/>
	<path d="M2184.878,1322.631c1.563-3.647,4.704-6.067,8.487-7.572c-1.937-4.551-5.079-7.287-7.06-9.488  c-3.349-3.721-6.326-3.721-11.535-3.721c-0.977,0-1.941,0.026-2.895,0.105c-4.129,0.34-8.059,1.664-11.989,6.102  c-1.816,2.051-2.006,7.982-1.535,14.59c0.615,8.626,2.354,18.39,3.074,22.199c0.198,1.044,0.321,1.655,0.321,1.655l29.167,2.431  C2190.914,1348.933,2179.703,1334.704,2184.878,1322.631z" style="fill:#E5B51A;"/>
	<path d="M1243.398,820.56c6.38-0.9,18.83-3.29,23.99-7.79c5.16-4.5,6.38-10.19,6.98-18.29  c0.61-8.09,0.8-32.77,0.8-41.08c0-8.3,1.05-31.66,1.57-40.48c0.53-8.82,3.59-22.78,5.58-28.17c1.98-5.39,3.61-4.23,3.61-4.23  l0.09,0.19c-0.23-0.3-0.94-0.6-2.53,3.77c-1.99,5.48-5.07,19.7-5.6,28.68c-0.53,8.98-1.59,32.75-1.59,41.2  c0,8.45-0.18,33.57-0.79,41.81c-0.61,8.24-1.83,14.04-7.02,18.62c-5.19,4.57-17.7,7.01-24.1,7.93c-6.41,0.91-23.19,0.91-31.43,0.3  s-36.56-9.05-36.56-9.05l-0.67-2c0,0,28.19,8.29,36.39,8.89C1220.318,821.46,1237.018,821.46,1243.398,820.56z" style="opacity:0.84;fill:#F2F2F1;"/>
	<path d="M3873.416,824.152v-28.65h-21.6v28.65h-166.59v216h166.59v29.18  h21.6v-29.18h154.18v-216H3873.416z M3714.176,949.742h-5.4v-21.6h5.4V949.742z M4006.116,949.742h-5.4v-21.6h5.4V949.742z" style="fill:#F2F2F2;stroke:#231F20;stroke-miterlimit:10;"/>
	<path d="M1468.185,2278.43c0,11.557-9.369,20.926-20.926,20.926s-20.926-9.369-20.926-20.926  c0-11.557,9.369-20.926,20.926-20.926S1468.185,2266.873,1468.185,2278.43z" style="fill:#BF1682;"/>
	<rect height="21.6" style="fill:#F79514;stroke:#231F20;stroke-miterlimit:10;" transform="matrix(6.123234e-17 -1 1 6.123234e-17 -1425.599 3250.925)" width="5.4" x="909.963" y="2327.462"/>
	<path d="M2258.179,1349.452l9.195-5.338v-3.69v0l2.392-0.549l0.142-0.033l0,0  c-1.244-3.456-5.202-15.918,0.342-21.092c2.724-2.542,7.976-5.464,13.913-7.612c-0.036-0.285-0.075-0.585-0.117-0.898  c-0.531-4.164-1.129-8.285-1.788-11.886c-0.242-1.322-0.493-2.569-0.75-3.728c-0.934-4.208-1.965-7.185-3.066-7.785  c-4.743-2.585-26.977-3.092-31.907,1.727c-1.121,1.096-1.597,4.595-1.666,9.341c5.972,9.946,8.618,24.647,9.789,35.717  c0.39,3.69,0.617,6.977,0.749,9.549l1.487-0.342l0,0l-1.305,3.818L2258.179,1349.452z" style="fill:#ED6D15;"/>
	<path d="M3710.843,1828.62c-3.228-0.992-8.039-1.016-12.597-0.496l-0.945,0.11  c-0.843,0.11-1.661,0.244-2.464,0.386c-1.079,0.189-2.11,0.401-3.071,0.638c-0.961,0.236-1.732,0.457-2.472,0.709  c-1.071,0.354-2.134-0.134-2.59,1.126c0.038,0.099,0.085,0.194,0.142,0.283c0.67,1.054,1.718,1.811,2.929,2.118  c1.574,0.165,2.252-0.906,3.716-0.74c0.543,0.063,5.188,1.63,5.724,1.693c5.803,0.653,6.645-1.189,10.031-0.787h0.323  c2.984,0.354,4.724,0.559,4.724,0.551C3715.473,1831.297,3713.843,1829.541,3710.843,1828.62z M3702.608,1830.69l-0.37,0.063  C3701.954,1830.557,3702.151,1830.557,3702.608,1830.69z" style="fill:#F7CB14;"/>
	<path d="M457.809,1622.422c-0.189-7.604-0.579-1.547,3.719-13.697  c6.423-18.137-7.876-26.556-20.947-27.524c-18.042-1.346-19.943,18.432-19.943,18.432l-24.513-0.083  c0.012-0.307,0.024-0.602,0.024-0.909c0-11.76-9.21-21.277-20.569-21.277c-11.359,0-20.557,9.517-20.557,21.277  c0,0.295,0,0.579,0.024,0.874l-25.942,0.106c0,0-1.771-19.778-19.813-18.562c-13.095,0.886-27.453,9.222-21.148,27.394  c4.227,12.174,3.897,6.116,3.649,13.721c-0.248,7.545-7.486,5.892-7.049,23.214c0.354,13.39,13.366,22.198,27.417,19.577  c16.129-3.011,15.267-18.833,15.267-18.833l50.254,0.153l44.326-0.142c0,0-0.956,15.822,15.149,18.928  c14.028,2.716,27.122-5.998,27.536-19.388C465.259,1628.361,457.986,1629.967,457.809,1622.422z M354.007,1621.855  c0,0-2.35-4.64-6.364-4.759c-3.283-0.094-6.199,2.503-7.215,3.507c-0.236,0.248-0.366,0.567-0.366,0.897l0.189,16.342l-6.612-0.012  l-0.673-26.449l6.234-0.142l0.106,3.235c0,0,1.488-3.92,9.517-3.164c5.396,0.496,8.549,6.293,8.549,6.293L354.007,1621.855z   M372.215,1616.777c-3.46,0.201-5.514,2.94-5.479,7.404c0.047,5.396,2.48,7.58,5.479,7.758v5.455  c-3.247-0.295-6.6-1.004-8.997-3.507c-3.141-3.294-2.846-11.146-2.019-14.606c1.193-4.971,4.097-6.754,9.021-7.97  c0.661-0.154,1.334-0.236,1.995-0.236V1616.777z M382.298,1637.075l-0.13-5.349c0,0,0,2.078-3.283,4.369  c-1.263,0.862-2.976,1.299-4.853,1.358v-5.609c4.699-0.72,5.75-5.066,5.75-8.348c0-3.094-1.96-5.951-5.75-6.624v-5.691  c4.286,0.579,8.136,3.2,8.136,3.2l0.059-2.763l4.853,0.059l0.685,25.398H382.298z M388.131,1599.515l-16.531-0.059l-8.549,0.035  c-0.012-0.283-0.024-0.567-0.024-0.85c0-7.085,5.609-12.811,12.552-12.811c6.943,0,12.575,5.727,12.575,12.811  C388.155,1598.936,388.143,1599.219,388.131,1599.515z M417.19,1633.792c0,0-2.255,1.653-5.939,3.153  c-3.212,1.323-10.107,1.063-12.859-0.531c-4.31-2.48-6.175-5.361-6.589-9.836c-0.685-7.38,2.456-11.985,8.136-14.512  c1.334-0.59,3.141-0.909,5.089-0.921v4.499c-3.625,0.248-6.459,2.527-6.459,5.302h6.459v3.684l-6.73-0.059  c-0.035,1.83,0.331,5.219,2.421,6.518c3.59,2.243,7.368,1.252,9.033,0.803c2.409-0.65,7.675-3.79,7.675-3.79L417.19,1633.792z   M417.698,1624.736l-10.851-0.094v-3.696h6.01c0-2.657-2.598-4.853-6.01-5.254v-4.452c3.153,0.295,6.376,1.476,8.265,3.778  C418.761,1619.493,417.698,1624.736,417.698,1624.736z" style="fill:#ED6D15;stroke:#231F20;stroke-miterlimit:10;"/>
	<path d="M3926.329,1656.69c-0.598-1.307-1.953-2.464-1.638-3.708c0.732-2.89-1.016-2.449-1.441-3.574  c-0.11-0.299-3.59,1.063-4.582,3.937c-4.685,13.841-20.093,30.903-20.723,26.179c-0.236-1.795,0.654-5.669-2.409-4.724  c-0.236,0.079-16.778,9.85-26.36,26.769c-1.779,3.149-3.622,6.299-5.511,9.519c-2.669,4.574-5.393,9.172-8.094,13.676  c-9.889,16.534-19.361,31.879-23.896,40.154c-1.882,3.441-2.929,5.669-2.779,6.236l-0.228,0.913  c-0.961,2.047-4.913,6.645-10.023,12.282l-4.724,6.299h-1.047c-11.637,12.597-25.36,27.234-25.518,30.989  c0-0.339-6.236,4.818-12.896,11.66c-0.732,0.74-1.464,1.512-2.189,2.291s-1.291,1.401-1.929,2.118  c-2.758,3.025-5.287,6.252-7.566,9.653c-5.149,7.921-6.551,15.007,2.897,16.613c3.59,0.614,6.818,1.047,9.763,1.331  c24.014,2.362,27.911-9.755,37.217-13.55c10.542-4.307,13.896,7.574,19.636,16.006c0.787,1.134,1.575,2.276,2.472,3.409  c0.993,1.294,2.063,2.527,3.204,3.693c3.403,3.45,6.979,6.725,10.716,9.81c16.345,13.456,25.793,21.132,25.439-1.118  c0-1.527,1.63-4.511,3.417-7.708c0.614-1.118,1.244-2.252,1.835-3.362c0.95-1.679,1.703-3.463,2.244-5.315  c1.441-5.984,2.858-5.614,5.275-11.259c0.401-0.937,0.787-2.039,1.291-3.37c1.409-1.252,2.362-1.622,2.929-1.37l1.315-3.842  c0.149-1.181,0.283-2.362,0.433-3.504c1.087-8.881,2.071-17.526,3.071-25.667c5.125-21.187,12.896-47.768,15.81-57.578l1.157-3.874  c3.22-1.26,16.156-50.665,19.683-72.513l0,0c0.071-0.417,0.134-0.787,0.197-1.22c0.126-0.787,0.252-1.575,0.378-2.323  C3928.126,1674.313,3925.851,1666.327,3926.329,1656.69z" style="fill:#0DCC5A;"/>
	<path d="M2221.358,1342.282c0.017-0.207,0.035-0.419,0.052-0.632c0.013-0.164,0.026-0.329,0.039-0.497  c0.015-0.196,0.031-0.392,0.045-0.592c0.019-0.248,0.036-0.502,0.054-0.757c0.013-0.179,0.025-0.358,0.037-0.54  c0.022-0.336,0.044-0.677,0.065-1.022c0.009-0.147,0.017-0.296,0.026-0.444c0.016-0.284,0.032-0.57,0.047-0.859  c0.008-0.147,0.015-0.295,0.022-0.443c0.017-0.342,0.032-0.686,0.046-1.032c0.004-0.091,0.008-0.181,0.012-0.273  c0.017-0.44,0.032-0.883,0.044-1.328c0.003-0.094,0.005-0.188,0.007-0.281c0.009-0.36,0.017-0.72,0.023-1.081  c0.002-0.121,0.004-0.242,0.005-0.363c0.005-0.364,0.007-0.728,0.008-1.092c0-0.09,0.001-0.181,0.001-0.271  c0-0.459-0.004-0.917-0.011-1.371c-0.001-0.032-0.002-0.063-0.002-0.095c-0.007-0.413-0.018-0.823-0.032-1.23  c-0.004-0.106-0.008-0.21-0.012-0.315c-0.013-0.349-0.029-0.696-0.048-1.039c-0.005-0.099-0.01-0.198-0.016-0.297  c-0.05-0.861-0.119-1.698-0.207-2.503c-0.01-0.093-0.022-0.183-0.032-0.275c-0.036-0.309-0.075-0.613-0.117-0.912  c-0.014-0.101-0.029-0.203-0.044-0.303c-0.05-0.329-0.104-0.65-0.162-0.963c-0.008-0.046-0.016-0.093-0.024-0.138  c-0.068-0.357-0.143-0.702-0.223-1.035c-0.017-0.071-0.036-0.138-0.054-0.208c-0.064-0.255-0.132-0.502-0.204-0.741  c-0.027-0.091-0.056-0.181-0.084-0.269c-0.073-0.226-0.15-0.444-0.231-0.653c-0.026-0.067-0.05-0.137-0.077-0.202  c-0.108-0.265-0.222-0.517-0.344-0.75c-0.02-0.039-0.043-0.073-0.064-0.111c-0.103-0.189-0.211-0.366-0.323-0.532  c-0.043-0.063-0.087-0.121-0.131-0.181c-0.101-0.136-0.207-0.261-0.316-0.377c-0.046-0.049-0.09-0.1-0.137-0.145  c-0.155-0.15-0.316-0.286-0.487-0.396c-0.258-0.166-0.548-0.327-0.864-0.483c-0.121-0.06-0.263-0.115-0.392-0.173  c-0.206-0.093-0.407-0.187-0.633-0.275c-0.178-0.069-0.376-0.133-0.566-0.2c-0.2-0.07-0.392-0.142-0.603-0.209  c-0.222-0.07-0.463-0.133-0.698-0.198c-0.2-0.056-0.394-0.114-0.602-0.167c-0.255-0.064-0.526-0.122-0.793-0.181  c-0.208-0.046-0.41-0.094-0.624-0.137c-0.276-0.055-0.565-0.103-0.852-0.152c-0.223-0.038-0.443-0.078-0.672-0.113  c-0.286-0.043-0.581-0.079-0.875-0.116c-0.246-0.031-0.49-0.064-0.74-0.09c-0.283-0.03-0.573-0.053-0.861-0.078  c-4.932-0.416-10.649,0.02-15.369,1.897c-3.783,1.505-6.924,3.925-8.487,7.572c-5.174,12.073,6.036,26.302,6.036,26.302h29.751  c0,0,0.208-1.582,0.453-4.045c0.069-0.69,0.14-1.455,0.211-2.27C2221.338,1342.506,2221.348,1342.396,2221.358,1342.282z" style="fill:#ED6D15;"/>
	<path d="M2339.147,1330.355c-0.12-0.208-0.254-0.406-0.384-0.607c-0.688-1.06-1.519-2.015-2.543-2.805  c-0.552-0.426-1.146-0.828-1.771-1.209c-0.019-0.012-0.037-0.025-0.057-0.036c-4.889-2.956-11.842-4.465-18.418-3.698  c-0.439,0.051-0.876,0.113-1.31,0.184c-0.006,0.001-0.013,0.002-0.019,0.003c-0.427,0.071-0.852,0.152-1.274,0.243  c-0.017,0.004-0.034,0.008-0.051,0.011c-0.41,0.09-0.818,0.189-1.222,0.298c-0.03,0.008-0.059,0.017-0.089,0.025  c-0.39,0.107-0.777,0.223-1.16,0.349c-0.045,0.015-0.089,0.031-0.134,0.046c-0.367,0.123-0.73,0.254-1.089,0.395  c-0.062,0.024-0.122,0.051-0.183,0.075c-0.34,0.137-0.677,0.281-1.01,0.435c-0.078,0.036-0.154,0.076-0.232,0.113  c-0.312,0.149-0.622,0.303-0.926,0.468c-0.094,0.051-0.185,0.106-0.279,0.159c-0.285,0.16-0.567,0.323-0.844,0.496  c-0.107,0.067-0.209,0.14-0.315,0.209c-0.257,0.169-0.514,0.339-0.763,0.52c-0.12,0.087-0.234,0.181-0.352,0.271  c-0.229,0.175-0.457,0.349-0.678,0.535c-0.13,0.109-0.254,0.228-0.381,0.341c-0.201,0.179-0.403,0.356-0.597,0.545  c-0.121,0.118-0.235,0.245-0.353,0.367c-0.016,0.016-0.032,0.033-0.047,0.049c-0.175,0.182-0.352,0.361-0.521,0.551  c-0.143,0.162-0.277,0.336-0.416,0.505c-0.148,0.181-0.3,0.357-0.443,0.546c-0.149,0.198-0.288,0.409-0.431,0.616  c-0.12,0.174-0.245,0.341-0.36,0.52c-0.159,0.249-0.306,0.512-0.455,0.773c-0.087,0.151-0.18,0.295-0.263,0.45  c-0.226,0.423-0.44,0.859-0.64,1.311c-0.256,0.58-0.481,1.153-0.69,1.723c-0.05,0.137-0.098,0.273-0.145,0.409  c-0.178,0.508-0.343,1.012-0.487,1.511c-0.015,0.053-0.033,0.107-0.048,0.16c-0.223,0.788-0.391,1.56-0.537,2.323  c-0.078,0.408-0.159,0.817-0.217,1.217c-1.124,7.785,1.471,14.017,3.095,17.014c0.674,1.245,1.185,1.945,1.185,1.945l38.375-4.743  c0,0,0.596-2.052,1.119-5.086C2341.715,1344.508,2342.41,1336.039,2339.147,1330.355z" style="fill:#E5B51A;"/>
	<path d="M3707.702,1588.569c-3.551-0.354-11.369-2.205-14.251-5.787c-1.244-1.575-2.417-2.126-3.519-2.204  c-2.212-0.118-4.126,1.834-6,1.677c-0.545-0.024-1.062-0.245-1.457-0.622c-0.331-0.276-0.685-0.551-1.047-0.787  c-1.366-1.019-2.788-1.96-4.26-2.819c-8.976-5.299-23.998,1.85-21.793,5.685c3.59,6.251,11.338,6.621,12.259,14.479  c2.496,21.321-21.502,15.951-29.013,11.991c-2.031-1.071-8.015-11.094-7.795-15.038c0.457-8.172-7.771-7.141-16.999-2.157  c-1.433,0.787-2.897,1.661-4.354,2.606c-9.172,5.984-18.109,14.959-19.62,22.045c-0.102,0.52-0.205,1.031-0.299,1.527  c0,0.11,0,0.213-0.055,0.323c-0.017,0.075-0.03,0.152-0.039,0.228c-0.063,0.362-0.126,0.724-0.181,1.079  c0,0.134-0.039,0.268-0.063,0.409c-0.055,0.386-0.11,0.787-0.15,1.134c0,0.189-0.047,0.37-0.063,0.559  c0.003,0.013,0.003,0.026,0,0.039l0,0c-0.031,0.283-0.055,0.567-0.071,0.85l0,0v0.276c0,0.094,0,0.197,0,0.283  c0,0.276,0,0.543,0,0.787l0,0v0.142c0,0.401,0,0.787,0,1.142v0.354l0,0l0,0c0,0.37,0.079,0.724,0.134,1.055  c1.346,7.086-14.007,9.228-11.101,18.235c0.166,0.522,0.41,1.016,0.724,1.464h0.071c0.252,0.142,0.512,0.283,0.787,0.417  l0.134,0.071c0.236,0.126,0.472,0.252,0.717,0.37h0.055l0.149,0.071l0.787,0.402l0.134,0.071l0.89,0.425h0.079  c1.016,0.48,2.086,0.961,3.205,1.433c1.118,0.472,2.275,0.953,3.48,1.409l0,0l0.787-0.433l0.299-0.157l0.843-0.472l0.283-0.157  c0.969-0.535,2.016-1.134,3.149-1.771l0.275-0.157l1.008-0.583l0.228-0.142l0.173-0.102l1.023-0.598l0.37-0.22  c1.102-0.653,25.659-17.266,25.714-17.321s0.213-0.228,0.307-0.339c0.094-0.11,29.131,0.102,35.926-2.157  c0.409,0.065,0.814,0.155,1.212,0.268h0.094l0.236,0.047l0.299,0.063l0.708,0.157l0.229,0.055l1.283,0.283h0.134l1.142,0.26  l0.386,0.094c0.299,0.071,25.021,1.819,27.258-1.016c3.291,0.37,8.109-1.575,12.802-4.236c8.18-4.598,15.983-11.267,14.652-11.298  s0.094-0.378,0,0c0.151-0.622,0.264-1.253,0.338-1.89c-0.026-0.167-0.042-0.335-0.047-0.504c0-0.079,0-0.157,0-0.244l0.134,0.087  c0.157-2.546-0.164-5.099-0.945-7.527c0,0,4.409-7.291,0-9.291c0,0-2.59-3.567-9.976-4.567  C3709.41,1588.648,3708.733,1588.672,3707.702,1588.569z" style="fill:#F7CB14;"/>
	<path d="M3857.241,291.499l-171.83,122.21v360h342v-359.68  L3857.241,291.499z M3710.021,606.279h-5.4v-21.6h5.4V606.279z M3774.661,378.409l17.82-12.21l3.05,4.45l-17.82,12.21  L3774.661,378.409z M3873.951,751.449h-21.6v-5.4h21.6V751.449z M3936.121,382.419l-17.81-12.2l3.05-4.46l17.82,12.21  L3936.121,382.419z M4005.511,606.279h-5.4v-21.6h5.4V606.279z" style="fill:#F2F2F2;stroke:#231F20;stroke-miterlimit:10;"/>
	<path d="M1584.336,1227.278l0.276,0.708l10.312-42.498l-10.893-57.806l-7.426-39.404  c0,0-6.838-2.676-11.677-2.379s-9.284,3.979-9.284,3.979l-2.073,71.109L1584.336,1227.278z" style="fill:#161616;"/>
	<path d="M3854.138,1922.808c-0.646-4.976-3.811-6.921-8.165-6.621c-4.126,0.291-9.306,2.598-14.393,6.22  c-2.1,1.501-4.094,3.145-5.968,4.921c-0.897,0.858-1.787,1.748-2.646,2.685c-5.858,6.299-10.44,14.172-11.361,22.045  c-0.787,6.834,1.181,13.731,7.432,19.746c0.307,0.291,0.598,0.59,0.929,0.882c6.244,5.566,12.125,2.283,17.101-4.157  c7.873-10.172,13.479-28.226,14.723-31.792c0.094-0.283,0.079-0.22,0,0c0.102-0.283,0.181-0.543,0.275-0.787  C3853.965,1930.209,3854.563,1925.911,3854.138,1922.808z" style="fill:#0DCC5A;"/>
	<path d="M2372.466,753.538c2.57,21.02,24.38,218.35-49.91,308.39  c-76.19,92.33-197.63,103.39-204.82,103.96c-0.22,0.02-0.43,0.03-0.64,0.03h-19.1c-0.17,0-0.34-0.01-0.5-0.02  c-6.34-0.5-128.42-11.29-204.9-103.97c-74.62-90.44-52.29-289.09-49.88-308.66c-10.64-7.75-16.45-15.68-16.45-23.32  c0-35.82,127.78-90.1,283.14-90.1c155.36,0,279.46,54.28,279.46,90.1C2388.866,737.678,2383.086,745.708,2372.466,753.538z" style="fill:#ED6D15;stroke:#231F20;stroke-miterlimit:10;"/>
	<path d="M3673.681,1753.256c-2.622,5.563-6.015,10.729-10.078,15.345c-0.504,0.59-1.023,1.181-1.574,1.771  l-0.22,0.252l-0.126,0.142c-2.362,2.59-4.913,5.157-7.677,7.669c-0.874,0.787-1.78,1.575-2.693,2.362l-1.244,1.079l-1,0.866  c-1.173,0.968-2.362,1.937-3.598,2.89l0,0c-3.708,2.882-7.637,5.653-11.723,8.291l-0.338,0.22c-0.898,0.583-1.811,1.15-2.724,1.708  l-0.787,0.472c-0.898,0.543-1.787,1.087-2.701,1.575l-0.472,0.276c-1.974,1.144-3.973,2.252-6,3.323l-0.165,0.094l0,0  c-1.055,0.559-2.126,1.094-3.189,1.63l-0.787,0.417c-0.968,0.472-1.929,0.937-2.897,1.394l-1.189,0.559h-0.087l-2.574,1.157  l-1.496,0.654c-0.787,0.354-1.637,0.701-2.456,1.031l-1.78,0.716l-2.228,0.866c-0.701,0.268-1.394,0.512-2.094,0.787l-1.953,0.709  l-0.976,0.315l-4.669-0.787l-25.785-4.378l0,0c-1.512-0.732-3.071-1.575-4.645-2.417l-0.457-0.26  c-0.63-0.354-1.26-0.716-1.897-1.094l-0.496-0.299c-0.74-0.441-1.488-0.898-2.236-1.378l-0.087-0.047  c-0.787-0.504-1.575-1.024-2.362-1.575c-0.173-0.11-0.346-0.236-0.512-0.354c-0.598-0.402-1.189-0.787-1.779-1.236  c-0.244-0.173-0.48-0.339-0.717-0.52c-0.551-0.394-1.094-0.787-1.638-1.213l-0.669-0.504c-0.748-0.575-1.496-1.157-2.236-1.764  c-3.804-3.062-7.342-6.441-10.574-10.101c-0.614-0.693-5.944-8.251-6.519-8.968c-2.779-2.047-3.094-0.701-3.59,0.669  c1.897,2.661,2.283,4.574,4.165,7.22c0.126,0.118,12.322,11.023,16.534,15.329c2.1,2.1,4.162,4.225,6.188,6.377  c3.354,3.496,6.653,6.952,9.952,10.377l1.512,1.575l0.315,0.331l0.85-0.126l15.747,2.724c0,0,26.21,0.968,31.06-2.693  c2.244-1.693,5.031-3.559,8.188-5.511c8.936-5.637,20.762-12.243,31.265-18.542l3.197-1.937c2.606-1.575,5.086-3.149,7.393-4.661  l0.614-0.409l0.843-0.567c2.632-1.731,5.171-3.599,7.606-5.598c0.094-2.031,0.197-4.07,0.323-6.125  c0.087-1.354,0.181-2.716,0.283-4.078h-0.087h0.087C3672.461,1763.924,3672.988,1758.555,3673.681,1753.256z" style="fill:#D6293A;"/>
	<path d="M2335.056,1289.446l-1.102-10.175c-0.179-1.652,0.383-3.207,1.41-4.351l-1.47-15.55  c-0.309-3.267-3.184-5.679-6.455-5.416l-10.327,0.831c-3.692,0.297-6.319,3.72-5.651,7.364l5.037,27.472  C2323.604,1289.103,2330.147,1288.985,2335.056,1289.446z" style="fill:#ED6D15;"/>
	<path d="M3589.544,940.883l-60.46-85.15l23.73-16.85l-12.51-17.61  l-23.73,16.84l-52.08-73.35l-78.26,55.57l-16.68-23.51l-17.62,12.51l16.69,23.5l-76.14,54.06l125.05,176.12l75.98-53.95l16.81,23.67  l17.61-12.51l-16.81-23.66L3589.544,940.883z M3375.385,964.913l-12.51-17.61l4.41-3.12l12.5,17.61L3375.385,964.913z   M3505.465,846.063l4.4-3.13l12.51,17.61l-4.4,3.13L3505.465,846.063z" style="fill:#B71515;stroke:#231F20;stroke-miterlimit:10;"/>
	<rect height="21.6" style="fill:#F79514;stroke:#231F20;stroke-miterlimit:10;" width="5.4" x="358.427" y="2273.037"/>
	<path d="M3879.577,1652.839c-0.695-1.338-1.798-2.419-3.149-3.086l0,0c-10.401-5.086-25.462-8.81-42.24-10.59  l-5.921,8.865c4.632,2.233,8.943,5.077,12.818,8.456c1.88,1.65,3.637,3.434,5.259,5.338l0.213,0.252l0.307,0.37  c1.214,1.458,2.341,2.985,3.378,4.574c0.472,0.716,0.921,1.457,1.354,2.204c0.047,0.071,0.087,0.142,0.126,0.213  c0.027,0.15,0.105,0.286,0.22,0.386c0.032,0.068,0.069,0.134,0.11,0.197c0.386,0.701,0.787,1.409,1.118,2.126  c0.583,1.173,1.134,2.362,1.63,3.59l0.094,0.22c0.409,1.024,0.787,2.047,1.149,3.102c0.166,0.512,0.323,1.039,0.48,1.575  c0.299,0.976,0.575,1.96,0.787,2.96c0.283,1.165,0.528,2.362,0.74,3.559c0.346,1.945,0.606,3.937,0.787,5.96  c0.181,2.023,0.212,4.228,0.165,6.393c0,0-24.699,36.217-36.312,46.807l-6.44,5.645l-1.464,1.22  c-3.701,3.05-7.433,5.889-11.196,8.519l-0.071,0.047c-3.202,2.236-6.412,4.283-9.629,6.141l-0.299,0.173  c-2.945,1.685-5.881,3.212-8.795,4.527c-8.285-0.535-16.258-3.361-23.03-8.165c-2.96-2.062-5.723-4.394-8.251-6.968  c-1.813-1.847-3.527-3.789-5.133-5.818c-2.133-2.688-4.108-5.498-5.913-8.417c-3.483-5.682-6.48-11.647-8.96-17.833  c-7.039-17.321-9.684-34.107-9.078-39.69c0.126-1.157,0.386-1.85,0.787-1.945c0.024-0.07,0.053-0.139,0.086-0.205  c0.079-0.205,0.157-0.401,0.252-0.598c1.252-2.732,3.882-5.921,7.495-9.314l0.724-0.661c2.687-2.421,5.499-4.7,8.425-6.826  c0.898-0.661,1.822-1.323,2.771-1.984c7.807-5.397,16.031-10.162,24.596-14.251c7.27-3.555,14.842-6.454,22.628-8.661l1.811-2.488  c-6.366,0.533-12.698,1.416-18.967,2.646l-1.574,0.323c-1.165,0.244-2.362,0.504-3.48,0.787c-1.118,0.283-2.283,0.551-3.409,0.85  l-1.26,0.346c-1.055,0.291-2.102,0.591-3.149,0.898c-0.701,0.213-1.409,0.425-2.102,0.653c-0.52,0.165-1.008,0.354-1.52,0.528  l-1.063,0.362c-2.307,0.787-4.559,1.646-6.74,2.575c-1.748,0.745-3.451,1.533-5.11,2.362l-1.252,0.646l-0.071,0.039l-0.953,0.504  c-0.512,0.276-1.016,0.567-1.52,0.858c-0.787,0.472-1.638,0.961-2.441,1.464l-0.535,0.331c-5.823,3.618-10.901,8.316-14.959,13.841  c-0.346,0.488-0.685,0.968-1.008,1.457l-0.126,0.181c-0.724,1.118-1.386,2.275-2,3.464c-0.165,0.315-0.339,0.614-0.496,0.937  c-0.75,1.532-1.403,3.109-1.953,4.724c-1.789,5.32-2.569,10.928-2.299,16.534c0.047,1.134,0.094,2.252,0.15,3.354  c0,0.142,0,0.283,0,0.433c0.11,2.1,0.239,4.139,0.386,6.118c0.047,0.685,0.11,1.354,0.166,2.024l0.086,1.126h0.094l-0.079,0.142  c0,0.236,0.039,0.48,0.055,0.716c0.047,0.496,0.103,0.976,0.15,1.472c4.165,7.582,9.094,16.573,14.117,25.793  c3.149,5.779,6.338,11.645,9.401,17.321c4.582,8.464,8.865,16.455,12.314,22.974c0.346,0.079,0.701,0.126,1.047,0.197  c3.998,0.461,8.027,0.587,12.046,0.378c5.635-0.189,11.256-0.699,16.833-1.527c7.322-1.118,13.692-2.834,16.085-5.173  c1.417-0.307,2.637,0.26,4.023,0.165l0,0c0.305-0.018,0.606-0.074,0.897-0.165c0.976-0.299,2.173-1.496,3.252-2.22  c0.261-0.182,0.541-0.335,0.835-0.457c2.808-1.495,5.724-2.777,8.724-3.834c1.134-0.583,2.281-1.197,3.441-1.842  c2.197-1.472,6.102-3.842,6.149-3.669l0.787-0.52l0,0c1.15-0.787,2.315-1.527,3.48-2.362c5.063-9.164,30.872-49.437,30.872-49.437  c2.362-3.409,6.212-11.629,8.212-14.912c2.614-4.291,8.456-12.338,10.369-16.266  C3885.797,1663.846,3882.387,1658.107,3879.577,1652.839z" style="fill:#D6293A;"/>
	<path d="M3754.965,1957.853c-0.228-0.094-0.496-0.197-0.787-0.291c-2.637-0.874-7.873-1.882-13.928-2.827  c-4.645-0.716-9.755-1.409-14.526-1.976c-9.133-0.992-16.999-1.701-17.904-1.315c-0.028,0.012-0.052,0.031-0.071,0.055  c-0.147,0.189-0.284,0.386-0.409,0.591l-0.04,0.071c-4.188,6.787,8.283,9.661,21.754,10.062c3.771,0.118,7.614,0,11.196-0.213  c2.598-0.165,5.063-0.425,7.251-0.787c3.795-0.575,6.787-1.37,8.275-2.362C3756.264,1958.616,3755.926,1958.238,3754.965,1957.853z" style="fill:#F7CB14;"/>
	<path d="M2357.41,1318.96c-0.556-4.101-4.02-7.11-8.075-7.199c-0.116-0.003-0.232-0.012-0.349-0.009  c-0.163,0.003-0.325,0.002-0.49,0.014l-10.184,0.795c-3.121,0.244-5.379,3.083-4.915,6.179l1.044,6.955l0.006,0.04  c0.625,0.381,1.22,0.783,1.771,1.209c1.217,0.941,2.175,2.104,2.927,3.413h19.741h0.069L2357.41,1318.96z" style="fill:#ED6D15;"/>
	<path d="M1243.398,820.56c6.38-0.9,18.83-3.29,23.99-7.79c5.16-4.5,6.38-10.19,6.98-18.29  c0.61-8.09,0.8-32.77,0.8-41.08c0-8.3,1.05-31.66,1.57-40.48c0.53-8.82,3.59-22.78,5.58-28.17c1.98-5.39,3.61-4.23,3.61-4.23  l0.09,0.19c-0.23-0.3-0.94-0.6-2.53,3.77c-1.99,5.48-5.07,19.7-5.6,28.68c-0.53,8.98-1.59,32.75-1.59,41.2  c0,8.45-0.18,33.57-0.79,41.81c-0.61,8.24-1.83,14.04-7.02,18.62c-5.19,4.57-17.7,7.01-24.1,7.93c-6.41,0.91-23.19,0.91-31.43,0.3  s-36.56-9.05-36.56-9.05l-0.67-2c0,0,28.19,8.29,36.39,8.89C1220.318,821.46,1237.018,821.46,1243.398,820.56z" style="opacity:0.84;fill:#F2F2F1;"/>
	<path d="M1438.395,1705.92c2.02-2.424,4.533-4.436,7.392-5.884c-1.609-3.418-2.521-7.228-2.521-11.259  c0-3.214,0.6-6.28,1.647-9.131c-2.007-0.584-4.11-0.921-6.291-0.921c-13.158,0-23.825,11.333-23.825,25.314  c0,0.988,0.066,1.958,0.17,2.916c3.359-2.805,7.679-4.497,12.397-4.497C1431.466,1702.459,1435.264,1703.744,1438.395,1705.92z" style="fill:#E5B51A;"/>
	<path d="M3726.653,1745.383c-4.307-7.873-8.527-15.605-12.094-22.093c-0.126-0.228-0.26-0.465-0.378-0.693  c-0.118-0.228-0.142-0.26-0.22-0.386c-0.079-0.126-0.071-0.142-0.11-0.213l-0.315-0.575l-0.228-0.409v-0.079l-1.528-2.771  c-0.897-1.638-1.74-3.149-2.488-4.527l-2.299-4.157c-0.001-0.026-0.001-0.052,0-0.079c-0.646-1.157-1.15-2.071-1.496-2.708v-0.047  l-0.535-0.968c-2.958,0.299-5.775,1.417-8.133,3.228c-4.874,3.606-8.771,9.952-11.81,17.92c-1.619,4.289-2.96,8.679-4.015,13.141  c-0.181,0.787-0.362,1.52-0.535,2.291c-0.063,0.276-0.126,0.551-0.181,0.827c-0.055,0.276-0.102,0.48-0.157,0.717  c-0.055,0.236-0.142,0.661-0.205,0.992c0,0.087,0,0.173-0.055,0.26s-0.063,0.26-0.087,0.394c-0.897,4.409-1.637,8.999-2.252,13.66  c-0.591,4.535-1.047,9.133-1.386,13.692l0,0c-0.094,1.173-0.173,2.362-0.244,3.496c-0.11,1.764-0.197,3.511-0.276,5.244  c-0.079,1.732-0.134,3.535-0.173,5.275c-0.338,14.085,5.842,12.739,9.306,0c6.85-25.155,14.172-86.079,50.145,0  c1.575,3.795,6.724,4.574,10.716,5.7c2.134,0.611,4.333,0.968,6.551,1.063c0.004-0.018,0.004-0.037,0-0.055  c-0.063-0.496-1.236-2.937-3.149-6.708c-1.016-1.984-2.236-4.33-3.63-6.96c-2.952-5.59-6.622-12.432-10.542-19.683  C3732.078,1755.35,3729.377,1750.327,3726.653,1745.383z" style="fill:#1B8FEF;"/>
	<polygon points="2988.553,542.554 2988.553,520.953 2959.473,520.953   2959.473,352.924 2856.163,352.924 2856.163,323.744 2834.563,323.744 2834.563,352.924 2743.963,352.924 2743.963,520.954   2715.033,520.954 2715.033,542.554 2743.963,542.554 2743.963,712.924 2834.563,712.924 2834.563,741.464 2856.163,741.464   2856.163,712.924 2959.473,712.924 2959.473,542.554 " style="fill:#282828;stroke:#231F20;stroke-miterlimit:10;"/>
	<path d="M1608.446,1146.77l-2.192-48.826c0,0-4.97-2.125-8.835-2.125s-8.028,1.973-8.028,1.973l-5.36,29.89  l10.893,57.806L1608.446,1146.77z" style="fill:#BF1682;"/>
	<path d="M2776.077,1274.576c-6.822-6.443-11.086,3.032-11.086,3.032s-5.969-6.822-11.3,0  c-5.33,6.822,9.167,11.086,9.167,11.086s-1.706,6.822-4.69,16.042c-1.871,5.779-6.757,11.678-10.143,15.277  c1.87,5.195,3.387,9.342,4.181,11.505l12.785,4.969c0,0-1.706-14.108-1.706-22.91c0-8.803,6.396-24.03,6.396-24.03  S2782.9,1281.019,2776.077,1274.576z" style="fill:#F464BA;"/>
	<path d="M1550.05,2345.808c-9.398,0-17.017,9.06-17.017,20.236s7.619,20.236,17.017,20.236  c9.398,0,17.017-9.06,17.017-20.236S1559.448,2345.808,1550.05,2345.808z" style="fill:#BF1682;"/>
	<path d="M901.769,1484.59c0.799,0,1.559-0.244,2.225-0.649c0.42-0.256,0.811-0.563,1.125-0.957  c2.268-2.847,6.825-9.132,9.002-16.007c-11.334-0.864-21.84-2.923-30.565-5.175c0.594,4.558,1.359,8.748,2.296,10.622  c1.764,3.528,4.742,7.966,6.426,10.388c0.507,0.729,1.225,1.259,2.041,1.543c0.435,0.151,0.895,0.236,1.369,0.236H901.769z" style="fill:#BF1682;"/>
	<path d="M1584.611,1227.987l4.64,11.917l28.594-40.368c0,0,3.937-2.483,11.138,0  c0.199,0.069,0.378,0.143,0.569,0.214l3.651-37.523l6.732-69.191c0,0-2.379-1.784-5.352-2.379c-2.973-0.595-6.541,0-6.541,0  l-19.597,56.114l-13.522,38.719L1584.611,1227.987z" style="fill:#161616;"/>
	<path d="M4191.353,2235.871c-0.228-7.471,2.6-37.095-35.442-42.706c-1.76-0.26-3.296,1.209-3.099,2.977l0,0  c16.2,59.52-22.36,86.52-57.096,88.608c-27.614,1.66-57.939-24.536-57.647-59.227c0.299-35.615,15.511-61.027,50.464-60.39  c24.563,0.448,44.967,21.336,44.809,51.732c-0.119,22.794-17.431,41.34-38.857,41.34c-18.756,0-34.015-16.234-34.015-36.189  c0-17.54,13.413-31.811,29.9-31.811c7.572,0,14.568,3.446,19.195,9.454c4.31,5.597,6.009,12.906,4.661,20.055  c-1.08,5.718-5.461,12.826-14.258,14.038c-3.42,0.47-8.238-0.33-11.511-3.983c-1.506-1.682-3.881-5.409-2.861-11.474l0.014,0.003  c0.548-3.278,3.226-5.772,6.464-5.772c3.029,0,5.554,2.19,6.32,5.154c0.211,0.934,1.767,1.437,2.461,0.333  c0.266-0.433,0.428-0.845,0.467-1.055c0.74-3.922-0.645-6.746-1.938-8.425c-2.117-2.749-5.403-4.326-9.014-4.326  c-11.221,0-19.899,11.808-15.632,24.358c4.108,12.081,17.061,18.382,28.423,14.033c9.913-3.794,18.314-18.369,18.314-30.205  c0-18.415-15.59-31.53-32.9-31.53c-21.004,0-37.878,20.784-37.878,43.13c0,26.971,20.497,46.981,45.837,46.172  c29.462-0.942,50.496-28.147,48.819-57.59c-2.207-38.742-44.095-96.192-77.677-94.879c-16.115,0.63-20.924,8.057-28.836,15.16  c-0.198,0.178-0.471,0.259-0.735,0.223c-64.963-9.018-69.675,31.591-75.924,93.376c-2.21,33.861-10.537,42.957-24.323,37.648  c-14.692-5.658-5.165-13.327-1.238-15.917c0.757-0.499,0.905-1.546,0.314-2.234l-7.949-9.274c-0.5-0.583-1.301-0.798-2.032-0.561  c-36.805,11.933-20.535,46.633-7.857,59.875c12.741,13.307,52.578,20.973,79.628-16.993c0.26-0.365,0.752-0.489,1.141-0.266  c2.89,1.652,6.775,2.114,10.995,1.872l-0.002,0.002c0,0-0.963,24.74,0,48.128c0.935,22.718,28.87,19.734,30.47,19.544  c0.049-0.006,0.094-0.007,0.143-0.004c1.147,0.064,15.771,0.507,21.816-17.827c1.775-5.703,66.916-4.843,67.671,1.739  c0.277,18.284,6.261,19.252,26.485,19.25C4201.001,2351.429,4191.521,2241.41,4191.353,2235.871z" style="fill:#E5B51A;"/>
	<path d="M968.876,1687.959c0,0-7.06-89.266-7.06-93.349c0-3.38-1.157-66.209-1.556-87.754  c-0.322,0.089-0.656,0.147-1.003,0.147h-7.232c-0.588,0-1.155-0.128-1.694-0.328c0.808,22.806,3.348,93.884,3.784,99.119  c0.447,5.362,7.803,63.31,9.868,79.544c1.817,0.536,3.476,1.435,4.891,2.621L968.876,1687.959z" style="fill:#0A0A0A;"/>
	<rect height="21.6" style="fill:#F79514;stroke:#231F20;stroke-miterlimit:10;" transform="matrix(6.123234e-17 -1 1 6.123234e-17 -1425.599 3250.925)" width="5.4" x="909.963" y="2327.462"/>
	<path d="M2307.766,1309.697c-5.989-2.995-15.442-1.509-23.599,1.442c-5.937,2.148-11.188,5.07-13.913,7.612  c-1.539,1.437-2.329,3.443-2.664,5.655c-0.785,5.174,0.987,11.495,2.01,14.535c0.115,0.34,0.222,0.651,0.312,0.902  c0.207,0.576,0.342,0.91,0.342,0.91h26.764c0,0,0,0,0-0.001c0.166-1.149,0.413-2.33,0.754-3.54c0.012-0.052,0.029-0.106,0.045-0.159  c0.144-0.499,0.309-1.003,0.487-1.511c0.048-0.136,0.095-0.272,0.145-0.409c0.209-0.57,0.434-1.143,0.69-1.723  c0.199-0.452,0.413-0.888,0.64-1.311c0.083-0.155,0.176-0.299,0.263-0.45c0.149-0.26,0.296-0.524,0.455-0.773  c0.115-0.18,0.24-0.347,0.36-0.52c0.143-0.206,0.281-0.418,0.431-0.616c0.142-0.188,0.294-0.365,0.443-0.546  c0.138-0.169,0.272-0.343,0.416-0.505c0.168-0.191,0.346-0.369,0.521-0.551c0.016-0.016,0.031-0.033,0.047-0.049  c0.118-0.122,0.233-0.249,0.354-0.367c0.194-0.189,0.396-0.366,0.597-0.545c0.127-0.113,0.251-0.231,0.381-0.341  c0.221-0.186,0.45-0.361,0.678-0.535c0.118-0.09,0.232-0.184,0.352-0.271c0.249-0.181,0.506-0.352,0.763-0.52  c0.105-0.069,0.208-0.142,0.315-0.209c0.276-0.174,0.559-0.336,0.844-0.496c0.093-0.052,0.185-0.108,0.279-0.159  c0.304-0.164,0.614-0.318,0.926-0.468c0.078-0.037,0.154-0.077,0.232-0.113c0.332-0.154,0.669-0.297,1.01-0.435  c0.061-0.025,0.122-0.051,0.183-0.075c0.359-0.141,0.722-0.272,1.089-0.395c0.045-0.015,0.089-0.031,0.134-0.046  c0.383-0.126,0.77-0.242,1.16-0.349c0.03-0.008,0.059-0.017,0.089-0.025c0.404-0.109,0.812-0.209,1.222-0.298  c0.017-0.004,0.034-0.008,0.051-0.011c0.422-0.091,0.846-0.172,1.274-0.243c0.006-0.001,0.013-0.002,0.019-0.003  c0.435-0.072,0.872-0.133,1.31-0.184c0,0,0,0,0.001,0C2314.281,1316.615,2311.696,1311.662,2307.766,1309.697z" style="fill:#E5B51A;"/>
	<path d="M2284.046,1310.241c0.042,0.313,0.081,0.613,0.117,0.898c8.157-2.951,17.61-4.437,23.599-1.442  c3.93,1.965,6.514,6.917,8.212,12.304c0,0,0,0-0.001,0c6.576-0.767,13.529,0.742,18.418,3.698l0.051-0.004l-1.044-6.955  c-0.465-3.095,1.794-5.935,4.915-6.179l10.184-0.795c0.165-0.013,0.327-0.011,0.49-0.014c-1.486-6.831-3.432-14.754-5.286-19.203  c-0.701-1.683-3.919-2.659-8.644-3.102c-4.909-0.46-11.452-0.343-18.558,0.173c-11.815,0.858-25.151,2.807-34.99,5.008  c0.257,1.159,0.508,2.405,0.75,3.728C2282.917,1301.955,2283.515,1306.077,2284.046,1310.241z" style="fill:#ED6D15;"/>
	<path d="M2189.56,1786.71c-9.17-49.35-31.35-79.03-48.9-87.35  c-17.55-8.31-40.9-14.56-55.79-15.59c0,0-45.16,3.59-61.52,19.29c-15.16,14.53-43.74,46.3-46.27,87.42  c-1.97,32.14,20.66,91.45,30.17,102.75c10.12,12.01,56.02,44.59,77.62,44.98c21.61,0.39,70.33-36.36,76.33-44.22  C2167.21,1886.14,2198.48,1834.68,2189.56,1786.71z M2007.48,1763.47l2.19-9.63c0,0,7.02-21.06,19.74-11.41  c12.72,9.65,16.67,21.94,24.13,21.5c7.46-0.44,14.48-1.75,14.48-1.75s-15.65,8.16-22.38,5.7c-5.31-1.94-14.42-14.74-18.45-16.75  c-3.24-1.62-9.63-0.36-12.26,2.71C2012.38,1756.81,2007.77,1763.08,2007.48,1763.47z M2027.69,1813.38  c-6.12-2.29-14.15-9.94-14.15-9.94s11.47-19.13,22.57-13.39c11.09,5.74,24.09,14.92,25.24,16.45c1.15,1.53,1.53,1.91-7.27,4.59  C2045.29,1813.77,2033.81,1815.68,2027.69,1813.38z M2084.1,1875.45c-13.2-0.1-36.83-7.98-36.83-7.98s23.07-9.92,36.27-9.82  c13.21,0.11,37.13,11.54,37.13,11.54S2097.31,1875.56,2084.1,1875.45z M2145.26,1814.91c-6.12,2.3-17.6,0.39-26.4-2.29  c-8.79-2.68-8.41-3.06-7.26-4.59c1.14-1.53,14.15-10.71,25.24-16.45c11.09-5.74,22.57,13.39,22.57,13.39  S2151.38,1812.62,2145.26,1814.91z M2158.02,1753.84c-2.64-3.07-9.02-4.33-12.26-2.71c-4.03,2.01-13.14,14.81-18.45,16.75  c-6.73,2.46-22.38-5.7-22.38-5.7s7.02,1.31,14.48,1.75c7.46,0.44,11.4-11.85,24.13-21.5c12.72-9.65,19.74,11.41,19.74,11.41  l2.18,9.63C2165.17,1763.08,2160.57,1756.81,2158.02,1753.84z" style="fill:#E22323;stroke:#000000;stroke-miterlimit:10;"/>
</svg>
