<svg id="Layer_1" style="enable-background:new 0 0 4813.421 2920.314;" version="1.1" viewBox="0 0 4813.421 2920.314" x="0px" xml:space="preserve" xmlns="http://www.w3.org/2000/svg" xmlns:xlink="http://www.w3.org/1999/xlink" y="0px">
	<path d="M2241.589,1313.703c0,2.909-2.358,5.267-5.267,5.267s-5.267-2.358-5.267-5.267  s2.358-5.267,5.267-5.267S2241.589,1310.794,2241.589,1313.703z" style="fill:#2D88E2;"/>
	<path d="M2267.589,1324.406h-7.218c-1.611,0-2.917,1.306-2.917,2.916v14.453  c1.599,0.737,3.161,1.538,4.667,2.389c1.931-1.993,4.39-3.83,7.478-5.224C2268.577,1335.901,2266.804,1329.58,2267.589,1324.406z" style="fill:#0DCC5A;"/>
	<path d="M3955.979,2466.904c-3.368,2.646-12.564,4.512-21-0.356c8.275-6.256,14.781-13.013,19.151-19.369  c4.985-7.054,7.506-13.644,8.098-19.434c13.316-7.332,15.495-17.115,15.397-24.337c-0.039-2.858-3.076-4.673-5.634-3.398  c-4.758,2.372-11.625,6.143-14.825,9.576c-0.264,0.284-0.543,0.563-0.83,0.839c-1.589-1.49-3.443-2.726-5.525-3.66  c-7.941-3.797-18.09-5.331-27.892-6.743c5.909-2.858,15.009-3.536,16.345-3.82c14.904-3.169,31.241-26.477,18.566-30.134  c-17.41-7.116-39.726,10.508-47.629,31.939c-1.236-0.238-2.446-0.492-3.618-0.767c-14.033-2.543-23.438-7.93-30.707-9.444  c-7.476-2.027-15.455,1.168-30.639,5.126c-6.799,2.049-15.202,4.269-23.963,7.168c3.863-7.824,12.988-10.76,17.676-14.589  c1.406-1.148,2.158-2.924,1.983-4.731c-1.823-18.904,21.751-20.29,17.136-25.044c-17.913-17.302-57.141,7.965-52.426,45.241  c0.22,1.737,0.449,3.328,0.687,4.783c-4.872,2.128-9.641,4.545-14.087,7.359c-3.25,2.403-6.147,4.852-8.695,7.361  c-3.974,4.078-6.55,9.078-7.504,14.533c-36.651-1.069-46.354,9.958-47.843,12.023c-0.133,0.185-0.245,0.384-0.339,0.591  c-3.771,8.327-3.483,17.496-2.959,22.301c0.197,1.812,1.743,3.183,3.564,3.124c5.771-0.188,10.359,1.143,12.182,1.772  c0.47,0.162,0.912,0.398,1.281,0.731c7.713,6.975,31.381,6.021,50.268-5.614c5.073,4.273,11.382,8.217,18.648,11.526  c-0.068,0.133-0.134,0.268-0.186,0.412c-10.512,29.021,12.342,65.791,60.013,78.176c2.57,0.668,4.972-1.617,4.399-4.21  c-1.706-7.719-5.762-14.208-8.627-18.056c-1.829-2.456-2.997-5.342-3.391-8.379c-2.227-17.175-17.203-30.827-23.579-31.873  c-0.62-0.102-1.201-0.384-1.681-0.788c-2.512-2.114-4.02-5.133-4.927-8.055c11.596,2.498,24.405,3.387,37.77,1.948  c19.28-1.458,36.434-7.33,50.463-15.092c0.012,0.264,0.021,0.41,0.021,0.41c33.669,29.692,69.723,19.263,75.086-9.043  C3976.138,2452.669,3960.151,2463.626,3955.979,2466.904z M3866.906,2479.23c-23.814,1.651-44.258-5.515-54.905-15.443  c-10.976-9.994-12.155-22.748-5.032-33.803c0.508-0.804,2.526-0.112,2.242,0.76c-3.479,10.299,0.049,21.717,10.925,30.149  c10.637,8.431,28.622,13.875,48.54,12.217c25.493-1.934,43.475-12.425,52.164-21.997c8.96-9.879,8.627-18.839,3.758-24.804  c-5.166-6.251-13.308-9.515-21.366-11.743c-8.239-2.135-16.394-3.232-25.748-3.01c-6.623,0.136-12.903,1.929-19.473,5.445  c-6.406,3.532-13.102,8.788-16.769,16.217c-2.714,5.501-1.467,11.614,4.091,16.222c5.422,4.6,15.155,7.695,26.276,6.966  c9.738-0.538,18.332-4.068,23.531-8.31c5.294-4.276,7.193-9.264,5.728-13.515c-3.005-7.409-13.921-11.187-24.55-11.028  c-5.071,0.169-9.922,1.559-13.948,4.21c-3.704,2.462-6.198,5.872-6.053,9.518c0.072,2.87,3.05,6.884,11.03,7.456  c3.065,0.225,7.519-0.384,10.383-2.382c1.344-0.912,3.283-2.882,2.307-5.666c-0.004,0.001-0.007,0.002-0.011,0.002  c-0.523-1.506-2.662-2.5-5.207-2.391c-2.383,0.106-4.47,1.172-5.255,2.616c-0.216,0.456-1.535,0.703-2.038,0.156  c-0.192-0.214-0.297-0.417-0.316-0.519c-0.337-1.923,0.962-3.276,2.04-4.082c1.789-1.32,4.283-2.088,6.973-2.219  c8.043-0.31,15.842,3.583,13.415,9.973c-2.377,6.21-15.12,11.17-25.842,8.821c-9.453-1.916-14.509-10.336-12.209-16.135  c3.785-9.052,15.625-13.459,25.915-13.859c6.488-0.192,12.658,1.306,18.451,3.645c5.681,2.395,10.987,5.63,13.159,10.211  c2.617,5.405,0.547,12.138-6.716,18.062c-7.097,5.855-19.388,10.902-33.374,11.335c-16.311,0.715-29.344-4.818-35.433-11.759  c-6.341-7.011-5.738-15.429-0.594-22.113c6.89-8.931,15.765-14.677,23.539-18.278c7.991-3.582,14.882-5.02,22.797-4.889  c7.953,0.034,16.397,1.866,26.413,4.081c9.737,2.48,21.045,5.345,28.298,13.559c5.495,6.702,6.879,16.855-3.25,28.966  C3920.975,2463.495,3899.645,2477.069,3866.906,2479.23z" style="fill:#0DCC5A;"/>
	<path d="M2319.882,1356.997l-1.26-16.374c-0.094-1.228,0.821-2.302,2.049-2.402l6.334-0.52  c1.278-0.105,2.436,0.755,2.706,2.009l3.369,15.689L2319.882,1356.997z" style="fill:#ED6D15;"/>
	<path d="M968.876,1687.959c0,0-7.06-89.266-7.06-93.349c0-3.38-1.157-66.209-1.556-87.754  c-0.322,0.089-0.656,0.147-1.003,0.147h-7.232c-0.588,0-1.155-0.128-1.694-0.328c0.808,22.806,3.348,93.884,3.784,99.119  c0.447,5.362,7.803,63.31,9.868,79.544c1.817,0.536,3.476,1.435,4.891,2.621L968.876,1687.959z" style="fill:#0A0A0A;"/>
	<path d="M1503.511,1208.568l11.268,28.742l17.383,44.338c0,0,13.118,2.539,23.696-2.962  c10.579-5.501,13.964-17.772,13.964-17.772l-3.625-5.331l-38.447-56.54l-1.089-1.602c0,0-5.229-1.062-11.023,0.566  c-0.904,0.254-1.821,0.568-2.735,0.968C1506.132,1201.939,1503.511,1208.568,1503.511,1208.568z" style="fill:#161616;"/>
	<path d="M1636.188,1203.951l15.457-11.674l31.403-77.537c0,0-0.594-2.676-2.676-3.271s-5.947,0-5.947,0  l-41.222,50.756l-3.651,37.523C1633.023,1201.041,1635.048,1202.672,1636.188,1203.951z" style="fill:#BF1682;"/>
	<path d="M1584.336,1227.278l0.276,0.708l10.312-42.498l-10.893-57.806l-7.426-39.404  c0,0-6.838-2.676-11.677-2.379s-9.284,3.979-9.284,3.979l-2.073,71.109L1584.336,1227.278z" style="fill:#161616;"/>
	<rect height="21.6" style="fill:#F79514;stroke:#231F20;stroke-miterlimit:10;" width="5.4" x="754.133" y="2179.196"/>
	<path d="M2413.262,1319.956l-1.762-8.885c-0.11-1.094-1.096-1.9-2.191-1.789l-5.776,0.583  c-1.094,0.11-1.9,1.096-1.789,2.191l-0.131,7.818c1.043-0.058,2.106-0.101,3.202-0.118  C2407.884,1319.709,2410.676,1319.789,2413.262,1319.956z" style="fill:#0DCC5A;"/>
	<path d="M3840.32,1660.524c-4.291-3.771-8.566-7.031-14.314-9.566c-1.52-0.504-3.236-3.504-4.661-3.937  c-0.346,0-1.724-0.677-0.724-1.74c-0.748-0.197-1.488-0.378-2.228-0.543c-0.74-0.165-1.669-0.354-2.504-0.496  c-6.645-1.157-5.511,4.559-0.535,6.677c3.071,0.787,4.913,2.189,4.055,4.866c-0.457,1.409,0.787,4.047,1.937,4.724  c6.141,2.417,9.928,5.622,5.763,10.574c-0.689,0.799-1.631,1.339-2.669,1.527c-0.26,0.055-0.523,0.095-0.787,0.118  c-0.194,0.013-0.389,0.013-0.583,0c-2.362,0.11-5.26-0.598-8.346-1.661c-4.11-1.157-8.787-2.716-12.684-3.992  c-0.086,0.921-1.401,0.142-2.291-0.74c-3.315-1.071-5.692-1.764-5.976-1.512c-0.346-0.236-0.646-0.464-0.913-0.685l-0.315-0.283  c-1.496-1.346-1.37-2.212-0.268-2.724c6.299-6.858-15.888-10.33-22.518-8.338c-8.779,4.197-21.408,11.527-18.857,14.117  c7.322,7.425,14.014-2.708,14.014-2.708c0.228-0.478,0.491-0.939,0.787-1.378c2.512-3.795,12.298-8.047,19.077-3.795  c1.575,1.008,0.63,1.291-0.425,2.63c0.027,0.56,0.201,1.103,0.504,1.575l0.205,0.205l0.197,0.181c0.26,0.252,0.528,0.504,0.787,0.74  c1.131,1.06,2.53,1.79,4.047,2.11l0.52,0.063l-0.512-0.055c0.164,0.022,0.327,0.053,0.488,0.094  c2.559,0.685,2.433,4.102,0.787,8.125c-0.205,0.48-0.425,0.969-0.669,1.457c-0.004,0.06-0.004,0.121,0,0.181l-0.181,0.205  c-1.195,2.297-2.645,4.453-4.323,6.425c-0.814,0.956-1.684,1.863-2.606,2.716c-0.283,0.26-0.567,0.496-0.858,0.732v0.504  c-4.511,6.425-9.117,13.503-11.558,17.55c-0.442,0.889-0.824,1.807-1.142,2.748c-0.11,0.134-0.205,0.236-0.283,0.323  c-10.794,12.408-19.353-2.315-25.525-15.999c-0.709-0.787-1.457-1.575-2.22-2.425c-0.496-0.559-1-1.142-1.504-1.724l-0.449-0.527  c-0.181-0.205-0.346-0.417-0.52-0.622l-0.496-0.598l-0.496-0.606l-0.496-0.622l-0.449-0.591l-0.496-0.653  c-0.142-0.189-0.276-0.378-0.417-0.559l-0.488-0.693l-0.354-0.504c-0.189-0.283-0.37-0.559-0.543-0.835l-0.22-0.339  c-0.236-0.378,0-4.323-1.929-4.204c-0.921,0.063-5.834,9.377-5.96,10.535c-0.606,5.59,1.008,20.723,8.047,38.068  c3.346,6.503,27.202,36.312,29.336,38.304c6.645,4.598,11.424,7.275,20.164,7.826c2.913-1.315,3.283-1.96,6.236-3.653l2.598-1.575  c3.212-1.85,8.724-6.228,6.889-6.795c-2.811-3.197-18.896-1.905-30.855-7.921c-4.738-2.37-9.315-5.05-13.7-8.023  c-1.11-0.603-2.139-1.343-3.063-2.205c-11.086-8.346-16.605-17.18-7.542-22.368c1.068-0.443,2.242-0.564,3.377-0.346  c13.983,1.496,57.539,24.864,57.192,2.661c0,0,5.511-8.094,6.897-10.18h0.291c0-0.102-0.055-0.205-0.087-0.307l3.614-5.346  c0-0.102,0.071-0.173,0.126-0.197c10.81-15.975,25.061-18.109,29.352-37.627C3844.288,1664.646,3842.368,1662.521,3840.32,1660.524z  " style="fill:#1B8FEF;"/>
	<path d="M2363.223,1365.855c0,0,3.373-21.831,22.048-22.67s19.544,14.588,19.544,14.588L2363.223,1365.855z" style="fill:#BF1682;"/>
	<path d="M3701.253,1861.176c0-2.244-18.951-5.37-22.762-4.724c-0.724,0.134-1.449,0.268-2.197,0.378  c-11.479,1.661-25.132,0.945-38.689-1.362c-6.443-1.101-12.824-2.538-19.117-4.307c-4.141-1.173-8.165-2.464-12.007-3.858  c-2.771-1-5.448-2.055-7.999-3.149c-2.362-1.016-4.574-2.063-6.677-3.149c-2.913-1.488-14.558-12.597-14.558-12.597l-0.661,0.102  l-0.244-0.26l-0.724-0.126c0,0-20.203-3.504-28.998-25.297c-1.409-1.212-5.078-6.409-10.873-5.307  c-9.74,1.858,5.464,22.274,5.102,18.109c0.787,8.535,38.705,36.406,45.406,45.555c1.843,2.071,3.708,4.275,5.59,6.511l2.827,3.354  c1.26,1.85,2.535,3.693,3.811,5.511c1.465,2.039,2.929,4,4.409,5.834c7.873,9.755,15.999,15.589,24.21,7.472l2.441-0.512  c1.126-1.472,2.252-2.795,3.378-4c1.447-1.555,3.013-2.995,4.685-4.307c12.66-9.81,26.061-10.849,35.587-7.818  c1.386-0.37,6.708,4,8.007,3.645c5.165,1.37,13.668,0.945,15.817-3.645C3711.796,1874.301,3701.316,1865.923,3701.253,1861.176z" style="fill:#0DCC5A;"/>
	<path d="M3676.25,2382.265c16.554-29.365,43.991-95.215,40.788-98.201c-1.448-1.35-4.539,0.273-6.559,1.417  c-1.033,0.584-2.207,0.862-3.392,0.798l-6.975,0.306c-0.962,0.042-1.604-0.98-1.148-1.828l7.089-13.188  c0.012-0.024,0.024-0.048,0.036-0.072c40.891-89.973,70.97-113.745,101.431-136.113c0.096-0.071,0.18-0.154,0.251-0.25  c3.867-5.19,10.961-11.11,17.453-19.268c6.748-8.192,12.883-12.24,19.196-9.387c6.316,2.906,12.455,4.874,19.206,8.832  c5.88,3.065,12.251,13.456,16.271,26.532c0.016,0.044,0.032,0.089,0.049,0.133c4.064,9.537,15.24,16.889,22.578,30.145  c3.877,7.004,0.513,11.502-0.698,12.108c-2.381,0.724-3.206-5.993-6.761-10.579c-2.907-3.75-7.774-5.709-16.215-7.668  c-0.09-0.011-0.183-0.023-0.273-0.035c-17.537-0.441-26.334,6.638-29.612,14.172c-5.748,13.213-14.061,50.411-38.563,78.369  l0.003-0.003l2.021,2.097c0.118,0.122,0.309,0.125,0.436,0.011c6.321-5.693,18.736,0.064,18.736,8.818  c-2.492-3.383-7.422-7.331-11.627-5.977c-0.489,0.158-0.579,0.817-0.165,1.122c6.66,4.905,7.509,11.092,5.415,18.272  c-2.603-9.579-6.592-13.923-10.444-14.131s-7.357,8.271-3.785,10.978c-7.944-4.341-4.284-13.951-1.509-16.039  c0.138-0.104,0.157-0.304,0.051-0.441l-1.572-2.021c-9.941,10.624-22.39,19.692-38.16,25.243c-0.033,0.013-0.066,0.026-0.099,0.039  c-2.385,1.053-4.86,2.678-7.378,4.762l0.887,11.962c0.013,0.173,0.123,0.321,0.283,0.388c7.035,2.939,10.726,11.418,10.843,16.787  c-0.001,0-0.001,0-0.001,0c-5.316-6.261-9.805-9.805-12.404-9.096c-2.599,0.709-8.757,1.065-8.537,14.516  c-0.001,0-0.001,0-0.002,0.001c-7.546-7.648-1.72-13.732,2.415-18.541c0.264-0.307,0.119-0.78-0.269-0.898  c-1.287-0.391-3.319-0.735-6.468-0.72c-16.154,21.313-30.907,53.514-32.503,68.029c-0.253,2.296-1.945,4.169-4.204,4.652  l-33.725,7.219C3676.774,2385.914,3675.313,2383.927,3676.25,2382.265z M3821.839,2162.578c4.729,4.837,12.273,6,20.99,2.863  c24.374-9.072,32.532-7.802,29.03-22.658c-4.383-18.231-16.124-23.52-24.897-24.845c-8.92-1.846-17.072,6.109-20.799,19.451  c-2.887,10.081,4.089,20.558,17.064,17.077c11.092-2.972,18.805-7.912,17.043-15.515c-1.438-6.496-7.878-12.253-14.231-12.366  c-5.297-0.158-10.633,4.275-11.424,10.602c-0.473,4.049,2.208,8.672,6.112,9.131c4.446,0.515,9.616-2.325,10.8-5.87  c1.213-3.734-2.186-6.964-5.951-6.742c-1.238,0.085-2.364,0.655-3.124,1.589c-0.46,0.567-0.982,1.517-0.757,2.738  c0.012,0.065,0.066,0.19,0.158,0.317c0.241,0.321,0.809,0.095,0.89-0.206c0.296-0.967,1.197-1.74,2.266-1.84  c1.142-0.107,2.11,0.56,2.346,1.52c0.002,0,0.003-0.001,0.005-0.001c0.439,1.775-0.396,2.994-0.956,3.587  c-1.204,1.275-3.058,1.829-4.355,1.885c-3.358,0.164-4.831-1.993-5.062-3.863c-0.3-2.33,0.532-4.837,2.094-6.745  c1.689-2.058,3.978-3.199,6.435-3.254c5.238-0.083,10.205,3.892,11.071,8.869c1.005,5.574-4.591,10.326-12.475,12.247  c-9.031,2.284-15.231-3.608-13.918-11.637c1.773-10.582,8.823-17.741,15.753-17.096c9.849,0.533,18.221,6.459,21.552,18.331  c3.335,11.664-4.771,14.268-24.153,21.257c-7.439,2.521-14.168,2.001-18.813-1.811c-4.69-3.636-7.295-10.564-7.533-16.827  c-0.022-0.538-0.894-0.645-0.962-0.124C3815.071,2149.596,3817.048,2157.924,3821.839,2162.578z M3758.082,2301.709  c0.178,0.049,0.36-0.063,0.386-0.246c0.391-2.783,0.237-5.799,0.16-6.892c-2.042,2.005-4.098,4.265-6.146,6.734  C3754.252,2301.194,3756.34,2301.226,3758.082,2301.709z" style="fill:#2D88E2;"/>
	<path d="M1566.197,1255.583c2.204-0.27,4.795-0.726,7.435-1.492c2.582-0.75,5.599-2.305,8.383-3.971  l0.152-0.214l7.085-10.002l-4.64-11.917l-0.276-0.708l-30.765-66.291l-6.698-14.433c0,0-7.686-2.911-13.549-1.734  c-0.346,0.069-0.688,0.148-1.02,0.247c-5.947,1.784-11.893,8.92-11.893,8.92l7.34,45.057L1566.197,1255.583z" style="fill:#BF1682;"/>
	<path d="M2568.017,1325.152c0,0-30.785-13.527-52.589-11.335c-21.804,2.192-31.124,11.335-31.124,11.335  l37.027,5.241L2568.017,1325.152z" style="fill:#BF1682;"/>
	<path d="M2149.376,1345.805l11.371-0.842c0.234-0.017,0.457-0.066,0.679-0.116  c-0.721-3.809-2.46-13.573-3.074-22.199c-0.215,0.106-0.427,0.227-0.633,0.371l-1.81,1.259l-3.177,2.21  c-1.126,0.783-2.539,1.035-3.867,0.689c-3.248-0.847-6.311,1.888-5.834,5.211l1.35,9.402c0.127,0.882,0.498,1.669,1.029,2.313  C2146.349,1345.242,2147.802,1345.922,2149.376,1345.805z" style="fill:#ED6D15;"/>
	<path d="M2205.735,1346.247c-3.216-0.43-6.581-0.548-10.049-0.263c-0.313,0.026-0.624,0.04-0.939,0.073  c-24.731,2.555-30.914,19.798-30.914,19.798l75.224-3.603C2239.057,1362.252,2225.034,1348.828,2205.735,1346.247z" style="fill:#0DCC5A;"/>
	<path d="M3840.32,1660.524c-4.291-3.771-8.566-7.031-14.314-9.566c-1.52-0.504-3.236-3.504-4.661-3.937  c-0.346,0-1.724-0.677-0.724-1.74c-0.748-0.197-1.488-0.378-2.228-0.543c-0.74-0.165-1.669-0.354-2.504-0.496  c-6.645-1.157-5.511,4.559-0.535,6.677c3.071,0.787,4.913,2.189,4.055,4.866c-0.457,1.409,0.787,4.047,1.937,4.724  c6.141,2.417,9.928,5.622,5.763,10.574c-0.689,0.799-1.631,1.339-2.669,1.527c-0.26,0.055-0.523,0.095-0.787,0.118  c-0.194,0.013-0.389,0.013-0.583,0c-2.362,0.11-5.26-0.598-8.346-1.661c-4.11-1.157-8.787-2.716-12.684-3.992  c-0.086,0.921-1.401,0.142-2.291-0.74c-3.315-1.071-5.692-1.764-5.976-1.512c-0.346-0.236-0.646-0.464-0.913-0.685l-0.315-0.283  c-1.496-1.346-1.37-2.212-0.268-2.724c6.299-6.858-15.888-10.33-22.518-8.338c-8.779,4.197-21.408,11.527-18.857,14.117  c7.322,7.425,14.014-2.708,14.014-2.708c0.228-0.478,0.491-0.939,0.787-1.378c2.512-3.795,12.298-8.047,19.077-3.795  c1.575,1.008,0.63,1.291-0.425,2.63c0.027,0.56,0.201,1.103,0.504,1.575l0.205,0.205l0.197,0.181c0.26,0.252,0.528,0.504,0.787,0.74  c1.131,1.06,2.53,1.79,4.047,2.11l0.52,0.063l-0.512-0.055c0.164,0.022,0.327,0.053,0.488,0.094  c2.559,0.685,2.433,4.102,0.787,8.125c-0.205,0.48-0.425,0.969-0.669,1.457c-0.004,0.06-0.004,0.121,0,0.181l-0.181,0.205  c-1.195,2.297-2.645,4.453-4.323,6.425c-0.814,0.956-1.684,1.863-2.606,2.716c-0.283,0.26-0.567,0.496-0.858,0.732v0.504  c-4.511,6.425-9.117,13.503-11.558,17.55c-0.442,0.889-0.824,1.807-1.142,2.748c-0.11,0.134-0.205,0.236-0.283,0.323  c-10.794,12.408-19.353-2.315-25.525-15.999c-0.709-0.787-1.457-1.575-2.22-2.425c-0.496-0.559-1-1.142-1.504-1.724l-0.449-0.527  c-0.181-0.205-0.346-0.417-0.52-0.622l-0.496-0.598l-0.496-0.606l-0.496-0.622l-0.449-0.591l-0.496-0.653  c-0.142-0.189-0.276-0.378-0.417-0.559l-0.488-0.693l-0.354-0.504c-0.189-0.283-0.37-0.559-0.543-0.835l-0.22-0.339  c-0.236-0.378,0-4.323-1.929-4.204c-0.921,0.063-5.834,9.377-5.96,10.535c-0.606,5.59,1.008,20.723,8.047,38.068  c3.346,6.503,27.202,36.312,29.336,38.304c6.645,4.598,11.424,7.275,20.164,7.826c2.913-1.315,3.283-1.96,6.236-3.653l2.598-1.575  c3.212-1.85,8.724-6.228,6.889-6.795c-2.811-3.197-18.896-1.905-30.855-7.921c-4.738-2.37-9.315-5.05-13.7-8.023  c-1.11-0.603-2.139-1.343-3.063-2.205c-11.086-8.346-16.605-17.18-7.542-22.368c1.068-0.443,2.242-0.564,3.377-0.346  c13.983,1.496,57.539,24.864,57.192,2.661c0,0,5.511-8.094,6.897-10.18h0.291c0-0.102-0.055-0.205-0.087-0.307l3.614-5.346  c0-0.102,0.071-0.173,0.126-0.197c10.81-15.975,25.061-18.109,29.352-37.627C3844.288,1664.646,3842.368,1662.521,3840.32,1660.524z  " style="fill:#1B8FEF;"/>
	<path d="M3547.282,1678.625c0,0-1.173-0.228-3.149-0.622c-3.7-0.583-9.779-2.023-15.951-3.685  c-6.661-1.63-3.976-3.527-8.078-5.141c-1.52-0.598-12.912-1.74-12.96-1.787c-2.897-1.795-15.172,45.28-15.148,45.319  c3.598,4.826,5.086-6.637,5.259-6.944c0.003-0.024,0.003-0.047,0-0.071c0.181-0.323,1.228-1.992,1.236-2.008l0.677-0.984  c0,0,1.504-2.031,2.362-3.023c1.843-2.167,3.829-4.208,5.944-6.11c1.031-0.929,2.086-1.819,3.149-2.685  c2.146-1.75,4.388-3.38,6.716-4.881l0,0c0.701-0.449,1.394-0.882,2.086-1.283l0,0c0.685-0.402,1.362-0.787,2.031-1.142l0,0  c0.669-0.354,1.331-0.693,1.976-1l0,0c0.638-0.307,1.268-0.59,1.882-0.85l0,0c0.614-0.252,1.212-0.488,1.795-0.685l0,0  c0.583-0.197,1.142-0.378,1.685-0.52l0,0c0.543-0.142,1.063-0.26,1.575-0.339l0,0c0.469-0.078,0.942-0.129,1.417-0.15  c2.724-0.102,6.708,0.787,11.645,2.275l0.079-0.039l0.354-0.189l0.212-0.11l0.331-0.165l0.252-0.134l0.197-0.102l0.228-0.118  l0.189-0.102l0.22-0.118l0.173-0.102l0.22-0.126c0.049-0.039,0.102-0.073,0.157-0.102l0.22-0.142l0.126-0.087l0.315-0.236h0.039  l0.244-0.22l0.094-0.087l0.149-0.165l0.079-0.11l0.118-0.157l0.063-0.118C3547.755,1679.388,3547.259,1678.68,3547.282,1678.625z" style="fill:#F7CB14;"/>
	<rect height="216" style="fill:#F2F2F2;stroke:#231F20;stroke-miterlimit:10;" width="343.8" x="313.564" y="2181.964"/>
	<path d="M1477.885,1338.381c6.078,0,12.478-0.644,16.532-1.144c-9.094-11.489-15.088-25.276-16.828-40.267  c-16.361-2.951-47.032-7.131-51.373,2.033c-5.961,12.585-9.935,47.42-1.325,74.577c5.51,17.379,13.826,42.489,19.101,58.319  c1.054,3.165-0.453,6.63-3.509,7.968c-6.105,2.674-10.292,8.139-10.292,14.461c0,8.963,8.406,16.228,18.774,16.228  c10.369,0,18.774-7.266,18.774-16.228c0-4.468-2.095-8.507-5.477-11.439c-2.037-1.766-3.271-4.281-3.385-6.975l-4.179-99.253  C1454.698,1336.661,1467.953,1338.381,1477.885,1338.381z" style="fill:#161616;"/>
	<path d="M2205.735,1346.247l-3.8-10.902c-0.291-0.835-1.095-1.379-1.978-1.34l-3.042,0.136  c-1.123,0.05-1.984,1.016-1.906,2.137l0.677,9.706C2199.154,1345.7,2202.519,1345.817,2205.735,1346.247z" style="fill:#2D88E2;"/>
	<path d="M1663.531,2370.255l-39.949-40.583c-1.255,7.692-4.747,14.342-9.564,18.908l32.244,24.535  c5.019,3.819,7.753,9.927,7.257,16.214l-23.769,301.681c-0.351,4.458,3.172,8.27,7.644,8.27h18.762c3.388,0,6.652-1.276,9.142-3.574  l0,0c1.855-1.712,0.943-4.809-1.545-5.241l-15.631-2.719c-4.532-0.788-7.692-4.933-7.253-9.512l28.103-292.637  C1669.517,2379.929,1667.524,2374.312,1663.531,2370.255z" style="fill:#161616;"/>
	<path d="M3882.12,1611.678c-12.952-19.625-22.962-61.197-44.681-78.001l0,0  c-1.036-1.082-2.27-1.743-3.724-2.063c-1.556,1.27-3.298,2.292-5.165,3.031c-0.528,1.084-0.929,2.225-1.197,3.401  c0.323,0.047,0.622,0.102,0.913,0.157l0.236,0.047c0.585,0.109,1.159,0.27,1.724,0.457c0.42,0.148,0.823,0.338,1.205,0.567h0.047  c0.12,0.07,0.235,0.146,0.346,0.228l0,0c0.186,0.144,0.365,0.303,0.52,0.48l0,0c0.078,0.087,0.149,0.179,0.213,0.276l0,0  c0.029,0.032,0.055,0.066,0.079,0.102l0,0c0.079,0.115,0.147,0.236,0.205,0.362l0,0c0.008,0.139,0.1,0.263,0.126,0.402l0,0  c0.01,0.045,0.024,0.09,0.039,0.134l0,0c0,0.118,0.055,0.244,0.079,0.362l0,0c-1.578,9.05-3.539,18.797,5.97,26.045  c23.073,20.261,39.816,39.028,34.232,65.53c-0.087-0.331,2.779-0.071,0.787,0c1.236,0,1.96,4.236,1.307,6.897l0,0  c1.081,0.529,1.963,1.39,2.52,2.457C3880.242,1632.771,3885.58,1622.954,3882.12,1611.678z" style="fill:#1B8FEF;"/>
	<path d="M2213.9,1329.377c0,4.596-2.578,8.322-5.759,8.322s-5.759-3.726-5.759-8.322  c0-4.596,2.578-8.322,5.759-8.322S2213.9,1324.78,2213.9,1329.377z" style="fill:#E5B51A;"/>
	<path d="M4042.413,108.617l-36.024-0.708l-294.991,0.342h-36.031  l-36.031,62.408l36.031,62.408h36.031l292.538-0.366l36.024,0.708l37.251-61.688L4042.413,108.617z M4052.667,163.792l2.95,5.43  l-4.634,1.196C4051.699,168.274,4052.267,166.062,4052.667,163.792z M3979.089,126.869c0.805-0.777,1.637-1.525,2.505-2.233  l30.697,0.015l-17.15,23.477c-4.548-4.451-10.033-7.947-16.143-10.144c0.546-1.819,0.848-3.743,0.848-5.74  C3979.845,130.379,3979.571,128.581,3979.089,126.869z M4008.383,175.636c1.767-0.517,3.631-0.807,5.565-0.807  c3.578,0,6.932,0.95,9.828,2.609l-15.192,3.92c0.012-0.414,0.029-0.827,0.029-1.245  C4008.613,178.602,4008.529,177.11,4008.383,175.636z M4008.385,184.548l18.608-4.802c2.202,1.932,3.978,4.34,5.154,7.07  c-6.889,5.589-15.665,8.944-25.227,8.944c-0.38,0-0.755-0.018-1.132-0.029C4007.107,192.192,4007.996,188.444,4008.385,184.548z   M4006.88,181.798l-9.82,2.534c2.237-3.664,5.627-6.544,9.677-8.13c0.116,1.289,0.182,2.592,0.182,3.912  C4006.919,180.679,4006.902,181.239,4006.88,181.798z M3971.958,136.107c0.618-1.1,1.284-2.169,2-3.202  c-0.057,1.201-0.256,2.365-0.594,3.469C3972.899,136.273,3972.427,136.194,3971.958,136.107z M3972.756,137.971  c-0.885,1.982-2.22,3.716-3.867,5.086c0.617-1.86,1.366-3.658,2.238-5.386C3971.673,137.764,3972.218,137.857,3972.756,137.971z   M3971.732,124.631c0.091,0.14,0.172,0.287,0.257,0.43c-2.725,3.105-5.048,6.57-6.874,10.324c-0.422-0.012-0.841-0.035-1.266-0.035  c-3.673,0-7.24,0.452-10.656,1.287c-0.703-4.428-2.427-8.516-4.922-12.018L3971.732,124.631z M3953.396,138.328  c3.348-0.835,6.848-1.284,10.454-1.284c0.168,0,0.333,0.011,0.501,0.013c-1.276,2.912-2.27,5.976-2.929,9.163  c-0.495,0.053-0.994,0.089-1.503,0.089c-2.385,0-4.629-0.598-6.597-1.646c0.144-1.16,0.226-2.339,0.226-3.539  C3953.548,140.18,3953.486,139.25,3953.396,138.328z M3951.81,141.125c0,0.847-0.043,1.683-0.12,2.51  c-1.373-0.994-2.553-2.232-3.492-3.645c1.145-0.447,2.312-0.847,3.502-1.196C3951.767,139.562,3951.81,140.338,3951.81,141.125z   M3947.238,126.19c2.166,3.208,3.659,6.908,4.267,10.899c-1.418,0.406-2.806,0.88-4.163,1.418c-0.945-1.886-1.489-4.008-1.489-6.263  C3945.853,130.073,3946.358,128.025,3947.238,126.19z M3950.38,149.742c-1.294,3.79-3.41,7.2-6.142,10.011  c-2.045-1.438-4.237-2.678-6.555-3.688c-1.004-2.449-2.271-4.763-3.757-6.912c2.665-2.576,5.659-4.811,8.916-6.635  C3944.667,145.543,3947.271,148.045,3950.38,149.742z M3886.366,198.949c-2.593-1.572-4.963-3.474-7.039-5.662  c1.121-2.476,1.942-5.117,2.402-7.881c1.158-0.231,2.353-0.359,3.578-0.359c0.146,0,0.287,0.019,0.432,0.022  c-0.244,1.727-0.378,3.488-0.378,5.282C3885.363,193.312,3885.717,196.187,3886.366,198.949z M3886.284,182.111  c-0.215-0.006-0.426-0.032-0.642-0.032c-1.213,0-2.4,0.103-3.559,0.294c0.052-0.747,0.085-1.499,0.085-2.259  c0-5.003-1.172-9.724-3.22-13.941l2.024-4.183c0.668-1.061,1.223-2.198,1.645-3.4l9.834-20.327c1.43-0.511,2.902-0.933,4.413-1.251  c-0.194,1.343-0.3,2.716-0.3,4.113c0,6.675,2.302,12.81,6.147,17.666C3894.51,164.011,3888.485,172.333,3886.284,182.111z   M3873.83,185.566c-0.779-1.504-1.437-3.079-1.987-4.704l3.929-8.121c0.789,2.521,1.219,5.2,1.219,7.982  c0,1.099-0.087,2.175-0.216,3.239C3875.748,184.421,3874.766,184.961,3873.83,185.566z M3876.096,187.563  c-0.109,0.413-0.247,0.813-0.375,1.218c-0.154-0.231-0.301-0.467-0.45-0.702C3875.542,187.901,3875.816,187.727,3876.096,187.563z   M3863.636,186.112l-16.013-16.013c3.046-0.837,5.895-2.149,8.444-3.879c2.899,2.324,6.573,3.722,10.578,3.722  c0.195,0,0.387-0.01,0.58-0.017c0,0.006,0,0.011,0,0.017c0,2.482,0.257,4.903,0.729,7.245L3863.636,186.112z M3864.289,199.465  c-0.289,1.398-0.451,2.841-0.458,4.323c-1.28,0.759-2.626,1.42-4.029,1.964l3.513-7.262L3864.289,199.465z M3868.179,137.662  c4.239,0.419,7.964,2.562,10.49,5.709c-3.527,3.34-6.389,7.371-8.368,11.881c-1.123-0.912-2.304-1.758-3.547-2.513  c1.196-3.147,1.857-6.558,1.857-10.125C3868.612,140.925,3868.461,139.27,3868.179,137.662z M3870.12,168.023  c0.092-1.541,0.286-3.054,0.577-4.532c0.851,1.015,1.627,2.093,2.323,3.226l-0.186,0.385  C3871.966,167.484,3871.062,167.802,3870.12,168.023z M3871.868,169.097l-1.707,3.528c-0.064-0.849-0.108-1.704-0.108-2.57  c0-0.158,0.01-0.314,0.012-0.472C3870.679,169.453,3871.281,169.288,3871.868,169.097z M3868.329,161.003  c-0.598,2.38-0.96,4.852-1.065,7.391c-0.207,0.008-0.409,0.035-0.619,0.035c-3.493,0-6.704-1.175-9.29-3.133  c2.694-2.055,5.018-4.571,6.837-7.441C3865.676,158.767,3867.057,159.827,3868.329,161.003z M3862.524,150.584  c-3.265-1.368-6.806-2.208-10.515-2.42c1.691-5.112,5.977-9.035,11.304-10.21c0.33,1.576,0.512,3.207,0.512,4.882  C3863.825,145.55,3863.364,148.155,3862.524,150.584z M3859.992,155.761c-1.569,2.41-3.564,4.515-5.877,6.214  c-1.646-2.296-2.67-5.058-2.846-8.054C3854.339,154.047,3857.273,154.689,3859.992,155.761z M3852.868,162.833  c-2.7,1.729-5.774,2.92-9.073,3.438l-8.124-8.124c4.073-2.618,8.899-4.165,14.083-4.243  C3849.929,157.225,3851.052,160.289,3852.868,162.833z M3870.176,184.308c0.426,0.996,0.881,1.978,1.39,2.927  c-1.228,1.039-2.337,2.213-3.31,3.496l-0.8-0.8L3870.176,184.308z M3873.075,189.782c0.465,0.719,0.947,1.425,1.46,2.108  c-0.528,1.148-1.143,2.247-1.82,3.301l-2.351-2.351C3871.163,191.726,3872.062,190.693,3873.075,189.782z M3875.792,160.989  c-0.986-1.316-2.058-2.563-3.229-3.714c1.775-4.337,4.425-8.22,7.732-11.434c0.535,1.018,0.958,2.103,1.259,3.237L3875.792,160.989z   M3881.433,144.784c1.108-0.983,2.284-1.89,3.515-2.721l-2.443,5.05C3882.201,146.307,3881.847,145.527,3881.433,144.784z   M3932.929,166.696l-1.993-4.966c2.159,0.613,4.222,1.453,6.15,2.514c0.041,0.238,0.088,0.474,0.125,0.713  C3935.846,165.653,3934.416,166.237,3932.929,166.696z M3937.435,166.793c0.103,1.074,0.16,2.161,0.16,3.261  c0,2.267-0.235,4.476-0.661,6.617l-3.356-8.362C3934.906,167.893,3936.198,167.391,3937.435,166.793z M3929.873,153.662  c0.638-0.819,1.299-1.62,1.994-2.39c0.726,1.082,1.404,2.2,2.004,3.366C3932.57,154.234,3931.229,153.924,3929.873,153.662z   M3927.977,153.335c-0.141-0.02-0.286-0.028-0.428-0.046l-4.363-10.869c2.932,2.064,5.531,4.572,7.677,7.442  C3929.844,150.97,3928.88,152.128,3927.977,153.335z M3925.406,160.702c0.379,0.034,0.753,0.082,1.127,0.129l2.694,6.711  c-1.36,0.214-2.75,0.337-4.17,0.337c-0.833,0-1.654-0.05-2.467-0.125C3923.322,165.303,3924.27,162.947,3925.406,160.702z   M3920.886,167.551c-3.917-0.614-7.553-2.074-10.712-4.193c3.823-1.785,8.084-2.788,12.581-2.788c0.269,0,0.534,0.018,0.802,0.026  C3922.479,162.817,3921.589,165.144,3920.886,167.551z M3923.382,152.982c-0.21-0.004-0.415-0.023-0.626-0.023  c-6.751,0-13.078,1.798-18.545,4.928c-3.693-4.587-5.908-10.414-5.908-16.761c0-1.515,0.132-2.998,0.374-4.443  c1.679-0.257,3.396-0.397,5.147-0.397c5.039,0,9.81,1.116,14.1,3.098L3923.382,152.982z M3908.418,164.247  c3.493,2.518,7.577,4.265,12.005,4.991c-0.87,3.483-1.338,7.124-1.338,10.876c0,6.352,1.331,12.391,3.717,17.864  c-4.467,3.042-9.698,5.046-15.35,5.65c-0.11-9.069-5.756-16.794-13.711-19.98C3895.666,175.289,3901.101,168.274,3908.418,164.247z   M3907.303,206.372c6.129-0.578,11.813-2.675,16.685-5.898c0.413,0.807,0.851,1.598,1.311,2.376l-18.186,4.693  C3907.179,207.153,3907.259,206.768,3907.303,206.372z M3924.208,196.972c-2.206-5.178-3.428-10.875-3.428-16.858  c0-3.682,0.464-7.255,1.334-10.667c0.969,0.1,1.947,0.169,2.943,0.169c1.649,0,3.265-0.141,4.837-0.41l5.326,13.27  C3932.927,188.261,3929.093,193.268,3924.208,196.972z M3936.665,186.073l5.035,12.545l-14.677,3.787  c-0.575-0.949-1.128-1.912-1.63-2.907C3930.156,196.017,3934.034,191.408,3936.665,186.073z M3941.509,124.616  c-0.975,2.35-1.519,4.925-1.519,7.628c0,3.154,0.741,6.132,2.046,8.783c-3.329,1.862-6.393,4.138-9.128,6.756  c-3.104-4.073-7.047-7.466-11.561-9.944l-5.312-13.235L3941.509,124.616z M3911.99,124.602l4.403,10.969  c-3.918-1.439-8.151-2.228-12.571-2.228c-1.506,0-2.988,0.1-4.447,0.277c0.969-3.321,2.563-6.372,4.649-9.022L3911.99,124.602z   M3899.063,124.596l2.793,0.001c-1.979,2.773-3.478,5.912-4.364,9.3c-1.119,0.196-2.212,0.46-3.294,0.754L3899.063,124.596z   M3893.399,124.593l-6.169,12.752c-2.686,1.37-5.19,3.046-7.442,5.01c-2.87-3.528-7.125-5.885-11.944-6.224  c-1.003-4.304-2.957-8.242-5.664-11.553L3893.399,124.593z M3855.246,124.575c3.67,3.048,6.402,7.184,7.713,11.91  c-5.983,1.33-10.773,5.817-12.525,11.629c-0.091-0.001-0.181-0.007-0.272-0.007c-6.929,0-13.338,2.21-18.576,5.954l-12.371-12.371  l22.671-17.122L3855.246,124.575z M3835.011,171.009c0,3.69-1.266,7.077-3.372,9.777c-2.235-2.285-4.843-4.2-7.716-5.671  c0.556-2.613,1.492-5.086,2.748-7.357c2.568,1.372,5.363,2.373,8.323,2.908C3834.997,170.781,3835.011,170.893,3835.011,171.009z   M3818.89,186.93c-2.729-0.033-5.292-0.753-7.526-1.994c0.936-2.496,1.644-5.104,2.076-7.805c1.651,0.253,3.238,0.689,4.763,1.254  c-0.03,0.572-0.048,1.148-0.048,1.728C3818.156,182.454,3818.413,184.733,3818.89,186.93z M3808.286,149.944l3.667-2.769  c0.454,2.815,1.312,5.495,2.526,7.97c-1.079,0.315-2.115,0.73-3.092,1.245C3810.542,154.138,3809.498,151.986,3808.286,149.944z   M3811.148,185.506c2.341,1.284,5.025,2.019,7.88,2.028c0.378,1.591,0.879,3.134,1.484,4.623l-9.419-6.521  C3811.111,185.592,3811.132,185.55,3811.148,185.506z M3818.936,173.099c-1.616-0.483-3.29-0.833-5.009-1.036  c0.016-0.467,0.034-0.933,0.034-1.404c0-4.809-0.849-9.416-2.381-13.698c0.999-0.535,2.064-0.96,3.176-1.275  c1.807,3.496,4.321,6.563,7.345,9.028C3820.673,167.31,3819.601,170.127,3818.936,173.099z M3824.961,124.56l8.114,0.004  l-15.857,11.976C3818.524,131.784,3821.269,127.622,3824.961,124.56z M3818.028,124.557c-2.496,3.047-4.344,6.631-5.405,10.541  l-10.548-10.548L3818.028,124.557z M3789.366,124.544l18.818,18.818l-2.907,2.195c-3.757-4.781-8.553-8.707-14.059-11.418  c-0.501-3.468-1.686-6.715-3.419-9.596L3789.366,124.544z M3780.891,204.393c-1.409,0.317-2.847,0.556-4.315,0.695  c-0.067-9.337-5.951-17.288-14.209-20.413c-0.003-0.015-0.007-0.029-0.01-0.044l20.817-15.722l11.147,7.717  c-8.161,5.283-13.571,14.45-13.571,24.897C3780.75,202.492,3780.8,203.449,3780.891,204.393z M3762.586,185.949  c7.544,3.132,12.856,10.552,12.888,19.222c-0.729,0.046-1.462,0.077-2.203,0.077c-4.106,0-8.044-0.72-11.698-2.033  c0.985-3.48,1.52-7.149,1.52-10.944C3763.093,190.119,3762.914,188.009,3762.586,185.949z M3802.672,172.888  c-2.225,0.601-4.34,1.466-6.326,2.538l-11.374-7.875l18.401-13.897c1.216,2.152,2.214,4.443,2.953,6.849  c-2.354,2.856-3.768,6.515-3.768,10.505C3802.558,171.645,3802.602,172.27,3802.672,172.888z M3798.512,179.529l6.611,4.577  c-3.732,8.827-11.011,15.786-20.066,19.068c-0.036-0.546-0.061-1.095-0.061-1.65  C3784.997,191.915,3790.497,183.604,3798.512,179.529z M3800.807,178.514c1.004-0.387,2.03-0.73,3.092-0.984  c0.589,1.368,1.361,2.637,2.279,3.786c-0.08,0.248-0.176,0.49-0.262,0.735L3800.807,178.514z M3804.5,177.399  c0.91-0.194,1.837-0.345,2.781-0.436c-0.228,1.238-0.538,2.445-0.894,3.633C3805.642,179.611,3805.002,178.543,3804.5,177.399z   M3803.255,172.737c-0.061-0.568-0.097-1.144-0.097-1.728c0-3.698,1.271-7.092,3.386-9.795c0.851,3.004,1.317,6.169,1.317,9.446  c0,0.439-0.015,0.875-0.031,1.311C3806.266,172.106,3804.739,172.369,3803.255,172.737z M3791.28,141.125  c3.507,2.143,6.596,4.897,9.13,8.109l-20.037,15.133l-4.156-2.877C3784.272,157.859,3790.137,150.228,3791.28,141.125z   M3780.58,138.17c0,8.276-6.709,14.985-14.985,14.985c-0.525,0-1.04-0.037-1.55-0.092l-3.158-2.186  c0.129-1.064,0.219-2.14,0.219-3.239c0-3.074-0.512-6.026-1.449-8.782c4.178-1.791,8.779-2.786,13.613-2.786  c2.485,0,4.907,0.268,7.244,0.766C3780.553,137.276,3780.58,137.72,3780.58,138.17z M3759.417,124.529l12.368,0.006  c2.71,1.233,4.984,3.251,6.543,5.758c-1.658-0.206-3.343-0.324-5.056-0.324c-5.765,0-11.246,1.206-16.215,3.368  c-0.957-1.553-2.059-3.007-3.297-4.334C3755.247,127.086,3757.183,125.542,3759.417,124.529z M3757.518,147.637  c0,0.298-0.021,0.589-0.034,0.883l-5.295-3.666c-0.194-0.388-0.376-0.782-0.536-1.188c1.483-1.19,3.066-2.259,4.735-3.195  C3757.107,142.735,3757.518,145.135,3757.518,147.637z M3751.832,132.244c0.718,0.842,1.363,1.747,1.96,2.684  c-1.068,0.583-2.105,1.215-3.112,1.888C3750.825,135.206,3751.218,133.668,3751.832,132.244z M3728.262,124.514l10.996,0.005  c1.206,0.286,2.372,0.675,3.499,1.137c-1.708,3.189-2.77,6.776-3.007,10.588l-15.194-10.519  C3725.747,125.225,3726.984,124.816,3728.262,124.514z M3739.74,138.838c0.094,2.457,0.518,4.828,1.247,7.065  c-1.981,2.579-3.658,5.402-4.982,8.417c-4.09-1.406-8.475-2.18-13.043-2.18c-4.222,0-8.288,0.659-12.109,1.87  c-0.563-2.029-0.871-4.164-0.871-6.372c0-8.992,5.002-16.803,12.368-20.839L3739.74,138.838z M3742.664,186.768  c-1.971-3.741-3.281-7.884-3.766-12.277c1.334-0.255,2.639-0.592,3.897-1.033c2.804,2.954,4.95,6.536,6.218,10.509  C3746.729,184.563,3744.594,185.52,3742.664,186.768z M3749.332,185.047c0.212,0.774,0.379,1.567,0.524,2.367l-4.606,3.478  c-0.733-1.014-1.432-2.055-2.053-3.147C3745.057,186.532,3747.125,185.62,3749.332,185.047z M3740.375,194.573l-5.663,4.277  c0.833-2.583,2.138-4.955,3.84-6.991C3739.124,192.79,3739.735,193.693,3740.375,194.573z M3738.682,170.66  c0-0.24,0.013-0.478,0.018-0.717c0.334,0.236,0.676,0.462,0.999,0.713c-0.332,0.085-0.672,0.155-1.011,0.227  C3738.688,170.808,3738.682,170.735,3738.682,170.66z M3732.599,171.352c-5.609-0.27-10.713-2.461-14.644-5.959  c1.625-0.301,3.296-0.467,5.007-0.467c3.462,0,6.762,0.664,9.809,1.84c-0.122,1.282-0.19,2.58-0.19,3.893  C3732.581,170.892,3732.594,171.121,3732.599,171.352z M3719.042,124.509l0.053,0.036c-7.632,4.854-12.7,13.378-12.7,23.093  c0,2.644,0.383,5.197,1.082,7.616c-0.987,0.414-1.948,0.878-2.894,1.366l-6.764-11.716l8.795-20.401L3719.042,124.509z   M3698.853,160.226c-0.229,0.172-0.467,0.331-0.692,0.508c-1.452-1.86-3.151-3.516-5.042-4.931l1.36-3.154L3698.853,160.226z   M3702.628,124.501l-7.092,16.451l-9.503-16.459L3702.628,124.501z M3681.97,130.985l10.227,17.713l-2.198,5.099  c-3.765-2.067-8.084-3.25-12.683-3.25c-2.155,0-4.248,0.264-6.253,0.751L3681.97,130.985z M3657.01,173.466  c-1.683,2.657-5.202,3.446-7.859,1.762c-2.657-1.683-3.446-5.202-1.762-7.859c1.683-2.657,5.202-3.446,7.859-1.762  S3658.694,170.809,3657.01,173.466z M3672.448,194.508l-12.051-23.349l9.422-17.546c2.364-0.758,4.882-1.171,7.497-1.171  c4.332,0,8.398,1.13,11.929,3.101L3672.448,194.508z M3675.655,200.72c1.49-3.138,4.047-5.664,7.211-7.109  c0.079,2.414,0.367,4.775,0.854,7.063c-2.042,0.551-4.187,0.849-6.403,0.849c-0.424,0-0.845-0.011-1.264-0.032L3675.655,200.72z   M3684.397,217.659l-7.353-14.247c0.091,0.001,0.181,0.007,0.272,0.007c2.367,0,4.659-0.316,6.841-0.899  c1.482,5.625,4.152,10.766,7.729,15.139H3684.397z M3683.018,188.444c-1.817,0.583-3.506,1.437-5.046,2.495l14.373-33.34  c1.625,1.262,3.092,2.717,4.355,4.342C3689.115,168.515,3684.018,177.88,3683.018,188.444z M3701.77,174.995  c0.053,0.656,0.087,1.318,0.087,1.988c0,4.711-1.33,9.111-3.632,12.848c-0.761-0.409-1.56-0.752-2.377-1.059  C3696.511,183.585,3698.622,178.852,3701.77,174.995z M3703.167,211.123c-3.904-4.098-6.546-9.403-7.312-15.301  c0.39-0.382,0.768-0.777,1.134-1.184c4.066,2.63,6.764,7.195,6.764,12.398C3703.752,208.456,3703.541,209.824,3703.167,211.123z   M3710.927,216.813c-1.364-0.67-2.669-1.442-3.893-2.322c0.95-2.298,1.481-4.813,1.481-7.454c0-6.765-3.441-12.723-8.666-16.228  c2.474-4.023,3.903-8.757,3.903-13.826c0-1.318-0.1-2.613-0.286-3.879c0.585-0.595,1.205-1.156,1.842-1.695l19.961,34.573  L3710.927,216.813z M3718.623,217.66l9.324-7.042l4.066,7.042H3718.623z M3730.709,201.873l-19.731-34.176  c0.95-0.464,1.93-0.875,2.938-1.229c4.784,5.037,11.461,8.251,18.895,8.502c0.605,5.738,2.409,11.116,5.147,15.888  c-2.23,2.574-3.852,5.678-4.698,9.088L3730.709,201.873z M3738.243,214.923l-4.446-7.701c-0.031-0.32-0.056-0.642-0.075-0.965  l10.057-7.595c1.382,1.457,2.864,2.818,4.449,4.057C3746.163,207.705,3742.659,211.937,3738.243,214.923z M3750.01,196.258  c-0.458-0.417-0.889-0.862-1.324-1.303l1.563-1.18C3750.201,194.612,3750.128,195.442,3750.01,196.258z M3751.204,163.765  c-2.819-2.793-6.053-5.164-9.596-7.028c0.697-1.583,1.51-3.103,2.427-4.551c2.395,3.597,5.654,6.569,9.495,8.596  C3752.829,161.835,3752.06,162.84,3751.204,163.765z M3756.867,162.254c2.727,0.976,5.665,1.512,8.728,1.512  c2.875,0,5.639-0.469,8.222-1.334l4.756,3.293l-17.716,13.38c-1.628-4.684-4.085-8.98-7.218-12.693  C3754.844,165.135,3755.924,163.741,3756.867,162.254z M3754.038,217.659c2.163-2.645,3.993-5.572,5.431-8.715  c4.31,1.554,8.956,2.405,13.802,2.405c0.438,0,0.871-0.019,1.305-0.033c-0.701,2.314-1.806,4.445-3.212,6.343H3754.038z   M3772.742,217.659c1.322-1.931,2.341-4.084,2.996-6.391c2.169-0.13,4.29-0.438,6.354-0.895c0.812,2.602,1.979,5.046,3.433,7.286  L3772.742,217.659L3772.742,217.659z M3820,217.659h-28.989c-2.113-2.441-3.754-5.299-4.783-8.436  c10.666-3.581,19.349-11.46,24.007-21.578l12.204,8.449c0.023,0.041,0.043,0.084,0.067,0.124c-2.797,3.487-4.479,7.905-4.479,12.727  C3818.028,212.066,3818.749,215.013,3820,217.659z M3819.788,155.117c0.055,0.002,0.11,0.01,0.165,0.013l5.129,5.129  c-0.147,0.185-0.304,0.362-0.446,0.55C3822.74,159.176,3821.091,157.267,3819.788,155.117z M3823.341,181.01  c1.514,1.015,2.92,2.18,4.174,3.495c-1.122,0.703-2.34,1.264-3.625,1.675C3823.544,184.509,3823.359,182.78,3823.341,181.01z   M3824.026,186.768c1.39-0.439,2.703-1.051,3.909-1.818c1.334,1.468,2.489,3.1,3.443,4.856c-1.893,0.7-3.651,1.676-5.233,2.871  C3825.218,190.82,3824.502,188.84,3824.026,186.768z M3829.375,216.349c-1.649-2.018-2.64-4.595-2.64-7.405  c0-2.028,0.523-3.93,1.431-5.592c1.659,1.571,3.48,2.971,5.445,4.161C3832.794,210.76,3831.333,213.752,3829.375,216.349z   M3834.344,201.732l-2.999-2.076c0.842-0.643,1.766-1.185,2.764-1.585c0.159,1.128,0.243,2.28,0.243,3.452  C3834.352,201.593,3834.345,201.662,3834.344,201.732z M3846.256,217.659h-10.936c1.513-2.33,2.709-4.885,3.526-7.604  c1.953,0.738,3.999,1.284,6.112,1.629l3.836,2.656C3848.143,215.591,3847.298,216.725,3846.256,217.659z M3849.634,212.318  l-0.325-0.225c0.134,0.003,0.266,0.012,0.4,0.014C3849.689,212.18,3849.656,212.247,3849.634,212.318z M3839.82,205.484  c0.174-1.297,0.276-2.616,0.276-3.96c0-1.429-0.104-2.834-0.3-4.209c5.375,0.617,9.635,4.868,10.274,10.235  C3846.438,207.538,3842.977,206.803,3839.82,205.484z M3838.448,188.523c-0.448,0-0.886,0.039-1.327,0.067  c-1.317-2.708-3.026-5.189-5.065-7.361c2.22-2.814,3.556-6.358,3.556-10.221c0-0.077-0.01-0.153-0.012-0.23l23.894,23.894  l-2.652,5.482C3853.56,193.282,3846.573,188.523,3838.448,188.523z M3867.908,217.659h-10.561l-0.35-0.242  c0.92-2.009,1.538-4.184,1.766-6.476c1.955-0.544,3.831-1.275,5.616-2.162c0.74,3.236,2.2,6.195,4.203,8.706L3867.908,217.659z   M3871.709,216.678c-2.335-2.579-3.972-5.815-4.607-9.415c1.013-0.633,1.982-1.33,2.914-2.069l9.476,9.476L3871.709,216.678z   M3880.07,217.659l1.918-0.495l0.495,0.495H3880.07z M3889.59,212.065l-13.386-13.386c0.644-0.902,1.253-1.831,1.803-2.799  c2.751,2.738,5.939,5.034,9.444,6.79c1.098,3.148,2.617,6.094,4.469,8.794L3889.59,212.065z M3895.184,217.659l-3.1-3.1l1.807-0.466  c1.036,1.258,2.145,2.454,3.334,3.566H3895.184z M3903.218,208.548l-3.326,0.858c-0.908-1.087-1.749-2.232-2.497-3.443  c2.025,0.359,4.103,0.562,6.228,0.573C3903.528,207.221,3903.384,207.889,3903.218,208.548z M3895.717,202.833  c-1.756-3.797-2.742-8.023-2.742-12.481c0-1.182,0.077-2.346,0.211-3.493c6.255,3.006,10.601,9.459,10.634,16.966  C3901.024,203.824,3898.313,203.474,3895.717,202.833z M3934.641,217.659h-23.771c-2.14-0.933-4.151-2.106-5.994-3.492  c0.555-1.041,1.013-2.138,1.397-3.27l20.763-5.358c2.849,4.119,6.358,7.746,10.395,10.703  C3936.526,216.757,3935.602,217.241,3934.641,217.659z M3939.006,215.285c-3.955-2.798-7.399-6.257-10.212-10.199l14.047-3.625  l3.044,7.583C3943.927,211.46,3941.618,213.579,3939.006,215.285z M3948.287,217.659c0.259-0.242,0.505-0.496,0.756-0.745  l0.299,0.745H3948.287z M3948.441,205.343l-1.938-4.827l4.645-1.199C3950.477,201.444,3949.549,203.453,3948.441,205.343z   M3952.005,195.959l-6.641,1.714l-6.668-16.613c1.118-3.506,1.728-7.24,1.728-11.118c0-1.256-0.087-2.491-0.213-3.714  c7.466,5.411,12.326,14.197,12.326,24.123C3952.535,192.269,3952.351,194.143,3952.005,195.959z M3953.385,217.659l-0.548-1.365  l1.869,1.365H3953.385z M3945.653,160.799c2.782-2.91,4.952-6.41,6.307-10.291c2.439,1.064,5.127,1.663,7.957,1.663  c0.23,0,0.455-0.019,0.683-0.026c-0.088,1.17-0.148,2.348-0.148,3.541c0,10.312,3.37,19.827,9.057,27.529l-7.406,10.138l-2.133,0.55  c0.113-1.169,0.177-2.353,0.177-3.552C3960.147,178.329,3954.468,167.64,3945.653,160.799z M3984.943,217.66l-22.893-0.001  l16.949-23.202c0,0.06-0.005,0.12-0.005,0.18c0,8.307,2.903,15.932,7.743,21.93C3986.146,216.941,3985.553,217.315,3984.943,217.66z   M3973.483,177.774c-4.194-6.331-6.637-13.922-6.637-22.087c0-1.653,0.112-3.279,0.306-4.879c5.142-2.01,9.244-6.094,11.28-11.226  c5.954,2.142,11.294,5.562,15.701,9.924L3973.483,177.774z M3995.336,187.915l11.292-2.914c-0.426,3.71-1.318,7.277-2.621,10.642  c-3.41-0.245-6.699-0.925-9.82-1.97C3994.284,191.659,3994.684,189.726,3995.336,187.915z M3995.055,200.604  c1.957,0.515,3.961,0.911,6.01,1.169c-0.928,1.59-1.961,3.112-3.078,4.565C3996.721,204.614,3995.714,202.69,3995.055,200.604z   M4013.948,214.448c-5.935,0-11.247-2.624-14.877-6.759c1.415-1.805,2.711-3.708,3.84-5.72c1.322,0.113,2.657,0.183,4.008,0.183  c9.979,0,19.219-3.148,26.789-8.503c0.016,0.33,0.05,0.655,0.05,0.989C4033.758,205.579,4024.888,214.448,4013.948,214.448z   M4041.309,172.914c-6.402-8.054-16.272-13.226-27.36-13.226c-3.331,0-6.55,0.476-9.602,1.346c-0.12-0.255-0.254-0.502-0.379-0.755  l26.021-35.62l1.411,0.001l15.509,28.537c0.051,0.824,0.085,1.653,0.085,2.49c0,5.964-1.313,11.617-3.651,16.703L4041.309,172.914z   M4047.643,185.355c-0.434-1.578-0.972-3.113-1.613-4.593c1.392-2.169,2.597-4.467,3.62-6.862l5.693-1.469L4047.643,185.355z" style="fill:#0A0A0A;stroke:#000000;stroke-miterlimit:10;"/>
	<path d="M2158.352,1322.647c-0.471-6.608-0.281-12.539,1.535-14.59c3.93-4.438,7.86-5.762,11.989-6.102  l-0.387-7.992c-0.253-5.227,3.305-9.872,8.417-10.989l24.153-5.277c4.555-0.995,8.923,2.307,9.209,6.96l0.648,10.549  c3.207-5.114,7.844-8.468,14.511-8.362c7.24,0.115,12.549,4.58,16.444,11.066c0.069-4.746,0.545-8.246,1.666-9.341  c4.93-4.82,27.164-4.312,31.907-1.727c1.101,0.6,2.131,3.577,3.066,7.785c9.839-2.2,23.174-4.15,34.99-5.008l-5.037-27.472  c-0.668-3.644,1.959-7.067,5.651-7.364l10.327-0.831c3.271-0.263,6.146,2.15,6.455,5.416l1.47,15.55  c0.917-1.022,2.205-1.717,3.685-1.846l14.246-1.241c3.116-0.272,5.852,2.055,6.086,5.174l1.192,15.923  c9.345-3.033,22.065-4.208,25.919-1.125c1.698,1.359,3.464,5.036,5.101,9.489c4.245-1.224,9.555-2.236,14.768-2.825  c-0.474-4.481-0.784-9.524-0.49-13.782c-9.24-4.344-24.156-7.167-40.993-7.167c-0.714,0-1.422,0.009-2.128,0.019  c2.431-2.094,3.793-4.413,3.793-6.855c0-6.546-9.717-12.216-23.896-14.997c2.448-2.155,3.915-4.821,3.915-7.721  c0-6.088-6.4-11.178-15-12.536c-0.306-12.659-13.037-22.846-28.708-22.846c-15.519,0-28.155,9.991-28.696,22.479  c-0.009,0-0.017,0-0.026,0c-6.394,0-12.139,1.921-16.102,4.973c-4.768-3.117-10.728-4.973-17.199-4.973  c-2.555,0-5.028,0.294-7.383,0.835c-3.215-5.749-9.353-9.64-16.408-9.64c-8.233,0-15.211,5.301-17.754,12.67  c-3.162-2.414-7.099-3.865-11.384-3.865c-7.221,0-13.483,4.078-16.63,10.051c-0.604-0.034-1.212-0.061-1.829-0.061  c-11.84,0-21.437,6.336-21.437,14.153c0,0.565,0.064,1.12,0.162,1.668c-0.054,0-0.108-0.003-0.162-0.003  c-12.184,0-22.062,7.455-22.062,16.65c0,8.142,7.745,14.914,17.976,16.361c-0.31,0.628-0.493,1.28-0.493,1.955  c0,3.92,3.32,9.672,10.135,11.288c-1.081,2.109-1.684,4.431-1.684,6.871c0,3.85,1.507,7.397,4.03,10.283l1.81-1.259  C2157.925,1322.875,2158.137,1322.753,2158.352,1322.647z" style="fill:#1B8FEF;"/>
	<path d="M2294.32,1322.655c0-2.009-1.628-3.637-3.637-3.637s-3.637,1.628-3.637,3.637  s1.628,3.637,3.637,3.637S2294.32,1324.664,2294.32,1322.655z" style="fill:#E22323;"/>
	<path d="M1452.938,2279.531c-0.474-2.758-2.521-5.093-5.17-5.998c-2.308-0.788-4.432-0.407-6.192,0.558  l-0.019-0.031l-55.836,19.927c-6.89,2.459-11.116,9.406-10.132,16.655l50.583,372.745l-14.127,25.416  c-1.739,3.129,2.07,6.388,4.893,4.186l7.532-5.879c3.58-2.794,5.744-7.026,5.913-11.564l0.506-13.605l-26.046-357.478  c-0.404-5.538,2.306-10.841,7.029-13.759l37.592-23.223c0.073-0.047,0.149-0.087,0.221-0.136l0.032-0.02l-0.002-0.004  C1452.076,2285.669,1453.491,2282.746,1452.938,2279.531z" style="fill:#161616;"/>
	<path d="M2260.605,1290.16c-0.467-0.079-0.943-0.129-1.433-0.129c-0.567,0-1.121,0.058-1.657,0.164v6.774  h-6.742c-0.101,0.525-0.158,1.065-0.158,1.619c0,0.503,0.052,0.992,0.135,1.471h6.764v6.923c0.537,0.105,1.09,0.164,1.657,0.164  c0.489,0,0.966-0.05,1.433-0.129v-6.957h6.99c0.083-0.479,0.135-0.968,0.135-1.471c0-0.554-0.057-1.095-0.158-1.619h-6.967V1290.16z  " style="fill:#2D88E2;"/>
	<path d="M1550.05,2345.808c-9.398,0-17.017,9.06-17.017,20.236s7.619,20.236,17.017,20.236  c9.398,0,17.017-9.06,17.017-20.236S1559.448,2345.808,1550.05,2345.808z" style="fill:#BF1682;"/>
	<path d="M1561.233,1370.498c-0.007,10.858,0.016,20.716,0.107,24.548c0.006,0.269,0.007,0.576,0.005,0.911  c1.48,3.097,2.735,5.459,3.584,6.585c2.765,3.67,5.989,12.664,8.106,19.204c0.751,2.32,0.244,4.801-1.146,6.804  c-1.313,1.89-2.079,4.188-2.065,6.668c0.035,6.131,5.034,11.309,11.16,11.548c6.631,0.258,12.087-5.041,12.087-11.615  c0-2.176-0.6-4.21-1.642-5.95c-1.112-1.857-1.674-3.991-1.417-6.141c1.091-9.124,2.982-25.883,3.059-32.982  c0.059-5.523,0.053-15.771,0.036-23.843c-8.845,2.816-18.321,4.343-28.177,4.343  C1563.689,1370.579,1562.459,1370.546,1561.233,1370.498z" style="fill:#161616;"/>
	<path d="M4305.122,917.799c-61.856,0-112,50.144-112,112  s50.144,112,112,112s112-50.144,112-112S4366.978,917.799,4305.122,917.799z M4371.45,999.865l7.938-8.597l23.605,39.566  l-20.422,36.696l-7.526-8.5l15.201-26.454L4371.45,999.865z M4374.209,982.587l-11.846,1.464l-16.354-28.461h-33.421l-3.657-10.971  l42.194-0.726L4374.209,982.587z M4303.366,944.715l-4.35,10.875h-41.483l-16.926,29.455l-11.075-2.808l20.37-36.602  L4303.366,944.715z M4224.619,991.065l6.943,9.721l-18.267,31.789l18.191,31.657l-7.464,9.43l-23.474-39.346L4224.619,991.065z   M4227.968,1080.278l11.416-2.302l18.149,31.585h38.327l3.82,10.883l-47.263,0.813L4227.968,1080.278z M4309.684,1120.273  l4.089-10.711h32.235l20.452-35.593l11.593,1.679l-24.414,43.869L4309.684,1120.273z M4321.581,958.275l-36.285,39.889l6.088-28.636  L4321.581,958.275z M4308.3,1002.017l4.494,10.497h-8.024L4308.3,1002.017z M4310.595,993.13l10.512,0.715l-4.354,20.134  L4310.595,993.13z M4336.859,986.769l-12.02-25.643l34.887,25.78L4336.859,986.769z M4333.945,1008.449l-14.633,10.052  l13.153-25.223L4333.945,1008.449z M4351.656,1025.071l-10.982-12.051l16.421-20.764L4351.656,1025.071z M4336.885,1025.952  l-22.187,1.232l23.859-14.578L4336.885,1025.952z M4305.122,1028.806l-35.126-11.708l7.804-13.169L4305.122,1028.806z   M4310.916,979.655l12.774-9.244l13.001,20.124L4310.916,979.655z M4294.456,1016.631l20.626-0.264l-4.308,9.633L4294.456,1016.631z   M4347.516,997.064l-10.469,13.686l1.247-17.468L4347.516,997.064z M4275.564,1000.987l-13.154,4.902l20.917-32.254  L4275.564,1000.987z M4325.435,1029.799l-25.282,12.338l10.621-10.462L4325.435,1029.799z M4299.629,1032.091l-8.173,7.98  l-5.891-12.093L4299.629,1032.091z M4349.908,1031.228l-11.395,1.338l2.832-13.132L4349.908,1031.228z M4263.646,1032.956  l20.078,4.087l-10.452,8.581l-17.007-14.17l3.414,0.695l-13.39-5.915l13.007,0.661l9.538-3.185l11.292,6.712l-10.362-1.025  L4263.646,1032.956z M4364.221,1038.757l-13.078,3.5l-17.331,10.129l-19.072-3.835l24.396-4.693l5.248-3.795l-28.879,6.298  l6.786-12.606l23.417,5.351l4.319-3.124L4364.221,1038.757z M4285.565,1089.047l5.528-26.395l1.853,14.37L4285.565,1089.047z   M4299.591,1056.883l0.661,13.929l-7.323,12.722L4299.591,1056.883z M4292.598,1058.066l7.797-12.443l-6.325,27.21  L4292.598,1058.066z M4284.647,1093.418l6.695-10.714l-5.054,23.633L4284.647,1093.418z M4302.093,1051.743l6-9.803l-5.796,20.711  L4302.093,1051.743z M4290.769,1004.062l19.252-19.678l-10.9,28.184L4290.769,1004.062z M4267.983,938.939v-6.711h70.766v6.711  H4267.983z M4370.033,1113.701l-5.812-3.356l35.383-61.285l5.812,3.356L4370.033,1113.701z M4204.7,1017.366l-5.812-3.356  l35.383-61.285l5.812,3.356L4204.7,1017.366z M4269.386,1130.667v-6.711h70.766v6.711H4269.386z M4364.221,951.508l5.812-3.356  l35.383,61.285l-5.812,3.356L4364.221,951.508z M4198.888,1050.44l5.812-3.356l35.383,61.285l-5.812,3.356L4198.888,1050.44z" style="fill:#B71515;stroke:#231F20;stroke-miterlimit:10;"/>
	<polygon points="3658.298,522.654 3658.298,544.254 3629.218,544.254   3629.218,712.284 3525.908,712.284 3525.908,741.464 3504.308,741.464 3504.308,712.284 3413.708,712.284 3413.708,544.254   3384.778,544.254 3384.778,522.654 3413.708,522.654 3413.708,352.284 3504.308,352.284 3504.308,323.744 3525.908,323.744   3525.908,352.284 3629.218,352.284 3629.218,522.654 " style="fill:#282828;stroke:#231F20;stroke-miterlimit:10;"/>
	<path d="M3141.989,1461.267h-136.726c-6.539,0-11.839,5.3-11.839,11.839v480.322  c0,6.539,5.3,11.839,11.839,11.839h136.727c6.539,0,11.839-5.301,11.839-11.839v-480.322  C3153.828,1466.567,3148.528,1461.267,3141.989,1461.267z M3119.697,1517.866h7.768v12.541h-7.768V1517.866z M3119.697,1549.777  h7.768v12.541h-7.768V1549.777z M3119.54,1565.478h7.768v12.541h-7.768V1565.478z M3127.435,1581.18v12.541h-7.768v-12.541H3127.435  z M3119.54,1614.591h7.768v12.541h-7.768V1614.591z M3119.54,1679.261h7.768v12.541h-7.768V1679.261z M3119.54,1695.471h7.768  v12.541h-7.768V1695.471z M3107.099,1871.742v-12.541h7.768v12.541H3107.099z M3114.866,1874.902v23.896h-7.768v-23.896H3114.866z   M3107.099,1823.357v-12.541h7.768v12.541H3107.099L3107.099,1823.357z M3107.099,1740.764v-12.541h7.768v12.541H3107.099  L3107.099,1740.764z M3114.866,1744.433v12.541h-7.768v-12.541L3114.866,1744.433L3114.866,1744.433z M3106.844,1630.292h7.768  v12.541h-7.768V1630.292z M3106.844,1663.56h7.768v12.541h-7.768V1663.56z M3106.844,1761.27h7.768v12.541h-7.768V1761.27z   M3106.844,1776.972h7.768v12.541h-7.768V1776.972z M3094.651,1533.567h7.768v12.541h-7.768V1533.567z M3094.621,1581.18h7.768  v12.541h-7.768V1581.18z M3094.494,1663.56h7.768v12.541h-7.768V1663.56z M3082.245,1855.268v-12.541h7.768v12.541H3082.245z   M3090.013,1859.201v12.541h-7.768v-12.541H3090.013L3090.013,1859.201z M3082.148,1549.777h7.768v12.541h-7.768V1549.777z   M3090.013,1744.433v12.541h-7.768v-12.541L3090.013,1744.433L3090.013,1744.433z M3081.991,1614.591h7.768v12.541h-7.768V1614.591z   M3081.991,1646.502h7.768v12.541h-7.768V1646.502z M3081.991,1695.471h7.768v12.541h-7.768V1695.471z M3081.991,1761.27h7.768  v12.541h-7.768V1761.27z M3081.991,1793.181h7.768v12.541h-7.768V1793.181z M3069.742,1740.764v-12.541h7.768v12.541H3069.742  L3069.742,1740.764z M3077.51,1744.433v12.541h-7.768v-12.541L3077.51,1744.433L3077.51,1744.433z M3069.742,1725.062v-12.541h7.768  v12.541H3069.742z M3069.615,1549.777h7.768v12.541h-7.768V1549.777z M3069.615,1565.478h7.768v12.541h-7.768V1565.478z   M3069.488,1614.591h7.768v12.541h-7.768V1614.591z M3069.488,1630.292h7.768v12.541h-7.768V1630.292z M3069.488,1679.261h7.768  v12.541h-7.768V1679.261z M3069.488,1776.972h7.768v12.541h-7.768V1776.972z M3077.51,1842.727v12.541h-7.768v-12.541H3077.51  L3077.51,1842.727z M3057.032,1823.357v-12.541h7.768v12.541H3057.032L3057.032,1823.357z M3064.799,1874.902v23.896h-7.768v-23.896  H3064.799z M3056.934,1517.866h7.768v12.541h-7.768V1517.866z M3064.799,1728.223v12.541h-7.768v-12.541H3064.799z   M3056.905,1581.18h7.768v12.541h-7.768V1581.18z M3056.777,1630.292h7.768v12.541h-7.768V1630.292z M3056.777,1646.502h7.768  v12.541h-7.768V1646.502z M3056.777,1776.972h7.768v12.541h-7.768V1776.972z M3044.337,1533.567h7.768v12.541h-7.768V1533.567z   M3044.337,1549.777h7.768v12.541h-7.768V1549.777z M3031.681,1565.478h7.768v12.541h-7.768V1565.478z M3039.576,1712.521v12.541  h-7.768v-12.541L3039.576,1712.521L3039.576,1712.521z M3031.554,1630.292h7.768v12.541h-7.768V1630.292z M3031.554,1663.56h7.768  v12.541h-7.768V1663.56z M3031.554,1679.261h7.768v12.541h-7.768V1679.261z M3031.554,1761.27h7.768v12.541h-7.768V1761.27z   M3039.576,1859.201v12.541h-7.768v-12.541H3039.576L3039.576,1859.201z M3019.084,1517.866h7.768v12.541h-7.768V1517.866z   M3019.054,1581.18h7.768v12.541h-7.768V1581.18z M3018.927,1614.591h7.768v12.541h-7.768V1614.591z M3018.927,1646.502h7.768  v12.541h-7.768V1646.502z M3018.927,1679.261h7.768v12.541h-7.768V1679.261z M3018.927,1793.181h7.768v12.541h-7.768V1793.181z   M3026.949,1898.798h-7.768v-23.896h7.768V1898.798z M3026.949,1823.357h-7.768v-12.541h7.768V1823.357z M3026.949,1740.764h-7.768  v-12.541h7.768V1740.764z M3042.961,1941.999h-13.188v-24.983h13.188V1941.999z M3043.926,1596.881h7.768v14.549h-7.768V1596.881z   M3051.948,1695.471v12.541h-7.768v-12.541H3051.948z M3044.18,1793.181h7.768v12.541h-7.768V1793.181z M3052.202,1855.268h-7.768  v-12.541h7.768V1855.268z M3052.202,1839.058h-7.768v-12.541h7.768V1839.058z M3052.202,1725.062h-7.768v-12.541h7.768V1725.062z   M3091.659,1941.999h-37.024v-24.983h37.024V1941.999z M3094.494,1776.972h7.768v12.541h-7.768V1776.972z M3102.516,1898.798h-7.768  v-23.896h7.768V1898.798z M3102.516,1839.058h-7.768v-12.541h7.768V1839.058z M3102.516,1756.974h-7.768v-12.541h7.768V1756.974z   M3102.516,1740.764h-7.768v-12.541h7.768V1740.764z M3102.516,1725.062h-7.768v-12.541h7.768V1725.062z M3116.376,1941.999h-13.188  v-24.983h13.188V1941.999z M3119.54,1761.27h7.768v12.541h-7.768V1761.27z M3127.562,1871.742h-7.768v-12.541h7.768V1871.742z   M3127.562,1855.268h-7.768v-12.541h7.768V1855.268z M3127.562,1823.357h-7.768v-12.541h7.768V1823.357z M3127.562,1740.764h-7.768  v-12.541h7.768V1740.764z" style="fill:#0A0A0A;"/>
	<path d="M3640.101,1757.319l7.874,21.037c9.222-10.368,17.528-21.517,24.824-33.32L3640.101,1757.319z" style="fill:#F7CB14;"/>
	<path d="M1561.339,1395.046c-0.091-3.832-0.114-13.69-0.107-24.548c0.011-18.269,0.107-39.37,0.107-39.37  c0-15.181-9.652-27.488-21.559-27.488s-21.559,12.307-21.559,27.488c0,0-0.07,11.99,0.109,26.877  c0.205,17.087,0.738,37.991,2.081,48.964c1.765,14.431,10.613,39.985,15.716,53.899c1.008,2.748,0.46,5.798-1.377,8.078  c-2.266,2.812-3.622,6.359-3.622,10.221c0,9.145,7.566,16.559,16.9,16.559c9.333,0,16.9-7.414,16.9-16.559  c0-5.115-2.371-9.681-6.093-12.715c-2.333-1.902-3.601-4.806-3.274-7.797c2.277-20.838,5.704-53.599,5.783-62.697  C1561.347,1395.621,1561.346,1395.315,1561.339,1395.046z" style="fill:#161616;"/>
	<path d="M643.987,1069.691c-49.7,0-90,40.29-90,90c0,49.7,40.3,90,90,90  c49.71,0,90-40.3,90-90C733.987,1109.981,693.698,1069.691,643.987,1069.691z M643.987,1231.691c-39.76,0-72-32.24-72-72  c0-39.77,32.24-72,72-72c39.77,0,72,32.23,72,72C715.987,1199.451,683.758,1231.691,643.987,1231.691z" style="fill:#0DCC5A;stroke:#231F20;stroke-miterlimit:10;"/>
	<path d="M2861.783,1292.877c0,0,3.411-14.416-10.233-12.284c-13.645,2.132-3.411,16.695-3.411,16.695  s-9.807,13.153-17.909,21.569c-5.572,5.788-21.832,11.954-31.444,15.24c-0.601,3.522-1.217,7.549-1.743,11.137  c5.362,1.601,9.288,5.891,9.686,11.037c5.572-6.379,13.372-15.906,19.664-25.878c11.086-17.57,27.716-23.79,27.716-23.79  s27.289,20.041,28.569-1.867C2883.955,1282.829,2861.783,1292.877,2861.783,1292.877z" style="fill:#F464BA;"/>
	<rect height="21.6" style="fill:#F79514;stroke:#231F20;stroke-miterlimit:10;" width="5.4" x="1049.617" y="2175.849"/>
	<polygon points="2988.553,542.554 2988.553,520.953 2959.473,520.953   2959.473,352.924 2856.163,352.924 2856.163,323.744 2834.563,323.744 2834.563,352.924 2743.963,352.924 2743.963,520.954   2715.033,520.954 2715.033,542.554 2743.963,542.554 2743.963,712.924 2834.563,712.924 2834.563,741.464 2856.163,741.464   2856.163,712.924 2959.473,712.924 2959.473,542.554 " style="fill:#282828;stroke:#231F20;stroke-miterlimit:10;"/>
	<path d="M2413.262,1319.956c-2.587-0.167-5.378-0.247-8.447-0.2c-1.096,0.017-2.158,0.06-3.202,0.118  c-35.213,1.959-40.94,26.705-40.94,26.705l34.552,1.483l47.085-11.574C2442.311,1336.488,2442.778,1321.862,2413.262,1319.956z" style="fill:#BF1682;"/>
	<path d="M3854.138,1922.808c-0.646-4.976-3.811-6.921-8.165-6.621c-4.126,0.291-9.306,2.598-14.393,6.22  c-2.1,1.501-4.094,3.145-5.968,4.921c-0.897,0.858-1.787,1.748-2.646,2.685c-5.858,6.299-10.44,14.172-11.361,22.045  c-0.787,6.834,1.181,13.731,7.432,19.746c0.307,0.291,0.598,0.59,0.929,0.882c6.244,5.566,12.125,2.283,17.101-4.157  c7.873-10.172,13.479-28.226,14.723-31.792c0.094-0.283,0.079-0.22,0,0c0.102-0.283,0.181-0.543,0.275-0.787  C3853.965,1930.209,3854.563,1925.911,3854.138,1922.808z" style="fill:#0DCC5A;"/>
	<path d="M989.033,1233.759l4.479,33.08c3.894-5.339,8.26-10.492,14.677-13.325l0.018-0.029l-32.534-122.789  c-2.127,0.957-4.364,1.837-6.703,2.633L989.033,1233.759z" style="fill:#0A0A0A;"/>
	<path d="M1146.908,503.79l-0.49-2.35c0,0,36.4-4.38,42.4-3.62c6.01,0.76,45.5,5.72,46.84,7.06  l0.48,2.35c-1.34-1.33-40.83-6.3-46.83-7.06C1183.298,499.41,1146.908,503.79,1146.908,503.79z" style="opacity:0.84;fill:#F2F2F1;"/>
	<path d="M1521.355,2286.019c-12.479,0-22.596,10.117-22.596,22.596c0,12.479,10.117,22.596,22.596,22.596  s22.596-10.116,22.596-22.596C1543.951,2296.135,1533.835,2286.019,1521.355,2286.019z" style="fill:#BF1682;"/>
	<rect height="21.6" style="fill:#F79514;stroke:#231F20;stroke-miterlimit:10;" transform="matrix(6.123234e-17 -1 1 6.123234e-17 -595.8236 2960.0669)" width="29.183" x="1167.53" y="1767.145"/>
	<path d="M1493.262,1709.239c-2.386-0.967-4.988-1.511-7.72-1.511c-3.057,0-5.947,0.684-8.555,1.88  c-7.088,3.249-12.021,10.389-12.021,18.696c0,3.108,0.709,6.043,1.943,8.685l5.828-0.261l17.348-0.776l14.792-0.662  c0.79-2.184,1.243-4.53,1.243-6.987C1506.118,1719.673,1500.798,1712.294,1493.262,1709.239z" style="fill:#F7CB14;"/>
	<path d="M2158.352,1322.647c-0.471-6.608-0.281-12.539,1.535-14.59c3.93-4.438,7.86-5.762,11.989-6.102  l-0.387-7.992c-0.253-5.227,3.305-9.872,8.417-10.989l24.153-5.277c4.555-0.995,8.923,2.307,9.209,6.96l0.648,10.549  c3.207-5.114,7.844-8.468,14.511-8.362c7.24,0.115,12.549,4.58,16.444,11.066c0.069-4.746,0.545-8.246,1.666-9.341  c4.93-4.82,27.164-4.312,31.907-1.727c1.101,0.6,2.131,3.577,3.066,7.785c9.839-2.2,23.174-4.15,34.99-5.008l-5.037-27.472  c-0.668-3.644,1.959-7.067,5.651-7.364l10.327-0.831c3.271-0.263,6.146,2.15,6.455,5.416l1.47,15.55  c0.917-1.022,2.205-1.717,3.685-1.846l14.246-1.241c3.116-0.272,5.852,2.055,6.086,5.174l1.192,15.923  c9.345-3.033,22.065-4.208,25.919-1.125c1.698,1.359,3.464,5.036,5.101,9.489c4.245-1.224,9.555-2.236,14.768-2.825  c-0.474-4.481-0.784-9.524-0.49-13.782c-9.24-4.344-24.156-7.167-40.993-7.167c-0.714,0-1.422,0.009-2.128,0.019  c2.431-2.094,3.793-4.413,3.793-6.855c0-6.546-9.717-12.216-23.896-14.997c2.448-2.155,3.915-4.821,3.915-7.721  c0-6.088-6.4-11.178-15-12.536c-0.306-12.659-13.037-22.846-28.708-22.846c-15.519,0-28.155,9.991-28.696,22.479  c-0.009,0-0.017,0-0.026,0c-6.394,0-12.139,1.921-16.102,4.973c-4.768-3.117-10.728-4.973-17.199-4.973  c-2.555,0-5.028,0.294-7.383,0.835c-3.215-5.749-9.353-9.64-16.408-9.64c-8.233,0-15.211,5.301-17.754,12.67  c-3.162-2.414-7.099-3.865-11.384-3.865c-7.221,0-13.483,4.078-16.63,10.051c-0.604-0.034-1.212-0.061-1.829-0.061  c-11.84,0-21.437,6.336-21.437,14.153c0,0.565,0.064,1.12,0.162,1.668c-0.054,0-0.108-0.003-0.162-0.003  c-12.184,0-22.062,7.455-22.062,16.65c0,8.142,7.745,14.914,17.976,16.361c-0.31,0.628-0.493,1.28-0.493,1.955  c0,3.92,3.32,9.672,10.135,11.288c-1.081,2.109-1.684,4.431-1.684,6.871c0,3.85,1.507,7.397,4.03,10.283l1.81-1.259  C2157.925,1322.875,2158.137,1322.753,2158.352,1322.647z" style="fill:#1B8FEF;"/>
	<path d="M1561.339,1395.046c-0.091-3.832-0.114-13.69-0.107-24.548c0.011-18.269,0.107-39.37,0.107-39.37  c0-15.181-9.652-27.488-21.559-27.488s-21.559,12.307-21.559,27.488c0,0-0.07,11.99,0.109,26.877  c0.205,17.087,0.738,37.991,2.081,48.964c1.765,14.431,10.613,39.985,15.716,53.899c1.008,2.748,0.46,5.798-1.377,8.078  c-2.266,2.812-3.622,6.359-3.622,10.221c0,9.145,7.566,16.559,16.9,16.559c9.333,0,16.9-7.414,16.9-16.559  c0-5.115-2.371-9.681-6.093-12.715c-2.333-1.902-3.601-4.806-3.274-7.797c2.277-20.838,5.704-53.599,5.783-62.697  C1561.347,1395.621,1561.346,1395.315,1561.339,1395.046z" style="fill:#161616;"/>
	<path d="M4277.805,1625.573c-79.529,0-144,64.471-144,144s64.471,144,144,144  c71.625,0,131.01-52.301,142.112-120.791c0.935-7.446,1.586-15.201,1.885-23.328  C4421.737,1689.981,4357.294,1625.573,4277.805,1625.573z M4282.653,1880.764c-71.965,0-107.418-50.169-110.244-103.557  c-3.478-65.702,43.731-102.41,92.215-103.016c48.148-0.602,84.1,29.583,87.267,81.85c2.407,39.722-27.783,76.426-70.071,77.696  c-36.371,1.092-65.791-25.904-65.791-62.291c0-30.148,24.22-58.188,54.368-58.188c24.844,0,47.222,17.694,47.222,42.538  c0,15.969-12.058,35.631-26.287,40.75c-16.309,5.867-34.901-2.634-40.797-18.933c-6.125-16.931,6.331-32.862,22.437-32.862  c5.184,0,9.899,2.127,12.939,5.836c1.855,2.264,3.843,6.075,2.781,11.366c-0.057,0.283-0.289,0.839-0.671,1.424  c-0.997,1.489-3.23,0.81-3.533-0.45l0,0c-1.099-3.999-4.723-6.954-9.071-6.954c-4.648,0-8.491,3.364-9.278,7.786l-0.019-0.004  c-1.463,8.183,1.945,13.211,4.107,15.48c4.697,4.929,11.613,6.008,16.522,5.374c12.626-1.635,18.915-11.224,20.464-18.939  c1.935-9.644-0.504-19.505-6.689-27.056c-6.642-8.106-16.684-12.755-27.552-12.755c-23.664,0-42.916,19.252-42.916,42.916  c0,26.921,21.902,48.823,48.823,48.823c30.754,0,55.603-25.02,55.773-55.772c0.227-41.007-29.06-69.188-64.315-69.792  c-50.169-0.859-81.962,31.793-82.392,79.842c-0.418,46.802,33.978,90.345,93.243,92.057c46.792,1.351,85.58-31.162,100.508-81.263  c0.627-2.106,3.775-1.438,3.45,0.735C4376.077,1843.963,4335.644,1880.764,4282.653,1880.764z" style="fill:#E5B51A;"/>
	<path d="M3575.847,1795.512c3.312,1.057,13.743,8.375,17.077,4.96c12.891-4.918,25.255-11.885,36.139-20.297  l0,0c2.446-1.906,4.863-3.856,7.117-5.937c1.076-9.808,1.523-19.675,1.339-29.541c-11.967-3.121-30.327,2.832-37.359-6.692  c-15.895-3.959-35.685,1.619-35.769,1.574c-6.3-4.754,6.167-16.512-7.243-17.062  C3515.516,1762.768,3564.461,1777.13,3575.847,1795.512z" style="fill:#1B8FEF;"/>
	<path d="M3665.107,1721.093c-0.402-0.971-0.901-1.9-1.488-2.771c-0.079-0.48-0.181-0.921-0.268-1.378  c-0.286-1.502-0.673-2.983-1.157-4.433c-0.454-1.353-1.012-2.67-1.669-3.937c-0.385-0.736-0.808-1.45-1.268-2.142  c-0.78-1.175-1.674-2.269-2.669-3.267c-0.055-0.055-0.11-0.118-0.173-0.173c-9.928-9.716-28.226-8.117-48.626-2.685  c-3.013,0.803-6.07,1.68-9.173,2.63c1.664,1.241,2.908,2.961,3.567,4.929c1.685,3.397,3.584,6.684,5.685,9.842l0.197-0.197  c0.724-0.787,3.701-1.213,3.937-1.213c0.055,0,4.031,2.945-1.394,4.724l-0.394,0.126c8.976,12.637,22.715,25.36,26.399-6.566  c0,0,0-0.055,0-0.087s0-0.039,0.063-0.055c9.385-7.283,18.77,3.008,24.014,6.582c0.638,0.433,1.244,0.882,1.819,1.339  C3664.713,1724.085,3665.973,1722.826,3665.107,1721.093z M3629.197,1718.731c-0.086,8.59-4.771,3.598-8.661-2.149  c-0.535-0.787-1.055-1.575-1.575-2.362l-0.331-0.535c-1.161-1.836-2.213-3.74-3.149-5.7c1.398-0.178,2.814-0.178,4.212,0  c4.929,0.701,8.07,3.984,9.448,9.889c0-1.055-0.04-1.693-0.047-2.047c-0.019,0.683-0.003,1.366,0.047,2.047  c0.042,0.278,0.06,0.554,0.055,0.827V1718.731z" style="fill:#D6293A;"/>
	<path d="M1623.582,2329.671c0.338-2.067,0.515-4.207,0.515-6.399c0-13.548-6.779-25.081-16.304-29.633  c0.167,4.29,0.256,6.668,0.256,6.668c0,19.769-4.132,38.359-11.392,54.563c0.709,0.075,1.421,0.136,2.144,0.136  c5.72,0,10.98-2.411,15.217-6.427C1618.835,2344.013,1622.327,2337.364,1623.582,2329.671z" style="fill:#BF1682;"/>
	<path d="M2205.735,1346.247c-3.216-0.43-6.581-0.548-10.049-0.263c-0.313,0.026-0.624,0.04-0.939,0.073  c-24.731,2.555-30.914,19.798-30.914,19.798l75.224-3.603C2239.057,1362.252,2225.034,1348.828,2205.735,1346.247z" style="fill:#0DCC5A;"/>
	<path d="M3794.867,1602.056c-2.461-0.305-4.948-0.345-7.417-0.118c-5.259,1.307-34.052,12.204-39.8,14.896  c-4.555,2.135-8.981,4.533-13.259,7.18c-27.486,16.999-44.209,41.563-18.66,47.342c0.827,0.181,1.701,0.354,2.614,0.496l0.748,0.126  h0.275c0.622-1.181,1.276-2.362,2-3.464l0.126-0.173c0.331-0.496,0.669-0.976,1.008-1.457c4.058-5.527,9.136-10.228,14.959-13.849  c0.14-0.163,0.327-0.279,0.535-0.331c0.787-0.496,1.614-0.984,2.441-1.464l1.535-0.85l0.953-0.504l0.071-0.039l1.252-0.646  c1.653-0.835,3.362-1.622,5.11-2.362c2.173-0.929,4.433-1.771,6.732-2.575l1.071-0.37c0.504-0.173,1-0.362,1.52-0.528l2.094-0.646  c1.039-0.315,2.086-0.614,3.149-0.905l1.26-0.346c1.126-0.291,2.26-0.575,3.409-0.842c1.15-0.268,2.307-0.528,3.48-0.787  c0.535-0.11,1.063-0.252,1.575-0.323C3812.464,1634.526,3797.041,1609.93,3794.867,1602.056z" style="fill:#F7CB14;"/>
	<rect height="18" style="fill:#0DCC5A;stroke:#231F20;stroke-miterlimit:10;" width="288" x="499.987" y="205.483"/>
	<path d="M3622.3,1414.293c-1.795-3.212-73.679,1.575-60.255,8.55c2.541,1.26,5.172,2.325,7.873,3.189  c5.346-0.205,1.417-0.055,0,0c3.425-0.134,11.739,0.504,20.809,0.693c13.141,0.268,27.879-0.417,31.635-5.771  C3621.221,1422.662,3621.134,1412.159,3622.3,1414.293z" style="fill:#D6293A;"/>
	<path d="M2243.439,1327.989c0,2.909-2.358,5.267-5.267,5.267c-2.909,0-5.267-2.358-5.267-5.267  c0-2.909,2.358-5.267,5.267-5.267C2241.081,1322.722,2243.439,1325.08,2243.439,1327.989z" style="fill:#2D88E2;"/>
	<path d="M2422.133,1313.055l-6.11,0.617c-1.094,0.11-2.08-0.695-2.191-1.789l-0.617-6.11  c-0.11-1.094,0.695-2.08,1.789-2.191l6.11-0.617c1.094-0.11,2.08,0.695,2.191,1.789l0.617,6.11  C2424.032,1311.959,2423.227,1312.945,2422.133,1313.055z" style="fill:#ED6D15;"/>
	<path d="M2333.954,1279.271l1.102,10.175c4.726,0.443,7.943,1.419,8.644,3.102  c1.854,4.449,3.8,12.372,5.286,19.203c0.117-0.002,0.232,0.007,0.349,0.009c-0.645-5.68-0.524-11.299,1.807-13.849  c1.728-1.891,5.24-3.623,9.43-4.983l-1.192-15.923c-0.233-3.119-2.97-5.445-6.086-5.174l-14.246,1.241  c-1.479,0.129-2.767,0.824-3.685,1.846C2334.337,1276.063,2333.775,1277.619,2333.954,1279.271z" style="fill:#E5B51A;"/>
	<path d="M367.736,1696.068h-4.63l-0.11-4.53c0,0,0,1.76-2.78,3.7c-1.07,0.73-2.52,1.1-4.11,1.15v-4.75  c3.98-0.61,4.87-4.29,4.87-7.07c0-2.62-1.66-5.04-4.87-5.61v-4.82c3.63,0.49,6.89,2.71,6.89,2.71l0.05-2.34l4.11,0.05  L367.736,1696.068z" style="fill:#0A0A0A;"/>
	<path d="M1246.168,507.12l0.77-1.66c0,0,25.79,6.16,30.41,12.8s15.02,31.76,16.17,35.08  c1.16,3.32,1.16,8.53,1.16,8.53l-0.77,1.66c0,0,0-5.21-1.16-8.53c-1.15-3.32-11.55-28.45-16.17-35.08  C1271.958,513.28,1246.168,507.12,1246.168,507.12z" style="opacity:0.84;fill:#F2F2F1;"/>
	<path d="M2678.442,1301.619c1.93-1.706,3.124-4.054,3.124-6.647c0-5.212-4.817-9.437-10.758-9.437  c-5.942,0-10.758,4.225-10.758,9.437c0,4.798,4.084,8.75,9.367,9.349c0.258,1.827,0.35,4.406-0.528,6.84  c-1.59,4.409-7.364,9.012-7.364,9.012l18.388,2.482l-2.278-19.148C2677.637,1303.507,2678.004,1302.772,2678.442,1301.619z" style="fill:#F464BA;"/>
	<path d="M3657.297,1697.977c0.37-0.071,0.732-0.157,1.102-0.244c4.102-1.834,8.771-3.85,13.573-5.653  c-0.787-5.582-2.527-9.897-4.984-13.219c-9.582-12.952-30.068-10.763-48.264-9.724l-0.079,0.055l-1.134,0.882l-0.087,0.071  l-1.323,1.016l0,0l-0.512,0.394l-0.929,0.701l-0.126,0.094l-1.535,1.142c-0.048,0.03-0.093,0.064-0.134,0.102  c-6.826,5.031-21.085,9.448-25.352,15.566c0,8.81,13.967,4.338,21.479,6.141C3629.252,1689.915,3647.431,1688.325,3657.297,1697.977  z" style="fill:#F7CB14;"/>
	<rect height="21.6" style="fill:#F79514;stroke:#231F20;stroke-miterlimit:10;" transform="matrix(6.123234e-17 -1 1 6.123234e-17 -1425.599 3250.925)" width="5.4" x="909.963" y="2327.462"/>
	<rect height="21.6" style="fill:#F79514;stroke:#231F20;stroke-miterlimit:10;" transform="matrix(6.123234e-17 -1 1 6.123234e-17 -1926.1897 2888.9087)" width="29.183" x="466.768" y="2396.749"/>
	<path d="M3945.414,1584.357c-0.15-0.197-0.992,1.079-0.984,1.834c0,0.976,0,1.96,0,2.96  c0,0.339,0,0.677,0,1.016c0,1.15,0,2.323,0,3.511l0,0c0,1.22,0,2.464,0,3.724c0,2.535,0.018,5.144,0.055,7.826  c2.135,1.536,4.186,3.186,6.141,4.944l0.527,0.488c0.15,0.134,0.292,0.26,0.433,0.402c3.656,3.337,6.865,7.132,9.55,11.29  C3972.529,1622.716,3954.948,1587.522,3945.414,1584.357z" style="fill:#0DCC5A;"/>
	<path d="M2186.305,1305.571c1.981,2.201,5.122,4.937,7.06,9.488c4.72-1.877,10.437-2.313,15.369-1.897  c-0.199-0.017-0.392-0.04-0.593-0.054c0.969-6.596,2.727-13.044,5.774-17.903l-0.648-10.549c-0.286-4.653-4.654-7.955-9.209-6.96  l-24.153,5.277c-5.112,1.117-8.671,5.763-8.417,10.989l0.387,7.992c0.953-0.079,1.918-0.105,2.895-0.105  C2179.98,1301.85,2182.956,1301.85,2186.305,1305.571z" style="fill:#ED6D15;"/>
	<path d="M2808.083,1276.7c-9.516,0-17.231,7.714-17.231,17.231c0,7.358,4.62,13.621,11.11,16.092  c-0.755,2.957-2.53,7.839-6.697,13.462c-6.822,9.206-25.584,13.426-25.584,13.426s5.97,2.526,13.218,6.166  c1.363,0.684,2.664,1.541,3.877,2.48c1.729-0.645,3.63-1.003,5.628-1.003c1.625,0,3.18,0.247,4.637,0.682  c0.526-3.588,1.142-7.616,1.743-11.137c0.408-2.392,0.809-4.551,1.17-6.174c1.325-5.961,5.734-13.648,7.638-16.786  c0.164,0.005,0.324,0.025,0.489,0.025c9.516,0,17.231-7.715,17.231-17.231S2817.599,1276.7,2808.083,1276.7z" style="fill:#BF1682;"/>
	<path d="M1520.422,1701.508c-3.087-2.539-6.667-4.018-10.5-4.018c-1.303,0-2.573,0.19-3.81,0.512  c-5.236,1.362-9.774,5.48-12.85,11.237c7.536,3.055,12.856,10.434,12.856,19.065c0,2.457-0.453,4.803-1.243,6.987l25.219-1.128  c0.429-2.338,0.697-4.769,0.697-7.296C1530.791,1716.039,1526.617,1706.603,1520.422,1701.508z" style="fill:#E5B51A;"/>
	<path d="M2784.179,1403.787c0,0,6.822,0,11.461,4.746c5.685,5.817,8.58,16.181,8.58,16.181  s-6.396,4.69-3.838,11.513c2.559,6.822,12.792,5.969,17.056,4.264s5.969-5.543,4.16-11.513s-9.703-4.264-9.703-4.264  s-5.237-11.086-8.648-15.777c-2.387-3.283-2.835-12.103-2.89-17.105c-1.936,0.458-3.694,0.957-5.237,1.457L2784.179,1403.787z" style="fill:#F464BA;"/>
	<rect height="504" style="fill:#D6293A;" width="144" x="2272.691" y="2120.692"/>
	<path d="M3785.427,1367.502c-0.315-5.677-10.408-2.401-15.385-3.795c-1.01-0.278-2.055-0.403-3.102-0.37  c0.197,0.173-0.079,0.236-0.685,0.205c-3.653-0.181-19.683-3.637-22.226-4.244l-0.283-0.063l0,0h-0.047h-0.063l-0.646,0.205  l-0.15,0.055l-0.575,0.181c0.007,2.103,0.388,4.188,1.126,6.157c0.032,0.053,0.061,0.109,0.086,0.165  c3.567,3.299,6.031,8.109,4.96,9.22c0.237,0.457,0.266,0.993,0.079,1.472c-0.607,1.695-1.441,3.3-2.48,4.771l-6.921,20.132  c1.008,5.511,15.613,3.063,21.353,2.559c1.575-0.142,1.638-6.495,1.85-8.314c0.039-0.409-1.402-3.645-3.149-7.212l-0.48-1  c-1.11-2.275,1.701-9.621,4.11-10.968c-0.748-0.701,4.889,0.433,6.559,1.575c0.728,0.498,1.494,0.938,2.291,1.315h0.071l0.354,0.142  c0,0,5.118,3.433,5.157,3.441c1.113,0.175,2.236,0.278,3.362,0.307c0.709-1.299,1.142-2.362,0.787-2.96  c-0.787-1.283-8.551-5.511-6.425-7.944C3788.081,1368.769,3785.427,1367.502,3785.427,1367.502z" style="fill:#F7CB14;"/>
	<path d="M2421.318,1333.16c0,0,10.496-18.866,26.823-19.343c16.327-0.476,19.826,16.487,19.826,16.487  L2421.318,1333.16z" style="fill:#BF1682;"/>
	<polygon points="3658.298,522.654 3658.298,544.254 3629.218,544.254   3629.218,712.284 3525.908,712.284 3525.908,741.464 3504.308,741.464 3504.308,712.284 3413.708,712.284 3413.708,544.254   3384.778,544.254 3384.778,522.654 3413.708,522.654 3413.708,352.284 3504.308,352.284 3504.308,323.744 3525.908,323.744   3525.908,352.284 3629.218,352.284 3629.218,522.654 " style="fill:#282828;stroke:#231F20;stroke-miterlimit:10;"/>
	<path d="M2655.361,1386.979c-10.473,0.388-18.856,6.928-25.576,17.031  c4.557,6.024,12.432,10.008,21.39,10.008c11.121,0,20.575-6.137,24.078-14.699  C2670.055,1391.852,2663.503,1386.678,2655.361,1386.979z" style="fill:#1B8FEF;"/>
	<path d="M1439.919,1736.529c-4.191-4.14-6.783-9.844-6.783-16.144c0-5.492,1.975-10.524,5.259-14.464  c-3.131-2.177-6.929-3.461-11.031-3.461c-4.718,0-9.039,1.692-12.397,4.497c-4.252,3.551-6.961,8.888-6.961,14.861  c0,7.6,4.39,14.158,10.763,17.326l18.697-0.836C1438.328,1737.775,1439.152,1737.186,1439.919,1736.529z" style="fill:#0A0A0A;"/>
	<path d="M3882.12,1611.678c-12.952-19.625-22.962-61.197-44.681-78.001l0,0  c-1.036-1.082-2.27-1.743-3.724-2.063c-1.556,1.27-3.298,2.292-5.165,3.031c-0.528,1.084-0.929,2.225-1.197,3.401  c0.323,0.047,0.622,0.102,0.913,0.157l0.236,0.047c0.585,0.109,1.159,0.27,1.724,0.457c0.42,0.148,0.823,0.338,1.205,0.567h0.047  c0.12,0.07,0.235,0.146,0.346,0.228l0,0c0.186,0.144,0.365,0.303,0.52,0.48l0,0c0.078,0.087,0.149,0.179,0.213,0.276l0,0  c0.029,0.032,0.055,0.066,0.079,0.102l0,0c0.079,0.115,0.147,0.236,0.205,0.362l0,0c0.008,0.139,0.1,0.263,0.126,0.402l0,0  c0.01,0.045,0.024,0.09,0.039,0.134l0,0c0,0.118,0.055,0.244,0.079,0.362l0,0c-1.578,9.05-3.539,18.797,5.97,26.045  c23.073,20.261,39.816,39.028,34.232,65.53c-0.087-0.331,2.779-0.071,0.787,0c1.236,0,1.96,4.236,1.307,6.897l0,0  c1.081,0.529,1.963,1.39,2.52,2.457C3880.242,1632.771,3885.58,1622.954,3882.12,1611.678z" style="fill:#1B8FEF;"/>
	<path d="M392.856,1688.468l-0.2,4.82c0,0-1.91,1.4-5.03,2.67c-2.72,1.12-8.56,0.9-10.89-0.45  c-3.65-2.1-5.23-4.54-5.58-8.33c-0.58-6.25,2.08-10.15,6.89-12.29c1.13-0.5,2.66-0.77,4.31-0.78v3.81  c-3.07,0.21-5.47,2.14-5.47,4.49h5.47v3.12l-5.7-0.05c-0.03,1.55,0.28,4.42,2.05,5.52c3.04,1.9,6.24,1.06,7.65,0.68  C388.396,1691.128,392.856,1688.468,392.856,1688.468z" style="fill:#0A0A0A;"/>
	<path d="M2258.179,1349.452l9.195-5.338v-3.69v0l2.392-0.549l0.142-0.033l0,0  c-1.244-3.456-5.202-15.918,0.342-21.092c2.724-2.542,7.976-5.464,13.913-7.612c-0.036-0.285-0.075-0.585-0.117-0.898  c-0.531-4.164-1.129-8.285-1.788-11.886c-0.242-1.322-0.493-2.569-0.75-3.728c-0.934-4.208-1.965-7.185-3.066-7.785  c-4.743-2.585-26.977-3.092-31.907,1.727c-1.121,1.096-1.597,4.595-1.666,9.341c5.972,9.946,8.618,24.647,9.789,35.717  c0.39,3.69,0.617,6.977,0.749,9.549l1.487-0.342l0,0l-1.305,3.818L2258.179,1349.452z" style="fill:#ED6D15;"/>
	<path d="M2737.276,1289.16c-6.361-19.183-2.385-51.588-2.385-51.588s28.626,2.386,13.518-15.904  s-20.675,0-20.675,0s-3.181-25.151-22.265-15.904c-19.084,9.248,1.59,22.265,1.59,22.265s-8.747-1.59-6.362,8.747  c2.386,10.337,16.699,5.902,16.699,5.902s10.337-6.697,10.337,34.84s-10.337,47.477-10.337,47.477l35.414,8.165  c0,0-0.217-0.587-0.604-1.642c-0.794-2.163-2.311-6.31-4.181-11.505C2744.853,1311.199,2740.665,1299.38,2737.276,1289.16z" style="fill:#0DCC5A;"/>
	<path d="M3958.263,1627.621c-0.103-1.622-0.22-3.22-0.37-4.771c-1.969-2.332-13.015-13.058-16.841-14.896  c-3.177,5.155-5.338,10.657-7.102,16.487c1.361,3.671,3.882,9.275,3.882,9.275c-0.551,10.954,2.037,20.017,7.763,27.187  c-0.22,1.331-0.428,2.669-0.646,4.016l0,0c-3.992,24.762-18.676,80.78-22.313,82.213c-6.79,22.33-21.591,70.438-23.211,102.739  c1.362,1.15,2.953-0.512,4.669-3.937c8.372-20.432,24.47-79.269,24.47-79.269  C3932.308,1732.248,3954.874,1666.228,3958.263,1627.621z" style="fill:#1B8FEF;"/>
	<path d="M2186.305,1305.571c1.981,2.201,5.122,4.937,7.06,9.488c4.72-1.877,10.437-2.313,15.369-1.897  c-0.199-0.017-0.392-0.04-0.593-0.054c0.969-6.596,2.727-13.044,5.774-17.903l-0.648-10.549c-0.286-4.653-4.654-7.955-9.209-6.96  l-24.153,5.277c-5.112,1.117-8.671,5.763-8.417,10.989l0.387,7.992c0.953-0.079,1.918-0.105,2.895-0.105  C2179.98,1301.85,2182.956,1301.85,2186.305,1305.571z" style="fill:#ED6D15;"/>
	<path d="M2321.979,1414.889c-5.201-11.823-13.13-20.8-25.217-19.667  c-13.919,1.305-23.122,17.163-29.183,38.874c3.043,0.353,6.194,0.54,9.423,0.54c15.594,0,29.378-4.334,37.781-10.971  C2318.088,1421.055,2320.557,1418.089,2321.979,1414.889z" style="fill:#F7CB14;"/>
	<path d="M2260.605,1290.16c-0.467-0.079-0.943-0.129-1.433-0.129c-0.567,0-1.121,0.058-1.657,0.164v6.774  h-6.742c-0.101,0.525-0.158,1.065-0.158,1.619c0,0.503,0.052,0.992,0.135,1.471h6.764v6.923c0.537,0.105,1.09,0.164,1.657,0.164  c0.489,0,0.966-0.05,1.433-0.129v-6.957h6.99c0.083-0.479,0.135-0.968,0.135-1.471c0-0.554-0.057-1.095-0.158-1.619h-6.967V1290.16z  " style="fill:#2D88E2;"/>
	<path d="M1232.258,596.77c4.32-8.17,3.88-28.91,5.01-41.86c1.14-12.96,2.06-64.63,2.06-64.63  l2.13,1.01c0,0-0.92,51.68-2.06,64.63c-1.13,12.95-0.7,33.69-5.01,41.87c-4.32,8.17-12.89,18.67-18.4,19.99  c-5.52,1.32-7.5,3.39-14.24,3.26c-6.74-0.14-10.84,0.4-10.84,0.4l-2.12-1.02c0,0,4.09-0.54,10.83-0.4s8.72-1.94,14.24-3.25  C1219.378,615.45,1227.948,604.95,1232.258,596.77z" style="opacity:0.84;fill:#F2F2F1;"/>
	<path d="M392.856,1688.468l-0.2,4.82c0,0-1.91,1.4-5.03,2.67c-2.72,1.12-8.56,0.9-10.89-0.45  c-3.65-2.1-5.23-4.54-5.58-8.33c-0.58-6.25,2.08-10.15,6.89-12.29c1.13-0.5,2.66-0.77,4.31-0.78v3.81  c-3.07,0.21-5.47,2.14-5.47,4.49h5.47v3.12l-5.7-0.05c-0.03,1.55,0.28,4.42,2.05,5.52c3.04,1.9,6.24,1.06,7.65,0.68  C388.396,1691.128,392.856,1688.468,392.856,1688.468z" style="fill:#0A0A0A;"/>
	<rect height="21.6" style="fill:#F79514;stroke:#231F20;stroke-miterlimit:10;" width="5.4" x="631.369" y="2276.948"/>
	<polygon points="3658.298,522.654 3658.298,544.254 3629.218,544.254   3629.218,712.284 3525.908,712.284 3525.908,741.464 3504.308,741.464 3504.308,712.284 3413.708,712.284 3413.708,544.254   3384.778,544.254 3384.778,522.654 3413.708,522.654 3413.708,352.284 3504.308,352.284 3504.308,323.744 3525.908,323.744   3525.908,352.284 3629.218,352.284 3629.218,522.654 " style="fill:#282828;stroke:#231F20;stroke-miterlimit:10;"/>
	<rect height="21.6" style="fill:#F79514;stroke:#231F20;stroke-miterlimit:10;" transform="matrix(6.123234e-17 -1 1 6.123234e-17 -1199.9944 3559.5762)" width="29.183" x="1165.199" y="2368.985"/>
	<path d="M2262.489,1320.46h-6.634c-1.1,0-2-0.9-2-2v-5.146c0-1.1,0.9-2,2-2h6.634c1.1,0,2,0.9,2,2v5.146  C2264.489,1319.56,2263.589,1320.46,2262.489,1320.46z" style="fill:#E22323;"/>
	<path d="M930.451,1131.696c3.324,2.674,6.937,4.536,10.526,5.477c2.411,0.632,4.81,0.858,7.099,0.621  c3.677-0.38,7.211-0.943,10.598-1.657c3.615-0.762,7.053-1.704,10.296-2.808c2.339-0.796,4.575-1.676,6.703-2.633  c16.245-7.309,26.09-19.088,25.996-32.13c-0.243-33.785-18.233-45.821-39.329-45.596c-11.811,0.126-42.442,16.865-45.758,38.413  c-1.847,12.004,0.595,22.296,5.182,30.13C924.171,1125.624,927.167,1129.055,930.451,1131.696z" style="fill:#ED6D15;"/>
	<path d="M935.132,1646.22h-22.651h-7.244h-13.689c-3.679,0-6.078,3.864-4.445,7.161l20.61,52.318  c3.148,6.358,12.358,5.922,14.89-0.705l16.289-53.314C939.896,1649.045,937.951,1646.22,935.132,1646.22z" style="fill:#0DCC5A;"/>
	<path d="M2237.145,1365.855c0,0,2.589-14.801,24.856-16.297c22.266-1.496,25.773,13.39,25.773,13.39  L2237.145,1365.855z" style="fill:#BF1682;"/>
	<path d="M4191.353,2235.871c-0.228-7.471,2.6-37.095-35.442-42.706c-1.76-0.26-3.296,1.209-3.099,2.977l0,0  c16.2,59.52-22.36,86.52-57.096,88.608c-27.614,1.66-57.939-24.536-57.647-59.227c0.299-35.615,15.511-61.027,50.464-60.39  c24.563,0.448,44.967,21.336,44.809,51.732c-0.119,22.794-17.431,41.34-38.857,41.34c-18.756,0-34.015-16.234-34.015-36.189  c0-17.54,13.413-31.811,29.9-31.811c7.572,0,14.568,3.446,19.195,9.454c4.31,5.597,6.009,12.906,4.661,20.055  c-1.08,5.718-5.461,12.826-14.258,14.038c-3.42,0.47-8.238-0.33-11.511-3.983c-1.506-1.682-3.881-5.409-2.861-11.474l0.014,0.003  c0.548-3.278,3.226-5.772,6.464-5.772c3.029,0,5.554,2.19,6.32,5.154c0.211,0.934,1.767,1.437,2.461,0.333  c0.266-0.433,0.428-0.845,0.467-1.055c0.74-3.922-0.645-6.746-1.938-8.425c-2.117-2.749-5.403-4.326-9.014-4.326  c-11.221,0-19.899,11.808-15.632,24.358c4.108,12.081,17.061,18.382,28.423,14.033c9.913-3.794,18.314-18.369,18.314-30.205  c0-18.415-15.59-31.53-32.9-31.53c-21.004,0-37.878,20.784-37.878,43.13c0,26.971,20.497,46.981,45.837,46.172  c29.462-0.942,50.496-28.147,48.819-57.59c-2.207-38.742-44.095-96.192-77.677-94.879c-16.115,0.63-20.924,8.057-28.836,15.16  c-0.198,0.178-0.471,0.259-0.735,0.223c-64.963-9.018-69.675,31.591-75.924,93.376c-2.21,33.861-10.537,42.957-24.323,37.648  c-14.692-5.658-5.165-13.327-1.238-15.917c0.757-0.499,0.905-1.546,0.314-2.234l-7.949-9.274c-0.5-0.583-1.301-0.798-2.032-0.561  c-36.805,11.933-20.535,46.633-7.857,59.875c12.741,13.307,52.578,20.973,79.628-16.993c0.26-0.365,0.752-0.489,1.141-0.266  c2.89,1.652,6.775,2.114,10.995,1.872l-0.002,0.002c0,0-0.963,24.74,0,48.128c0.935,22.718,28.87,19.734,30.47,19.544  c0.049-0.006,0.094-0.007,0.143-0.004c1.147,0.064,15.771,0.507,21.816-17.827c1.775-5.703,66.916-4.843,67.671,1.739  c0.277,18.284,6.261,19.252,26.485,19.25C4201.001,2351.429,4191.521,2241.41,4191.353,2235.871z" style="fill:#E5B51A;"/>
	<rect height="21.6" style="fill:#F79514;stroke:#231F20;stroke-miterlimit:10;" transform="matrix(6.123234e-17 -1 1 6.123234e-17 -799.641 3158.4968)" width="5.4" x="1176.728" y="1968.269"/>
	<path d="M2413.262,1319.956c-2.587-0.167-5.378-0.247-8.447-0.2c-1.096,0.017-2.158,0.06-3.202,0.118  c-35.213,1.959-40.94,26.705-40.94,26.705l34.552,1.483l47.085-11.574C2442.311,1336.488,2442.778,1321.862,2413.262,1319.956z" style="fill:#BF1682;"/>
	<path d="M2413.262,1319.956c-2.587-0.167-5.378-0.247-8.447-0.2c-1.096,0.017-2.158,0.06-3.202,0.118  c-35.213,1.959-40.94,26.705-40.94,26.705l34.552,1.483l47.085-11.574C2442.311,1336.488,2442.778,1321.862,2413.262,1319.956z" style="fill:#BF1682;"/>
</svg>
