<svg id="Layer_1" style="enable-background:new 0 0 4813.421 2920.314;" version="1.1" viewBox="0 0 4813.421 2920.314" x="0px" xml:space="preserve" xmlns="http://www.w3.org/2000/svg" xmlns:xlink="http://www.w3.org/1999/xlink" y="0px">
	<path d="M3785.868,1666.24c-0.122-0.022-0.246-0.035-0.37-0.039c-1.094,0-0.512,0,0,0  c-1.146-0.131-2.235-0.572-3.149-1.276c-0.22-0.15-0.433-0.315-0.646-0.48c-0.39-0.328-0.709-0.733-0.937-1.189  c0.037-0.079,0.079-0.155,0.126-0.228c0.685-1.055,1.929-2.685,0.646-3.275c-0.831-0.361-1.724-0.556-2.63-0.575  c0,0,0-0.047,0-0.063l0,0c-0.047-0.008-0.095-0.008-0.142,0h-0.669h-0.339h-0.047h-0.346l0,0h-0.307l0,0h-0.244h-0.087h-0.173  l-0.787,0.173l-0.323,0.079c-3.559,0.929-6.661,2.748-8.243,5.732c-1.212,2.283-1.527,5.236-0.48,8.976  c0.466,1.731,1.085,3.418,1.85,5.039c0.487,1.044,1.094,2.027,1.811,2.929c0.694,0.911,1.592,1.647,2.622,2.149l0,0  c0.186,0.09,0.378,0.166,0.575,0.228l0.189,0.055l0.441,0.102h0.189c0.196,0.03,0.393,0.048,0.591,0.055h0.055  c0.213,0,0.425,0,0.63,0h0.047c0.052,0.004,0.105,0.004,0.157,0c0.385-0.046,0.765-0.131,1.134-0.252l0.142-0.047l0.488-0.189  l0.157-0.071c0.207-0.089,0.41-0.188,0.606-0.299c0.068-0.035,0.134-0.074,0.197-0.118c0.955-0.569,1.835-1.254,2.622-2.039  c0.283-0.276,0.559-0.559,0.834-0.866c0.621-0.697,1.2-1.43,1.732-2.197c1.095-1.581,2.011-3.279,2.732-5.062l0.118-0.299  c0.142-0.386,0.268-0.787,0.386-1.126C3787.962,1669.098,3787.805,1666.563,3785.868,1666.24z" style="fill:#D6293A;"/>
	<path d="M1232.258,596.77c4.32-8.17,3.88-28.91,5.01-41.86c1.14-12.96,2.06-64.63,2.06-64.63  l2.13,1.01c0,0-0.92,51.68-2.06,64.63c-1.13,12.95-0.7,33.69-5.01,41.87c-4.32,8.17-12.89,18.67-18.4,19.99  c-5.52,1.32-7.5,3.39-14.24,3.26c-6.74-0.14-10.84,0.4-10.84,0.4l-2.12-1.02c0,0,4.09-0.54,10.83-0.4s8.72-1.94,14.24-3.25  C1219.378,615.45,1227.948,604.95,1232.258,596.77z" style="opacity:0.84;fill:#F2F2F1;"/>
	<path d="M1526.758,882.01l-6.76,9.77c-4.12,3.77-24.7,19.85-28.83,22.94  c-4.12,3.09-39.15,21.66-46.14,24c-25.2,8.43-61.7,17.38-80.4,18.56c-28.51,1.78-74.71-7.22-97.92-12.37  c-18.51-4.11-27.12-11.9-37.11-15.46c-16.42-5.86-36.07-2.06-49.47-3.61c-13.4-1.55-54.15-5.88-69.06-7.73  c-20.27-2.52-47.43-16.64-47.43-16.64l-4.54-4.24c0.97,0.41,31.98,13.67,49.45,16.48c14.84,2.39,55.66,6.19,69.06,7.73  c0,0-7.46-20.49-9.34-40.27c-1.88-19.78,0-63.11,0-76.29c0-13.19,6.82-53.45,8.89-81.29c2.06-27.84,11.66-151.46,11.66-151.46  l2.44,1.58c0,0-9.6,123.62-11.66,151.46c-2.06,27.84-8.89,68.1-8.89,81.29c0,13.18-1.88,56.51,0,76.29  c1.59,16.73,7.17,33.96,8.85,38.88c13.3,1.04,31.81-1.98,47.52,3.42c16.5,5.67,24.3,12.53,37.11,15.46  c27.07,6.2,84.83,13.52,97.92,12.37c21.23-1.86,73.56-15.77,80.4-18.55c14.14-5.76,42.77-20.62,46.89-23.71  C1493.528,907.53,1515.138,894.71,1526.758,882.01z" style="opacity:0.84;fill:#F2F2F1;"/>
	<path d="M1912.797,1786.705c-9.17-49.35-31.36-79.03-48.91-87.34  c-17.55-8.32-40.9-14.57-55.78-15.6c0,0-45.16,3.6-61.53,19.29c-15.15,14.53-43.73,46.3-46.26,87.42  c-1.98,32.14,20.65,91.45,30.16,102.75c10.13,12.02,56.03,44.6,77.63,44.99s70.33-36.37,76.33-44.22  S1921.707,1834.685,1912.797,1786.705z M1733.557,1752.655c-3.58,1.95-5.55,5.07-6.18,6.18c-0.49,0.84-7.15,8.04-7.15,8.04  s0-20.24,13.73-23.13c13.74-2.89,23.86,3.61,33.98-5.79c10.12-9.39,11.56-21.68,11.56-21.68l-0.72,17.35c0,0-2.32,11.75-8.91,14.62  c0,0-11.59,4.41-22,3.76C1737.457,1751.355,1737.137,1750.705,1733.557,1752.655z M1756.987,1806.755c-3.02,0-14.63-2.58-14.63-2.58  s14.19-6.88,17.21-9.9c3.01-3.01,7.74-5.59,10.75-5.59s7.44,4.93,11.62,6.88c4.56,2.14,14.2,5.6,14.2,5.6s-9.9,3.01-13.77,4.73  c-3.87,1.72-6.52,4.98-12.48,5.59C1764.117,1812.075,1759.997,1806.755,1756.987,1806.755z M1855.937,1884.515  c-5.23,2.41-11.68,5.56-14.54,7.62c-4.95,3.56-18.86,10.24-28,10.24c-9.14,0-23.83-8.88-27.07-10.46  c-2.83-1.39-7.83-3.81-12.23-5.94c-2.23-1.08-1.6-4.43,0.88-4.61c8.23-0.61,19.43-2.14,23.56-5.99l4.84-4.51  c0.97-0.91,2.18-0.41,3.41,0.09c2,0.82,3.74,1.21,6.26,0.95c2.94-0.31,4.14-0.78,5.97-1.75c1.13-0.61,2.43-0.77,3.31,0.16  c1.85,1.95,5.1,4.85,8.78,5.77c3.63,0.9,15.76,2.66,24.15,3.82C1857.657,1880.245,1858.137,1883.505,1855.937,1884.515z   M1863.277,1805.625c-3.02,0-7.14,5.32-12.91,4.73c-5.96-0.61-8.61-3.87-12.48-5.59c-3.87-1.72-13.77-4.73-13.77-4.73  s9.64-3.46,14.2-5.59c4.18-1.96,8.61-6.89,11.62-6.89s7.74,2.58,10.75,5.59c3.02,3.02,17.21,9.9,17.21,9.9  S1866.287,1805.625,1863.277,1805.625z M1887.427,1758.835c-0.64-1.11-2.61-4.23-6.18-6.18c-3.58-1.95-3.91-1.3-14.32-0.65  c-10.4,0.65-22-3.76-22-3.76c-6.59-2.87-8.9-14.62-8.9-14.62l-0.73-17.35c0,0,1.45,12.29,11.57,21.68  c10.12,9.4,20.24,2.9,33.97,5.79c13.74,2.89,13.74,23.13,13.74,23.13S1887.907,1759.675,1887.427,1758.835z" style="fill:#E22323;stroke:#000000;stroke-miterlimit:10;"/>
	<path d="M2185.484,1316.059c0,2.705-2.193,4.898-4.898,4.898c-2.705,0-4.898-2.193-4.898-4.898  c0-2.705,2.193-4.898,4.898-4.898C2183.291,1311.161,2185.484,1313.354,2185.484,1316.059z" style="fill:#0DCC5A;"/>
	<path d="M4277.805,1625.573c-79.529,0-144,64.471-144,144s64.471,144,144,144  c71.625,0,131.01-52.301,142.112-120.791c0.935-7.446,1.586-15.201,1.885-23.328  C4421.737,1689.981,4357.294,1625.573,4277.805,1625.573z M4282.653,1880.764c-71.965,0-107.418-50.169-110.244-103.557  c-3.478-65.702,43.731-102.41,92.215-103.016c48.148-0.602,84.1,29.583,87.267,81.85c2.407,39.722-27.783,76.426-70.071,77.696  c-36.371,1.092-65.791-25.904-65.791-62.291c0-30.148,24.22-58.188,54.368-58.188c24.844,0,47.222,17.694,47.222,42.538  c0,15.969-12.058,35.631-26.287,40.75c-16.309,5.867-34.901-2.634-40.797-18.933c-6.125-16.931,6.331-32.862,22.437-32.862  c5.184,0,9.899,2.127,12.939,5.836c1.855,2.264,3.843,6.075,2.781,11.366c-0.057,0.283-0.289,0.839-0.671,1.424  c-0.997,1.489-3.23,0.81-3.533-0.45l0,0c-1.099-3.999-4.723-6.954-9.071-6.954c-4.648,0-8.491,3.364-9.278,7.786l-0.019-0.004  c-1.463,8.183,1.945,13.211,4.107,15.48c4.697,4.929,11.613,6.008,16.522,5.374c12.626-1.635,18.915-11.224,20.464-18.939  c1.935-9.644-0.504-19.505-6.689-27.056c-6.642-8.106-16.684-12.755-27.552-12.755c-23.664,0-42.916,19.252-42.916,42.916  c0,26.921,21.902,48.823,48.823,48.823c30.754,0,55.603-25.02,55.773-55.772c0.227-41.007-29.06-69.188-64.315-69.792  c-50.169-0.859-81.962,31.793-82.392,79.842c-0.418,46.802,33.978,90.345,93.243,92.057c46.792,1.351,85.58-31.162,100.508-81.263  c0.627-2.106,3.775-1.438,3.45,0.735C4376.077,1843.963,4335.644,1880.764,4282.653,1880.764z" style="fill:#E5B51A;"/>
	<path d="M3672.594,1825.266c-1.464-8.07-5.803-37.721-8.393-35.973c-0.126,0.158-11.456,10.661-11.959,12.597  c-0.299,1.134-0.961,3.441-0.969,3.472c-0.354,0.433-1.252,1.575-1.378,1.685l-1.574,1.929l-0.094,0.118l-0.646,0.787  c-0.575,0.732-1.071,1.378-1.464,1.913l0,0l-0.654,0.953l-0.11,0.181c-0.073,0.113-0.136,0.231-0.189,0.354  c-0.142,0.37,7.157,14.361,12.188,14.889l1.511,0.157C3663.776,1828.911,3672.602,1826.124,3672.594,1825.266z" style="fill:#F7CB14;"/>
	<path d="M2313.408,1361.74c0,0,6.875-9.09,14.515-9.472c7.639-0.382,24.828,7.444,24.828,7.444  L2313.408,1361.74z" style="fill:#0DCC5A;"/>
	<path d="M1022.672,1251.418c-5.853-0.516-10.549,0.359-14.483,2.096c-6.416,2.833-10.783,7.985-14.677,13.325  c-5.662,7.763-10.353,15.89-18.989,17.741c-15.071,3.229-21.24-5.111-30.656-7.724c-1.967-0.546-4.071-0.847-6.432-0.735  c-4.676,0.223-8.133,1.589-11.179,3.446c-5.855,3.569-10.192,8.951-18.752,11.519c-13.013,3.904-21.472,0-24.074-7.157  c-2.603-7.157,6.507-14.965,3.904-20.171c-0.994-1.989-3.797-5.399-7.819-8.132c-3.565-2.422-8.088-4.311-13.172-4.2  c-4.194,0.091-8.767,1.54-13.494,5.176c-15.457,11.89-9.404,74.293-7.748,108.801c0.309,6.437,1.01,12.845,2.123,19.193  l10.487,59.783c1.058,6.028,5.307,10.993,11.092,12.992c3.929,1.358,8.955,2.934,14.752,4.431  c8.724,2.253,19.231,4.311,30.565,5.175c3.582,0.273,7.237,0.44,10.952,0.44c2.696,0,5.334-0.121,7.915-0.333  c13.408-1.102,25.162-4.825,34.192-8.705c5.841-2.51,10.547-5.084,13.818-7.054c3.336-2.009,5.824-5.151,7.045-8.849  C998.417,1411.065,1049.027,1253.741,1022.672,1251.418z" style="fill:#F2F2F1;"/>
	<rect height="21.6" style="fill:#F79514;stroke:#231F20;stroke-miterlimit:10;" width="5.4" x="1049.617" y="2175.849"/>
	<path d="M2321.979,1414.889c-5.201-11.823-13.13-20.8-25.217-19.667  c-13.919,1.305-23.122,17.163-29.183,38.874c3.043,0.353,6.194,0.54,9.423,0.54c15.594,0,29.378-4.334,37.781-10.971  C2318.088,1421.055,2320.557,1418.089,2321.979,1414.889z" style="fill:#F7CB14;"/>
	<path d="M3705.434,1632.629c-6.972,3.144-28.01,0.229-32.769-1.205c-6.95,2.171-35.614,0.526-35.776,1.055  c-2.967,3.11-30.273,18.689-34.958,21.266l0,0l0,0c0.85,9.102,70.073,8.007,79.883,22.108  C3699.86,1678.388,3708.694,1633.07,3705.434,1632.629z M3696.632,1662.642c-0.033,0.045-0.07,0.087-0.11,0.126l0.189-0.22  C3696.689,1662.582,3696.662,1662.614,3696.632,1662.642z" style="fill:#1B8FEF;"/>
	<path d="M2204.021,1375.645c0,0,9.274-12.933,21.64-15.519c12.366-2.587,25.761,7.76,25.761,7.76  L2204.021,1375.645z" style="fill:#BF1682;"/>
	<path d="M3785.427,1367.502c-0.315-5.677-10.408-2.401-15.385-3.795c-1.01-0.278-2.055-0.403-3.102-0.37  c0.197,0.173-0.079,0.236-0.685,0.205c-3.653-0.181-19.683-3.637-22.226-4.244l-0.283-0.063l0,0h-0.047h-0.063l-0.646,0.205  l-0.15,0.055l-0.575,0.181c0.007,2.103,0.388,4.188,1.126,6.157c0.032,0.053,0.061,0.109,0.086,0.165  c3.567,3.299,6.031,8.109,4.96,9.22c0.237,0.457,0.266,0.993,0.079,1.472c-0.607,1.695-1.441,3.3-2.48,4.771l-6.921,20.132  c1.008,5.511,15.613,3.063,21.353,2.559c1.575-0.142,1.638-6.495,1.85-8.314c0.039-0.409-1.402-3.645-3.149-7.212l-0.48-1  c-1.11-2.275,1.701-9.621,4.11-10.968c-0.748-0.701,4.889,0.433,6.559,1.575c0.728,0.498,1.494,0.938,2.291,1.315h0.071l0.354,0.142  c0,0,5.118,3.433,5.157,3.441c1.113,0.175,2.236,0.278,3.362,0.307c0.709-1.299,1.142-2.362,0.787-2.96  c-0.787-1.283-8.551-5.511-6.425-7.944C3788.081,1368.769,3785.427,1367.502,3785.427,1367.502z" style="fill:#F7CB14;"/>
	<path d="M1445.64,2412.199c-7.197-2.555-13.027-7.365-16.374-13.409l-17.43,33.756  c-3.008,5.826-4.241,12.407-3.545,18.927l26.107,244.649c0.223,2.089,0.081,4.2-0.419,6.24l-6.413,26.15  c-0.362,1.476,0.04,3.035,1.071,4.151c0.987,1.069,2.761,0.667,3.191-0.723l9.21-29.827c0.955-3.093,1.33-6.337,1.104-9.567  l-16.781-240.439c-0.33-4.724,0.865-9.429,3.409-13.423L1445.64,2412.199z" style="fill:#161616;"/>
	<path d="M879.515,1255.626c11.205-23.593,34.667-73.578,34.606-78.356  c-0.053-4.157,9.722-29.161,16.33-45.574c-3.284-2.642-6.279-6.073-8.686-10.183l-55.421,129.913  C871.427,1251.316,875.95,1253.204,879.515,1255.626z" style="fill:#0A0A0A;"/>
	<path d="M2956.631,1490.556v-23.132h-27.041v34.86h-10.425v33.557l-9.774,0.326v-50.173l-25.737-0.326v24.109  h-21.828v16.615h-9.122v-47.565h-29.427v485.263h144v-473.534H2956.631z M2830.305,1500.082h-3.339v-4.163h3.339V1500.082z   M2836.457,1487.481h-3.339v-4.163h3.339V1487.481z M2842.609,1500.082h-3.339v-4.163h3.339V1500.082z M2842.609,1493.781h-3.339  v-4.163h3.339V1493.781z M2842.609,1487.481h-3.339v-4.163h3.339V1487.481z M2848.761,1493.781h-3.339v-4.163h3.339V1493.781z   M2869.965,1554.668h-3.083v-39.377h3.083V1554.668z M2881.327,1554.668h-3.083v-39.377h3.083V1554.668z M2887.008,1554.668h-3.083  v-39.377h3.083V1554.668z M2892.689,1554.668h-3.083v-39.377h3.083V1554.668z M2925.77,1556.132h-2.513v-4.898h2.513V1556.132z   M2925.77,1533.894h-2.513v-4.898h2.513V1533.894z M2925.77,1519.068h-2.513v-4.898h2.513V1519.068z M2925.77,1511.655h-2.513  v-4.898h2.513V1511.655z M2930.399,1548.719h-2.513v-4.898h2.513V1548.719z M2930.399,1511.655h-2.513v-4.898h2.513V1511.655z   M2935.028,1526.481h-2.513v-4.898h2.513V1526.481z M2935.028,1519.068h-2.513v-4.898h2.513V1519.068z M2936.643,1502.262h-2.871  v-4.84h2.871V1502.262z M2936.67,1495.524h-2.871v-9.68h2.871V1495.524z M2936.67,1483.946h-2.871v-9.68h2.871V1483.946z   M2939.657,1563.545h-2.513v-4.898h2.513V1563.545z M2939.657,1548.719h-2.513v-4.898h2.513V1548.719z M2939.657,1533.894h-2.513  v-4.898h2.513V1533.894z M2939.657,1519.068h-2.513v-4.898h2.513V1519.068z M2939.657,1511.655h-2.513v-4.898h2.513V1511.655z   M2941.932,1502.262h-2.871v-4.84h2.871V1502.262z M2941.959,1483.946h-2.871v-9.68h2.871V1483.946z M2947.222,1502.262h-2.871  v-4.84h2.871V1502.262z M2947.249,1495.524h-2.871v-9.68h2.871V1495.524z M2952.511,1502.262h-2.871v-4.84h2.871V1502.262z   M2952.538,1495.524h-2.871v-9.68h2.871V1495.524z M2952.538,1483.946h-2.871v-9.68h2.871V1483.946z" style="fill:#0A0A0A;"/>
	<rect height="21.6" style="fill:#F79514;stroke:#231F20;stroke-miterlimit:10;" width="5.4" x="631.369" y="2276.948"/>
	<path d="M3540.251,1783.553c2.235,2.529,4.679,4.865,7.306,6.984c0.512,0.409,1.031,0.787,1.575,1.213  l0.465,0.354l1.134,0.835l0.496,0.362l1.228,0.85l0.354,0.244c0.543,0.37,1.086,0.724,1.63,1.071h0.055  c0.52,0.323,1.031,0.646,1.575,0.953l0.339,0.197c0.441,0.268,0.882,0.52,1.315,0.787l0.315,0.173  c1.087,0.606,2.165,1.173,3.205,1.677l0,0l17.754,3.094c0.787-1.85-1.354-2.787-4-3.197c-0.105-0.354-0.32-0.666-0.614-0.89  c-0.882-0.685-2.307-0.512-2.913-0.724c-0.606-0.213-5.472-5.464-11.668-12.196c-7.74-8.409-24.069-25.195-24.069-25.147  c-0.088,0.212-0.159,0.43-0.213,0.653c-0.493,2.178-0.903,4.278-1.228,6.299C3533.929,1769.105,3539.826,1783.072,3540.251,1783.553  z" style="fill:#0DCC5A;"/>
	<path d="M1115.458,806.29c-20.98-3.79-46.61-26.54-46.61-26.54l1.88-0.1  c0,0,25.99,22.37,47.02,25.84c21.03,3.47,44.41,7.67,44.41,7.67l-2.42,1.46C1159.738,814.62,1136.428,810.08,1115.458,806.29z" style="opacity:0.84;fill:#F2F2F1;"/>
	<path d="M3873.416,824.152v-28.65h-21.6v28.65h-166.59v216h166.59v29.18  h21.6v-29.18h154.18v-216H3873.416z M3714.176,949.742h-5.4v-21.6h5.4V949.742z M4006.116,949.742h-5.4v-21.6h5.4V949.742z" style="fill:#F2F2F2;stroke:#231F20;stroke-miterlimit:10;"/>
	<path d="M989.033,1233.759l4.479,33.08c3.894-5.339,8.26-10.492,14.677-13.325l0.018-0.029l-32.534-122.789  c-2.127,0.957-4.364,1.837-6.703,2.633L989.033,1233.759z" style="fill:#0A0A0A;"/>
	<path d="M3701.253,1861.176c0-2.244-18.951-5.37-22.762-4.724c-0.724,0.134-1.449,0.268-2.197,0.378  c-11.479,1.661-25.132,0.945-38.689-1.362c-6.443-1.101-12.824-2.538-19.117-4.307c-4.141-1.173-8.165-2.464-12.007-3.858  c-2.771-1-5.448-2.055-7.999-3.149c-2.362-1.016-4.574-2.063-6.677-3.149c-2.913-1.488-14.558-12.597-14.558-12.597l-0.661,0.102  l-0.244-0.26l-0.724-0.126c0,0-20.203-3.504-28.998-25.297c-1.409-1.212-5.078-6.409-10.873-5.307  c-9.74,1.858,5.464,22.274,5.102,18.109c0.787,8.535,38.705,36.406,45.406,45.555c1.843,2.071,3.708,4.275,5.59,6.511l2.827,3.354  c1.26,1.85,2.535,3.693,3.811,5.511c1.465,2.039,2.929,4,4.409,5.834c7.873,9.755,15.999,15.589,24.21,7.472l2.441-0.512  c1.126-1.472,2.252-2.795,3.378-4c1.447-1.555,3.013-2.995,4.685-4.307c12.66-9.81,26.061-10.849,35.587-7.818  c1.386-0.37,6.708,4,8.007,3.645c5.165,1.37,13.668,0.945,15.817-3.645C3711.796,1874.301,3701.316,1865.923,3701.253,1861.176z" style="fill:#0DCC5A;"/>
	<rect height="210.96" style="fill:#B71515;stroke:#231F20;stroke-miterlimit:10;" width="216" x="1078.621" y="1793.23"/>
	<path d="M2297.014,1340.752c0.058-0.4,0.139-0.809,0.217-1.217c-5.557-2.151-11.584-3.487-17.611-3.048  c-1.846,0.134-3.546,0.409-5.128,0.784c-8.629,2.043-13.494,7.299-16.186,11.967c-2.585,4.482-3.177,8.416-3.177,8.416l18.957,2.065  l26.023-1.953C2298.486,1354.769,2295.89,1348.537,2297.014,1340.752z" style="fill:#BF1682;"/>
	<path d="M3747.013,1795.748c-4.606-1.488-12.967-3.937-15.29-8.149  c-37.201-67.089-32.501-36.635-41.603-7.574c-4.606,14.707-8.377,29.218-6.393,34.296c2.244,3.748,53.177-5.157,61.546-5.826  c0.359-0.22,0.795-0.275,1.197-0.15c0.31-0.057,0.623-0.093,0.937-0.11l-0.189-0.039  C3748.187,1807.574,3750.178,1797.992,3747.013,1795.748z" style="fill:#0DCC5A;"/>
	<path d="M2244.87,1297.91c-3.895-6.486-9.204-10.951-16.444-11.066c-6.667-0.106-11.304,3.248-14.511,8.362  c-3.047,4.859-4.805,11.306-5.774,17.903c0.201,0.014,0.394,0.037,0.593,0.054c0.289,0.024,0.578,0.048,0.861,0.078  c0.251,0.027,0.495,0.059,0.74,0.09c0.294,0.037,0.589,0.073,0.875,0.116c0.229,0.035,0.448,0.075,0.672,0.113  c0.287,0.049,0.576,0.097,0.852,0.152c0.214,0.043,0.417,0.091,0.624,0.137c0.267,0.059,0.538,0.116,0.793,0.181  c0.209,0.053,0.402,0.111,0.602,0.167c0.235,0.065,0.475,0.129,0.698,0.198c0.212,0.066,0.404,0.139,0.603,0.209  c0.189,0.066,0.388,0.13,0.566,0.2c0.226,0.088,0.426,0.182,0.633,0.275c0.129,0.058,0.271,0.113,0.392,0.173  c0.316,0.156,0.605,0.317,0.864,0.483c0.171,0.11,0.332,0.246,0.487,0.396c0.047,0.045,0.092,0.096,0.137,0.145  c0.109,0.116,0.215,0.242,0.316,0.377c0.044,0.059,0.089,0.118,0.131,0.181c0.113,0.165,0.22,0.343,0.323,0.532  c0.021,0.038,0.043,0.072,0.064,0.111c0.122,0.234,0.236,0.485,0.344,0.75c0.027,0.065,0.051,0.135,0.077,0.202  c0.081,0.209,0.158,0.427,0.231,0.653c0.029,0.089,0.057,0.178,0.084,0.269c0.072,0.239,0.14,0.486,0.204,0.741  c0.018,0.07,0.037,0.137,0.054,0.208c0.08,0.333,0.155,0.678,0.223,1.035c0.009,0.045,0.016,0.093,0.024,0.138  c0.058,0.313,0.112,0.634,0.162,0.963c0.015,0.1,0.029,0.202,0.044,0.303c0.042,0.298,0.081,0.602,0.117,0.912  c0.011,0.092,0.022,0.183,0.032,0.275c0.088,0.805,0.156,1.643,0.207,2.503c0.006,0.098,0.011,0.198,0.016,0.297  c0.018,0.343,0.034,0.69,0.048,1.039c0.004,0.105,0.008,0.21,0.012,0.315c0.014,0.407,0.024,0.817,0.032,1.23  c0.001,0.032,0.002,0.063,0.002,0.095c0.007,0.455,0.011,0.913,0.011,1.371c0,0.09-0.001,0.181-0.001,0.271  c-0.001,0.364-0.003,0.728-0.008,1.092c-0.002,0.121-0.003,0.242-0.005,0.363c-0.006,0.361-0.014,0.722-0.023,1.081  c-0.002,0.094-0.004,0.188-0.007,0.281c-0.013,0.445-0.027,0.888-0.044,1.328c-0.004,0.091-0.008,0.182-0.012,0.273  c-0.014,0.346-0.029,0.69-0.046,1.032c-0.007,0.148-0.015,0.296-0.022,0.443c-0.015,0.289-0.031,0.575-0.047,0.859  c-0.009,0.148-0.017,0.297-0.026,0.444c-0.021,0.345-0.042,0.685-0.065,1.022c-0.012,0.182-0.025,0.361-0.037,0.54  c-0.018,0.255-0.036,0.508-0.054,0.757c-0.015,0.2-0.03,0.396-0.045,0.592c-0.013,0.167-0.026,0.333-0.039,0.497  c-0.017,0.213-0.035,0.426-0.052,0.632c-0.01,0.114-0.019,0.224-0.029,0.335c-0.071,0.815-0.142,1.58-0.211,2.27  c0,0.002,0,0.005-0.001,0.008l34.473,4.037c0,0,0-2.195-0.182-5.757C2254.881,1332.885,2252.833,1311.171,2244.87,1297.91z" style="fill:#E5B51A;"/>
	<path d="M2308.314,1320.173c0-2.367-1.919-4.286-4.286-4.286s-4.286,1.919-4.286,4.286  s1.919,4.286,4.286,4.286S2308.314,1322.54,2308.314,1320.173z" style="fill:#E22323;"/>
	<path d="M3575.847,1795.512c3.312,1.057,13.743,8.375,17.077,4.96c12.891-4.918,25.255-11.885,36.139-20.297  l0,0c2.446-1.906,4.863-3.856,7.117-5.937c1.076-9.808,1.523-19.675,1.339-29.541c-11.967-3.121-30.327,2.832-37.359-6.692  c-15.895-3.959-35.685,1.619-35.769,1.574c-6.3-4.754,6.167-16.512-7.243-17.062  C3515.516,1762.768,3564.461,1777.13,3575.847,1795.512z" style="fill:#1B8FEF;"/>
	<path d="M3879.577,1652.839c-0.695-1.338-1.798-2.419-3.149-3.086l0,0c-10.401-5.086-25.462-8.81-42.24-10.59  l-5.921,8.865c4.632,2.233,8.943,5.077,12.818,8.456c1.88,1.65,3.637,3.434,5.259,5.338l0.213,0.252l0.307,0.37  c1.214,1.458,2.341,2.985,3.378,4.574c0.472,0.716,0.921,1.457,1.354,2.204c0.047,0.071,0.087,0.142,0.126,0.213  c0.027,0.15,0.105,0.286,0.22,0.386c0.032,0.068,0.069,0.134,0.11,0.197c0.386,0.701,0.787,1.409,1.118,2.126  c0.583,1.173,1.134,2.362,1.63,3.59l0.094,0.22c0.409,1.024,0.787,2.047,1.149,3.102c0.166,0.512,0.323,1.039,0.48,1.575  c0.299,0.976,0.575,1.96,0.787,2.96c0.283,1.165,0.528,2.362,0.74,3.559c0.346,1.945,0.606,3.937,0.787,5.96  c0.181,2.023,0.212,4.228,0.165,6.393c0,0-24.699,36.217-36.312,46.807l-6.44,5.645l-1.464,1.22  c-3.701,3.05-7.433,5.889-11.196,8.519l-0.071,0.047c-3.202,2.236-6.412,4.283-9.629,6.141l-0.299,0.173  c-2.945,1.685-5.881,3.212-8.795,4.527c-8.285-0.535-16.258-3.361-23.03-8.165c-2.96-2.062-5.723-4.394-8.251-6.968  c-1.813-1.847-3.527-3.789-5.133-5.818c-2.133-2.688-4.108-5.498-5.913-8.417c-3.483-5.682-6.48-11.647-8.96-17.833  c-7.039-17.321-9.684-34.107-9.078-39.69c0.126-1.157,0.386-1.85,0.787-1.945c0.024-0.07,0.053-0.139,0.086-0.205  c0.079-0.205,0.157-0.401,0.252-0.598c1.252-2.732,3.882-5.921,7.495-9.314l0.724-0.661c2.687-2.421,5.499-4.7,8.425-6.826  c0.898-0.661,1.822-1.323,2.771-1.984c7.807-5.397,16.031-10.162,24.596-14.251c7.27-3.555,14.842-6.454,22.628-8.661l1.811-2.488  c-6.366,0.533-12.698,1.416-18.967,2.646l-1.574,0.323c-1.165,0.244-2.362,0.504-3.48,0.787c-1.118,0.283-2.283,0.551-3.409,0.85  l-1.26,0.346c-1.055,0.291-2.102,0.591-3.149,0.898c-0.701,0.213-1.409,0.425-2.102,0.653c-0.52,0.165-1.008,0.354-1.52,0.528  l-1.063,0.362c-2.307,0.787-4.559,1.646-6.74,2.575c-1.748,0.745-3.451,1.533-5.11,2.362l-1.252,0.646l-0.071,0.039l-0.953,0.504  c-0.512,0.276-1.016,0.567-1.52,0.858c-0.787,0.472-1.638,0.961-2.441,1.464l-0.535,0.331c-5.823,3.618-10.901,8.316-14.959,13.841  c-0.346,0.488-0.685,0.968-1.008,1.457l-0.126,0.181c-0.724,1.118-1.386,2.275-2,3.464c-0.165,0.315-0.339,0.614-0.496,0.937  c-0.75,1.532-1.403,3.109-1.953,4.724c-1.789,5.32-2.569,10.928-2.299,16.534c0.047,1.134,0.094,2.252,0.15,3.354  c0,0.142,0,0.283,0,0.433c0.11,2.1,0.239,4.139,0.386,6.118c0.047,0.685,0.11,1.354,0.166,2.024l0.086,1.126h0.094l-0.079,0.142  c0,0.236,0.039,0.48,0.055,0.716c0.047,0.496,0.103,0.976,0.15,1.472c4.165,7.582,9.094,16.573,14.117,25.793  c3.149,5.779,6.338,11.645,9.401,17.321c4.582,8.464,8.865,16.455,12.314,22.974c0.346,0.079,0.701,0.126,1.047,0.197  c3.998,0.461,8.027,0.587,12.046,0.378c5.635-0.189,11.256-0.699,16.833-1.527c7.322-1.118,13.692-2.834,16.085-5.173  c1.417-0.307,2.637,0.26,4.023,0.165l0,0c0.305-0.018,0.606-0.074,0.897-0.165c0.976-0.299,2.173-1.496,3.252-2.22  c0.261-0.182,0.541-0.335,0.835-0.457c2.808-1.495,5.724-2.777,8.724-3.834c1.134-0.583,2.281-1.197,3.441-1.842  c2.197-1.472,6.102-3.842,6.149-3.669l0.787-0.52l0,0c1.15-0.787,2.315-1.527,3.48-2.362c5.063-9.164,30.872-49.437,30.872-49.437  c2.362-3.409,6.212-11.629,8.212-14.912c2.614-4.291,8.456-12.338,10.369-16.266  C3885.797,1663.846,3882.387,1658.107,3879.577,1652.839z" style="fill:#D6293A;"/>
	<path d="M4191.353,2235.871c-0.228-7.471,2.6-37.095-35.442-42.706c-1.76-0.26-3.296,1.209-3.099,2.977l0,0  c16.2,59.52-22.36,86.52-57.096,88.608c-27.614,1.66-57.939-24.536-57.647-59.227c0.299-35.615,15.511-61.027,50.464-60.39  c24.563,0.448,44.967,21.336,44.809,51.732c-0.119,22.794-17.431,41.34-38.857,41.34c-18.756,0-34.015-16.234-34.015-36.189  c0-17.54,13.413-31.811,29.9-31.811c7.572,0,14.568,3.446,19.195,9.454c4.31,5.597,6.009,12.906,4.661,20.055  c-1.08,5.718-5.461,12.826-14.258,14.038c-3.42,0.47-8.238-0.33-11.511-3.983c-1.506-1.682-3.881-5.409-2.861-11.474l0.014,0.003  c0.548-3.278,3.226-5.772,6.464-5.772c3.029,0,5.554,2.19,6.32,5.154c0.211,0.934,1.767,1.437,2.461,0.333  c0.266-0.433,0.428-0.845,0.467-1.055c0.74-3.922-0.645-6.746-1.938-8.425c-2.117-2.749-5.403-4.326-9.014-4.326  c-11.221,0-19.899,11.808-15.632,24.358c4.108,12.081,17.061,18.382,28.423,14.033c9.913-3.794,18.314-18.369,18.314-30.205  c0-18.415-15.59-31.53-32.9-31.53c-21.004,0-37.878,20.784-37.878,43.13c0,26.971,20.497,46.981,45.837,46.172  c29.462-0.942,50.496-28.147,48.819-57.59c-2.207-38.742-44.095-96.192-77.677-94.879c-16.115,0.63-20.924,8.057-28.836,15.16  c-0.198,0.178-0.471,0.259-0.735,0.223c-64.963-9.018-69.675,31.591-75.924,93.376c-2.21,33.861-10.537,42.957-24.323,37.648  c-14.692-5.658-5.165-13.327-1.238-15.917c0.757-0.499,0.905-1.546,0.314-2.234l-7.949-9.274c-0.5-0.583-1.301-0.798-2.032-0.561  c-36.805,11.933-20.535,46.633-7.857,59.875c12.741,13.307,52.578,20.973,79.628-16.993c0.26-0.365,0.752-0.489,1.141-0.266  c2.89,1.652,6.775,2.114,10.995,1.872l-0.002,0.002c0,0-0.963,24.74,0,48.128c0.935,22.718,28.87,19.734,30.47,19.544  c0.049-0.006,0.094-0.007,0.143-0.004c1.147,0.064,15.771,0.507,21.816-17.827c1.775-5.703,66.916-4.843,67.671,1.739  c0.277,18.284,6.261,19.252,26.485,19.25C4201.001,2351.429,4191.521,2241.41,4191.353,2235.871z" style="fill:#E5B51A;"/>
	<path d="M2706.997,1290.801c-7.6,0-13.762,6.161-13.762,13.762c0,4.561,2.229,8.593,5.646,11.097  c-1.395,4.154-3.774,10.282-7.726,18.243c-7.952,16.017-29.629,27.838-29.629,27.838l25.008,14.792c0,0,3.838-22.599,8.102-36.67  c3.009-9.93,7.501-17.923,9.887-21.771c0.804,0.146,1.628,0.234,2.474,0.234c7.6,0,13.762-6.161,13.762-13.762  C2720.759,1296.962,2714.597,1290.801,2706.997,1290.801z" style="fill:#BF1682;"/>
	<path d="M1617.846,1199.535l-28.594,40.368l-7.085,10.002l-0.152,0.214l-6.684,9.437  c0,0,0.085,9.496,16.141,18.713s25.57,7.136,25.57,7.136l4.154-16.075l16.361-63.312c0,0-0.311-0.881-1.369-2.068  c-1.14-1.279-3.165-2.91-6.635-4.202c-0.191-0.071-0.369-0.145-0.569-0.214C1621.782,1197.052,1617.846,1199.535,1617.846,1199.535z  " style="fill:#BF1682;"/>
	<path d="M1399.657,2324.767c0-2.824,0.358-5.541,1.008-8.094l-42.25,54.026  c-3.504,4.481-4.962,10.229-4.018,15.838l47.436,281.755c1.35,8.021-3.411,15.812-11.165,18.268l-7.457,2.362  c-2.151,0.681-2.843,3.381-1.286,5.013h0c3.097,3.246,7.822,4.351,12.037,2.816l18.863-6.871c4.348-1.584,6.954-6.036,6.207-10.602  l-46.543-284.516c-1.564-9.56,1.995-19.24,9.378-25.51l26.799-22.76C1403.223,2341.686,1399.657,2333.756,1399.657,2324.767z" style="fill:#161616;"/>
	<path d="M1081.298,543.91l0.8-3.73c0,0,3.61-15.5,11.08-22.24  c7.48-6.74,16.98-15.54,27.17-15.94c10.19-0.4,14.86-0.58,14.86-0.58l-0.83,3.91c0,0-4.67,0.18-14.86,0.58  c-10.19,0.4-19.69,9.2-27.17,15.94C1085.348,528.17,1081.728,542.19,1081.298,543.91z" style="opacity:0.84;fill:#F2F2F1;"/>
	<path d="M3726.653,1745.383c-4.307-7.873-8.527-15.605-12.094-22.093c-0.126-0.228-0.26-0.465-0.378-0.693  c-0.118-0.228-0.142-0.26-0.22-0.386c-0.079-0.126-0.071-0.142-0.11-0.213l-0.315-0.575l-0.228-0.409v-0.079l-1.528-2.771  c-0.897-1.638-1.74-3.149-2.488-4.527l-2.299-4.157c-0.001-0.026-0.001-0.052,0-0.079c-0.646-1.157-1.15-2.071-1.496-2.708v-0.047  l-0.535-0.968c-2.958,0.299-5.775,1.417-8.133,3.228c-4.874,3.606-8.771,9.952-11.81,17.92c-1.619,4.289-2.96,8.679-4.015,13.141  c-0.181,0.787-0.362,1.52-0.535,2.291c-0.063,0.276-0.126,0.551-0.181,0.827c-0.055,0.276-0.102,0.48-0.157,0.717  c-0.055,0.236-0.142,0.661-0.205,0.992c0,0.087,0,0.173-0.055,0.26s-0.063,0.26-0.087,0.394c-0.897,4.409-1.637,8.999-2.252,13.66  c-0.591,4.535-1.047,9.133-1.386,13.692l0,0c-0.094,1.173-0.173,2.362-0.244,3.496c-0.11,1.764-0.197,3.511-0.276,5.244  c-0.079,1.732-0.134,3.535-0.173,5.275c-0.338,14.085,5.842,12.739,9.306,0c6.85-25.155,14.172-86.079,50.145,0  c1.575,3.795,6.724,4.574,10.716,5.7c2.134,0.611,4.333,0.968,6.551,1.063c0.004-0.018,0.004-0.037,0-0.055  c-0.063-0.496-1.236-2.937-3.149-6.708c-1.016-1.984-2.236-4.33-3.63-6.96c-2.952-5.59-6.622-12.432-10.542-19.683  C3732.078,1755.35,3729.377,1750.327,3726.653,1745.383z" style="fill:#1B8FEF;"/>
	<path d="M2241.589,1313.703c0,2.909-2.358,5.267-5.267,5.267s-5.267-2.358-5.267-5.267  s2.358-5.267,5.267-5.267S2241.589,1310.794,2241.589,1313.703z" style="fill:#2D88E2;"/>
	<path d="M2426.891,2334.592c35.1-7.4,50.5-33.3,52-45.4c0.1-0.8-0.1-1.6-0.6-2.2c-10.9-15.4-46-10.3-62.7-3.5  c-0.7,0.3-1.3-0.7-0.7-1.2c38-33.6,2-54.4-37.5-37.4c35-52.5,6.4-80.3-46.1-37.5c2.1-18.9-3.1-49.3-25-62.7  c-0.8-0.5-1.8-0.7-2.7-0.6c-24.3,3.3-38.6,25.1-42,63.3c-16.1-26.7-26.7-33.2-34.7-32.6c-2.4,0.2-4.6,1.5-6,3.5  c-7,10.6-9.5,19.1-5.7,41.1c0.3,1.8-1.9,2.8-3.1,1.5c-15.8-19-46-27-64.4-11.2c-0.7,0.6-1.2,1.4-1.5,2.4  c-6.6,25.9,11.2,48.3,20.5,53.4c0.4,0.2,0.3,0.9-0.2,0.9c-20.6,0.5-27.8,9.1-31.3,15.3c-0.8,1.4-1.1,3.1-0.8,4.7  c1.3,6.7,7.8,17.1,13.8,23.9c0.3,0.4-0.1,0.9-0.5,0.6c-18.1-10.9-56-7.9-67.1,19.7c-0.8,1.9-0.8,4.1,0,6c10.7,25.5,42.5,27,55.9,27  c1.2,0,1.6,1.5,0.6,2.1c-11,7.5-19.1,21.9-15.8,29c8.4,12.7,41.9,8.8,55.5,2.4c0.7-0.4,1.5,0.5,1,1.2c-2.5,3.4-5.1,8.2-5.4,14.8  c-0.1,2.4-1.9,4.4-4.2,5c-17.5,4-40.1,20.3-33,56.7c0.3,1.5,1.5,2.7,3.1,3c29.6,4.7,54.1-10.1,62.8-29.4c0.4-0.9,1.8-0.6,1.8,0.4  c-0.4,14.3,2.3,22,4.3,25.8c0.9,1.7,0.9,3.6,0,5.3c-10.6,20.3-9.4,61.7,20.8,62.3c0.8,0,1.7-0.2,2.4-0.6  c20.8-12.1,35.1-36.1,39.7-51.2c0.5-1.8,2.9-2,3.8-0.4c8.8,15.9,23.9,21.7,29.6,20.5c4.9-1.1,10-8,13-14.8c0.6-1.4,2.7-1.2,3.1,0.3  c5.8,23,29.5,49.3,46.6,46.3c17.1-3,27-33.2,21.4-51.1c-0.6-1.9,1-3.9,3-3.6c12.8,1.4,22.3-6.7,25.9-10.3c1-1,1.6-2.3,1.7-3.7  c2.1-27.1-10.7-43-19.6-51c-1.2-1.1-0.6-3.2,1.1-3.3c13.8-1.5,20.9-7,23.7-9.9c1-1,1.5-2.4,1.4-3.8c-0.5-7-2.7-11.9-4.2-14.6  c-0.5-0.8,0.3-1.7,1.2-1.4c22.3,8.4,45.7,3.2,57-11.1c0.8-1,1.2-2.4,1.1-3.7c-3-24.8-21.8-37.2-53.1-38.7  C2426.291,2335.692,2426.291,2334.692,2426.891,2334.592z M2468.991,2286.292c1.9,0.6,2.9,2.8,2,4.6c-23.3,48.6-72,40.5-83.1,31.4  c-1.3-1-1.8-2.7-1.2-4.3c0.6-1.7,1.3-4.4,1.3-7.8c0-0.8,0.2-1.6,0.8-2.2C2415.091,2278.892,2450.191,2280.192,2468.991,2286.292z   M2321.191,2310.892l-5.5-4.4c1.1-5.5,10.9-12.2,21.4-12.8c1.4-0.1,2.6,1.2,2.3,2.6  C2338.191,2302.192,2327.791,2309.492,2321.191,2310.892l-0.8-0.7C2320.591,2310.492,2320.891,2310.692,2321.191,2310.892z   M2335.791,2335.392L2335.791,2335.392c7.6,1.8,11.4,10.8,1.5,10.9L2335.791,2335.392L2335.791,2335.392L2335.791,2335.392z   M2335.691,2360.092c13.9-4.5,23.1,6.6,22.3,19.6c-0.1,1.6-1.1,3-2.5,3.6c-13.6,5.8-24.4,1.7-27.7-6.4L2335.691,2360.092z   M2345.991,2310.792c-2.5-16.6,32.8-18,36.3,0.7c0.2,1.1,0,2.2-0.5,3.1C2373.491,2329.192,2349.391,2324.492,2345.991,2310.792z   M2364.791,2341.092c0.1-0.7,0.3-1.3,0.7-1.9c9.9-14,43.8-10.2,50.6,9.6c0.3,2.1-0.8,4.8-2.8,5.6c-6.2,2.3-19,7.2-27.3,5.7  C2374.791,2358.192,2362.991,2353.692,2364.791,2341.092z M2422.091,2254.092c-7,30.8-35.8,42.9-62.1,32.4c-1-0.4-1.7-1.4-1.8-2.5  c-2-29.3,41.9-46.4,61.8-34.7C2421.691,2250.292,2422.491,2252.192,2422.091,2254.092z M2384.891,2197.192  c5.5,11.7-5.2,46.7-28.6,51.8c-1.3,0.3-2.7-0.4-3.4-1.6c-2.4-4.3-11.8-3.7-17.8-2.5c-1.3,0.3-2.6-0.5-3-1.8  c-9.2-29.9,20.8-49.2,48.6-48.6C2382.491,2194.492,2384.091,2195.492,2384.891,2197.192z M2347.491,2250.492  c0.9,0.5,1.4,1.4,1.5,2.4c1.7,24.9-10.5,34.8-21.5,28.8C2305.391,2264.292,2335.891,2243.492,2347.491,2250.492z M2304.791,2150.192  c22.8,13.3,17.8,44.1,9.3,60.6c-0.9,1.7-3.1,2-4.4,0.7c-10-10-11.9-11.1-24.2-6c-1.4,0.6-3,0-3.7-1.4c-15.3-31.2,8-52.7,20.5-54.4  C2303.091,2149.592,2303.991,2149.792,2304.791,2150.192z M2228.691,2180.492c13,3.3,41,38.9,26.1,65.9c-0.5,1-1.6,1.6-2.8,1.4  c-4.5-0.7-6.5,0.5-8.8,3.3c-1,1.2-2.7,1.4-3.9,0.4c-9-7.2-30.6-39.2-14.9-69.1  C2225.191,2180.892,2226.991,2180.092,2228.691,2180.492z M2240.891,2364.792L2240.891,2364.792L2240.891,2364.792  c0.1,0,4.7,9.4,4.7,9.5l0,0l0,0c-3.7,1-7.4,0.9-7.8-0.3C2237.291,2372.292,2238.091,2367.592,2240.891,2364.792L2240.891,2364.792z   M2243.891,2299.792c4.5-0.5,9.1,5,10.5,10.6l-9.1,10.7c-5.3-2.6-8.6-12.4-3.8-19.9  C2242.091,2300.492,2242.991,2299.892,2243.891,2299.792z M2237.891,2345.892c0-0.1,0-0.1,0-0.2V2345.892  c-4.7,4.9-12.1,0.3-14.5-5.7c-0.6-1.5,0.1-3.2,1.5-3.9c3.9-1.9,11-2.1,14.1,0.6  C2238.791,2338.192,2237.991,2344.692,2237.891,2345.892z M2197.991,2257.792c0.5-2.4,3-4.4,5.4-4.4c23.3-0.2,32.5,11.6,23.9,38  c-0.3,1-1.1,1.7-2.2,2C2211.791,2296.492,2189.791,2296.192,2197.991,2257.792z M2215.591,2329.792c-12.1,5-20.1-8.7-18.3-19.8  c0.2-1.1,1.2-2,2.3-2.1c12.5-0.9,25.8,9.5,17.4,20.8C2216.591,2329.192,2216.091,2329.592,2215.591,2329.792z M2208.891,2348.592  c-12.6,15.9-35,16.3-47.2,0.2c-1.3-1.7-1.4-4.1-0.3-6c10.4-16.5,47.3-19.1,48.3,3.5  C2209.691,2347.092,2209.391,2347.892,2208.891,2348.592z M2196.691,2376.492c2-5.5,23-20.7,30.1-2.6c0.3,0.7,0.2,1.5-0.1,2.2  C2221.591,2387.292,2194.791,2381.892,2196.691,2376.492z M2152.991,2213.092c30.2-20.6,65.1,10.8,64.8,30.3c0,1.4-1.2,2.5-2.6,2.3  c-7.3-1-17.7,1.5-18.8,2.5c-1.1,0.9-3,2.7-4.9,9.8c-0.3,1.2-1.5,1.9-2.7,1.8c-29.5-4.4-42.6-33.8-37.1-44.9  C2151.891,2213.992,2152.391,2213.492,2152.991,2213.092z M2144.291,2281.392c18.9-14.7,53.1-8.7,51.1,18.3c-0.1,1-0.6,2-1.5,2.5  c-16,10.6-44.9,7.4-51.4-15.6C2141.991,2284.592,2142.691,2282.592,2144.291,2281.392z M2085.891,2329.592  c11.2-18.3,52.9-25.5,77.8,2.4c0.5,0.6,0.5,1.5-0.1,2.1c-10.2,9.3-9.3,12.1-7.2,15.5c0.4,0.6,0.1,1.4-0.5,1.7  c-16.4,7-49.2,13.7-69.7-15.2C2084.691,2334.192,2084.691,2331.592,2085.891,2329.592z M2128.991,2394.092c-2.2-1.2-2.9-4-1.6-6.2  c23.5-35.5,52.6-19.2,56.8-10.3c0.2,0.4,0.3,0.9,0.3,1.3C2183.491,2394.892,2148.091,2404.492,2128.991,2394.092z   M2143.591,2474.092c-1.9,0.1-3.5-1.2-4-3c-6.2-21.7,12.5-47.1,33.1-49.6c0.9-0.1,1.8,0.4,2.2,1.2c3.3,6,11.5,5.9,15.1,5.5  c1-0.1,1.9,0.6,2.1,1.5C2194.691,2444.092,2186.491,2472.792,2143.591,2474.092z M2182.591,2422.292c-1.2-0.4-2-1.5-2.1-2.8  c-0.9-28,16.7-31,33.4-20.5c0.5,0.3,1,0.9,1.1,1.5C2217.091,2408.192,2198.791,2427.392,2182.591,2422.292z M2227.391,2536.892  c-15.3,2.3-29.7-22.6-15.9-53.8c0.5-1.2,2-1.6,3.1-0.8c8.5,6.1,17.2,1.1,25.1-7.6c0.9-1,2.4-0.9,3.2,0.2  C2253.291,2488.692,2242.691,2531.292,2227.391,2536.892z M2226.791,2475.592c-3.5,2.4-8.2,1.6-10.7-1.8  c-13.9-19.3,0-41.7,15.5-47.8c0.8-0.3,1.6-0.2,2.3,0.3c1.6,1.1,5.4,2.8,11.2,0.2c1.2-0.5,2.7-0.1,3.4,1.1  C2254.791,2438.192,2245.991,2462.192,2226.791,2475.592z M2241.191,2422.692c-2.1,0.5-4.3-0.5-5.4-2.4  c-10.6-17.7,3.6-40.9,19.6-28.1C2262.791,2398.092,2257.391,2418.792,2241.191,2422.692z M2254.091,2291.992  c-18.6,0.1-20.6-25.1-6.9-39.5c0.6-0.6,1.8-1.1,2.6-1.1C2264.191,2251.392,2284.491,2291.992,2254.091,2291.992z M2268.091,2235.492  c0-12.5,5.4-22.9,26.5-27.6c1.9-0.4,2.9-0.3,4,1.5c3.3,4.9,14.3,20.1,12.7,29.9c-1.9,11.6-16.5,23.8-24.8,24.8  S2268.091,2248.092,2268.091,2235.492z M2284.591,2292.092c-5.3-6.8-2.9-17.6,6.5-23.1c1.2-0.7,2.8-0.3,3.6,0.9  c6.2,9.6,2.9,19.2-6.6,23.1C2286.891,2293.492,2285.491,2293.092,2284.591,2292.092z M2284.191,2412.392c13.8-1,10.4,26.4,0,32.7  C2273.891,2451.392,2264.591,2413.792,2284.191,2412.392z M2305.591,2500.892c-11.8,15.3-40.5-29.4-24.3-50.1c0.5-0.6,1.2-1,1.9-1.1  c4.6-0.4,8-3.6,9.7-5.5c0.8-0.9,2-1,3-0.4C2315.891,2456.092,2315.791,2483.092,2305.591,2500.892z M2296.291,2396.492  L2296.291,2396.492L2296.291,2396.492L2296.291,2396.492c0.1-0.1,19.9-8.4,20-8.4l0,0l0,0c1.4,4.5,0.8,9.8-2.2,14.3  c-0.6,0.9-1.7,1.4-2.7,1.3C2303.991,2403.092,2298.991,2400.192,2296.291,2396.492z M2321.191,2401.192c16.4-4.8,45.6,5.3,36.2,40.9  c-1,3.7-4.7,5.9-8.4,5.3C2302.791,2439.192,2314.591,2404.592,2321.191,2401.192z M2360.391,2534.092c-14.2-4.4-28.1-21.8-36.9-49.3  c-0.6-1.7-0.7-3.6-0.4-5.4c1.2-7.5,1.5-17.6-1.4-34.1c-0.2-0.9,0.9-1.6,1.7-1.1c4.5,3,15.2,9.5,24.7,9.2c1.1,0,2.1,0.6,2.5,1.6  c3.5,8.5,14.6,21.4,24.5,26.7c0.2,0.1,0.4,0.2,0.5,0.4c8.9,7.6,6.6,42.3-8.1,51.2  C2365.391,2534.492,2362.791,2534.792,2360.391,2534.092z M2411.191,2472.192c-13.4,10.8-45.3-1.6-52.7-19.3  c-0.5-1.2-0.1-2.5,0.8-3.3c3.4-2.9,9.9-9.7,8.7-23.4c-0.1-1.3,0.8-2.5,2.1-2.6c17.9-2.1,40.4,21.7,42.7,44.8  C2412.991,2469.792,2412.391,2471.292,2411.191,2472.192z M2413.991,2405.392c-25.9,14.8-54.7-6.7-49.7-29c0.2-0.7,0.5-1.3,1.1-1.7  c14.7-11,47.6,6.1,51.4,24.5C2417.391,2401.592,2416.191,2404.192,2413.991,2405.392z M2414.891,2380.992  c-4.3-5.2-9.4-10.5-16.8-13.9c-1-0.5-0.9-2,0.2-2.3c6.7-1.7,20.5-5.6,23.1-9.5c1.5-2.3,0.3-6.4-1.6-11.1c-0.5-1.1,0.3-2.4,1.5-2.5  c20.9-1.7,44,5.6,50.7,29.9c0.4,1.6,0,3.2-1,4.5c-12.1,13.6-41.8,10.2-53.5,6.7  C2416.491,2382.492,2415.591,2381.892,2414.891,2380.992z" style="fill:#D6293A;"/>
	<path d="M3849.776,1688.773c-0.081-0.094-0.132-0.208-0.15-0.331l-0.079-0.189  c-1.441-0.102-1.189-1.008-0.945-1.913c-0.724-1.386-2.622-4.197-2.646-4.346c-0.024-0.15-0.354-0.055-0.496,0.087  c-2.85,2.811-17.258,20.234-27.36,32.517c-0.038,0.053-0.08,0.103-0.126,0.15c-1.189,1.457-2.362,2.834-3.377,4.11l0.047,0.26  h-0.236c-1.323,1.575-3.385,3.787-3.346,3.559c0.039-0.228-0.402,0.181-0.449,1.055c-1.661,2.023-2.661,3.228-2.653,3.212  c-1.433,18.25-88.181-14.259-45.075,12.361c0.835,0.622,1.625,1.303,2.362,2.039c3.371,2.782,6.922,5.338,10.629,7.653  c9.338,5.858,23.699,4.299,23.722,4.283c3.283-1.858,17.518-4.33,19.4-6.952v-0.094h0.378l0.047-0.504  c8.834-12.432,19.227-30.013,25.502-43.689l3.866-9.448c0.446-1.297,0.816-2.506,1.11-3.63  C3849.854,1688.904,3849.812,1688.84,3849.776,1688.773z" style="fill:#0DCC5A;"/>
	<path d="M1481.828,1209.07l-31.587-3.861c0,0-4.373,3.209-9.109,10.622  c-4.271,6.685-4.271,13.677-4.271,13.677l45.385,30.345c3.719-9.709,9.312-18.574,16.371-26.209L1481.828,1209.07z" style="fill:#161616;"/>
	<path d="M3857.241,291.499l-171.83,122.21v360h342v-359.68  L3857.241,291.499z M3710.021,606.279h-5.4v-21.6h5.4V606.279z M3774.661,378.409l17.82-12.21l3.05,4.45l-17.82,12.21  L3774.661,378.409z M3873.951,751.449h-21.6v-5.4h21.6V751.449z M3936.121,382.419l-17.81-12.2l3.05-4.46l17.82,12.21  L3936.121,382.419z M4005.511,606.279h-5.4v-21.6h5.4V606.279z" style="fill:#F2F2F2;stroke:#231F20;stroke-miterlimit:10;"/>
	<path d="M3141.989,1461.267h-136.726c-6.539,0-11.839,5.3-11.839,11.839v480.322  c0,6.539,5.3,11.839,11.839,11.839h136.727c6.539,0,11.839-5.301,11.839-11.839v-480.322  C3153.828,1466.567,3148.528,1461.267,3141.989,1461.267z M3119.697,1517.866h7.768v12.541h-7.768V1517.866z M3119.697,1549.777  h7.768v12.541h-7.768V1549.777z M3119.54,1565.478h7.768v12.541h-7.768V1565.478z M3127.435,1581.18v12.541h-7.768v-12.541H3127.435  z M3119.54,1614.591h7.768v12.541h-7.768V1614.591z M3119.54,1679.261h7.768v12.541h-7.768V1679.261z M3119.54,1695.471h7.768  v12.541h-7.768V1695.471z M3107.099,1871.742v-12.541h7.768v12.541H3107.099z M3114.866,1874.902v23.896h-7.768v-23.896H3114.866z   M3107.099,1823.357v-12.541h7.768v12.541H3107.099L3107.099,1823.357z M3107.099,1740.764v-12.541h7.768v12.541H3107.099  L3107.099,1740.764z M3114.866,1744.433v12.541h-7.768v-12.541L3114.866,1744.433L3114.866,1744.433z M3106.844,1630.292h7.768  v12.541h-7.768V1630.292z M3106.844,1663.56h7.768v12.541h-7.768V1663.56z M3106.844,1761.27h7.768v12.541h-7.768V1761.27z   M3106.844,1776.972h7.768v12.541h-7.768V1776.972z M3094.651,1533.567h7.768v12.541h-7.768V1533.567z M3094.621,1581.18h7.768  v12.541h-7.768V1581.18z M3094.494,1663.56h7.768v12.541h-7.768V1663.56z M3082.245,1855.268v-12.541h7.768v12.541H3082.245z   M3090.013,1859.201v12.541h-7.768v-12.541H3090.013L3090.013,1859.201z M3082.148,1549.777h7.768v12.541h-7.768V1549.777z   M3090.013,1744.433v12.541h-7.768v-12.541L3090.013,1744.433L3090.013,1744.433z M3081.991,1614.591h7.768v12.541h-7.768V1614.591z   M3081.991,1646.502h7.768v12.541h-7.768V1646.502z M3081.991,1695.471h7.768v12.541h-7.768V1695.471z M3081.991,1761.27h7.768  v12.541h-7.768V1761.27z M3081.991,1793.181h7.768v12.541h-7.768V1793.181z M3069.742,1740.764v-12.541h7.768v12.541H3069.742  L3069.742,1740.764z M3077.51,1744.433v12.541h-7.768v-12.541L3077.51,1744.433L3077.51,1744.433z M3069.742,1725.062v-12.541h7.768  v12.541H3069.742z M3069.615,1549.777h7.768v12.541h-7.768V1549.777z M3069.615,1565.478h7.768v12.541h-7.768V1565.478z   M3069.488,1614.591h7.768v12.541h-7.768V1614.591z M3069.488,1630.292h7.768v12.541h-7.768V1630.292z M3069.488,1679.261h7.768  v12.541h-7.768V1679.261z M3069.488,1776.972h7.768v12.541h-7.768V1776.972z M3077.51,1842.727v12.541h-7.768v-12.541H3077.51  L3077.51,1842.727z M3057.032,1823.357v-12.541h7.768v12.541H3057.032L3057.032,1823.357z M3064.799,1874.902v23.896h-7.768v-23.896  H3064.799z M3056.934,1517.866h7.768v12.541h-7.768V1517.866z M3064.799,1728.223v12.541h-7.768v-12.541H3064.799z   M3056.905,1581.18h7.768v12.541h-7.768V1581.18z M3056.777,1630.292h7.768v12.541h-7.768V1630.292z M3056.777,1646.502h7.768  v12.541h-7.768V1646.502z M3056.777,1776.972h7.768v12.541h-7.768V1776.972z M3044.337,1533.567h7.768v12.541h-7.768V1533.567z   M3044.337,1549.777h7.768v12.541h-7.768V1549.777z M3031.681,1565.478h7.768v12.541h-7.768V1565.478z M3039.576,1712.521v12.541  h-7.768v-12.541L3039.576,1712.521L3039.576,1712.521z M3031.554,1630.292h7.768v12.541h-7.768V1630.292z M3031.554,1663.56h7.768  v12.541h-7.768V1663.56z M3031.554,1679.261h7.768v12.541h-7.768V1679.261z M3031.554,1761.27h7.768v12.541h-7.768V1761.27z   M3039.576,1859.201v12.541h-7.768v-12.541H3039.576L3039.576,1859.201z M3019.084,1517.866h7.768v12.541h-7.768V1517.866z   M3019.054,1581.18h7.768v12.541h-7.768V1581.18z M3018.927,1614.591h7.768v12.541h-7.768V1614.591z M3018.927,1646.502h7.768  v12.541h-7.768V1646.502z M3018.927,1679.261h7.768v12.541h-7.768V1679.261z M3018.927,1793.181h7.768v12.541h-7.768V1793.181z   M3026.949,1898.798h-7.768v-23.896h7.768V1898.798z M3026.949,1823.357h-7.768v-12.541h7.768V1823.357z M3026.949,1740.764h-7.768  v-12.541h7.768V1740.764z M3042.961,1941.999h-13.188v-24.983h13.188V1941.999z M3043.926,1596.881h7.768v14.549h-7.768V1596.881z   M3051.948,1695.471v12.541h-7.768v-12.541H3051.948z M3044.18,1793.181h7.768v12.541h-7.768V1793.181z M3052.202,1855.268h-7.768  v-12.541h7.768V1855.268z M3052.202,1839.058h-7.768v-12.541h7.768V1839.058z M3052.202,1725.062h-7.768v-12.541h7.768V1725.062z   M3091.659,1941.999h-37.024v-24.983h37.024V1941.999z M3094.494,1776.972h7.768v12.541h-7.768V1776.972z M3102.516,1898.798h-7.768  v-23.896h7.768V1898.798z M3102.516,1839.058h-7.768v-12.541h7.768V1839.058z M3102.516,1756.974h-7.768v-12.541h7.768V1756.974z   M3102.516,1740.764h-7.768v-12.541h7.768V1740.764z M3102.516,1725.062h-7.768v-12.541h7.768V1725.062z M3116.376,1941.999h-13.188  v-24.983h13.188V1941.999z M3119.54,1761.27h7.768v12.541h-7.768V1761.27z M3127.562,1871.742h-7.768v-12.541h7.768V1871.742z   M3127.562,1855.268h-7.768v-12.541h7.768V1855.268z M3127.562,1823.357h-7.768v-12.541h7.768V1823.357z M3127.562,1740.764h-7.768  v-12.541h7.768V1740.764z" style="fill:#0A0A0A;"/>
	<path d="M2808.083,1276.7c-9.516,0-17.231,7.714-17.231,17.231c0,7.358,4.62,13.621,11.11,16.092  c-0.755,2.957-2.53,7.839-6.697,13.462c-6.822,9.206-25.584,13.426-25.584,13.426s5.97,2.526,13.218,6.166  c1.363,0.684,2.664,1.541,3.877,2.48c1.729-0.645,3.63-1.003,5.628-1.003c1.625,0,3.18,0.247,4.637,0.682  c0.526-3.588,1.142-7.616,1.743-11.137c0.408-2.392,0.809-4.551,1.17-6.174c1.325-5.961,5.734-13.648,7.638-16.786  c0.164,0.005,0.324,0.025,0.489,0.025c9.516,0,17.231-7.715,17.231-17.231S2817.599,1276.7,2808.083,1276.7z" style="fill:#BF1682;"/>
	<path d="M1550.05,2345.808c-9.398,0-17.017,9.06-17.017,20.236s7.619,20.236,17.017,20.236  c9.398,0,17.017-9.06,17.017-20.236S1559.448,2345.808,1550.05,2345.808z" style="fill:#BF1682;"/>
	<path d="M1476.986,1709.608c-3.923-7.209-11.65-12.118-20.552-12.118c-0.453,0-0.895,0.041-1.342,0.067  c-3.34,0.187-6.489,1.053-9.306,2.48c-2.859,1.448-5.372,3.46-7.392,5.884c-3.284,3.94-5.259,8.972-5.259,14.464  c0,6.301,2.592,12.005,6.783,16.144c0.568,0.561,1.17,1.087,1.793,1.588l25.196-1.127c-1.234-2.642-1.943-5.577-1.943-8.685  C1464.965,1719.997,1469.898,1712.857,1476.986,1709.608z" style="fill:#BF1682;"/>
	<rect height="21.6" style="fill:#F79514;stroke:#231F20;stroke-miterlimit:10;" transform="matrix(6.123234e-17 -1 1 6.123234e-17 -620.4389 2987.9468)" width="5.4" x="1181.054" y="1793.393"/>
	<path d="M1526.661,1197.442l1.089,1.602l-7.34-45.057c0,0,5.947-7.136,11.893-8.92  c0.331-0.099,0.674-0.178,1.02-0.247l-34.32-54.428c0,0-4.46-1.156-8.028,0c-3.568,1.156-6.244,7.103-6.244,7.103l28.686,93.292  l2.22,7.221C1521.431,1196.38,1526.661,1197.442,1526.661,1197.442z" style="fill:#161616;"/>
	<path d="M3747.013,1795.748c-4.606-1.488-12.967-3.937-15.29-8.149  c-37.201-67.089-32.501-36.635-41.603-7.574c-4.606,14.707-8.377,29.218-6.393,34.296c2.244,3.748,53.177-5.157,61.546-5.826  c0.359-0.22,0.795-0.275,1.197-0.15c0.31-0.057,0.623-0.093,0.937-0.11l-0.189-0.039  C3748.187,1807.574,3750.178,1797.992,3747.013,1795.748z" style="fill:#0DCC5A;"/>
	<path d="M2482.917,1451.802c-11.247-27.963-31.391-64.191-60.438-64.823  c-33.028-0.718-48.998,21.396-56.712,42.148c4.212-0.243,8.673-0.231,13.433,0.101c88.619,6.183,85.528,116.442,85.528,116.442  h11.335C2476.062,1545.67,2470.277,1494.322,2482.917,1451.802z" style="fill:#F464BA;"/>
	<path d="M3854.689,1595.703c-5.96-11.125-18.565-24.455-33.068-37.572l-0.425-0.402  c-3.622-3.393-5.637-6.582-6.677-9.542c-0.047-0.134-0.102-0.276-0.142-0.409c-1.378-4.275-0.787-8.047,0-11.204  c0.559-2.456,1.165-4.527,0.921-6.173c0,0,0-0.039,0-0.055l0,0c0-0.134-0.047-0.26-0.079-0.386l-0.047-0.15  c-0.036-0.124-0.081-0.245-0.134-0.362l0,0v-0.055c-0.066-0.133-0.139-0.262-0.221-0.386l-0.079-0.118  c-0.071-0.102-0.15-0.197-0.236-0.299l-0.063-0.071l0,0c-0.116-0.121-0.24-0.234-0.37-0.339l0,0l-0.079-0.055  c-0.115-0.092-0.236-0.176-0.362-0.252h-0.047l-0.071-0.047l-0.551-0.283l-0.134-0.055l-0.535-0.213l-0.157-0.055l0,0  c-0.236-0.079-0.48-0.157-0.787-0.228h-0.11c-0.236-0.063-0.496-0.118-0.787-0.173l-0.268-0.055l-0.976-0.165  c-3.362-0.48-8.417-0.52-15.896-0.079c-1.116,0.417-2.323,0.528-3.496,0.323c0.283,0.126-1.433,0.543-4.071,1.118  c-2.451,0.595-4.827,1.461-7.086,2.582c-6.865,3.299-13.526,8.503-14.668,11.023c-5.244,11.731-15.51,34.013-22.471,49.382  c0.04,0.228-4.503,9.983-5.039,11.212c-1.575,3.574-2.362,5.566-2.063,5.149c3.149,3.008,7.511,3.637,12.487,2.921  c1.766-0.265,3.512-0.646,5.228-1.142c4.847-2.286,9.874-4.169,15.03-5.629l4.425-1.866c4.663-2.078,9.474-3.807,14.393-5.173  c2.065-0.579,4.254-0.544,6.299,0.102c7.621,2.551,10.7,14.392,13.204,25.084c7.747,8.755,12.731,2.401,18.053,2.89  C3857.492,1627.503,3863.373,1611.89,3854.689,1595.703z" style="fill:#0DCC5A;"/>
	<path d="M2260.605,1290.16c-0.467-0.079-0.943-0.129-1.433-0.129c-0.567,0-1.121,0.058-1.657,0.164v6.774  h-6.742c-0.101,0.525-0.158,1.065-0.158,1.619c0,0.503,0.052,0.992,0.135,1.471h6.764v6.923c0.537,0.105,1.09,0.164,1.657,0.164  c0.489,0,0.966-0.05,1.433-0.129v-6.957h6.99c0.083-0.479,0.135-0.968,0.135-1.471c0-0.554-0.057-1.095-0.158-1.619h-6.967V1290.16z  " style="fill:#2D88E2;"/>
	<path d="M1494.649,1679.504c2.392,1.382,4.478,3.122,6.215,5.108c3.217-4.871,8.108-8.504,13.889-9.954  c-0.869-7.933-7.284-14.096-15.08-14.096c-5.528,0-10.351,3.108-13.008,7.738c-1.31,2.284-2.09,4.934-2.16,7.776  C1488.209,1676.577,1491.65,1677.772,1494.649,1679.504z" style="fill:#BF1682;"/>
	<path d="M2426.891,2334.592c35.1-7.4,50.5-33.3,52-45.4c0.1-0.8-0.1-1.6-0.6-2.2c-10.9-15.4-46-10.3-62.7-3.5  c-0.7,0.3-1.3-0.7-0.7-1.2c38-33.6,2-54.4-37.5-37.4c35-52.5,6.4-80.3-46.1-37.5c2.1-18.9-3.1-49.3-25-62.7  c-0.8-0.5-1.8-0.7-2.7-0.6c-24.3,3.3-38.6,25.1-42,63.3c-16.1-26.7-26.7-33.2-34.7-32.6c-2.4,0.2-4.6,1.5-6,3.5  c-7,10.6-9.5,19.1-5.7,41.1c0.3,1.8-1.9,2.8-3.1,1.5c-15.8-19-46-27-64.4-11.2c-0.7,0.6-1.2,1.4-1.5,2.4  c-6.6,25.9,11.2,48.3,20.5,53.4c0.4,0.2,0.3,0.9-0.2,0.9c-20.6,0.5-27.8,9.1-31.3,15.3c-0.8,1.4-1.1,3.1-0.8,4.7  c1.3,6.7,7.8,17.1,13.8,23.9c0.3,0.4-0.1,0.9-0.5,0.6c-18.1-10.9-56-7.9-67.1,19.7c-0.8,1.9-0.8,4.1,0,6c10.7,25.5,42.5,27,55.9,27  c1.2,0,1.6,1.5,0.6,2.1c-11,7.5-19.1,21.9-15.8,29c8.4,12.7,41.9,8.8,55.5,2.4c0.7-0.4,1.5,0.5,1,1.2c-2.5,3.4-5.1,8.2-5.4,14.8  c-0.1,2.4-1.9,4.4-4.2,5c-17.5,4-40.1,20.3-33,56.7c0.3,1.5,1.5,2.7,3.1,3c29.6,4.7,54.1-10.1,62.8-29.4c0.4-0.9,1.8-0.6,1.8,0.4  c-0.4,14.3,2.3,22,4.3,25.8c0.9,1.7,0.9,3.6,0,5.3c-10.6,20.3-9.4,61.7,20.8,62.3c0.8,0,1.7-0.2,2.4-0.6  c20.8-12.1,35.1-36.1,39.7-51.2c0.5-1.8,2.9-2,3.8-0.4c8.8,15.9,23.9,21.7,29.6,20.5c4.9-1.1,10-8,13-14.8c0.6-1.4,2.7-1.2,3.1,0.3  c5.8,23,29.5,49.3,46.6,46.3c17.1-3,27-33.2,21.4-51.1c-0.6-1.9,1-3.9,3-3.6c12.8,1.4,22.3-6.7,25.9-10.3c1-1,1.6-2.3,1.7-3.7  c2.1-27.1-10.7-43-19.6-51c-1.2-1.1-0.6-3.2,1.1-3.3c13.8-1.5,20.9-7,23.7-9.9c1-1,1.5-2.4,1.4-3.8c-0.5-7-2.7-11.9-4.2-14.6  c-0.5-0.8,0.3-1.7,1.2-1.4c22.3,8.4,45.7,3.2,57-11.1c0.8-1,1.2-2.4,1.1-3.7c-3-24.8-21.8-37.2-53.1-38.7  C2426.291,2335.692,2426.291,2334.692,2426.891,2334.592z M2468.991,2286.292c1.9,0.6,2.9,2.8,2,4.6c-23.3,48.6-72,40.5-83.1,31.4  c-1.3-1-1.8-2.7-1.2-4.3c0.6-1.7,1.3-4.4,1.3-7.8c0-0.8,0.2-1.6,0.8-2.2C2415.091,2278.892,2450.191,2280.192,2468.991,2286.292z   M2321.191,2310.892l-5.5-4.4c1.1-5.5,10.9-12.2,21.4-12.8c1.4-0.1,2.6,1.2,2.3,2.6  C2338.191,2302.192,2327.791,2309.492,2321.191,2310.892l-0.8-0.7C2320.591,2310.492,2320.891,2310.692,2321.191,2310.892z   M2335.791,2335.392L2335.791,2335.392c7.6,1.8,11.4,10.8,1.5,10.9L2335.791,2335.392L2335.791,2335.392L2335.791,2335.392z   M2335.691,2360.092c13.9-4.5,23.1,6.6,22.3,19.6c-0.1,1.6-1.1,3-2.5,3.6c-13.6,5.8-24.4,1.7-27.7-6.4L2335.691,2360.092z   M2345.991,2310.792c-2.5-16.6,32.8-18,36.3,0.7c0.2,1.1,0,2.2-0.5,3.1C2373.491,2329.192,2349.391,2324.492,2345.991,2310.792z   M2364.791,2341.092c0.1-0.7,0.3-1.3,0.7-1.9c9.9-14,43.8-10.2,50.6,9.6c0.3,2.1-0.8,4.8-2.8,5.6c-6.2,2.3-19,7.2-27.3,5.7  C2374.791,2358.192,2362.991,2353.692,2364.791,2341.092z M2422.091,2254.092c-7,30.8-35.8,42.9-62.1,32.4c-1-0.4-1.7-1.4-1.8-2.5  c-2-29.3,41.9-46.4,61.8-34.7C2421.691,2250.292,2422.491,2252.192,2422.091,2254.092z M2384.891,2197.192  c5.5,11.7-5.2,46.7-28.6,51.8c-1.3,0.3-2.7-0.4-3.4-1.6c-2.4-4.3-11.8-3.7-17.8-2.5c-1.3,0.3-2.6-0.5-3-1.8  c-9.2-29.9,20.8-49.2,48.6-48.6C2382.491,2194.492,2384.091,2195.492,2384.891,2197.192z M2347.491,2250.492  c0.9,0.5,1.4,1.4,1.5,2.4c1.7,24.9-10.5,34.8-21.5,28.8C2305.391,2264.292,2335.891,2243.492,2347.491,2250.492z M2304.791,2150.192  c22.8,13.3,17.8,44.1,9.3,60.6c-0.9,1.7-3.1,2-4.4,0.7c-10-10-11.9-11.1-24.2-6c-1.4,0.6-3,0-3.7-1.4c-15.3-31.2,8-52.7,20.5-54.4  C2303.091,2149.592,2303.991,2149.792,2304.791,2150.192z M2228.691,2180.492c13,3.3,41,38.9,26.1,65.9c-0.5,1-1.6,1.6-2.8,1.4  c-4.5-0.7-6.5,0.5-8.8,3.3c-1,1.2-2.7,1.4-3.9,0.4c-9-7.2-30.6-39.2-14.9-69.1  C2225.191,2180.892,2226.991,2180.092,2228.691,2180.492z M2240.891,2364.792L2240.891,2364.792L2240.891,2364.792  c0.1,0,4.7,9.4,4.7,9.5l0,0l0,0c-3.7,1-7.4,0.9-7.8-0.3C2237.291,2372.292,2238.091,2367.592,2240.891,2364.792L2240.891,2364.792z   M2243.891,2299.792c4.5-0.5,9.1,5,10.5,10.6l-9.1,10.7c-5.3-2.6-8.6-12.4-3.8-19.9  C2242.091,2300.492,2242.991,2299.892,2243.891,2299.792z M2237.891,2345.892c0-0.1,0-0.1,0-0.2V2345.892  c-4.7,4.9-12.1,0.3-14.5-5.7c-0.6-1.5,0.1-3.2,1.5-3.9c3.9-1.9,11-2.1,14.1,0.6  C2238.791,2338.192,2237.991,2344.692,2237.891,2345.892z M2197.991,2257.792c0.5-2.4,3-4.4,5.4-4.4c23.3-0.2,32.5,11.6,23.9,38  c-0.3,1-1.1,1.7-2.2,2C2211.791,2296.492,2189.791,2296.192,2197.991,2257.792z M2215.591,2329.792c-12.1,5-20.1-8.7-18.3-19.8  c0.2-1.1,1.2-2,2.3-2.1c12.5-0.9,25.8,9.5,17.4,20.8C2216.591,2329.192,2216.091,2329.592,2215.591,2329.792z M2208.891,2348.592  c-12.6,15.9-35,16.3-47.2,0.2c-1.3-1.7-1.4-4.1-0.3-6c10.4-16.5,47.3-19.1,48.3,3.5  C2209.691,2347.092,2209.391,2347.892,2208.891,2348.592z M2196.691,2376.492c2-5.5,23-20.7,30.1-2.6c0.3,0.7,0.2,1.5-0.1,2.2  C2221.591,2387.292,2194.791,2381.892,2196.691,2376.492z M2152.991,2213.092c30.2-20.6,65.1,10.8,64.8,30.3c0,1.4-1.2,2.5-2.6,2.3  c-7.3-1-17.7,1.5-18.8,2.5c-1.1,0.9-3,2.7-4.9,9.8c-0.3,1.2-1.5,1.9-2.7,1.8c-29.5-4.4-42.6-33.8-37.1-44.9  C2151.891,2213.992,2152.391,2213.492,2152.991,2213.092z M2144.291,2281.392c18.9-14.7,53.1-8.7,51.1,18.3c-0.1,1-0.6,2-1.5,2.5  c-16,10.6-44.9,7.4-51.4-15.6C2141.991,2284.592,2142.691,2282.592,2144.291,2281.392z M2085.891,2329.592  c11.2-18.3,52.9-25.5,77.8,2.4c0.5,0.6,0.5,1.5-0.1,2.1c-10.2,9.3-9.3,12.1-7.2,15.5c0.4,0.6,0.1,1.4-0.5,1.7  c-16.4,7-49.2,13.7-69.7-15.2C2084.691,2334.192,2084.691,2331.592,2085.891,2329.592z M2128.991,2394.092c-2.2-1.2-2.9-4-1.6-6.2  c23.5-35.5,52.6-19.2,56.8-10.3c0.2,0.4,0.3,0.9,0.3,1.3C2183.491,2394.892,2148.091,2404.492,2128.991,2394.092z   M2143.591,2474.092c-1.9,0.1-3.5-1.2-4-3c-6.2-21.7,12.5-47.1,33.1-49.6c0.9-0.1,1.8,0.4,2.2,1.2c3.3,6,11.5,5.9,15.1,5.5  c1-0.1,1.9,0.6,2.1,1.5C2194.691,2444.092,2186.491,2472.792,2143.591,2474.092z M2182.591,2422.292c-1.2-0.4-2-1.5-2.1-2.8  c-0.9-28,16.7-31,33.4-20.5c0.5,0.3,1,0.9,1.1,1.5C2217.091,2408.192,2198.791,2427.392,2182.591,2422.292z M2227.391,2536.892  c-15.3,2.3-29.7-22.6-15.9-53.8c0.5-1.2,2-1.6,3.1-0.8c8.5,6.1,17.2,1.1,25.1-7.6c0.9-1,2.4-0.9,3.2,0.2  C2253.291,2488.692,2242.691,2531.292,2227.391,2536.892z M2226.791,2475.592c-3.5,2.4-8.2,1.6-10.7-1.8  c-13.9-19.3,0-41.7,15.5-47.8c0.8-0.3,1.6-0.2,2.3,0.3c1.6,1.1,5.4,2.8,11.2,0.2c1.2-0.5,2.7-0.1,3.4,1.1  C2254.791,2438.192,2245.991,2462.192,2226.791,2475.592z M2241.191,2422.692c-2.1,0.5-4.3-0.5-5.4-2.4  c-10.6-17.7,3.6-40.9,19.6-28.1C2262.791,2398.092,2257.391,2418.792,2241.191,2422.692z M2254.091,2291.992  c-18.6,0.1-20.6-25.1-6.9-39.5c0.6-0.6,1.8-1.1,2.6-1.1C2264.191,2251.392,2284.491,2291.992,2254.091,2291.992z M2268.091,2235.492  c0-12.5,5.4-22.9,26.5-27.6c1.9-0.4,2.9-0.3,4,1.5c3.3,4.9,14.3,20.1,12.7,29.9c-1.9,11.6-16.5,23.8-24.8,24.8  S2268.091,2248.092,2268.091,2235.492z M2284.591,2292.092c-5.3-6.8-2.9-17.6,6.5-23.1c1.2-0.7,2.8-0.3,3.6,0.9  c6.2,9.6,2.9,19.2-6.6,23.1C2286.891,2293.492,2285.491,2293.092,2284.591,2292.092z M2284.191,2412.392c13.8-1,10.4,26.4,0,32.7  C2273.891,2451.392,2264.591,2413.792,2284.191,2412.392z M2305.591,2500.892c-11.8,15.3-40.5-29.4-24.3-50.1c0.5-0.6,1.2-1,1.9-1.1  c4.6-0.4,8-3.6,9.7-5.5c0.8-0.9,2-1,3-0.4C2315.891,2456.092,2315.791,2483.092,2305.591,2500.892z M2296.291,2396.492  L2296.291,2396.492L2296.291,2396.492L2296.291,2396.492c0.1-0.1,19.9-8.4,20-8.4l0,0l0,0c1.4,4.5,0.8,9.8-2.2,14.3  c-0.6,0.9-1.7,1.4-2.7,1.3C2303.991,2403.092,2298.991,2400.192,2296.291,2396.492z M2321.191,2401.192c16.4-4.8,45.6,5.3,36.2,40.9  c-1,3.7-4.7,5.9-8.4,5.3C2302.791,2439.192,2314.591,2404.592,2321.191,2401.192z M2360.391,2534.092c-14.2-4.4-28.1-21.8-36.9-49.3  c-0.6-1.7-0.7-3.6-0.4-5.4c1.2-7.5,1.5-17.6-1.4-34.1c-0.2-0.9,0.9-1.6,1.7-1.1c4.5,3,15.2,9.5,24.7,9.2c1.1,0,2.1,0.6,2.5,1.6  c3.5,8.5,14.6,21.4,24.5,26.7c0.2,0.1,0.4,0.2,0.5,0.4c8.9,7.6,6.6,42.3-8.1,51.2  C2365.391,2534.492,2362.791,2534.792,2360.391,2534.092z M2411.191,2472.192c-13.4,10.8-45.3-1.6-52.7-19.3  c-0.5-1.2-0.1-2.5,0.8-3.3c3.4-2.9,9.9-9.7,8.7-23.4c-0.1-1.3,0.8-2.5,2.1-2.6c17.9-2.1,40.4,21.7,42.7,44.8  C2412.991,2469.792,2412.391,2471.292,2411.191,2472.192z M2413.991,2405.392c-25.9,14.8-54.7-6.7-49.7-29c0.2-0.7,0.5-1.3,1.1-1.7  c14.7-11,47.6,6.1,51.4,24.5C2417.391,2401.592,2416.191,2404.192,2413.991,2405.392z M2414.891,2380.992  c-4.3-5.2-9.4-10.5-16.8-13.9c-1-0.5-0.9-2,0.2-2.3c6.7-1.7,20.5-5.6,23.1-9.5c1.5-2.3,0.3-6.4-1.6-11.1c-0.5-1.1,0.3-2.4,1.5-2.5  c20.9-1.7,44,5.6,50.7,29.9c0.4,1.6,0,3.2-1,4.5c-12.1,13.6-41.8,10.2-53.5,6.7  C2416.491,2382.492,2415.591,2381.892,2414.891,2380.992z" style="fill:#D6293A;"/>
	<path d="M2260.605,1290.16c-0.467-0.079-0.943-0.129-1.433-0.129c-0.567,0-1.121,0.058-1.657,0.164v6.774  h-6.742c-0.101,0.525-0.158,1.065-0.158,1.619c0,0.503,0.052,0.992,0.135,1.471h6.764v6.923c0.537,0.105,1.09,0.164,1.657,0.164  c0.489,0,0.966-0.05,1.433-0.129v-6.957h6.99c0.083-0.479,0.135-0.968,0.135-1.471c0-0.554-0.057-1.095-0.158-1.619h-6.967V1290.16z  " style="fill:#2D88E2;"/>
	<rect height="21.6" style="fill:#F79514;stroke:#231F20;stroke-miterlimit:10;" transform="matrix(6.123234e-17 -1 1 6.123234e-17 -1689.3531 2642.4512)" width="29.183" x="461.958" y="2155.102"/>
	<path d="M2277.184,1375.645c0,0,1.03-19.579,25.761-19.579s32.975,13.231,32.975,13.231L2277.184,1375.645z" style="fill:#BF1682;"/>
	<path d="M2685.53,1420.841c-5.684-16.631-15.264-34.413-30.168-33.861  c-17.785,0.659-29.556,19.033-37.35,42.544c19.48,27.362,16.741,61.532,16.741,61.532h9.274  C2644.027,1491.056,2637.521,1422.168,2685.53,1420.841z" style="fill:#F464BA;"/>
	<path d="M3676.25,2382.265c16.554-29.365,43.991-95.215,40.788-98.201c-1.448-1.35-4.539,0.273-6.559,1.417  c-1.033,0.584-2.207,0.862-3.392,0.798l-6.975,0.306c-0.962,0.042-1.604-0.98-1.148-1.828l7.089-13.188  c0.012-0.024,0.024-0.048,0.036-0.072c40.891-89.973,70.97-113.745,101.431-136.113c0.096-0.071,0.18-0.154,0.251-0.25  c3.867-5.19,10.961-11.11,17.453-19.268c6.748-8.192,12.883-12.24,19.196-9.387c6.316,2.906,12.455,4.874,19.206,8.832  c5.88,3.065,12.251,13.456,16.271,26.532c0.016,0.044,0.032,0.089,0.049,0.133c4.064,9.537,15.24,16.889,22.578,30.145  c3.877,7.004,0.513,11.502-0.698,12.108c-2.381,0.724-3.206-5.993-6.761-10.579c-2.907-3.75-7.774-5.709-16.215-7.668  c-0.09-0.011-0.183-0.023-0.273-0.035c-17.537-0.441-26.334,6.638-29.612,14.172c-5.748,13.213-14.061,50.411-38.563,78.369  l0.003-0.003l2.021,2.097c0.118,0.122,0.309,0.125,0.436,0.011c6.321-5.693,18.736,0.064,18.736,8.818  c-2.492-3.383-7.422-7.331-11.627-5.977c-0.489,0.158-0.579,0.817-0.165,1.122c6.66,4.905,7.509,11.092,5.415,18.272  c-2.603-9.579-6.592-13.923-10.444-14.131s-7.357,8.271-3.785,10.978c-7.944-4.341-4.284-13.951-1.509-16.039  c0.138-0.104,0.157-0.304,0.051-0.441l-1.572-2.021c-9.941,10.624-22.39,19.692-38.16,25.243c-0.033,0.013-0.066,0.026-0.099,0.039  c-2.385,1.053-4.86,2.678-7.378,4.762l0.887,11.962c0.013,0.173,0.123,0.321,0.283,0.388c7.035,2.939,10.726,11.418,10.843,16.787  c-0.001,0-0.001,0-0.001,0c-5.316-6.261-9.805-9.805-12.404-9.096c-2.599,0.709-8.757,1.065-8.537,14.516  c-0.001,0-0.001,0-0.002,0.001c-7.546-7.648-1.72-13.732,2.415-18.541c0.264-0.307,0.119-0.78-0.269-0.898  c-1.287-0.391-3.319-0.735-6.468-0.72c-16.154,21.313-30.907,53.514-32.503,68.029c-0.253,2.296-1.945,4.169-4.204,4.652  l-33.725,7.219C3676.774,2385.914,3675.313,2383.927,3676.25,2382.265z M3821.839,2162.578c4.729,4.837,12.273,6,20.99,2.863  c24.374-9.072,32.532-7.802,29.03-22.658c-4.383-18.231-16.124-23.52-24.897-24.845c-8.92-1.846-17.072,6.109-20.799,19.451  c-2.887,10.081,4.089,20.558,17.064,17.077c11.092-2.972,18.805-7.912,17.043-15.515c-1.438-6.496-7.878-12.253-14.231-12.366  c-5.297-0.158-10.633,4.275-11.424,10.602c-0.473,4.049,2.208,8.672,6.112,9.131c4.446,0.515,9.616-2.325,10.8-5.87  c1.213-3.734-2.186-6.964-5.951-6.742c-1.238,0.085-2.364,0.655-3.124,1.589c-0.46,0.567-0.982,1.517-0.757,2.738  c0.012,0.065,0.066,0.19,0.158,0.317c0.241,0.321,0.809,0.095,0.89-0.206c0.296-0.967,1.197-1.74,2.266-1.84  c1.142-0.107,2.11,0.56,2.346,1.52c0.002,0,0.003-0.001,0.005-0.001c0.439,1.775-0.396,2.994-0.956,3.587  c-1.204,1.275-3.058,1.829-4.355,1.885c-3.358,0.164-4.831-1.993-5.062-3.863c-0.3-2.33,0.532-4.837,2.094-6.745  c1.689-2.058,3.978-3.199,6.435-3.254c5.238-0.083,10.205,3.892,11.071,8.869c1.005,5.574-4.591,10.326-12.475,12.247  c-9.031,2.284-15.231-3.608-13.918-11.637c1.773-10.582,8.823-17.741,15.753-17.096c9.849,0.533,18.221,6.459,21.552,18.331  c3.335,11.664-4.771,14.268-24.153,21.257c-7.439,2.521-14.168,2.001-18.813-1.811c-4.69-3.636-7.295-10.564-7.533-16.827  c-0.022-0.538-0.894-0.645-0.962-0.124C3815.071,2149.596,3817.048,2157.924,3821.839,2162.578z M3758.082,2301.709  c0.178,0.049,0.36-0.063,0.386-0.246c0.391-2.783,0.237-5.799,0.16-6.892c-2.042,2.005-4.098,4.265-6.146,6.734  C3754.252,2301.194,3756.34,2301.226,3758.082,2301.709z" style="fill:#2D88E2;"/>
	<path d="M2185.484,1316.059c0,2.705-2.193,4.898-4.898,4.898c-2.705,0-4.898-2.193-4.898-4.898  c0-2.705,2.193-4.898,4.898-4.898C2183.291,1311.161,2185.484,1313.354,2185.484,1316.059z" style="fill:#0DCC5A;"/>
	<path d="M1545.118,894.37c-1.33-1.63-4-6.98-5.93-8.76c-1.93-1.78-8.46-7.86-8.46-7.86s-0.3-10.39-0.89-11.58  c-0.6-1.19-1.64-5.05-4.16-5.94c-2.52-0.89-5.87-0.57-8.39-0.06c-2.51,0.5-16.33,3.01-18.09,3.26s-15.33,0.76-20.61,1.26  c-5.28,0.5-24.63,4.52-26.64,4.77c-2.01,0.26-31.91,2.27-34.93,1.26c-3.01-1-27.29-6.14-28.88-6.67c-1.6-0.53-17.52-5.31-19.64-6.37  c-2.13-1.06-18.58-11.15-19.91-11.95c-1.33-0.79-11.41-9.02-12.74-10.88c-1.33-1.86-8.49-6.37-9.02-7.43  c-0.54-1.06-18.58-20.97-19.65-22.03c-1.06-1.06-6.67-9.84-7.84-10.68c-1.17-0.83-7.01-4.84-7.85-5.68  c-0.83-0.83-0.83-5.68-2.33-7.51c-1.51-1.84-3.34-4.01-4.18-4.68c-0.83-0.67-0.67-3.17-0.83-3.67c-0.17-0.5-1.34-2.01-1.34-2.01  s1.5-9.18,1.5-11.19c0-2,0.17-13.86,0.34-15.69c0.16-1.84-0.34-8.85,0.33-10.19c0.67-1.34,2.01-6.51,2.01-7.85  c0-1.34,0.83-3.84,0-5.18c-0.84-1.33-1.01-1.67-0.84-2.67c0.17-1,1.17-2,1-3c-0.16-1.01-1.17-7.52-1.33-8.19  c-0.17-0.67,0.83-12.86,1.83-18.37c1.01-5.51,4.18-41.41,4.18-42.58s2-24.05,2-25.22c0-1.17,0.67-23.71,0.67-26.55  c0-2.84,0.27-9.34,0.54-9.52c0.26-0.18,1.15-2.76,1.33-3.39c0.18-0.62,0.89-9.07,0.71-10.14c-0.18-1.07-0.71-5.52-0.53-6.59  s0.66-1.53,0.66-1.53s1.25-4.34,2.71-9.96c2.05-7.89,4.52-18.31,4.52-22.86c0-7.78-0.56-24.47-7.23-30.03  c-6.68-5.56-17.28-13.03-20.22-12.66c-2.93,0.37-8.81-4.4-21.65-4.77c-12.85-0.37-45.48-7.85-55.89-7.2  c-10.41,0.65-51.39,1.3-65.05,3.25s-33.17,1.95-42.28,8.46c-9.11,6.5-16.32,17.91-16.88,20.14c-0.55,2.22-1.39,23.86,0,28.58  c1.39,4.72,3.33,20.26,3.61,22.48c0.28,2.22-4.92,167.44-4.92,171.56s-9.35,47.07-12.84,57.02c-3.48,9.95-9.44,45.76-9.94,54.71  c-0.5,8.95-0.15,28.05-0.15,30.01c0,1.95,2.94,16.46,2.94,16.46s-3.83,3.73-3.83,4.86s0.45,5.86,1.57,8.1  c1.13,2.25,30.15,69.52,30.15,69.52s6.98,4.03,11.71,5.61c4.73,1.58,7.57,1.89,12.3,2.21c4.73,0.31,81.06,0.95,83.27,0.31  c2.21-0.63,2.21-0.63,2.21-0.63l5.36-16.4l1.52-24.7c0,0,17.26,4.72,19.54,5.21c2.28,0.48,28.69,6.83,32.55,8.42  c3.85,1.59,25.88,7.27,31.55,11.35c5.68,4.09,23.16,6.13,26.79,7.04c3.63,0.91,37,3.86,40.86,3.18c3.86-0.68,16.12,0.23,19.3,0.23  s14.08-1.59,19.98-2.5c5.9-0.91,31.1-6.36,34.51-7.49c3.4-1.14,47.44-16.8,51.08-19.07c3.63-2.27,29.05-15.89,31.78-17.48  c2.72-1.59,21.57-12.49,24.97-15.44c3.41-2.95,13.62-10.44,14.3-12.03C1546.088,897.21,1546.458,896,1545.118,894.37z   M1246.938,505.46c0,0,25.79,6.16,30.41,12.8s15.02,31.76,16.17,35.08c1.16,3.32,1.16,8.53,1.16,8.53l-0.77,1.66  c0,0,0-5.21-1.16-8.53c-1.15-3.32-11.55-28.45-16.17-35.08c-4.62-6.64-30.41-12.8-30.41-12.8L1246.938,505.46z M1267.388,812.77  c5.16-4.5,6.38-10.19,6.98-18.29c0.61-8.09,0.8-32.77,0.8-41.08c0-8.3,1.05-31.66,1.57-40.48c0.53-8.82,3.59-22.78,5.58-28.17  c1.98-5.39,3.61-4.23,3.61-4.23l0.09,0.19c-0.23-0.3-0.94-0.6-2.53,3.77c-1.99,5.48-5.07,19.7-5.6,28.68  c-0.53,8.98-1.59,32.75-1.59,41.2c0,8.45-0.18,33.57-0.79,41.81c-0.61,8.24-1.83,14.04-7.02,18.62c-5.19,4.57-17.7,7.01-24.1,7.93  c-6.41,0.91-23.19,0.91-31.43,0.3s-36.56-9.05-36.56-9.05l-0.67-2c0,0,28.19,8.29,36.39,8.89c8.2,0.6,24.9,0.6,31.28-0.3  C1249.778,819.66,1262.228,817.27,1267.388,812.77z M1239.328,490.28l2.13,1.01c0,0-0.92,51.68-2.06,64.63  c-1.13,12.95-0.7,33.69-5.01,41.87c-4.32,8.17-12.89,18.67-18.4,19.99c-5.52,1.32-7.5,3.39-14.24,3.26  c-6.74-0.14-10.84,0.4-10.84,0.4l-2.12-1.02c0,0,4.09-0.54,10.83-0.4s8.72-1.94,14.24-3.25c5.52-1.32,14.09-11.82,18.4-20  c4.32-8.17,3.88-28.91,5.01-41.86C1238.408,541.95,1239.328,490.28,1239.328,490.28z M1188.818,497.82  c6.01,0.76,45.5,5.72,46.84,7.06l0.48,2.35c-1.34-1.33-40.83-6.3-46.83-7.06c-6.01-0.76-42.4,3.62-42.4,3.62l-0.49-2.35  C1146.418,501.44,1182.818,497.06,1188.818,497.82z M1138.008,552c0-13,3.58-64.56,3.58-64.56l2.21-0.83c0,0-3.59,51.56-3.59,64.57  c0,13-2.24,33.62,1.35,42.14s11.21,19.73,16.59,21.52c5.38,1.8,7.17,4.04,13.9,4.49c6.72,0.44,10.76,1.34,10.76,1.34l-2.21,0.83  c0,0-4.04-0.9-10.76-1.35c-6.73-0.45-8.52-2.69-13.9-4.48c-5.38-1.8-13-13-16.59-21.52C1135.758,585.63,1138.008,565,1138.008,552z   M1082.098,540.18c0,0,3.61-15.5,11.08-22.24c7.48-6.74,16.98-15.54,27.17-15.94c10.19-0.4,14.86-0.58,14.86-0.58l-0.83,3.91  c0,0-4.67,0.18-14.86,0.58c-10.19,0.4-19.69,9.2-27.17,15.94c-7,6.32-10.62,20.34-11.05,22.06L1082.098,540.18z M1070.728,779.65  c0,0,25.99,22.37,47.02,25.84c21.03,3.47,44.41,7.67,44.41,7.67l-2.42,1.46c0,0-23.31-4.54-44.28-8.33  c-20.98-3.79-46.61-26.54-46.61-26.54L1070.728,779.65z M1519.998,891.78c-4.12,3.77-24.7,19.85-28.83,22.94  c-4.12,3.09-39.15,21.66-46.14,24c-25.2,8.43-61.7,17.38-80.4,18.56c-28.51,1.78-74.71-7.22-97.92-12.37  c-18.51-4.11-27.12-11.9-37.11-15.46c-16.42-5.86-36.07-2.06-49.47-3.61c-13.4-1.55-54.15-5.88-69.06-7.73  c-20.27-2.52-47.43-16.64-47.43-16.64l-4.54-4.24c0.97,0.41,31.98,13.67,49.45,16.48c14.84,2.39,55.66,6.19,69.06,7.73  c0,0-7.46-20.49-9.34-40.27c-1.88-19.78,0-63.11,0-76.29c0-13.19,6.82-53.45,8.89-81.29c2.06-27.84,11.66-151.46,11.66-151.46  l-25.74,13.53l4.92-28.66l-20.83-20.29l28.78-4.19l12.87-26.07l12.87,26.07l28.77,4.19l-20.82,20.29l4.91,28.66l-25.73-13.53  l2.44,1.58c0,0-9.6,123.62-11.66,151.46c-2.06,27.84-8.89,68.1-8.89,81.29c0,13.18-1.88,56.51,0,76.29  c1.59,16.73,7.17,33.96,8.85,38.88c13.3,1.04,31.81-1.98,47.52,3.42c16.5,5.67,24.3,12.53,37.11,15.46  c27.07,6.2,84.83,13.52,97.92,12.37c21.23-1.86,73.56-15.77,80.4-18.55c14.14-5.76,42.77-20.62,46.89-23.71  c4.13-3.09,25.74-15.91,37.36-28.61L1519.998,891.78z" style="fill:#E5B51A;"/>
	<path d="M2205.735,1346.247c-3.216-0.43-6.581-0.548-10.049-0.263c-0.313,0.026-0.624,0.04-0.939,0.073  c-24.731,2.555-30.914,19.798-30.914,19.798l75.224-3.603C2239.057,1362.252,2225.034,1348.828,2205.735,1346.247z" style="fill:#0DCC5A;"/>
	<path d="M3926.329,1656.69c-0.598-1.307-1.953-2.464-1.638-3.708c0.732-2.89-1.016-2.449-1.441-3.574  c-0.11-0.299-3.59,1.063-4.582,3.937c-4.685,13.841-20.093,30.903-20.723,26.179c-0.236-1.795,0.654-5.669-2.409-4.724  c-0.236,0.079-16.778,9.85-26.36,26.769c-1.779,3.149-3.622,6.299-5.511,9.519c-2.669,4.574-5.393,9.172-8.094,13.676  c-9.889,16.534-19.361,31.879-23.896,40.154c-1.882,3.441-2.929,5.669-2.779,6.236l-0.228,0.913  c-0.961,2.047-4.913,6.645-10.023,12.282l-4.724,6.299h-1.047c-11.637,12.597-25.36,27.234-25.518,30.989  c0-0.339-6.236,4.818-12.896,11.66c-0.732,0.74-1.464,1.512-2.189,2.291s-1.291,1.401-1.929,2.118  c-2.758,3.025-5.287,6.252-7.566,9.653c-5.149,7.921-6.551,15.007,2.897,16.613c3.59,0.614,6.818,1.047,9.763,1.331  c24.014,2.362,27.911-9.755,37.217-13.55c10.542-4.307,13.896,7.574,19.636,16.006c0.787,1.134,1.575,2.276,2.472,3.409  c0.993,1.294,2.063,2.527,3.204,3.693c3.403,3.45,6.979,6.725,10.716,9.81c16.345,13.456,25.793,21.132,25.439-1.118  c0-1.527,1.63-4.511,3.417-7.708c0.614-1.118,1.244-2.252,1.835-3.362c0.95-1.679,1.703-3.463,2.244-5.315  c1.441-5.984,2.858-5.614,5.275-11.259c0.401-0.937,0.787-2.039,1.291-3.37c1.409-1.252,2.362-1.622,2.929-1.37l1.315-3.842  c0.149-1.181,0.283-2.362,0.433-3.504c1.087-8.881,2.071-17.526,3.071-25.667c5.125-21.187,12.896-47.768,15.81-57.578l1.157-3.874  c3.22-1.26,16.156-50.665,19.683-72.513l0,0c0.071-0.417,0.134-0.787,0.197-1.22c0.126-0.787,0.252-1.575,0.378-2.323  C3928.126,1674.313,3925.851,1666.327,3926.329,1656.69z" style="fill:#0DCC5A;"/>
	<path d="M2267.729,1298.588c0,4.726-3.831,8.557-8.557,8.557c-4.726,0-8.557-3.831-8.557-8.557  c0-4.726,3.831-8.557,8.557-8.557C2263.898,1290.031,2267.729,1293.862,2267.729,1298.588z" style="fill:#E5B51A;"/>
	<path d="M2363.223,1365.855c0,0,3.373-21.831,22.048-22.67s19.544,14.588,19.544,14.588L2363.223,1365.855z" style="fill:#BF1682;"/>
	<path d="M879.515,1255.626c11.205-23.593,34.667-73.578,34.606-78.356  c-0.053-4.157,9.722-29.161,16.33-45.574c-3.284-2.642-6.279-6.073-8.686-10.183l-55.421,129.913  C871.427,1251.316,875.95,1253.204,879.515,1255.626z" style="fill:#0A0A0A;"/>
	<path d="M2189.56,1786.71c-9.17-49.35-31.35-79.03-48.9-87.35  c-17.55-8.31-40.9-14.56-55.79-15.59c0,0-45.16,3.59-61.52,19.29c-15.16,14.53-43.74,46.3-46.27,87.42  c-1.97,32.14,20.66,91.45,30.17,102.75c10.12,12.01,56.02,44.59,77.62,44.98c21.61,0.39,70.33-36.36,76.33-44.22  C2167.21,1886.14,2198.48,1834.68,2189.56,1786.71z M2007.48,1763.47l2.19-9.63c0,0,7.02-21.06,19.74-11.41  c12.72,9.65,16.67,21.94,24.13,21.5c7.46-0.44,14.48-1.75,14.48-1.75s-15.65,8.16-22.38,5.7c-5.31-1.94-14.42-14.74-18.45-16.75  c-3.24-1.62-9.63-0.36-12.26,2.71C2012.38,1756.81,2007.77,1763.08,2007.48,1763.47z M2027.69,1813.38  c-6.12-2.29-14.15-9.94-14.15-9.94s11.47-19.13,22.57-13.39c11.09,5.74,24.09,14.92,25.24,16.45c1.15,1.53,1.53,1.91-7.27,4.59  C2045.29,1813.77,2033.81,1815.68,2027.69,1813.38z M2084.1,1875.45c-13.2-0.1-36.83-7.98-36.83-7.98s23.07-9.92,36.27-9.82  c13.21,0.11,37.13,11.54,37.13,11.54S2097.31,1875.56,2084.1,1875.45z M2145.26,1814.91c-6.12,2.3-17.6,0.39-26.4-2.29  c-8.79-2.68-8.41-3.06-7.26-4.59c1.14-1.53,14.15-10.71,25.24-16.45c11.09-5.74,22.57,13.39,22.57,13.39  S2151.38,1812.62,2145.26,1814.91z M2158.02,1753.84c-2.64-3.07-9.02-4.33-12.26-2.71c-4.03,2.01-13.14,14.81-18.45,16.75  c-6.73,2.46-22.38-5.7-22.38-5.7s7.02,1.31,14.48,1.75c7.46,0.44,11.4-11.85,24.13-21.5c12.72-9.65,19.74,11.41,19.74,11.41  l2.18,9.63C2165.17,1763.08,2160.57,1756.81,2158.02,1753.84z" style="fill:#E22323;stroke:#000000;stroke-miterlimit:10;"/>
	<path d="M2204.021,1375.645c0,0,9.274-12.933,21.64-15.519c12.366-2.587,25.761,7.76,25.761,7.76  L2204.021,1375.645z" style="fill:#BF1682;"/>
	<path d="M2262.121,1344.164c-1.506-0.851-3.067-1.653-4.667-2.389c-5.566-2.563-11.616-4.277-17.611-3.979  c-20.485,1.018-35.823,25.153-35.823,25.153l77.487-3.783C2281.508,1359.166,2273.28,1350.471,2262.121,1344.164z" style="fill:#BF1682;"/>
	<path d="M341.996,1679.578l-2.85,3.6c0,0-1.99-3.93-5.39-4.03c-2.78-0.08-5.25,2.12-6.11,2.97  c-0.2,0.21-0.31,0.48-0.31,0.76l0.16,13.84l-5.6-0.01l-0.57-22.4l5.28-0.12l0.09,2.74c0,0,1.26-3.32,8.06-2.68  C339.326,1674.668,341.996,1679.578,341.996,1679.578z" style="fill:#0A0A0A;"/>
	<path d="M2173.569,1316.059c0,2.705-2.193,4.898-4.898,4.898s-4.898-2.193-4.898-4.898  c0-2.705,2.193-4.898,4.898-4.898S2173.569,1313.354,2173.569,1316.059z" style="fill:#0DCC5A;"/>
	<path d="M1081.298,543.91l0.8-3.73c0,0,3.61-15.5,11.08-22.24  c7.48-6.74,16.98-15.54,27.17-15.94c10.19-0.4,14.86-0.58,14.86-0.58l-0.83,3.91c0,0-4.67,0.18-14.86,0.58  c-10.19,0.4-19.69,9.2-27.17,15.94C1085.348,528.17,1081.728,542.19,1081.298,543.91z" style="opacity:0.84;fill:#F2F2F1;"/>
	<path d="M3589.544,940.883l-60.46-85.15l23.73-16.85l-12.51-17.61  l-23.73,16.84l-52.08-73.35l-78.26,55.57l-16.68-23.51l-17.62,12.51l16.69,23.5l-76.14,54.06l125.05,176.12l75.98-53.95l16.81,23.67  l17.61-12.51l-16.81-23.66L3589.544,940.883z M3375.385,964.913l-12.51-17.61l4.41-3.12l12.5,17.61L3375.385,964.913z   M3505.465,846.063l4.4-3.13l12.51,17.61l-4.4,3.13L3505.465,846.063z" style="fill:#B71515;stroke:#231F20;stroke-miterlimit:10;"/>
	<path d="M1584.336,1227.278l0.276,0.708l10.312-42.498l-10.893-57.806l-7.426-39.404  c0,0-6.838-2.676-11.677-2.379s-9.284,3.979-9.284,3.979l-2.073,71.109L1584.336,1227.278z" style="fill:#161616;"/>
	<path d="M3854.689,1595.703c-5.96-11.125-18.565-24.455-33.068-37.572l-0.425-0.402  c-3.622-3.393-5.637-6.582-6.677-9.542c-0.047-0.134-0.102-0.276-0.142-0.409c-1.378-4.275-0.787-8.047,0-11.204  c0.559-2.456,1.165-4.527,0.921-6.173c0,0,0-0.039,0-0.055l0,0c0-0.134-0.047-0.26-0.079-0.386l-0.047-0.15  c-0.036-0.124-0.081-0.245-0.134-0.362l0,0v-0.055c-0.066-0.133-0.139-0.262-0.221-0.386l-0.079-0.118  c-0.071-0.102-0.15-0.197-0.236-0.299l-0.063-0.071l0,0c-0.116-0.121-0.24-0.234-0.37-0.339l0,0l-0.079-0.055  c-0.115-0.092-0.236-0.176-0.362-0.252h-0.047l-0.071-0.047l-0.551-0.283l-0.134-0.055l-0.535-0.213l-0.157-0.055l0,0  c-0.236-0.079-0.48-0.157-0.787-0.228h-0.11c-0.236-0.063-0.496-0.118-0.787-0.173l-0.268-0.055l-0.976-0.165  c-3.362-0.48-8.417-0.52-15.896-0.079c-1.116,0.417-2.323,0.528-3.496,0.323c0.283,0.126-1.433,0.543-4.071,1.118  c-2.451,0.595-4.827,1.461-7.086,2.582c-6.865,3.299-13.526,8.503-14.668,11.023c-5.244,11.731-15.51,34.013-22.471,49.382  c0.04,0.228-4.503,9.983-5.039,11.212c-1.575,3.574-2.362,5.566-2.063,5.149c3.149,3.008,7.511,3.637,12.487,2.921  c1.766-0.265,3.512-0.646,5.228-1.142c4.847-2.286,9.874-4.169,15.03-5.629l4.425-1.866c4.663-2.078,9.474-3.807,14.393-5.173  c2.065-0.579,4.254-0.544,6.299,0.102c7.621,2.551,10.7,14.392,13.204,25.084c7.747,8.755,12.731,2.401,18.053,2.89  C3857.492,1627.503,3863.373,1611.89,3854.689,1595.703z" style="fill:#0DCC5A;"/>
	<path d="M1481.828,1209.07l-31.587-3.861c0,0-4.373,3.209-9.109,10.622  c-4.271,6.685-4.271,13.677-4.271,13.677l45.385,30.345c3.719-9.709,9.312-18.574,16.371-26.209L1481.828,1209.07z" style="fill:#161616;"/>
	<path d="M2088.991,2295.592c35.1-7.4,50.5-33.3,52-45.4c0.1-0.8-0.1-1.6-0.6-2.2c-10.9-15.4-46-10.3-62.7-3.5  c-0.7,0.3-1.3-0.7-0.7-1.2c38-33.6,2-54.4-37.5-37.4c35-52.5,6.4-80.3-46.1-37.5c2.1-18.9-3.1-49.3-25-62.7  c-0.8-0.5-1.8-0.7-2.7-0.6c-24.3,3.3-38.6,25.1-42,63.3c-16.1-26.7-26.7-33.2-34.7-32.6c-2.4,0.2-4.6,1.5-6,3.5  c-7,10.6-9.5,19.1-5.7,41.1c0.3,1.8-1.9,2.8-3.1,1.5c-15.8-19-46-27-64.4-11.2c-0.7,0.6-1.2,1.4-1.5,2.4  c-6.6,25.9,11.2,48.3,20.5,53.4c0.4,0.2,0.3,0.9-0.2,0.9c-20.6,0.5-27.8,9.1-31.3,15.3c-0.8,1.4-1.1,3.1-0.8,4.7  c1.3,6.7,7.8,17.1,13.8,23.9c0.3,0.4-0.1,0.9-0.5,0.6c-18.1-10.9-56-7.9-67.1,19.7c-0.8,1.9-0.8,4.1,0,6c10.7,25.5,42.5,27,55.9,27  c1.2,0,1.6,1.5,0.6,2.1c-11,7.5-19.1,21.9-15.8,29c8.4,12.7,41.9,8.8,55.5,2.4c0.7-0.4,1.5,0.5,1,1.2c-2.5,3.4-5.1,8.2-5.4,14.8  c-0.1,2.4-1.9,4.4-4.2,5c-17.5,4-40.1,20.3-33,56.7c0.3,1.5,1.5,2.7,3.1,3c29.6,4.7,54.1-10.1,62.8-29.4c0.4-0.9,1.8-0.6,1.8,0.4  c-0.4,14.3,2.3,22,4.3,25.8c0.9,1.7,0.9,3.6,0,5.3c-10.6,20.3-9.4,61.7,20.8,62.3c0.8,0,1.7-0.2,2.4-0.6  c20.8-12.1,35.1-36.1,39.7-51.2c0.5-1.8,2.9-2,3.8-0.4c8.8,15.9,23.9,21.7,29.6,20.5c4.9-1.1,10-8,13-14.8c0.6-1.4,2.7-1.2,3.1,0.3  c5.8,23,29.5,49.3,46.6,46.3c17.1-3,27-33.2,21.4-51.1c-0.6-1.9,1-3.9,3-3.6c12.8,1.4,22.4-6.7,25.9-10.3c1-1,1.6-2.3,1.7-3.7  c2.1-27.1-10.7-43-19.6-51c-1.2-1.1-0.6-3.2,1.1-3.3c13.8-1.5,20.9-7,23.7-9.9c1-1,1.5-2.4,1.4-3.8c-0.5-7-2.7-11.9-4.2-14.6  c-0.5-0.8,0.3-1.7,1.2-1.4c22.3,8.4,45.7,3.2,57-11.1c0.8-1,1.2-2.4,1.1-3.7c-3-24.8-21.8-37.2-53.1-38.7  C2088.391,2296.692,2088.391,2295.692,2088.991,2295.592z M2131.091,2247.292c1.9,0.6,2.9,2.8,2,4.6c-23.3,48.6-72,40.5-83.1,31.4  c-1.3-1-1.8-2.7-1.2-4.3c0.6-1.7,1.3-4.4,1.3-7.8c0-0.8,0.2-1.6,0.8-2.2C2077.191,2239.792,2112.291,2241.192,2131.091,2247.292z   M1983.291,2271.892l-5.5-4.4c1.1-5.5,10.9-12.2,21.4-12.8c1.4-0.1,2.6,1.2,2.3,2.6  C2000.291,2263.192,1989.891,2270.492,1983.291,2271.892l-0.8-0.7C1982.691,2271.392,1982.991,2271.692,1983.291,2271.892z   M1997.891,2296.392L1997.891,2296.392c7.6,1.8,11.4,10.8,1.5,10.9L1997.891,2296.392L1997.891,2296.392L1997.891,2296.392z   M1997.791,2321.092c13.9-4.5,23.1,6.6,22.3,19.6c-0.1,1.6-1.1,3-2.5,3.6c-13.6,5.8-24.4,1.7-27.7-6.4L1997.791,2321.092z   M2008.091,2271.792c-2.5-16.6,32.8-18,36.3,0.7c0.2,1.1,0,2.2-0.5,3.1C2035.591,2290.192,2011.491,2285.492,2008.091,2271.792z   M2026.891,2302.092c0.1-0.7,0.3-1.3,0.7-1.9c9.9-14,43.8-10.2,50.6,9.6c0.3,2.1-0.8,4.8-2.8,5.6c-6.2,2.3-19,7.2-27.3,5.7  C2036.891,2319.192,2025.091,2314.692,2026.891,2302.092z M2084.191,2215.092c-7,30.8-35.8,42.9-62.1,32.4c-1-0.4-1.7-1.4-1.8-2.5  c-2-29.3,41.9-46.4,61.8-34.7C2083.791,2211.292,2084.591,2213.192,2084.191,2215.092z M2046.991,2158.192  c5.5,11.7-5.2,46.6-28.6,51.8c-1.3,0.3-2.7-0.4-3.4-1.6c-2.4-4.3-11.8-3.7-17.8-2.5c-1.3,0.3-2.6-0.5-3-1.8  c-9.2-29.9,20.8-49.2,48.6-48.6C2044.591,2155.492,2046.191,2156.492,2046.991,2158.192z M2009.591,2211.492  c0.9,0.5,1.4,1.4,1.5,2.4c1.7,24.9-10.5,34.8-21.5,28.8C1967.491,2225.292,1997.991,2204.492,2009.591,2211.492z M1966.891,2111.192  c22.8,13.3,17.8,44.1,9.3,60.6c-0.9,1.7-3.1,2-4.4,0.7c-10-10-11.9-11.1-24.2-6c-1.4,0.6-3,0-3.7-1.4c-15.3-31.2,8-52.7,20.5-54.4  C1965.191,2110.592,1966.091,2110.792,1966.891,2111.192z M1890.791,2141.492c13,3.3,41,38.9,26.1,65.9c-0.5,1-1.6,1.6-2.8,1.4  c-4.5-0.7-6.5,0.5-8.8,3.3c-1,1.2-2.7,1.4-3.9,0.4c-9-7.2-30.6-39.2-14.9-69.1  C1887.291,2141.892,1889.091,2141.092,1890.791,2141.492z M1902.991,2325.792L1902.991,2325.792  C1902.991,2325.792,1902.991,2325.692,1902.991,2325.792c0.1,0,4.7,9.4,4.7,9.5l0,0l0,0c-3.7,1-7.4,0.9-7.8-0.3  C1899.391,2333.292,1900.191,2328.592,1902.991,2325.792L1902.991,2325.792z M1905.991,2260.792c4.5-0.5,9.1,5,10.5,10.6l-9.1,10.7  c-5.3-2.6-8.6-12.4-3.8-19.9C1904.191,2261.392,1905.091,2260.892,1905.991,2260.792z M1899.991,2306.892c0-0.1,0-0.1,0-0.2  V2306.892c-4.7,4.9-12.1,0.3-14.5-5.7c-0.6-1.5,0.1-3.2,1.5-3.9c3.9-1.9,11-2.1,14.1,0.6  C1900.891,2299.192,1900.091,2305.692,1899.991,2306.892z M1860.091,2218.792c0.5-2.4,3-4.4,5.4-4.4c23.3-0.2,32.5,11.6,23.9,38  c-0.3,1-1.1,1.7-2.2,2C1873.891,2257.492,1851.891,2257.192,1860.091,2218.792z M1877.691,2290.792c-12.1,5-20.1-8.7-18.3-19.8  c0.2-1.1,1.2-2,2.3-2.1c12.5-0.9,25.8,9.5,17.4,20.8C1878.691,2290.192,1878.191,2290.592,1877.691,2290.792z M1870.991,2309.592  c-12.6,15.9-35,16.3-47.2,0.2c-1.3-1.7-1.4-4.1-0.3-6c10.4-16.5,47.3-19.1,48.3,3.5  C1871.791,2308.092,1871.491,2308.892,1870.991,2309.592z M1858.791,2337.492c2-5.5,23-20.7,30.1-2.6c0.3,0.7,0.2,1.5-0.1,2.2  C1883.691,2348.292,1856.891,2342.892,1858.791,2337.492z M1815.091,2174.092c30.2-20.6,65.1,10.8,64.8,30.3c0,1.4-1.2,2.5-2.6,2.3  c-7.3-1-17.7,1.5-18.8,2.5c-1.1,0.9-3,2.7-4.9,9.8c-0.3,1.2-1.5,1.9-2.7,1.8c-29.5-4.4-42.6-33.8-37.2-44.9  C1813.991,2174.992,1814.491,2174.492,1815.091,2174.092z M1806.391,2242.392c18.9-14.7,53.1-8.7,51.1,18.3c-0.1,1-0.6,2-1.5,2.5  c-16,10.6-44.9,7.4-51.4-15.6C1804.091,2245.592,1804.791,2243.592,1806.391,2242.392z M1747.991,2290.592  c11.2-18.3,52.9-25.5,77.8,2.4c0.5,0.6,0.5,1.5-0.1,2.1c-10.2,9.3-9.3,12.1-7.2,15.5c0.4,0.6,0.1,1.4-0.5,1.7  c-16.4,7-49.2,13.7-69.7-15.2C1746.791,2295.192,1746.791,2292.592,1747.991,2290.592z M1791.091,2355.092c-2.2-1.2-2.9-4-1.6-6.2  c23.5-35.5,52.6-19.2,56.8-10.3c0.2,0.4,0.3,0.9,0.3,1.3C1845.591,2355.792,1810.191,2365.492,1791.091,2355.092z   M1805.691,2434.992c-1.9,0.1-3.5-1.2-4-3c-6.2-21.7,12.5-47.1,33.1-49.6c0.9-0.1,1.8,0.4,2.2,1.2c3.3,6,11.5,5.9,15.1,5.5  c1-0.1,1.9,0.6,2.1,1.5C1856.791,2404.992,1848.591,2433.792,1805.691,2434.992z M1844.691,2383.292c-1.2-0.4-2-1.5-2.1-2.8  c-0.9-28,16.7-31,33.4-20.5c0.5,0.3,1,0.9,1.1,1.5C1879.191,2369.192,1860.891,2388.392,1844.691,2383.292z M1889.491,2497.892  c-15.3,2.3-29.7-22.6-15.9-53.8c0.5-1.2,2-1.6,3.1-0.8c8.5,6.1,17.2,1.1,25.1-7.6c0.9-1,2.4-0.9,3.2,0.2  C1915.391,2449.692,1904.791,2492.292,1889.491,2497.892z M1888.891,2436.592c-3.5,2.4-8.2,1.6-10.7-1.8  c-13.9-19.3,0-41.7,15.5-47.8c0.8-0.3,1.6-0.2,2.3,0.3c1.6,1.1,5.4,2.8,11.2,0.2c1.2-0.5,2.7-0.1,3.4,1.1  C1916.891,2399.192,1908.091,2423.192,1888.891,2436.592z M1903.291,2383.592c-2.1,0.5-4.3-0.5-5.4-2.4  c-10.6-17.7,3.6-40.9,19.6-28.1C1924.891,2359.092,1919.491,2379.792,1903.291,2383.592z M1916.191,2252.992  c-18.6,0.1-20.6-25.1-6.9-39.5c0.6-0.6,1.8-1.1,2.6-1.1C1926.291,2212.292,1946.591,2252.992,1916.191,2252.992z M1930.191,2196.492  c0-12.5,5.4-22.9,26.5-27.6c1.9-0.4,2.9-0.3,4,1.5c3.3,4.9,14.3,20.1,12.7,29.9c-1.9,11.6-16.5,23.8-24.8,24.8  C1940.291,2226.092,1930.191,2209.092,1930.191,2196.492z M1946.691,2253.092c-5.3-6.8-2.9-17.6,6.5-23.1c1.2-0.7,2.8-0.3,3.6,0.9  c6.2,9.6,2.9,19.2-6.6,23.1C1948.991,2254.492,1947.591,2254.092,1946.691,2253.092z M1946.291,2373.392c13.8-1,10.4,26.4,0,32.7  C1935.991,2412.392,1926.691,2374.792,1946.291,2373.392z M1967.691,2461.892c-11.8,15.3-40.5-29.4-24.3-50.1c0.5-0.6,1.2-1,1.9-1.1  c4.6-0.4,8-3.6,9.7-5.5c0.8-0.9,2-1,3-0.4C1977.991,2416.992,1977.891,2444.092,1967.691,2461.892z M1958.391,2357.492  L1958.391,2357.492L1958.391,2357.492L1958.391,2357.492c0.1-0.1,19.9-8.4,20-8.4l0,0l0,0c1.4,4.5,0.8,9.8-2.2,14.3  c-0.6,0.9-1.7,1.4-2.7,1.3C1966.091,2364.092,1961.091,2361.192,1958.391,2357.492z M1983.291,2362.192c16.4-4.8,45.6,5.3,36.2,40.9  c-1,3.7-4.7,5.9-8.4,5.3C1964.891,2400.192,1976.691,2365.592,1983.291,2362.192z M2022.491,2495.092c-14.2-4.4-28.1-21.8-36.9-49.3  c-0.6-1.7-0.7-3.6-0.4-5.4c1.2-7.5,1.5-17.6-1.4-34.1c-0.2-0.9,0.9-1.6,1.7-1.1c4.5,3,15.2,9.5,24.7,9.2c1.1,0,2.1,0.6,2.5,1.6  c3.5,8.5,14.6,21.4,24.5,26.7c0.2,0.1,0.4,0.2,0.5,0.4c8.9,7.6,6.6,42.3-8.1,51.2  C2027.491,2495.492,2024.891,2495.792,2022.491,2495.092z M2073.291,2433.192c-13.4,10.8-45.3-1.6-52.7-19.3  c-0.5-1.2-0.1-2.5,0.8-3.3c3.4-2.9,9.9-9.7,8.7-23.4c-0.1-1.3,0.8-2.5,2.1-2.6c17.9-2.1,40.4,21.7,42.7,44.8  C2075.091,2430.792,2074.491,2432.292,2073.291,2433.192z M2076.091,2366.392c-25.9,14.8-54.7-6.7-49.7-29c0.2-0.7,0.5-1.3,1.1-1.7  c14.7-11,47.6,6.1,51.4,24.5C2079.491,2362.592,2078.291,2365.092,2076.091,2366.392z M2076.991,2341.992  c-4.3-5.2-9.4-10.5-16.8-13.9c-1-0.5-0.9-2,0.2-2.3c6.7-1.7,20.5-5.6,23.1-9.5c1.5-2.3,0.3-6.4-1.6-11.1c-0.5-1.1,0.3-2.4,1.5-2.5  c20.9-1.7,44,5.6,50.7,29.9c0.4,1.6,0,3.2-1,4.5c-12.1,13.6-41.8,10.2-53.5,6.7  C2078.591,2343.492,2077.691,2342.792,2076.991,2341.992z" style="fill:#D6293A;"/>
	<path d="M3187.496,291.499l-171.83,122.21v360h342v-359.68  L3187.496,291.499z M3040.276,606.279h-5.4v-21.6h5.4V606.279z M3104.916,378.409l17.82-12.21l3.05,4.45l-17.82,12.21  L3104.916,378.409z M3204.206,751.449h-21.6v-5.4h21.6V751.449z M3186.666,605.749c-35.13,0-63.61-28.47-63.61-63.6  s28.48-63.6,63.61-63.6c35.12,0,63.6,28.47,63.6,63.6S3221.786,605.749,3186.666,605.749z M3266.376,382.419l-17.81-12.2l3.05-4.46  l17.82,12.21L3266.376,382.419z M3335.766,606.279h-5.4v-21.6h5.4V606.279z" style="fill:#F9E712;stroke:#231F20;stroke-miterlimit:10;"/>
	<path d="M2185.484,1316.059c0,2.705-2.193,4.898-4.898,4.898c-2.705,0-4.898-2.193-4.898-4.898  c0-2.705,2.193-4.898,4.898-4.898C2183.291,1311.161,2185.484,1313.354,2185.484,1316.059z" style="fill:#0DCC5A;"/>
	<path d="M2205.735,1346.247c-3.216-0.43-6.581-0.548-10.049-0.263c-0.313,0.026-0.624,0.04-0.939,0.073  c-24.731,2.555-30.914,19.798-30.914,19.798l75.224-3.603C2239.057,1362.252,2225.034,1348.828,2205.735,1346.247z" style="fill:#0DCC5A;"/>
	<path d="M2482.917,1451.802c-11.247-27.963-31.391-64.191-60.438-64.823  c-33.028-0.718-48.998,21.396-56.712,42.148c4.212-0.243,8.673-0.231,13.433,0.101c88.619,6.183,85.528,116.442,85.528,116.442  h11.335C2476.062,1545.67,2470.277,1494.322,2482.917,1451.802z" style="fill:#F464BA;"/>
	<path d="M3738.242,1678.144c-0.021,0.122-0.034,0.246-0.039,0.37c0,0.071,0,0.157,0,0.236  c0.008,0.129,0.024,0.258,0.047,0.386c0,0.087,0.039,0.181,0.055,0.268c0.016,0.087,0.079,0.283,0.126,0.425l0.094,0.291  l0.197,0.472c0.039,0.094,0.087,0.197,0.134,0.291c0.047,0.094,0.181,0.37,0.283,0.559c0.102,0.189,0.079,0.165,0.126,0.252  c0.157,0.276,0.323,0.551,0.496,0.835l0.165,0.252l0.409,0.63l0.268,0.378l0.362,0.52l0.315,0.417  c0.118,0.165,0.244,0.323,0.37,0.488l0.338,0.441c0.126,0.157,0.244,0.315,0.378,0.472l0.362,0.457  c0.126,0.15,0.252,0.291,0.37,0.449c0.118,0.157,0.26,0.307,0.394,0.465l0.339,0.394l1.126,1.291l0,0  c0.575,0.638,1.134,1.252,1.669,1.827c4.63,10.235,11.023,21.305,19.148,11.999l0.213-0.244c0.243-0.705,0.53-1.394,0.858-2.063  c1.834-3.031-1.874-9.306-3.267-11.519l0,0c-0.459-0.752-0.809-1.566-1.039-2.417c-0.279-0.986-0.5-1.988-0.661-3  c-0.787-4.866-0.898-10.479-3.819-11.377c-2.606-0.787-9.046,0.929-10.102,0.228c-0.814-0.562-1.791-0.838-2.779-0.787  c-2.187,1.598-4.29,3.309-6.299,5.125l-0.37,0.52c-0.098,0.142-0.173,0.299-0.22,0.465  C3738.258,1678.026,3738.258,1678.089,3738.242,1678.144z" style="fill:#F7CB14;"/>
	<path d="M3754.965,1957.853c-0.228-0.094-0.496-0.197-0.787-0.291c-2.637-0.874-7.873-1.882-13.928-2.827  c-4.645-0.716-9.755-1.409-14.526-1.976c-9.133-0.992-16.999-1.701-17.904-1.315c-0.028,0.012-0.052,0.031-0.071,0.055  c-0.147,0.189-0.284,0.386-0.409,0.591l-0.04,0.071c-4.188,6.787,8.283,9.661,21.754,10.062c3.771,0.118,7.614,0,11.196-0.213  c2.598-0.165,5.063-0.425,7.251-0.787c3.795-0.575,6.787-1.37,8.275-2.362C3756.264,1958.616,3755.926,1958.238,3754.965,1957.853z" style="fill:#F7CB14;"/>
	<path d="M1502.439,2367.764c-10.447,0-18.917,8.469-18.917,18.917c0,10.447,8.469,18.917,18.917,18.917  s18.917-8.469,18.917-18.917C1521.355,2376.234,1512.886,2367.764,1502.439,2367.764z" style="fill:#BF1682;"/>
	<path d="M1561.339,1395.046c-0.091-3.832-0.114-13.69-0.107-24.548c0.011-18.269,0.107-39.37,0.107-39.37  c0-15.181-9.652-27.488-21.559-27.488s-21.559,12.307-21.559,27.488c0,0-0.07,11.99,0.109,26.877  c0.205,17.087,0.738,37.991,2.081,48.964c1.765,14.431,10.613,39.985,15.716,53.899c1.008,2.748,0.46,5.798-1.377,8.078  c-2.266,2.812-3.622,6.359-3.622,10.221c0,9.145,7.566,16.559,16.9,16.559c9.333,0,16.9-7.414,16.9-16.559  c0-5.115-2.371-9.681-6.093-12.715c-2.333-1.902-3.601-4.806-3.274-7.797c2.277-20.838,5.704-53.599,5.783-62.697  C1561.347,1395.621,1561.346,1395.315,1561.339,1395.046z" style="fill:#161616;"/>
	<rect height="21.6" style="fill:#F79514;stroke:#231F20;stroke-miterlimit:10;" transform="matrix(6.123234e-17 -1 1 6.123234e-17 -620.4389 2987.9468)" width="5.4" x="1181.054" y="1793.393"/>
	<path d="M643.987,1069.691c-49.7,0-90,40.29-90,90c0,49.7,40.3,90,90,90  c49.71,0,90-40.3,90-90C733.987,1109.981,693.698,1069.691,643.987,1069.691z M643.987,1231.691c-39.76,0-72-32.24-72-72  c0-39.77,32.24-72,72-72c39.77,0,72,32.23,72,72C715.987,1199.451,683.758,1231.691,643.987,1231.691z" style="fill:#0DCC5A;stroke:#231F20;stroke-miterlimit:10;"/>
	<path d="M2297.014,1340.752c0.058-0.4,0.139-0.809,0.217-1.217c-5.557-2.151-11.584-3.487-17.611-3.048  c-1.846,0.134-3.546,0.409-5.128,0.784c-8.629,2.043-13.494,7.299-16.186,11.967c-2.585,4.482-3.177,8.416-3.177,8.416l18.957,2.065  l26.023-1.953C2298.486,1354.769,2295.89,1348.537,2297.014,1340.752z" style="fill:#BF1682;"/>
	<path d="M2277.773,1329.1c-2.267,0-4.105-1.838-4.105-4.105s1.838-4.105,4.105-4.105s4.105,1.838,4.105,4.105  S2280.04,1329.1,2277.773,1329.1z" style="fill:#E22323;"/>
	<path d="M2383.321,1349.883c0,0-0.012-9.079-6.173-16.236c-4.005-4.653-10.602-8.495-21.508-8.495  c-7.62,0-13.028,1.879-16.878,4.596c0.13,0.201,0.265,0.399,0.384,0.607c0.186,0.323,0.355,0.658,0.516,0.999  c0.05,0.106,0.096,0.214,0.143,0.321c0.108,0.244,0.212,0.491,0.308,0.742c0.046,0.12,0.092,0.24,0.135,0.361  c0.096,0.268,0.186,0.541,0.27,0.816c0.029,0.095,0.061,0.189,0.089,0.285c0.106,0.368,0.203,0.742,0.289,1.12  c0.02,0.088,0.036,0.177,0.055,0.265c0.064,0.297,0.124,0.596,0.176,0.898c0.023,0.132,0.044,0.264,0.065,0.397  c0.043,0.271,0.082,0.544,0.116,0.818c0.016,0.128,0.033,0.256,0.048,0.385c0.038,0.34,0.071,0.682,0.097,1.024  c0.004,0.054,0.01,0.107,0.014,0.161c0.029,0.398,0.049,0.796,0.064,1.194c0.004,0.113,0.006,0.226,0.009,0.339  c0.008,0.293,0.013,0.586,0.014,0.878c0,0.126,0,0.251,0,0.376c-0.002,0.304-0.007,0.606-0.016,0.907  c-0.003,0.093-0.004,0.187-0.007,0.28c-0.014,0.401-0.033,0.8-0.057,1.193c0,0.005-0.001,0.009-0.001,0.014  c-0.024,0.388-0.054,0.771-0.086,1.149c-0.007,0.079-0.014,0.156-0.021,0.234c-0.029,0.32-0.061,0.636-0.095,0.948  c-0.007,0.065-0.014,0.13-0.021,0.194c-0.131,1.155-0.292,2.245-0.462,3.229v0.001L2383.321,1349.883L2383.321,1349.883z" style="fill:#0DCC5A;"/>
	<path d="M3187.496,291.499l-171.83,122.21v360h342v-359.68  L3187.496,291.499z M3040.276,606.279h-5.4v-21.6h5.4V606.279z M3104.916,378.409l17.82-12.21l3.05,4.45l-17.82,12.21  L3104.916,378.409z M3204.206,751.449h-21.6v-5.4h21.6V751.449z M3186.666,605.749c-35.13,0-63.61-28.47-63.61-63.6  s28.48-63.6,63.61-63.6c35.12,0,63.6,28.47,63.6,63.6S3221.786,605.749,3186.666,605.749z M3266.376,382.419l-17.81-12.2l3.05-4.46  l17.82,12.21L3266.376,382.419z M3335.766,606.279h-5.4v-21.6h5.4V606.279z" style="fill:#F9E712;stroke:#231F20;stroke-miterlimit:10;"/>
	<path d="M2335.056,1289.446l-1.102-10.175c-0.179-1.652,0.383-3.207,1.41-4.351l-1.47-15.55  c-0.309-3.267-3.184-5.679-6.455-5.416l-10.327,0.831c-3.692,0.297-6.319,3.72-5.651,7.364l5.037,27.472  C2323.604,1289.103,2330.147,1288.985,2335.056,1289.446z" style="fill:#ED6D15;"/>
	<path d="M2604.481,1343.075c0,0,19.879-29.429,22.265-41.225c2.385-11.796,3.181-24.332,3.181-24.332  s-16.699,8.586-17.494-5.74c-0.795-14.327,17.494-11.941,17.494-11.941s0.795-28.626,23.855-11.928  c23.06,16.699-12.723,29.609-12.723,29.609s-4.771,20.25-3.181,29.911c1.591,9.661,9.542,29.058,9.542,29.058L2604.481,1343.075z" style="fill:#0DCC5A;"/>
	<path d="M393.086,1685.618l-9.19-0.08v-3.13h5.09c0-2.25-2.2-4.11-5.09-4.45v-3.77c2.67,0.25,5.4,1.25,7,3.2  C393.986,1681.178,393.086,1685.618,393.086,1685.618z" style="fill:#0A0A0A;"/>
	<path d="M2604.481,1343.075c0,0,19.879-29.429,22.265-41.225c2.385-11.796,3.181-24.332,3.181-24.332  s-16.699,8.586-17.494-5.74c-0.795-14.327,17.494-11.941,17.494-11.941s0.795-28.626,23.855-11.928  c23.06,16.699-12.723,29.609-12.723,29.609s-4.771,20.25-3.181,29.911c1.591,9.661,9.542,29.058,9.542,29.058L2604.481,1343.075z" style="fill:#0DCC5A;"/>
	<path d="M1593.675,2722.501l-14.638-19.572c-1.77-2.366-2.705-5.253-2.66-8.208l3.456-223.841  c0.073-4.727-0.76-9.425-2.454-13.839l-14.144-36.855c-4.099,5.444-11.108,9.084-19.125,9.296l16.22,29.796  c1.699,3.121,2.252,6.725,1.559,10.21c-3.091,15.55-9.861,37.574-11.043,75.465c-0.989,31.699,9.292,116.133,11.436,148.704  c0.431,6.542,3.166,12.703,7.72,17.418l11.691,13.139c2.619,2.711,5.227,4.243,8.998,4.243  C1593.759,2728.457,1595.512,2724.957,1593.675,2722.501z" style="fill:#161616;"/>
	<path d="M1479.943,2347.471c0-7.933-5.788-14.365-12.928-14.365c-7.14,0-12.928,6.431-12.928,14.365  l-1.021,125.19c-0.005,0.646,0.022,1.291,0.082,1.934l17.267,186.159c0.502,5.409-0.328,10.859-2.418,15.874l-10.156,24.375  c-0.632,1.517-0.377,3.258,0.664,4.53l0,0c0.999,1.221,2.892,1.134,3.775-0.173l16.102-23.833c3.33-4.929,4.899-10.838,4.454-16.77  l-14.424-191.988c-0.08-1.066-0.07-2.137,0.03-3.202L1479.943,2347.471z" style="fill:#161616;"/>
	<path d="M1445.787,1700.037c2.817-1.427,5.967-2.293,9.306-2.48c0.332-12.056,11.607-21.745,25.497-21.745  c0.666,0,1.325,0.024,1.977,0.068c0.006,0,0.012,0.001,0.018,0.001c0.647,0.044,1.286,0.11,1.919,0.196  c0.07-2.842,0.849-5.493,2.16-7.776c-4.579-3.786-10.449-6.063-16.858-6.063c-11.444,0-21.168,7.257-24.894,17.41  c-1.047,2.851-1.647,5.917-1.647,9.131C1443.266,1692.809,1444.178,1696.619,1445.787,1700.037z" style="fill:#0A0A0A;"/>
	<path d="M1243.398,820.56c6.38-0.9,18.83-3.29,23.99-7.79c5.16-4.5,6.38-10.19,6.98-18.29  c0.61-8.09,0.8-32.77,0.8-41.08c0-8.3,1.05-31.66,1.57-40.48c0.53-8.82,3.59-22.78,5.58-28.17c1.98-5.39,3.61-4.23,3.61-4.23  l0.09,0.19c-0.23-0.3-0.94-0.6-2.53,3.77c-1.99,5.48-5.07,19.7-5.6,28.68c-0.53,8.98-1.59,32.75-1.59,41.2  c0,8.45-0.18,33.57-0.79,41.81c-0.61,8.24-1.83,14.04-7.02,18.62c-5.19,4.57-17.7,7.01-24.1,7.93c-6.41,0.91-23.19,0.91-31.43,0.3  s-36.56-9.05-36.56-9.05l-0.67-2c0,0,28.19,8.29,36.39,8.89C1220.318,821.46,1237.018,821.46,1243.398,820.56z" style="opacity:0.84;fill:#F2F2F1;"/>
	<path d="M2604.481,1343.075c0,0,19.879-29.429,22.265-41.225c2.385-11.796,3.181-24.332,3.181-24.332  s-16.699,8.586-17.494-5.74c-0.795-14.327,17.494-11.941,17.494-11.941s0.795-28.626,23.855-11.928  c23.06,16.699-12.723,29.609-12.723,29.609s-4.771,20.25-3.181,29.911c1.591,9.661,9.542,29.058,9.542,29.058L2604.481,1343.075z" style="fill:#0DCC5A;"/>
	<path d="M2476.951,415.277v-27h-792v72h792v-27h53.23v-18H2476.951z   M1703.191,433.587h-4.26v-18h4.26V433.587z M1728.231,433.587h-4.25v-18h4.25V433.587z M1753.271,433.587h-4.25v-18h4.25V433.587z   M1778.311,433.587h-4.25v-18h4.25V433.587z" style="fill:#2D88E2;stroke:#231F20;stroke-miterlimit:10;"/>
</svg>
