<svg id="Layer_1" style="enable-background:new 0 0 4813.421 2920.314;" version="1.1" viewBox="0 0 4813.421 2920.314" x="0px" xml:space="preserve" xmlns="http://www.w3.org/2000/svg" xmlns:xlink="http://www.w3.org/1999/xlink" y="0px">
	<path d="M1555.521,2383.062c-6.377,0-11.547-5.17-11.547-11.547c0-0.266,0.009-0.529,0.027-0.791  c0.526-7.774,9.375-12.048,16.05-8.028l49.821,30.007c5.148,3.101,8.212,8.748,8.004,14.755l-9.709,280.81  c-0.076,2.193,0.718,4.327,2.209,5.937l21.863,23.617c1.074,1.16,0.724,3.028-0.697,3.721l-1.605,0.783  c-3.455,1.685-7.609,0.87-10.171-1.996l-21.101-23.603c-1.291-1.445-1.994-3.321-1.969-5.258l3.502-273.566  c0.096-7.529-4.112-14.452-10.839-17.834L1555.521,2383.062z" style="fill:#161616;"/>
	<path d="M1512.356,2391.755c0-6.082-4.909-11.012-10.965-11.012c-6.056,0-10.965,4.93-10.965,11.012  l-8.687,85.56c-0.296,2.919-0.366,5.857-0.208,8.787l10.048,185.996c0.105,1.936,0.064,3.877-0.122,5.806l-3.834,39.805  c-0.307,3.185,1.69,6.139,4.759,7.042l0,0c2.38,0.7,4.844-0.805,5.307-3.242l7.35-38.661c0.258-1.357,0.378-2.737,0.357-4.119  l-2.869-192.017c-0.059-3.956,0.131-7.912,0.569-11.845L1512.356,2391.755z" style="fill:#161616;"/>
	<path d="M2476.951,415.277v-27h-792v72h792v-27h53.23v-18H2476.951z   M1703.191,433.587h-4.26v-18h4.26V433.587z M1728.231,433.587h-4.25v-18h4.25V433.587z M1753.271,433.587h-4.25v-18h4.25V433.587z   M1778.311,433.587h-4.25v-18h4.25V433.587z" style="fill:#2D88E2;stroke:#231F20;stroke-miterlimit:10;"/>
	<path d="M2307.766,1309.697c-5.989-2.995-15.442-1.509-23.599,1.442c-5.937,2.148-11.188,5.07-13.913,7.612  c-1.539,1.437-2.329,3.443-2.664,5.655c-0.785,5.174,0.987,11.495,2.01,14.535c0.115,0.34,0.222,0.651,0.312,0.902  c0.207,0.576,0.342,0.91,0.342,0.91h26.764c0,0,0,0,0-0.001c0.166-1.149,0.413-2.33,0.754-3.54c0.012-0.052,0.029-0.106,0.045-0.159  c0.144-0.499,0.309-1.003,0.487-1.511c0.048-0.136,0.095-0.272,0.145-0.409c0.209-0.57,0.434-1.143,0.69-1.723  c0.199-0.452,0.413-0.888,0.64-1.311c0.083-0.155,0.176-0.299,0.263-0.45c0.149-0.26,0.296-0.524,0.455-0.773  c0.115-0.18,0.24-0.347,0.36-0.52c0.143-0.206,0.281-0.418,0.431-0.616c0.142-0.188,0.294-0.365,0.443-0.546  c0.138-0.169,0.272-0.343,0.416-0.505c0.168-0.191,0.346-0.369,0.521-0.551c0.016-0.016,0.031-0.033,0.047-0.049  c0.118-0.122,0.233-0.249,0.354-0.367c0.194-0.189,0.396-0.366,0.597-0.545c0.127-0.113,0.251-0.231,0.381-0.341  c0.221-0.186,0.45-0.361,0.678-0.535c0.118-0.09,0.232-0.184,0.352-0.271c0.249-0.181,0.506-0.352,0.763-0.52  c0.105-0.069,0.208-0.142,0.315-0.209c0.276-0.174,0.559-0.336,0.844-0.496c0.093-0.052,0.185-0.108,0.279-0.159  c0.304-0.164,0.614-0.318,0.926-0.468c0.078-0.037,0.154-0.077,0.232-0.113c0.332-0.154,0.669-0.297,1.01-0.435  c0.061-0.025,0.122-0.051,0.183-0.075c0.359-0.141,0.722-0.272,1.089-0.395c0.045-0.015,0.089-0.031,0.134-0.046  c0.383-0.126,0.77-0.242,1.16-0.349c0.03-0.008,0.059-0.017,0.089-0.025c0.404-0.109,0.812-0.209,1.222-0.298  c0.017-0.004,0.034-0.008,0.051-0.011c0.422-0.091,0.846-0.172,1.274-0.243c0.006-0.001,0.013-0.002,0.019-0.003  c0.435-0.072,0.872-0.133,1.31-0.184c0,0,0,0,0.001,0C2314.281,1316.615,2311.696,1311.662,2307.766,1309.697z" style="fill:#E5B51A;"/>
	<path d="M3666.815,1728.416c-6.086-3.283-16.88-12.471-28.218-6.677c-0.047,0-0.079,0-0.087,0.047  c0.003,0.026,0.003,0.053,0,0.079c-6.495,36.115-40.28-6.708-40.548-7.259c-1.575-3.267-27.99,1.953-36.926,5.511l-0.087,0.055  c0.299,0,0.142,0.346-0.331,0.63c-0.389,0.223-0.821,0.359-1.268,0.402l-0.094,0.063c0.973,0.062,1.942,0.191,2.897,0.386  c2.913,0.63,4.377,1.834,4.897,3.354c0.114,0.327,0.193,0.665,0.236,1.008l0,0c0,0.134,0,0.283,0.063,0.433  c0.37,3.189-5.464,7.401,0.205,10.141h0.063c0.071,0,24.486-3.937,43.626,0.276c8.48,1.858,17.628,3.63,25.943,5.015  c7.535,1.26,14.377,2.181,19.416,2.567c1.995,0.179,3.999,0.221,6,0.126h0.425  C3665.949,1744.241,3666.815,1728.416,3666.815,1728.416z" style="fill:#F7CB14;"/>
	<path d="M2339.147,1330.355c-0.12-0.208-0.254-0.406-0.384-0.607c-0.688-1.06-1.519-2.015-2.543-2.805  c-0.552-0.426-1.146-0.828-1.771-1.209c-0.019-0.012-0.037-0.025-0.057-0.036c-4.889-2.956-11.842-4.465-18.418-3.698  c-0.439,0.051-0.876,0.113-1.31,0.184c-0.006,0.001-0.013,0.002-0.019,0.003c-0.427,0.071-0.852,0.152-1.274,0.243  c-0.017,0.004-0.034,0.008-0.051,0.011c-0.41,0.09-0.818,0.189-1.222,0.298c-0.03,0.008-0.059,0.017-0.089,0.025  c-0.39,0.107-0.777,0.223-1.16,0.349c-0.045,0.015-0.089,0.031-0.134,0.046c-0.367,0.123-0.73,0.254-1.089,0.395  c-0.062,0.024-0.122,0.051-0.183,0.075c-0.34,0.137-0.677,0.281-1.01,0.435c-0.078,0.036-0.154,0.076-0.232,0.113  c-0.312,0.149-0.622,0.303-0.926,0.468c-0.094,0.051-0.185,0.106-0.279,0.159c-0.285,0.16-0.567,0.323-0.844,0.496  c-0.107,0.067-0.209,0.14-0.315,0.209c-0.257,0.169-0.514,0.339-0.763,0.52c-0.12,0.087-0.234,0.181-0.352,0.271  c-0.229,0.175-0.457,0.349-0.678,0.535c-0.13,0.109-0.254,0.228-0.381,0.341c-0.201,0.179-0.403,0.356-0.597,0.545  c-0.121,0.118-0.235,0.245-0.353,0.367c-0.016,0.016-0.032,0.033-0.047,0.049c-0.175,0.182-0.352,0.361-0.521,0.551  c-0.143,0.162-0.277,0.336-0.416,0.505c-0.148,0.181-0.3,0.357-0.443,0.546c-0.149,0.198-0.288,0.409-0.431,0.616  c-0.12,0.174-0.245,0.341-0.36,0.52c-0.159,0.249-0.306,0.512-0.455,0.773c-0.087,0.151-0.18,0.295-0.263,0.45  c-0.226,0.423-0.44,0.859-0.64,1.311c-0.256,0.58-0.481,1.153-0.69,1.723c-0.05,0.137-0.098,0.273-0.145,0.409  c-0.178,0.508-0.343,1.012-0.487,1.511c-0.015,0.053-0.033,0.107-0.048,0.16c-0.223,0.788-0.391,1.56-0.537,2.323  c-0.078,0.408-0.159,0.817-0.217,1.217c-1.124,7.785,1.471,14.017,3.095,17.014c0.674,1.245,1.185,1.945,1.185,1.945l38.375-4.743  c0,0,0.596-2.052,1.119-5.086C2341.715,1344.508,2342.41,1336.039,2339.147,1330.355z" style="fill:#E5B51A;"/>
	<path d="M2476.951,415.277v-27h-792v72h792v-27h53.23v-18H2476.951z   M1703.191,433.587h-4.26v-18h4.26V433.587z M1728.231,433.587h-4.25v-18h4.25V433.587z M1753.271,433.587h-4.25v-18h4.25V433.587z   M1778.311,433.587h-4.25v-18h4.25V433.587z" style="fill:#2D88E2;stroke:#231F20;stroke-miterlimit:10;"/>
	<path d="M1246.168,507.12l0.77-1.66c0,0,25.79,6.16,30.41,12.8s15.02,31.76,16.17,35.08  c1.16,3.32,1.16,8.53,1.16,8.53l-0.77,1.66c0,0,0-5.21-1.16-8.53c-1.15-3.32-11.55-28.45-16.17-35.08  C1271.958,513.28,1246.168,507.12,1246.168,507.12z" style="opacity:0.84;fill:#F2F2F1;"/>
	<path d="M2737.276,1289.16c-6.361-19.183-2.385-51.588-2.385-51.588s28.626,2.386,13.518-15.904  s-20.675,0-20.675,0s-3.181-25.151-22.265-15.904c-19.084,9.248,1.59,22.265,1.59,22.265s-8.747-1.59-6.362,8.747  c2.386,10.337,16.699,5.902,16.699,5.902s10.337-6.697,10.337,34.84s-10.337,47.477-10.337,47.477l35.414,8.165  c0,0-0.217-0.587-0.604-1.642c-0.794-2.163-2.311-6.31-4.181-11.505C2744.853,1311.199,2740.665,1299.38,2737.276,1289.16z" style="fill:#0DCC5A;"/>
	<path d="M1243.398,820.56c6.38-0.9,18.83-3.29,23.99-7.79c5.16-4.5,6.38-10.19,6.98-18.29  c0.61-8.09,0.8-32.77,0.8-41.08c0-8.3,1.05-31.66,1.57-40.48c0.53-8.82,3.59-22.78,5.58-28.17c1.98-5.39,3.61-4.23,3.61-4.23  l0.09,0.19c-0.23-0.3-0.94-0.6-2.53,3.77c-1.99,5.48-5.07,19.7-5.6,28.68c-0.53,8.98-1.59,32.75-1.59,41.2  c0,8.45-0.18,33.57-0.79,41.81c-0.61,8.24-1.83,14.04-7.02,18.62c-5.19,4.57-17.7,7.01-24.1,7.93c-6.41,0.91-23.19,0.91-31.43,0.3  s-36.56-9.05-36.56-9.05l-0.67-2c0,0,28.19,8.29,36.39,8.89C1220.318,821.46,1237.018,821.46,1243.398,820.56z" style="opacity:0.84;fill:#F2F2F1;"/>
	<path d="M1146.908,503.79l-0.49-2.35c0,0,36.4-4.38,42.4-3.62c6.01,0.76,45.5,5.72,46.84,7.06  l0.48,2.35c-1.34-1.33-40.83-6.3-46.83-7.06C1183.298,499.41,1146.908,503.79,1146.908,503.79z" style="opacity:0.84;fill:#F2F2F1;"/>
	<path d="M1477.885,1338.381c6.078,0,12.478-0.644,16.532-1.144c-9.094-11.489-15.088-25.276-16.828-40.267  c-16.361-2.951-47.032-7.131-51.373,2.033c-5.961,12.585-9.935,47.42-1.325,74.577c5.51,17.379,13.826,42.489,19.101,58.319  c1.054,3.165-0.453,6.63-3.509,7.968c-6.105,2.674-10.292,8.139-10.292,14.461c0,8.963,8.406,16.228,18.774,16.228  c10.369,0,18.774-7.266,18.774-16.228c0-4.468-2.095-8.507-5.477-11.439c-2.037-1.766-3.271-4.281-3.385-6.975l-4.179-99.253  C1454.698,1336.661,1467.953,1338.381,1477.885,1338.381z" style="fill:#161616;"/>
	<path d="M2158.352,1322.647c-0.471-6.608-0.281-12.539,1.535-14.59c3.93-4.438,7.86-5.762,11.989-6.102  l-0.387-7.992c-0.253-5.227,3.305-9.872,8.417-10.989l24.153-5.277c4.555-0.995,8.923,2.307,9.209,6.96l0.648,10.549  c3.207-5.114,7.844-8.468,14.511-8.362c7.24,0.115,12.549,4.58,16.444,11.066c0.069-4.746,0.545-8.246,1.666-9.341  c4.93-4.82,27.164-4.312,31.907-1.727c1.101,0.6,2.131,3.577,3.066,7.785c9.839-2.2,23.174-4.15,34.99-5.008l-5.037-27.472  c-0.668-3.644,1.959-7.067,5.651-7.364l10.327-0.831c3.271-0.263,6.146,2.15,6.455,5.416l1.47,15.55  c0.917-1.022,2.205-1.717,3.685-1.846l14.246-1.241c3.116-0.272,5.852,2.055,6.086,5.174l1.192,15.923  c9.345-3.033,22.065-4.208,25.919-1.125c1.698,1.359,3.464,5.036,5.101,9.489c4.245-1.224,9.555-2.236,14.768-2.825  c-0.474-4.481-0.784-9.524-0.49-13.782c-9.24-4.344-24.156-7.167-40.993-7.167c-0.714,0-1.422,0.009-2.128,0.019  c2.431-2.094,3.793-4.413,3.793-6.855c0-6.546-9.717-12.216-23.896-14.997c2.448-2.155,3.915-4.821,3.915-7.721  c0-6.088-6.4-11.178-15-12.536c-0.306-12.659-13.037-22.846-28.708-22.846c-15.519,0-28.155,9.991-28.696,22.479  c-0.009,0-0.017,0-0.026,0c-6.394,0-12.139,1.921-16.102,4.973c-4.768-3.117-10.728-4.973-17.199-4.973  c-2.555,0-5.028,0.294-7.383,0.835c-3.215-5.749-9.353-9.64-16.408-9.64c-8.233,0-15.211,5.301-17.754,12.67  c-3.162-2.414-7.099-3.865-11.384-3.865c-7.221,0-13.483,4.078-16.63,10.051c-0.604-0.034-1.212-0.061-1.829-0.061  c-11.84,0-21.437,6.336-21.437,14.153c0,0.565,0.064,1.12,0.162,1.668c-0.054,0-0.108-0.003-0.162-0.003  c-12.184,0-22.062,7.455-22.062,16.65c0,8.142,7.745,14.914,17.976,16.361c-0.31,0.628-0.493,1.28-0.493,1.955  c0,3.92,3.32,9.672,10.135,11.288c-1.081,2.109-1.684,4.431-1.684,6.871c0,3.85,1.507,7.397,4.03,10.283l1.81-1.259  C2157.925,1322.875,2158.137,1322.753,2158.352,1322.647z" style="fill:#1B8FEF;"/>
	<path d="M3622.3,1414.293c-1.795-3.212-73.679,1.575-60.255,8.55c2.541,1.26,5.172,2.325,7.873,3.189  c5.346-0.205,1.417-0.055,0,0c3.425-0.134,11.739,0.504,20.809,0.693c13.141,0.268,27.879-0.417,31.635-5.771  C3621.221,1422.662,3621.134,1412.159,3622.3,1414.293z" style="fill:#D6293A;"/>
	<path d="M1652.795,1287.894c0-2.224-0.096-4.427-0.279-6.607c-0.762-9.074-3.08-17.735-6.705-25.748  l-8.24,12.89l-4.771,7.463c0,0-5.303-2.392-11.604-6.56l-4.154,16.075c0,0-9.514,2.081-25.57-7.136s-16.141-18.713-16.141-18.713  l6.684-9.437c-2.783,1.666-5.801,3.221-8.383,3.971c-2.64,0.767-5.23,1.222-7.435,1.492l3.625,5.331c0,0-3.385,12.271-13.964,17.772  c-10.579,5.501-23.696,2.962-23.696,2.962l-17.383-44.338c-6,2.173-11.268,3.496-11.268,3.496l-0.32-0.468l-4.574-6.694  c-7.06,7.635-12.652,16.5-16.371,26.209c-3.354,8.756-5.186,18.197-5.186,28.041c0,3.068,0.183,6.095,0.529,9.076  c1.74,14.991,7.734,28.778,16.828,40.267c6.522,8.239,14.636,15.295,23.913,20.767c-0.179-14.886-0.109-26.877-0.109-26.877  c0-15.181,9.652-27.488,21.559-27.488s21.559,12.307,21.559,27.488c0,0-0.096,21.101-0.107,39.37  c1.226,0.048,2.457,0.081,3.695,0.081c9.855,0,19.332-1.527,28.177-4.343C1627.812,1355.186,1652.795,1324.285,1652.795,1287.894z" style="fill:#F2F2F1;"/>
	<path d="M2237.145,1365.855c0,0,2.589-14.801,24.856-16.297c22.266-1.496,25.773,13.39,25.773,13.39  L2237.145,1365.855z" style="fill:#BF1682;"/>
	<path d="M1912.797,1786.705c-9.17-49.35-31.36-79.03-48.91-87.34  c-17.55-8.32-40.9-14.57-55.78-15.6c0,0-45.16,3.6-61.53,19.29c-15.15,14.53-43.73,46.3-46.26,87.42  c-1.98,32.14,20.65,91.45,30.16,102.75c10.13,12.02,56.03,44.6,77.63,44.99s70.33-36.37,76.33-44.22  S1921.707,1834.685,1912.797,1786.705z M1733.557,1752.655c-3.58,1.95-5.55,5.07-6.18,6.18c-0.49,0.84-7.15,8.04-7.15,8.04  s0-20.24,13.73-23.13c13.74-2.89,23.86,3.61,33.98-5.79c10.12-9.39,11.56-21.68,11.56-21.68l-0.72,17.35c0,0-2.32,11.75-8.91,14.62  c0,0-11.59,4.41-22,3.76C1737.457,1751.355,1737.137,1750.705,1733.557,1752.655z M1756.987,1806.755c-3.02,0-14.63-2.58-14.63-2.58  s14.19-6.88,17.21-9.9c3.01-3.01,7.74-5.59,10.75-5.59s7.44,4.93,11.62,6.88c4.56,2.14,14.2,5.6,14.2,5.6s-9.9,3.01-13.77,4.73  c-3.87,1.72-6.52,4.98-12.48,5.59C1764.117,1812.075,1759.997,1806.755,1756.987,1806.755z M1855.937,1884.515  c-5.23,2.41-11.68,5.56-14.54,7.62c-4.95,3.56-18.86,10.24-28,10.24c-9.14,0-23.83-8.88-27.07-10.46  c-2.83-1.39-7.83-3.81-12.23-5.94c-2.23-1.08-1.6-4.43,0.88-4.61c8.23-0.61,19.43-2.14,23.56-5.99l4.84-4.51  c0.97-0.91,2.18-0.41,3.41,0.09c2,0.82,3.74,1.21,6.26,0.95c2.94-0.31,4.14-0.78,5.97-1.75c1.13-0.61,2.43-0.77,3.31,0.16  c1.85,1.95,5.1,4.85,8.78,5.77c3.63,0.9,15.76,2.66,24.15,3.82C1857.657,1880.245,1858.137,1883.505,1855.937,1884.515z   M1863.277,1805.625c-3.02,0-7.14,5.32-12.91,4.73c-5.96-0.61-8.61-3.87-12.48-5.59c-3.87-1.72-13.77-4.73-13.77-4.73  s9.64-3.46,14.2-5.59c4.18-1.96,8.61-6.89,11.62-6.89s7.74,2.58,10.75,5.59c3.02,3.02,17.21,9.9,17.21,9.9  S1866.287,1805.625,1863.277,1805.625z M1887.427,1758.835c-0.64-1.11-2.61-4.23-6.18-6.18c-3.58-1.95-3.91-1.3-14.32-0.65  c-10.4,0.65-22-3.76-22-3.76c-6.59-2.87-8.9-14.62-8.9-14.62l-0.73-17.35c0,0,1.45,12.29,11.57,21.68  c10.12,9.4,20.24,2.9,33.97,5.79c13.74,2.89,13.74,23.13,13.74,23.13S1887.907,1759.675,1887.427,1758.835z" style="fill:#E22323;stroke:#000000;stroke-miterlimit:10;"/>
	<path d="M3141.989,1461.267h-136.726c-6.539,0-11.839,5.3-11.839,11.839v480.322  c0,6.539,5.3,11.839,11.839,11.839h136.727c6.539,0,11.839-5.301,11.839-11.839v-480.322  C3153.828,1466.567,3148.528,1461.267,3141.989,1461.267z M3119.697,1517.866h7.768v12.541h-7.768V1517.866z M3119.697,1549.777  h7.768v12.541h-7.768V1549.777z M3119.54,1565.478h7.768v12.541h-7.768V1565.478z M3127.435,1581.18v12.541h-7.768v-12.541H3127.435  z M3119.54,1614.591h7.768v12.541h-7.768V1614.591z M3119.54,1679.261h7.768v12.541h-7.768V1679.261z M3119.54,1695.471h7.768  v12.541h-7.768V1695.471z M3107.099,1871.742v-12.541h7.768v12.541H3107.099z M3114.866,1874.902v23.896h-7.768v-23.896H3114.866z   M3107.099,1823.357v-12.541h7.768v12.541H3107.099L3107.099,1823.357z M3107.099,1740.764v-12.541h7.768v12.541H3107.099  L3107.099,1740.764z M3114.866,1744.433v12.541h-7.768v-12.541L3114.866,1744.433L3114.866,1744.433z M3106.844,1630.292h7.768  v12.541h-7.768V1630.292z M3106.844,1663.56h7.768v12.541h-7.768V1663.56z M3106.844,1761.27h7.768v12.541h-7.768V1761.27z   M3106.844,1776.972h7.768v12.541h-7.768V1776.972z M3094.651,1533.567h7.768v12.541h-7.768V1533.567z M3094.621,1581.18h7.768  v12.541h-7.768V1581.18z M3094.494,1663.56h7.768v12.541h-7.768V1663.56z M3082.245,1855.268v-12.541h7.768v12.541H3082.245z   M3090.013,1859.201v12.541h-7.768v-12.541H3090.013L3090.013,1859.201z M3082.148,1549.777h7.768v12.541h-7.768V1549.777z   M3090.013,1744.433v12.541h-7.768v-12.541L3090.013,1744.433L3090.013,1744.433z M3081.991,1614.591h7.768v12.541h-7.768V1614.591z   M3081.991,1646.502h7.768v12.541h-7.768V1646.502z M3081.991,1695.471h7.768v12.541h-7.768V1695.471z M3081.991,1761.27h7.768  v12.541h-7.768V1761.27z M3081.991,1793.181h7.768v12.541h-7.768V1793.181z M3069.742,1740.764v-12.541h7.768v12.541H3069.742  L3069.742,1740.764z M3077.51,1744.433v12.541h-7.768v-12.541L3077.51,1744.433L3077.51,1744.433z M3069.742,1725.062v-12.541h7.768  v12.541H3069.742z M3069.615,1549.777h7.768v12.541h-7.768V1549.777z M3069.615,1565.478h7.768v12.541h-7.768V1565.478z   M3069.488,1614.591h7.768v12.541h-7.768V1614.591z M3069.488,1630.292h7.768v12.541h-7.768V1630.292z M3069.488,1679.261h7.768  v12.541h-7.768V1679.261z M3069.488,1776.972h7.768v12.541h-7.768V1776.972z M3077.51,1842.727v12.541h-7.768v-12.541H3077.51  L3077.51,1842.727z M3057.032,1823.357v-12.541h7.768v12.541H3057.032L3057.032,1823.357z M3064.799,1874.902v23.896h-7.768v-23.896  H3064.799z M3056.934,1517.866h7.768v12.541h-7.768V1517.866z M3064.799,1728.223v12.541h-7.768v-12.541H3064.799z   M3056.905,1581.18h7.768v12.541h-7.768V1581.18z M3056.777,1630.292h7.768v12.541h-7.768V1630.292z M3056.777,1646.502h7.768  v12.541h-7.768V1646.502z M3056.777,1776.972h7.768v12.541h-7.768V1776.972z M3044.337,1533.567h7.768v12.541h-7.768V1533.567z   M3044.337,1549.777h7.768v12.541h-7.768V1549.777z M3031.681,1565.478h7.768v12.541h-7.768V1565.478z M3039.576,1712.521v12.541  h-7.768v-12.541L3039.576,1712.521L3039.576,1712.521z M3031.554,1630.292h7.768v12.541h-7.768V1630.292z M3031.554,1663.56h7.768  v12.541h-7.768V1663.56z M3031.554,1679.261h7.768v12.541h-7.768V1679.261z M3031.554,1761.27h7.768v12.541h-7.768V1761.27z   M3039.576,1859.201v12.541h-7.768v-12.541H3039.576L3039.576,1859.201z M3019.084,1517.866h7.768v12.541h-7.768V1517.866z   M3019.054,1581.18h7.768v12.541h-7.768V1581.18z M3018.927,1614.591h7.768v12.541h-7.768V1614.591z M3018.927,1646.502h7.768  v12.541h-7.768V1646.502z M3018.927,1679.261h7.768v12.541h-7.768V1679.261z M3018.927,1793.181h7.768v12.541h-7.768V1793.181z   M3026.949,1898.798h-7.768v-23.896h7.768V1898.798z M3026.949,1823.357h-7.768v-12.541h7.768V1823.357z M3026.949,1740.764h-7.768  v-12.541h7.768V1740.764z M3042.961,1941.999h-13.188v-24.983h13.188V1941.999z M3043.926,1596.881h7.768v14.549h-7.768V1596.881z   M3051.948,1695.471v12.541h-7.768v-12.541H3051.948z M3044.18,1793.181h7.768v12.541h-7.768V1793.181z M3052.202,1855.268h-7.768  v-12.541h7.768V1855.268z M3052.202,1839.058h-7.768v-12.541h7.768V1839.058z M3052.202,1725.062h-7.768v-12.541h7.768V1725.062z   M3091.659,1941.999h-37.024v-24.983h37.024V1941.999z M3094.494,1776.972h7.768v12.541h-7.768V1776.972z M3102.516,1898.798h-7.768  v-23.896h7.768V1898.798z M3102.516,1839.058h-7.768v-12.541h7.768V1839.058z M3102.516,1756.974h-7.768v-12.541h7.768V1756.974z   M3102.516,1740.764h-7.768v-12.541h7.768V1740.764z M3102.516,1725.062h-7.768v-12.541h7.768V1725.062z M3116.376,1941.999h-13.188  v-24.983h13.188V1941.999z M3119.54,1761.27h7.768v12.541h-7.768V1761.27z M3127.562,1871.742h-7.768v-12.541h7.768V1871.742z   M3127.562,1855.268h-7.768v-12.541h7.768V1855.268z M3127.562,1823.357h-7.768v-12.541h7.768V1823.357z M3127.562,1740.764h-7.768  v-12.541h7.768V1740.764z" style="fill:#0A0A0A;"/>
	<rect height="21.6" style="fill:#F79514;stroke:#231F20;stroke-miterlimit:10;" width="5.4" x="631.369" y="2276.948"/>
	<path d="M2383.321,1349.883c0,0-0.012-9.079-6.173-16.236c-4.005-4.653-10.602-8.495-21.508-8.495  c-7.62,0-13.028,1.879-16.878,4.596c0.13,0.201,0.265,0.399,0.384,0.607c0.186,0.323,0.355,0.658,0.516,0.999  c0.05,0.106,0.096,0.214,0.143,0.321c0.108,0.244,0.212,0.491,0.308,0.742c0.046,0.12,0.092,0.24,0.135,0.361  c0.096,0.268,0.186,0.541,0.27,0.816c0.029,0.095,0.061,0.189,0.089,0.285c0.106,0.368,0.203,0.742,0.289,1.12  c0.02,0.088,0.036,0.177,0.055,0.265c0.064,0.297,0.124,0.596,0.176,0.898c0.023,0.132,0.044,0.264,0.065,0.397  c0.043,0.271,0.082,0.544,0.116,0.818c0.016,0.128,0.033,0.256,0.048,0.385c0.038,0.34,0.071,0.682,0.097,1.024  c0.004,0.054,0.01,0.107,0.014,0.161c0.029,0.398,0.049,0.796,0.064,1.194c0.004,0.113,0.006,0.226,0.009,0.339  c0.008,0.293,0.013,0.586,0.014,0.878c0,0.126,0,0.251,0,0.376c-0.002,0.304-0.007,0.606-0.016,0.907  c-0.003,0.093-0.004,0.187-0.007,0.28c-0.014,0.401-0.033,0.8-0.057,1.193c0,0.005-0.001,0.009-0.001,0.014  c-0.024,0.388-0.054,0.771-0.086,1.149c-0.007,0.079-0.014,0.156-0.021,0.234c-0.029,0.32-0.061,0.636-0.095,0.948  c-0.007,0.065-0.014,0.13-0.021,0.194c-0.131,1.155-0.292,2.245-0.462,3.229v0.001L2383.321,1349.883L2383.321,1349.883z" style="fill:#0DCC5A;"/>
	<rect height="21.6" style="fill:#F79514;stroke:#231F20;stroke-miterlimit:10;" transform="matrix(6.123234e-17 -1 1 6.123234e-17 -1689.3531 2642.4512)" width="29.183" x="461.958" y="2155.102"/>
	<path d="M3701.253,1861.176c0-2.244-18.951-5.37-22.762-4.724c-0.724,0.134-1.449,0.268-2.197,0.378  c-11.479,1.661-25.132,0.945-38.689-1.362c-6.443-1.101-12.824-2.538-19.117-4.307c-4.141-1.173-8.165-2.464-12.007-3.858  c-2.771-1-5.448-2.055-7.999-3.149c-2.362-1.016-4.574-2.063-6.677-3.149c-2.913-1.488-14.558-12.597-14.558-12.597l-0.661,0.102  l-0.244-0.26l-0.724-0.126c0,0-20.203-3.504-28.998-25.297c-1.409-1.212-5.078-6.409-10.873-5.307  c-9.74,1.858,5.464,22.274,5.102,18.109c0.787,8.535,38.705,36.406,45.406,45.555c1.843,2.071,3.708,4.275,5.59,6.511l2.827,3.354  c1.26,1.85,2.535,3.693,3.811,5.511c1.465,2.039,2.929,4,4.409,5.834c7.873,9.755,15.999,15.589,24.21,7.472l2.441-0.512  c1.126-1.472,2.252-2.795,3.378-4c1.447-1.555,3.013-2.995,4.685-4.307c12.66-9.81,26.061-10.849,35.587-7.818  c1.386-0.37,6.708,4,8.007,3.645c5.165,1.37,13.668,0.945,15.817-3.645C3711.796,1874.301,3701.316,1865.923,3701.253,1861.176z" style="fill:#0DCC5A;"/>
	<path d="M1652.795,1287.894c0-2.224-0.096-4.427-0.279-6.607c-0.762-9.074-3.08-17.735-6.705-25.748  l-8.24,12.89l-4.771,7.463c0,0-5.303-2.392-11.604-6.56l-4.154,16.075c0,0-9.514,2.081-25.57-7.136s-16.141-18.713-16.141-18.713  l6.684-9.437c-2.783,1.666-5.801,3.221-8.383,3.971c-2.64,0.767-5.23,1.222-7.435,1.492l3.625,5.331c0,0-3.385,12.271-13.964,17.772  c-10.579,5.501-23.696,2.962-23.696,2.962l-17.383-44.338c-6,2.173-11.268,3.496-11.268,3.496l-0.32-0.468l-4.574-6.694  c-7.06,7.635-12.652,16.5-16.371,26.209c-3.354,8.756-5.186,18.197-5.186,28.041c0,3.068,0.183,6.095,0.529,9.076  c1.74,14.991,7.734,28.778,16.828,40.267c6.522,8.239,14.636,15.295,23.913,20.767c-0.179-14.886-0.109-26.877-0.109-26.877  c0-15.181,9.652-27.488,21.559-27.488s21.559,12.307,21.559,27.488c0,0-0.096,21.101-0.107,39.37  c1.226,0.048,2.457,0.081,3.695,0.081c9.855,0,19.332-1.527,28.177-4.343C1627.812,1355.186,1652.795,1324.285,1652.795,1287.894z" style="fill:#F2F2F1;"/>
	<path d="M2115.561,1369.297c0,0,2.606-12.625,27.796-14.793c25.19-2.168,28.665,7.396,28.665,7.396  L2115.561,1369.297z" style="fill:#BF1682;"/>
	<path d="M1607.793,2293.639c-1.302-33.462-7.729-184.51-13.448-252.87  c-12.716-151.983-49.392-307.27-49.392-307.27l-11.629,0.52l-3.229,0.144l-25.219,1.128l-14.792,0.662l-17.348,0.776l-5.828,0.261  l-25.196,1.127l-4.247,0.19l-18.697,0.836l-2.589,0.116c0,0-11.992,111.353-11.992,253.543c0,173.986,14.602,288.821,16.843,305.419  c0.186,1.379,0.288,2.087,0.288,2.087c0,17.266,3.164,33.623,8.798,48.286c2.311,6.015,5.044,11.737,8.146,17.122  c10.328,17.933,24.779,32.056,41.681,40.332c10.741,5.26,22.458,8.182,34.74,8.182c1.929,0,3.839-0.094,5.738-0.235  c15.564-1.153,30.104-6.935,42.687-16.267c14.041-10.414,25.647-25.223,33.548-42.857c7.26-16.204,11.392-34.794,11.392-54.563  C1608.049,2300.308,1607.96,2297.929,1607.793,2293.639z" style="fill:#F2F2F1;"/>
	<path d="M2784.179,1403.787c0,0,6.822,0,11.461,4.746c5.685,5.817,8.58,16.181,8.58,16.181  s-6.396,4.69-3.838,11.513c2.559,6.822,12.792,5.969,17.056,4.264s5.969-5.543,4.16-11.513s-9.703-4.264-9.703-4.264  s-5.237-11.086-8.648-15.777c-2.387-3.283-2.835-12.103-2.89-17.105c-1.936,0.458-3.694,0.957-5.237,1.457L2784.179,1403.787z" style="fill:#F464BA;"/>
	<path d="M2177.786,1343.075c-3.211-0.973-6.768-1.677-10.634-1.915c-2.786-0.171-5.729-0.104-8.822,0.289  c-23.908,3.034-20.992,16.205-20.992,16.205l41.984,2.065l18.077-5.215C2197.4,1354.504,2190.154,1346.821,2177.786,1343.075z" style="fill:#BF1682;"/>
	<path d="M2313.408,1361.74c0,0,6.875-9.09,14.515-9.472c7.639-0.382,24.828,7.444,24.828,7.444  L2313.408,1361.74z" style="fill:#0DCC5A;"/>
	<path d="M2363.223,1365.855c0,0,3.373-21.831,22.048-22.67s19.544,14.588,19.544,14.588L2363.223,1365.855z" style="fill:#BF1682;"/>
	<rect height="21.6" style="fill:#F79514;stroke:#231F20;stroke-miterlimit:10;" transform="matrix(6.123234e-17 -1 1 6.123234e-17 -1926.1897 2888.9087)" width="29.183" x="466.768" y="2396.749"/>
	<path d="M3052.756,940.883l-125.05-176.12l-78.26,55.57l-16.69-23.51  l-17.61,12.51l16.69,23.5l-76.14,54.06l125.05,176.12l75.98-53.95l16.8,23.67l17.62-12.51l-16.81-23.66L3052.756,940.883z   M2838.586,964.913l-12.5-17.61l4.4-3.12l12.51,17.61L2838.586,964.913z M2973.076,842.933l12.51,17.61l-4.41,3.13l-12.5-17.61  L2973.076,842.933z" style="fill:#B71515;stroke:#231F20;stroke-miterlimit:10;"/>
	<path d="M958.816,1195.203c-0.604-4.519-0.339-39.708-0.142-59.066c-3.387,0.714-6.921,1.277-10.598,1.657  c-2.289,0.237-4.688,0.011-7.099-0.621l-14.72,142.393l0.001,0c3.046-1.857,6.502-3.223,11.179-3.446  c2.361-0.112,4.465,0.189,6.432,0.735C948.514,1254.281,959.478,1200.158,958.816,1195.203z" style="fill:#0A0A0A;"/>
	<path d="M1438.395,1705.92c2.02-2.424,4.533-4.436,7.392-5.884c-1.609-3.418-2.521-7.228-2.521-11.259  c0-3.214,0.6-6.28,1.647-9.131c-2.007-0.584-4.11-0.921-6.291-0.921c-13.158,0-23.825,11.333-23.825,25.314  c0,0.988,0.066,1.958,0.17,2.916c3.359-2.805,7.679-4.497,12.397-4.497C1431.466,1702.459,1435.264,1703.744,1438.395,1705.92z" style="fill:#E5B51A;"/>
	<path d="M643.987,249.91c-49.71,0-90,40.29-90,90c0,49.7,40.29,90,90,90  c49.7,0,90-40.3,90-90C733.987,290.2,693.688,249.91,643.987,249.91z M643.987,411.91c-39.77,0-72-32.24-72-72  c0-39.77,32.23-72,72-72c39.76,0,72,32.23,72,72C715.987,379.67,683.747,411.91,643.987,411.91z" style="fill:#0DCC5A;stroke:#231F20;stroke-miterlimit:10;"/>
	<path d="M1593.675,2722.501l-14.638-19.572c-1.77-2.366-2.705-5.253-2.66-8.208l3.456-223.841  c0.073-4.727-0.76-9.425-2.454-13.839l-14.144-36.855c-4.099,5.444-11.108,9.084-19.125,9.296l16.22,29.796  c1.699,3.121,2.252,6.725,1.559,10.21c-3.091,15.55-9.861,37.574-11.043,75.465c-0.989,31.699,9.292,116.133,11.436,148.704  c0.431,6.542,3.166,12.703,7.72,17.418l11.691,13.139c2.619,2.711,5.227,4.243,8.998,4.243  C1593.759,2728.457,1595.512,2724.957,1593.675,2722.501z" style="fill:#161616;"/>
	<path d="M2427.654,1417.939c4.3,6.093,12.254,10.186,21.361,10.186c7.453,0,14.131-2.743,18.67-7.078  c-4.027-6.51-8.524-12.635-13.49-17.853C2450.817,1409.74,2440.872,1415.149,2427.654,1417.939z" style="fill:#F7CB14;"/>
	<path d="M3143.527,2154.044c-16.515-5.653-26.521-19.762-17.666-30.328  c8.115-9.683,27.328-12.78,44.432-13.687c20.882-1.107,45.558,0.826,56.364,12.321c10.826,11.516,1.917,26.368-9.016,37.843  c-10.933,11.475-24.38,23.534-22.125,36.898c1.651,9.784,13.281,18.926,28.409,20.665c15.128,1.739,31.982-5.212,33.959-14.972  c3.27-16.138-29.957-30.502-20.097-45.501c4.688-7.13,18.595-10.599,30.354-8.823c11.759,1.776,21.106,7.836,26.338,14.809  c5.232,6.973,6.875,14.814,7.711,22.531c1.308,12.082,0.453,25.004-10.065,35.069c-10.488,10.037-29.534,15.63-48.383,16.041  c-18.849,0.411-37.399-3.882-53.372-10.303c-10.142-4.077-20.882-9.257-32.718-8.095c-15.968,1.568-23.719,14.95-17.485,24.493  c6.234,9.543,21.711,15.3,37.174,18.292c52.751,10.21,115.104-7.284,139.141-39.037c24.037-31.753,6.854-73.932-38.342-94.122  c-12.098-5.404-26.911-10.227-31.091-19.285c-4.253-9.216,6.251-19.719,20.765-22.166c14.514-2.446,30.719,2.556,38.438,10.797  c5.964,6.368,7.287,14.005,9.761,21.26c2.474,7.254,6.839,14.869,16.52,18.956c9.682,4.087,25.706,2.295,28.941-4.836  c3.301-7.278-7.821-14.609-5.748-22.071c1.961-7.054,15.462-10.725,26.388-9.178c10.926,1.547,19.605,6.709,27.507,11.782  c11.556,7.419,23.143,15.594,26.911,25.791s-3.342,22.787-19.038,25.753c-16.835,3.181-36.263-5.407-51.774-0.146  c-14.591,4.949-14.727,18.391-9.754,28.473c4.973,10.082,13.075,20.639,8.019,30.704c-7.295,14.52-38.883,20.874-41.868,36.006  c-2.367,12,15.505,21.856,33.395,25.741c17.89,3.885,37.676,4.425,54.113,10.386c21.072,7.643,33.162,24.287,28.713,39.53  c-4.449,15.243-25.11,27.968-49.071,30.222c-23.961,2.254-49.465-6.129-60.572-19.908c-5.19-6.438-7.284-14.354-2.504-20.921  s17.856-10.78,28.072-7.665c8.417,2.567,12.412,9.1,11.896,15.061c-0.516,5.961-4.64,11.515-8.689,16.892  c8.649,2.346,19.283,0.155,25.476-4.368c6.193-4.523,8.325-10.913,7.333-16.894c-2.466-14.87-25.091-27.163-48.405-26.301  c-23.314,0.862-43.578,14.742-43.353,29.694c0.184,12.232,11.687,25.707,0.845,35.779c-10.132,9.413-33.536,8.094-47.903,1.307  c-15.899-7.511-25.308-20.327-24.198-32.958c1.11-12.631,12.705-24.69,29.819-31.012c6.168-2.278,13.014-3.87,18.535-6.75  c5.521-2.88,9.574-7.617,7.412-11.961c-2.445-4.911-11.365-7.085-19.332-7.825c-26.823-2.491-55.316,4.374-72.921,17.569  c-17.605,13.195-23.745,32.288-15.713,48.863c3.174,6.55,8.42,13.5,4.649,19.919c-2.926,4.98-10.863,8.205-19.019,9.223  c-8.155,1.018-16.577,0.177-24.73-0.85c-16.141-2.033-32.24-4.84-46.626-9.949c-14.386-5.108-27.043-12.71-33.591-22.373  c-6.548-9.663-6.267-21.487,2.868-30.246c9.135-8.76,27.698-13.493,43.098-9.791c15.401,3.702,24.497,16.408,17.011,25.787  c-5.724,7.172-19.693,13.831-14.23,21.085c2.863,3.802,10.566,5.353,16.967,4.345c6.401-1.008,11.587-4.026,15.631-7.359  c14.271-11.761,16.744-28.898,6.079-42.134c-10.665-13.236-33.909-21.877-57.148-21.246c-21.647,0.588-44.483,8.299-63.767,1.975  c-11.316-3.711-18.11-11.651-20.117-19.69c-2.007-8.038,0.114-16.25,2.702-24.22c2.452-7.549,5.566-15.352,13.404-21.206  c7.838-5.854,21.764-9.073,32.301-5.34c17.796,6.305,12.389,25.003,27.212,33.921c10.668,6.418,29.513,4.861,39.236-2.145  c9.723-7.006,10.759-17.845,4.904-26.435c-5.855-8.59-17.593-15.089-30.564-19.432c-17.932-6.004-38.659-8.434-55.362-15.748  c-16.703-7.314-28.04-22.707-16.289-33.255c11.553-10.372,37.217-8.857,53.874-1.89s28.614,17.814,45.118,24.928  c15.178,6.543,34.579,9.606,52.234,6.527c17.655-3.079,32.68-12.942,34.471-24.602c1.792-11.66-11.761-23.929-29.941-25.258  c-6.612-0.483-13.854,0.554-18.329,3.708s-5.003,8.661-0.023,11.487c4.266,2.421,10.7,2.237,16.317,1.616  c6.258-0.692,15.294-2.154,20.185,1.437c5.09,3.737,1.741,6.875-4.169,8.727C3176.516,2160.024,3155.688,2158.208,3143.527,2154.044  z" style="fill:#D6293A;"/>
	<path d="M1007.266,1094.075c0,10.07-8.163,18.233-18.233,18.233s-18.233-8.163-18.233-18.233  c0-10.07,8.163-18.233,18.233-18.233S1007.266,1084.005,1007.266,1094.075z" style="fill:#161616;"/>
	<path d="M2177.786,1326.803c0-1.1-0.9-2-2-2h-6.634c-1.1,0-2,0.9-2,2v14.357  c3.865,0.238,7.422,0.942,10.634,1.915V1326.803z" style="fill:#E22323;"/>
	<path d="M2088.991,2295.592c35.1-7.4,50.5-33.3,52-45.4c0.1-0.8-0.1-1.6-0.6-2.2c-10.9-15.4-46-10.3-62.7-3.5  c-0.7,0.3-1.3-0.7-0.7-1.2c38-33.6,2-54.4-37.5-37.4c35-52.5,6.4-80.3-46.1-37.5c2.1-18.9-3.1-49.3-25-62.7  c-0.8-0.5-1.8-0.7-2.7-0.6c-24.3,3.3-38.6,25.1-42,63.3c-16.1-26.7-26.7-33.2-34.7-32.6c-2.4,0.2-4.6,1.5-6,3.5  c-7,10.6-9.5,19.1-5.7,41.1c0.3,1.8-1.9,2.8-3.1,1.5c-15.8-19-46-27-64.4-11.2c-0.7,0.6-1.2,1.4-1.5,2.4  c-6.6,25.9,11.2,48.3,20.5,53.4c0.4,0.2,0.3,0.9-0.2,0.9c-20.6,0.5-27.8,9.1-31.3,15.3c-0.8,1.4-1.1,3.1-0.8,4.7  c1.3,6.7,7.8,17.1,13.8,23.9c0.3,0.4-0.1,0.9-0.5,0.6c-18.1-10.9-56-7.9-67.1,19.7c-0.8,1.9-0.8,4.1,0,6c10.7,25.5,42.5,27,55.9,27  c1.2,0,1.6,1.5,0.6,2.1c-11,7.5-19.1,21.9-15.8,29c8.4,12.7,41.9,8.8,55.5,2.4c0.7-0.4,1.5,0.5,1,1.2c-2.5,3.4-5.1,8.2-5.4,14.8  c-0.1,2.4-1.9,4.4-4.2,5c-17.5,4-40.1,20.3-33,56.7c0.3,1.5,1.5,2.7,3.1,3c29.6,4.7,54.1-10.1,62.8-29.4c0.4-0.9,1.8-0.6,1.8,0.4  c-0.4,14.3,2.3,22,4.3,25.8c0.9,1.7,0.9,3.6,0,5.3c-10.6,20.3-9.4,61.7,20.8,62.3c0.8,0,1.7-0.2,2.4-0.6  c20.8-12.1,35.1-36.1,39.7-51.2c0.5-1.8,2.9-2,3.8-0.4c8.8,15.9,23.9,21.7,29.6,20.5c4.9-1.1,10-8,13-14.8c0.6-1.4,2.7-1.2,3.1,0.3  c5.8,23,29.5,49.3,46.6,46.3c17.1-3,27-33.2,21.4-51.1c-0.6-1.9,1-3.9,3-3.6c12.8,1.4,22.4-6.7,25.9-10.3c1-1,1.6-2.3,1.7-3.7  c2.1-27.1-10.7-43-19.6-51c-1.2-1.1-0.6-3.2,1.1-3.3c13.8-1.5,20.9-7,23.7-9.9c1-1,1.5-2.4,1.4-3.8c-0.5-7-2.7-11.9-4.2-14.6  c-0.5-0.8,0.3-1.7,1.2-1.4c22.3,8.4,45.7,3.2,57-11.1c0.8-1,1.2-2.4,1.1-3.7c-3-24.8-21.8-37.2-53.1-38.7  C2088.391,2296.692,2088.391,2295.692,2088.991,2295.592z M2131.091,2247.292c1.9,0.6,2.9,2.8,2,4.6c-23.3,48.6-72,40.5-83.1,31.4  c-1.3-1-1.8-2.7-1.2-4.3c0.6-1.7,1.3-4.4,1.3-7.8c0-0.8,0.2-1.6,0.8-2.2C2077.191,2239.792,2112.291,2241.192,2131.091,2247.292z   M1983.291,2271.892l-5.5-4.4c1.1-5.5,10.9-12.2,21.4-12.8c1.4-0.1,2.6,1.2,2.3,2.6  C2000.291,2263.192,1989.891,2270.492,1983.291,2271.892l-0.8-0.7C1982.691,2271.392,1982.991,2271.692,1983.291,2271.892z   M1997.891,2296.392L1997.891,2296.392c7.6,1.8,11.4,10.8,1.5,10.9L1997.891,2296.392L1997.891,2296.392L1997.891,2296.392z   M1997.791,2321.092c13.9-4.5,23.1,6.6,22.3,19.6c-0.1,1.6-1.1,3-2.5,3.6c-13.6,5.8-24.4,1.7-27.7-6.4L1997.791,2321.092z   M2008.091,2271.792c-2.5-16.6,32.8-18,36.3,0.7c0.2,1.1,0,2.2-0.5,3.1C2035.591,2290.192,2011.491,2285.492,2008.091,2271.792z   M2026.891,2302.092c0.1-0.7,0.3-1.3,0.7-1.9c9.9-14,43.8-10.2,50.6,9.6c0.3,2.1-0.8,4.8-2.8,5.6c-6.2,2.3-19,7.2-27.3,5.7  C2036.891,2319.192,2025.091,2314.692,2026.891,2302.092z M2084.191,2215.092c-7,30.8-35.8,42.9-62.1,32.4c-1-0.4-1.7-1.4-1.8-2.5  c-2-29.3,41.9-46.4,61.8-34.7C2083.791,2211.292,2084.591,2213.192,2084.191,2215.092z M2046.991,2158.192  c5.5,11.7-5.2,46.6-28.6,51.8c-1.3,0.3-2.7-0.4-3.4-1.6c-2.4-4.3-11.8-3.7-17.8-2.5c-1.3,0.3-2.6-0.5-3-1.8  c-9.2-29.9,20.8-49.2,48.6-48.6C2044.591,2155.492,2046.191,2156.492,2046.991,2158.192z M2009.591,2211.492  c0.9,0.5,1.4,1.4,1.5,2.4c1.7,24.9-10.5,34.8-21.5,28.8C1967.491,2225.292,1997.991,2204.492,2009.591,2211.492z M1966.891,2111.192  c22.8,13.3,17.8,44.1,9.3,60.6c-0.9,1.7-3.1,2-4.4,0.7c-10-10-11.9-11.1-24.2-6c-1.4,0.6-3,0-3.7-1.4c-15.3-31.2,8-52.7,20.5-54.4  C1965.191,2110.592,1966.091,2110.792,1966.891,2111.192z M1890.791,2141.492c13,3.3,41,38.9,26.1,65.9c-0.5,1-1.6,1.6-2.8,1.4  c-4.5-0.7-6.5,0.5-8.8,3.3c-1,1.2-2.7,1.4-3.9,0.4c-9-7.2-30.6-39.2-14.9-69.1  C1887.291,2141.892,1889.091,2141.092,1890.791,2141.492z M1902.991,2325.792L1902.991,2325.792  C1902.991,2325.792,1902.991,2325.692,1902.991,2325.792c0.1,0,4.7,9.4,4.7,9.5l0,0l0,0c-3.7,1-7.4,0.9-7.8-0.3  C1899.391,2333.292,1900.191,2328.592,1902.991,2325.792L1902.991,2325.792z M1905.991,2260.792c4.5-0.5,9.1,5,10.5,10.6l-9.1,10.7  c-5.3-2.6-8.6-12.4-3.8-19.9C1904.191,2261.392,1905.091,2260.892,1905.991,2260.792z M1899.991,2306.892c0-0.1,0-0.1,0-0.2  V2306.892c-4.7,4.9-12.1,0.3-14.5-5.7c-0.6-1.5,0.1-3.2,1.5-3.9c3.9-1.9,11-2.1,14.1,0.6  C1900.891,2299.192,1900.091,2305.692,1899.991,2306.892z M1860.091,2218.792c0.5-2.4,3-4.4,5.4-4.4c23.3-0.2,32.5,11.6,23.9,38  c-0.3,1-1.1,1.7-2.2,2C1873.891,2257.492,1851.891,2257.192,1860.091,2218.792z M1877.691,2290.792c-12.1,5-20.1-8.7-18.3-19.8  c0.2-1.1,1.2-2,2.3-2.1c12.5-0.9,25.8,9.5,17.4,20.8C1878.691,2290.192,1878.191,2290.592,1877.691,2290.792z M1870.991,2309.592  c-12.6,15.9-35,16.3-47.2,0.2c-1.3-1.7-1.4-4.1-0.3-6c10.4-16.5,47.3-19.1,48.3,3.5  C1871.791,2308.092,1871.491,2308.892,1870.991,2309.592z M1858.791,2337.492c2-5.5,23-20.7,30.1-2.6c0.3,0.7,0.2,1.5-0.1,2.2  C1883.691,2348.292,1856.891,2342.892,1858.791,2337.492z M1815.091,2174.092c30.2-20.6,65.1,10.8,64.8,30.3c0,1.4-1.2,2.5-2.6,2.3  c-7.3-1-17.7,1.5-18.8,2.5c-1.1,0.9-3,2.7-4.9,9.8c-0.3,1.2-1.5,1.9-2.7,1.8c-29.5-4.4-42.6-33.8-37.2-44.9  C1813.991,2174.992,1814.491,2174.492,1815.091,2174.092z M1806.391,2242.392c18.9-14.7,53.1-8.7,51.1,18.3c-0.1,1-0.6,2-1.5,2.5  c-16,10.6-44.9,7.4-51.4-15.6C1804.091,2245.592,1804.791,2243.592,1806.391,2242.392z M1747.991,2290.592  c11.2-18.3,52.9-25.5,77.8,2.4c0.5,0.6,0.5,1.5-0.1,2.1c-10.2,9.3-9.3,12.1-7.2,15.5c0.4,0.6,0.1,1.4-0.5,1.7  c-16.4,7-49.2,13.7-69.7-15.2C1746.791,2295.192,1746.791,2292.592,1747.991,2290.592z M1791.091,2355.092c-2.2-1.2-2.9-4-1.6-6.2  c23.5-35.5,52.6-19.2,56.8-10.3c0.2,0.4,0.3,0.9,0.3,1.3C1845.591,2355.792,1810.191,2365.492,1791.091,2355.092z   M1805.691,2434.992c-1.9,0.1-3.5-1.2-4-3c-6.2-21.7,12.5-47.1,33.1-49.6c0.9-0.1,1.8,0.4,2.2,1.2c3.3,6,11.5,5.9,15.1,5.5  c1-0.1,1.9,0.6,2.1,1.5C1856.791,2404.992,1848.591,2433.792,1805.691,2434.992z M1844.691,2383.292c-1.2-0.4-2-1.5-2.1-2.8  c-0.9-28,16.7-31,33.4-20.5c0.5,0.3,1,0.9,1.1,1.5C1879.191,2369.192,1860.891,2388.392,1844.691,2383.292z M1889.491,2497.892  c-15.3,2.3-29.7-22.6-15.9-53.8c0.5-1.2,2-1.6,3.1-0.8c8.5,6.1,17.2,1.1,25.1-7.6c0.9-1,2.4-0.9,3.2,0.2  C1915.391,2449.692,1904.791,2492.292,1889.491,2497.892z M1888.891,2436.592c-3.5,2.4-8.2,1.6-10.7-1.8  c-13.9-19.3,0-41.7,15.5-47.8c0.8-0.3,1.6-0.2,2.3,0.3c1.6,1.1,5.4,2.8,11.2,0.2c1.2-0.5,2.7-0.1,3.4,1.1  C1916.891,2399.192,1908.091,2423.192,1888.891,2436.592z M1903.291,2383.592c-2.1,0.5-4.3-0.5-5.4-2.4  c-10.6-17.7,3.6-40.9,19.6-28.1C1924.891,2359.092,1919.491,2379.792,1903.291,2383.592z M1916.191,2252.992  c-18.6,0.1-20.6-25.1-6.9-39.5c0.6-0.6,1.8-1.1,2.6-1.1C1926.291,2212.292,1946.591,2252.992,1916.191,2252.992z M1930.191,2196.492  c0-12.5,5.4-22.9,26.5-27.6c1.9-0.4,2.9-0.3,4,1.5c3.3,4.9,14.3,20.1,12.7,29.9c-1.9,11.6-16.5,23.8-24.8,24.8  C1940.291,2226.092,1930.191,2209.092,1930.191,2196.492z M1946.691,2253.092c-5.3-6.8-2.9-17.6,6.5-23.1c1.2-0.7,2.8-0.3,3.6,0.9  c6.2,9.6,2.9,19.2-6.6,23.1C1948.991,2254.492,1947.591,2254.092,1946.691,2253.092z M1946.291,2373.392c13.8-1,10.4,26.4,0,32.7  C1935.991,2412.392,1926.691,2374.792,1946.291,2373.392z M1967.691,2461.892c-11.8,15.3-40.5-29.4-24.3-50.1c0.5-0.6,1.2-1,1.9-1.1  c4.6-0.4,8-3.6,9.7-5.5c0.8-0.9,2-1,3-0.4C1977.991,2416.992,1977.891,2444.092,1967.691,2461.892z M1958.391,2357.492  L1958.391,2357.492L1958.391,2357.492L1958.391,2357.492c0.1-0.1,19.9-8.4,20-8.4l0,0l0,0c1.4,4.5,0.8,9.8-2.2,14.3  c-0.6,0.9-1.7,1.4-2.7,1.3C1966.091,2364.092,1961.091,2361.192,1958.391,2357.492z M1983.291,2362.192c16.4-4.8,45.6,5.3,36.2,40.9  c-1,3.7-4.7,5.9-8.4,5.3C1964.891,2400.192,1976.691,2365.592,1983.291,2362.192z M2022.491,2495.092c-14.2-4.4-28.1-21.8-36.9-49.3  c-0.6-1.7-0.7-3.6-0.4-5.4c1.2-7.5,1.5-17.6-1.4-34.1c-0.2-0.9,0.9-1.6,1.7-1.1c4.5,3,15.2,9.5,24.7,9.2c1.1,0,2.1,0.6,2.5,1.6  c3.5,8.5,14.6,21.4,24.5,26.7c0.2,0.1,0.4,0.2,0.5,0.4c8.9,7.6,6.6,42.3-8.1,51.2  C2027.491,2495.492,2024.891,2495.792,2022.491,2495.092z M2073.291,2433.192c-13.4,10.8-45.3-1.6-52.7-19.3  c-0.5-1.2-0.1-2.5,0.8-3.3c3.4-2.9,9.9-9.7,8.7-23.4c-0.1-1.3,0.8-2.5,2.1-2.6c17.9-2.1,40.4,21.7,42.7,44.8  C2075.091,2430.792,2074.491,2432.292,2073.291,2433.192z M2076.091,2366.392c-25.9,14.8-54.7-6.7-49.7-29c0.2-0.7,0.5-1.3,1.1-1.7  c14.7-11,47.6,6.1,51.4,24.5C2079.491,2362.592,2078.291,2365.092,2076.091,2366.392z M2076.991,2341.992  c-4.3-5.2-9.4-10.5-16.8-13.9c-1-0.5-0.9-2,0.2-2.3c6.7-1.7,20.5-5.6,23.1-9.5c1.5-2.3,0.3-6.4-1.6-11.1c-0.5-1.1,0.3-2.4,1.5-2.5  c20.9-1.7,44,5.6,50.7,29.9c0.4,1.6,0,3.2-1,4.5c-12.1,13.6-41.8,10.2-53.5,6.7  C2078.591,2343.492,2077.691,2342.792,2076.991,2341.992z" style="fill:#D6293A;"/>
	<path d="M930.451,1131.696c3.324,2.674,6.937,4.536,10.526,5.477c2.411,0.632,4.81,0.858,7.099,0.621  c3.677-0.38,7.211-0.943,10.598-1.657c3.615-0.762,7.053-1.704,10.296-2.808c2.339-0.796,4.575-1.676,6.703-2.633  c16.245-7.309,26.09-19.088,25.996-32.13c-0.243-33.785-18.233-45.821-39.329-45.596c-11.811,0.126-42.442,16.865-45.758,38.413  c-1.847,12.004,0.595,22.296,5.182,30.13C924.171,1125.624,927.167,1129.055,930.451,1131.696z" style="fill:#ED6D15;"/>
	<path d="M2383.218,1305.384c0.956-1.435,4.134-2.869,8.374-4.091c-1.637-4.453-3.403-8.131-5.101-9.489  c-3.854-3.083-16.574-1.908-25.919,1.125c-4.19,1.36-7.702,3.092-9.43,4.983c-2.331,2.551-2.452,8.169-1.807,13.849  c4.055,0.089,7.519,3.099,8.075,7.199l1.546,11.396h-0.069l12.72,5.355l17.755-6.612h-4.42  C2384.942,1329.099,2379.768,1310.558,2383.218,1305.384z" style="fill:#ED6D15;"/>
	<path d="M3738.242,1678.144c-0.021,0.122-0.034,0.246-0.039,0.37c0,0.071,0,0.157,0,0.236  c0.008,0.129,0.024,0.258,0.047,0.386c0,0.087,0.039,0.181,0.055,0.268c0.016,0.087,0.079,0.283,0.126,0.425l0.094,0.291  l0.197,0.472c0.039,0.094,0.087,0.197,0.134,0.291c0.047,0.094,0.181,0.37,0.283,0.559c0.102,0.189,0.079,0.165,0.126,0.252  c0.157,0.276,0.323,0.551,0.496,0.835l0.165,0.252l0.409,0.63l0.268,0.378l0.362,0.52l0.315,0.417  c0.118,0.165,0.244,0.323,0.37,0.488l0.338,0.441c0.126,0.157,0.244,0.315,0.378,0.472l0.362,0.457  c0.126,0.15,0.252,0.291,0.37,0.449c0.118,0.157,0.26,0.307,0.394,0.465l0.339,0.394l1.126,1.291l0,0  c0.575,0.638,1.134,1.252,1.669,1.827c4.63,10.235,11.023,21.305,19.148,11.999l0.213-0.244c0.243-0.705,0.53-1.394,0.858-2.063  c1.834-3.031-1.874-9.306-3.267-11.519l0,0c-0.459-0.752-0.809-1.566-1.039-2.417c-0.279-0.986-0.5-1.988-0.661-3  c-0.787-4.866-0.898-10.479-3.819-11.377c-2.606-0.787-9.046,0.929-10.102,0.228c-0.814-0.562-1.791-0.838-2.779-0.787  c-2.187,1.598-4.29,3.309-6.299,5.125l-0.37,0.52c-0.098,0.142-0.173,0.299-0.22,0.465  C3738.258,1678.026,3738.258,1678.089,3738.242,1678.144z" style="fill:#F7CB14;"/>
	<path d="M2421.318,1333.16c0,0,10.496-18.866,26.823-19.343c16.327-0.476,19.826,16.487,19.826,16.487  L2421.318,1333.16z" style="fill:#BF1682;"/>
	<polygon points="2988.553,542.554 2988.553,520.953 2959.473,520.953   2959.473,352.924 2856.163,352.924 2856.163,323.744 2834.563,323.744 2834.563,352.924 2743.963,352.924 2743.963,520.954   2715.033,520.954 2715.033,542.554 2743.963,542.554 2743.963,712.924 2834.563,712.924 2834.563,741.464 2856.163,741.464   2856.163,712.924 2959.473,712.924 2959.473,542.554 " style="fill:#282828;stroke:#231F20;stroke-miterlimit:10;"/>
	<path d="M1636.188,1203.951l15.457-11.674l31.403-77.537c0,0-0.594-2.676-2.676-3.271s-5.947,0-5.947,0  l-41.222,50.756l-3.651,37.523C1633.023,1201.041,1635.048,1202.672,1636.188,1203.951z" style="fill:#BF1682;"/>
	<path d="M2333.954,1279.271l1.102,10.175c4.726,0.443,7.943,1.419,8.644,3.102  c1.854,4.449,3.8,12.372,5.286,19.203c0.117-0.002,0.232,0.007,0.349,0.009c-0.645-5.68-0.524-11.299,1.807-13.849  c1.728-1.891,5.24-3.623,9.43-4.983l-1.192-15.923c-0.233-3.119-2.97-5.445-6.086-5.174l-14.246,1.241  c-1.479,0.129-2.767,0.824-3.685,1.846C2334.337,1276.063,2333.775,1277.619,2333.954,1279.271z" style="fill:#E5B51A;"/>
	<rect height="21.6" style="fill:#F79514;stroke:#231F20;stroke-miterlimit:10;" transform="matrix(6.123234e-17 -1 1 6.123234e-17 -1926.1897 2888.9087)" width="29.183" x="466.768" y="2396.749"/>
	<path d="M2267.589,1324.406h-7.218c-1.611,0-2.917,1.306-2.917,2.916v14.453  c1.599,0.737,3.161,1.538,4.667,2.389c1.931-1.993,4.39-3.83,7.478-5.224C2268.577,1335.901,2266.804,1329.58,2267.589,1324.406z" style="fill:#0DCC5A;"/>
	<path d="M2812.316,2081.88v508.187h144V2081.88H2812.316z M2832.683,2417.617  c-5.108-7.99-5.451-21.166-5.453-32.954c-0.017-73.195-0.035-146.39-0.052-219.585c-0.001-5.537,0.056-11.425,1.863-16.129  c1.807-4.704,6.054-7.269,8.528-3.653c-3.041,11.664-6.141,23.807-5.935,36.424c0.206,12.617,4.734,25.848,12.124,28.403  c4.056,1.403,9.154,0.075,11.546,5.669c2.073,4.848,0.216,13.05-3.619,13.412c-3.198,0.302-2.964-2.999-4.022-6.803  c-3.28-11.796-12.871-4.043-9.132,6.094c1.65,4.475,5.67,6.03,6.451,11.141c0.579,3.793-1.01,7.664-2.86,10.162  c-1.85,2.498-4.066,4.308-5.584,7.367c-3.183,6.415-2.143,16.421,0.984,22.712c3.127,6.292,7.8,9.758,12.306,13.021  c4.73,3.425,9.461,6.849,14.191,10.274c5.137,3.719,10.381,7.554,14.452,13.931s6.816,15.895,5.641,25.127  c-0.118,0.929-0.286,1.841-0.497,2.728c-1.623,6.808-11.577,5.948-12.047-1.035c-1.314-19.508-8.943-37.664-19.777-45.389  c-2.836-2.022-5.98-3.393-9.038-2.383c-3.058,1.01-5.96,4.91-6.434,10.042c-0.69,7.466,3.725,13.409,8.032,15.553  c4.307,2.144,9.107,2.347,12.827,6.505c3.721,4.157,5.22,14.853,1.32,18.784c-3.291,3.317-7.371-0.774-10.086-5.151  c-2.715-4.377-5.823-9.626-9.604-8.678c-3.667,0.919-6.029,8.081-5.284,14.095c0.745,6.014,3.876,10.534,7.348,12.55  c3.471,2.016,7.265,1.928,10.962,1.589c6.265-0.576,12.575-1.808,18.777-0.473c6.202,1.335,12.446,5.629,16.097,14.007  c4.14,9.503,4.24,22.279,3.869,34.126c-0.422,13.467-1.268,27.094-4.106,39.799c-2.838,12.705-7.872,24.536-15.002,31.109  c-4.036,3.721-8.787,5.652-13.253,4.138c-4.466-1.514-8.532-6.853-9.776-14.152c-1.677-9.834,1.979-20.422,6.797-26.985  c4.818-6.563,10.731-10.384,15.985-15.925c5.254-5.541,10.152-13.819,10.733-24.066c0.456-8.051-1.93-15.946-5.444-21.389  c-3.514-5.443-8.046-8.73-12.643-11.126c-5.045-2.63-10.464-4.304-15.669-2.338s-10.134,8.261-11.399,16.907  c-1.265,8.646,2.28,18.872,7.577,19.451c4.706,0.514,8.607-5.78,12.229-10.95c3.621-5.17,8.828-9.767,12.829-5.711  c3.953,4.006,3.764,14.434,0.808,20.545c-2.956,6.111-7.654,8.934-12.121,11.322  C2849.571,2424.296,2839.135,2427.707,2832.683,2417.617z M2943.592,2557.884c-1.388,6.053-5.228,11.502-10.451,14.83  c-6.462,4.117-14.438,4.867-22.081,5.242c-16.068,0.788-32.193,0.404-48.205-1.146c-2.234-0.216-3.116-3.035-1.381-4.458  c8.058-6.606,18.995-9.662,29.271-7.914c3.844,0.654,7.638,1.933,11.533,1.758c3.895-0.175,8.094-2.327,9.043-6.126  c0.96-3.843-1.869-7.818-5.438-9.503c-3.569-1.686-7.675-1.642-11.618-1.565c-11.672,0.228-23.343,0.455-35.015,0.683  c-5.803,0.113-12.243-0.006-16.484-3.984c-3.921-3.679-4.741-9.707-3.86-15.025c1.005-6.066,4.047-11.923,8.968-15.583  c4.921-3.66,11.795-4.83,17.362-2.272c5.567,2.558,9.267,9.082,7.914,15.081c-0.696,3.089-3.203,6.351-6.269,7.846  c-1.752,0.855-3.728-0.703-3.35-2.615c0.266-1.345,0.341-2.669-0.76-3.902c-1.637-1.834-4.865-1.67-6.717-0.307  c-2.137,1.573-3.046,4.437-2.845,7.09c0.366,4.822,4.295,9.139,9.044,9.936c6.335,1.063,12.432-3.814,15.11-9.679  c2.679-5.865,2.791-12.528,3.156-18.97c0.365-6.442,1.145-13.194,4.858-18.46c3.774-5.351,9.955-8.316,15.402-11.931  c19.422-12.891,30.953-36.888,28.914-60.177c-0.58-6.63-2.561-13.761-7.99-17.575c-4.832-3.394-12.149-4.077-14.212-9.803  c-0.635-1.761-0.584-3.718,0.059-5.476c1.598-4.371,5.883-6.665,10.193-7.073c8.992-0.852,17.254,6.111,20.908,14.405  c3.654,8.294,3.721,17.672,3.727,26.743c0.01,15.663,0.019,31.326,0.029,46.988c0.004,5.942-0.007,11.988-1.739,17.671  c-1.732,5.682-5.475,11.051-10.968,13.259c-5.995,2.411-12.733,0.712-19.187,0.522c-7.713-0.226-15.96,2.054-20.322,8.96  c-2.344,3.711-2.917,8.376-1.061,12.353c3.396,7.275,12.413,8.204,19.85,6.97c6.789-1.127,13.691-3.496,20.386-1.906  C2939.726,2535.229,2945.982,2547.464,2943.592,2557.884z M2947.264,2102.784c-1.22,3.289-6.157,3.621-9.554,2.255  s-6.422-3.817-10.096-4.128c-3.674-0.311-7.823,3.47-5.733,6.347c1.96,2.698,6.469,0.631,9.785,1.61  c8.746,2.58,9.744,17.892,9.756,21.55c0.108,35.268,0.216,70.536,0.324,105.805c0.014,4.444-0.018,9.077-2.129,13.043  c-3.541,6.651-13.175,9.639-20.212,6.269c-7.037-3.37-10.202-12.489-6.641-19.13c2.391-4.459,7.022-7.362,10.837-10.821  c3.816-3.459,7.089-8.444,5.545-13.232c-1.597-4.952-7.686-7.366-13.157-7.509c-10.505-0.275-20.726,5.75-25.698,14.493  c-4.972,8.743-4.79,19.768-0.166,28.698c4.109,7.935,11.775,14.342,20.85,16.44c7.059,1.632,15.313,0.969,20.606,5.681  c5.781,5.147,4.495,15.031-1.55,19.876c-6.045,4.846-15.221,5.039-22.455,1.947c-7.233-3.092-12.764-8.948-17.084-15.247  c-8.967-13.076-13.581-29.089-11.139-44.482c2.442-15.393,12.389-29.893,27.072-36.917c4.786-2.29,9.961-3.778,14.777-6.009  c4.816-2.231,9.42-5.389,11.79-9.937c2.37-4.549,1.894-10.692-2.202-13.98c-3.608-2.896-8.997-2.917-13.468-1.472  c-4.471,1.446-8.354,4.125-12.482,6.297c-8.632,4.541-18.755,6.902-28.529,5.474c-9.774-1.428-19.062-6.935-23.653-15.221  c-3.686-6.653-4.171-14.426-4.377-21.927c-0.144-5.244-0.165-10.629,1.765-15.543c1.93-4.914,6.237-9.324,11.729-10.061  c3.272-0.439,6.606,0.439,9.898,0.162c5.09-0.427,9.318-6.704,4.888-9.919c-4.318-3.134-9.043-1.209-11.658,1.755  c-5.7,6.46-20.38-0.608-8.733-7.043c5.364-2.964,12.137-4.869,17.846-2.528c5.708,2.341,11.136,9.455,11.599,16.711  c0.38,5.963-0.157,11.856,0.023,17.809c0.18,5.953,3.106,12.742,9.236,14.123c4.195,0.945,8.933-1.344,10.574-5.11  c1.641-3.766-0.012-8.554-3.69-10.688c-2.572-1.492-5.89-1.777-8.089-3.731c-3.043-2.705-2.425-7.904,0.745-10.463  c3.17-2.559,8.045-2.625,11.773-0.848c3.728,1.778,6.414,5.1,8.186,8.674c3,6.053,3.635,13.259,1.029,19.462  c-2.606,6.203-8.637,11.177-15.628,12.122c-9.914,1.341-20.138-6.53-20.761-15.984c-0.236-3.584,0.715-7.138,0.879-10.725  c0.164-3.587-0.669-7.542-3.629-9.797c-3.018-2.3-7.61-2.122-10.883-0.172c-3.273,1.951-5.333,5.359-6.314,8.899  c-2.826,10.196,2.755,21.252,11.357,27.981c7.105,5.558,16.262,8.753,25.474,8.763c9.742,0.011,19.582-3.674,26.075-10.53  c6.492-6.856,9.275-16.906,6.411-25.715c-2.864-8.809-11.611-19.697-21.337-20.244c-2.516-0.142-5.078,0.116-7.533-0.426  c-2.455-0.543-4.892-2.167-5.283-4.522c-0.403-2.432,1.572-4.762,3.957-5.743c2.385-0.982,5.085-0.93,7.688-0.862  c10.141,0.266,20.344-0.093,30.485,0.173c2.661,0.07,5.374,0.794,7.715,1.997  C2946.416,2097.736,2948.145,2100.411,2947.264,2102.784z" style="fill:#D6293A;"/>
	<path d="M2294.32,1322.655c0-2.009-1.628-3.637-3.637-3.637s-3.637,1.628-3.637,3.637  s1.628,3.637,3.637,3.637S2294.32,1324.664,2294.32,1322.655z" style="fill:#E22323;"/>
	<path d="M392.856,1688.468l-0.2,4.82c0,0-1.91,1.4-5.03,2.67c-2.72,1.12-8.56,0.9-10.89-0.45  c-3.65-2.1-5.23-4.54-5.58-8.33c-0.58-6.25,2.08-10.15,6.89-12.29c1.13-0.5,2.66-0.77,4.31-0.78v3.81  c-3.07,0.21-5.47,2.14-5.47,4.49h5.47v3.12l-5.7-0.05c-0.03,1.55,0.28,4.42,2.05,5.52c3.04,1.9,6.24,1.06,7.65,0.68  C388.396,1691.128,392.856,1688.468,392.856,1688.468z" style="fill:#0A0A0A;"/>
	<path d="M2294.32,1322.655c0-2.009-1.628-3.637-3.637-3.637s-3.637,1.628-3.637,3.637  s1.628,3.637,3.637,3.637S2294.32,1324.664,2294.32,1322.655z" style="fill:#E22323;"/>
	<path d="M3817.251,1659.477c-0.953-0.535-1.945-2.669-1.574-3.819c0.52-1.614-0.858-2.921-3.291-3.937  c-4.07-1.716-11.085-2.653-17.179-2.905c-2.545-0.129-5.095-0.102-7.637,0.079c-6.44,0.543-6.732,2.472,11.865,5.441l0.858,0.15  c0.638,0.598,3.574,5.385-0.244,5.118c-2.693-0.189-3.055,3.779-0.362,4.645l1.858,0.606c3.149,1.031,6.968,2.299,10.306,3.236  c2.198,0.711,4.469,1.165,6.771,1.354c0.16,0.009,0.32,0.009,0.48,0c0.222-0.021,0.443-0.055,0.661-0.102  c0.839-0.159,1.602-0.594,2.165-1.236C3824.51,1665.004,3821.621,1661.925,3817.251,1659.477z" style="fill:#F7CB14;"/>
	<path d="M1476.986,1709.608c2.608-1.196,5.499-1.88,8.555-1.88c2.732,0,5.335,0.544,7.72,1.511  c3.077-5.757,7.614-9.876,12.85-11.237c-0.024-5.042-1.992-9.668-5.248-13.39c-1.737-1.985-3.823-3.726-6.215-5.108  c-3-1.732-6.44-2.928-10.145-3.428c-0.633-0.085-1.272-0.152-1.919-0.196c-0.006,0-0.012-0.001-0.018-0.001  c-0.652-0.044-1.312-0.068-1.977-0.068c-13.89,0-25.165,9.689-25.497,21.745c0.446-0.025,0.889-0.067,1.342-0.067  C1465.336,1697.49,1473.064,1702.399,1476.986,1709.608z" style="fill:#F7CB14;"/>
	<path d="M1246.168,507.12l0.77-1.66c0,0,25.79,6.16,30.41,12.8s15.02,31.76,16.17,35.08  c1.16,3.32,1.16,8.53,1.16,8.53l-0.77,1.66c0,0,0-5.21-1.16-8.53c-1.15-3.32-11.55-28.45-16.17-35.08  C1271.958,513.28,1246.168,507.12,1246.168,507.12z" style="opacity:0.84;fill:#F2F2F1;"/>
	<path d="M2406.36,1298.468c8.36-0.944,16.473-0.801,19.543,1.31c6.388,4.392,7.969,25.773,8.168,28.919  l8.605,1.658l5.953-9.303c0,0,0.071-0.586,0.175-1.623c0.759-7.573,3.318-39.447-6.5-46.974c-11.163-8.558-29.04-2.605-34.241,4.093  c-1.306,1.682-1.952,4.647-2.193,8.138C2405.577,1288.945,2405.887,1293.988,2406.36,1298.468z" style="fill:#ED6D15;"/>
	<path d="M1623.582,2329.671c0.338-2.067,0.515-4.207,0.515-6.399c0-13.548-6.779-25.081-16.304-29.633  c0.167,4.29,0.256,6.668,0.256,6.668c0,19.769-4.132,38.359-11.392,54.563c0.709,0.075,1.421,0.136,2.144,0.136  c5.72,0,10.98-2.411,15.217-6.427C1618.835,2344.013,1622.327,2337.364,1623.582,2329.671z" style="fill:#BF1682;"/>
	<rect height="21.6" style="fill:#F79514;stroke:#231F20;stroke-miterlimit:10;" transform="matrix(6.123234e-17 -1 1 6.123234e-17 -1199.9944 3559.5762)" width="29.183" x="1165.199" y="2368.985"/>
	<path d="M2307.766,1309.697c-5.989-2.995-15.442-1.509-23.599,1.442c-5.937,2.148-11.188,5.07-13.913,7.612  c-1.539,1.437-2.329,3.443-2.664,5.655c-0.785,5.174,0.987,11.495,2.01,14.535c0.115,0.34,0.222,0.651,0.312,0.902  c0.207,0.576,0.342,0.91,0.342,0.91h26.764c0,0,0,0,0-0.001c0.166-1.149,0.413-2.33,0.754-3.54c0.012-0.052,0.029-0.106,0.045-0.159  c0.144-0.499,0.309-1.003,0.487-1.511c0.048-0.136,0.095-0.272,0.145-0.409c0.209-0.57,0.434-1.143,0.69-1.723  c0.199-0.452,0.413-0.888,0.64-1.311c0.083-0.155,0.176-0.299,0.263-0.45c0.149-0.26,0.296-0.524,0.455-0.773  c0.115-0.18,0.24-0.347,0.36-0.52c0.143-0.206,0.281-0.418,0.431-0.616c0.142-0.188,0.294-0.365,0.443-0.546  c0.138-0.169,0.272-0.343,0.416-0.505c0.168-0.191,0.346-0.369,0.521-0.551c0.016-0.016,0.031-0.033,0.047-0.049  c0.118-0.122,0.233-0.249,0.354-0.367c0.194-0.189,0.396-0.366,0.597-0.545c0.127-0.113,0.251-0.231,0.381-0.341  c0.221-0.186,0.45-0.361,0.678-0.535c0.118-0.09,0.232-0.184,0.352-0.271c0.249-0.181,0.506-0.352,0.763-0.52  c0.105-0.069,0.208-0.142,0.315-0.209c0.276-0.174,0.559-0.336,0.844-0.496c0.093-0.052,0.185-0.108,0.279-0.159  c0.304-0.164,0.614-0.318,0.926-0.468c0.078-0.037,0.154-0.077,0.232-0.113c0.332-0.154,0.669-0.297,1.01-0.435  c0.061-0.025,0.122-0.051,0.183-0.075c0.359-0.141,0.722-0.272,1.089-0.395c0.045-0.015,0.089-0.031,0.134-0.046  c0.383-0.126,0.77-0.242,1.16-0.349c0.03-0.008,0.059-0.017,0.089-0.025c0.404-0.109,0.812-0.209,1.222-0.298  c0.017-0.004,0.034-0.008,0.051-0.011c0.422-0.091,0.846-0.172,1.274-0.243c0.006-0.001,0.013-0.002,0.019-0.003  c0.435-0.072,0.872-0.133,1.31-0.184c0,0,0,0,0.001,0C2314.281,1316.615,2311.696,1311.662,2307.766,1309.697z" style="fill:#E5B51A;"/>
	<path d="M3673.681,1753.256c-2.622,5.563-6.015,10.729-10.078,15.345c-0.504,0.59-1.023,1.181-1.574,1.771  l-0.22,0.252l-0.126,0.142c-2.362,2.59-4.913,5.157-7.677,7.669c-0.874,0.787-1.78,1.575-2.693,2.362l-1.244,1.079l-1,0.866  c-1.173,0.968-2.362,1.937-3.598,2.89l0,0c-3.708,2.882-7.637,5.653-11.723,8.291l-0.338,0.22c-0.898,0.583-1.811,1.15-2.724,1.708  l-0.787,0.472c-0.898,0.543-1.787,1.087-2.701,1.575l-0.472,0.276c-1.974,1.144-3.973,2.252-6,3.323l-0.165,0.094l0,0  c-1.055,0.559-2.126,1.094-3.189,1.63l-0.787,0.417c-0.968,0.472-1.929,0.937-2.897,1.394l-1.189,0.559h-0.087l-2.574,1.157  l-1.496,0.654c-0.787,0.354-1.637,0.701-2.456,1.031l-1.78,0.716l-2.228,0.866c-0.701,0.268-1.394,0.512-2.094,0.787l-1.953,0.709  l-0.976,0.315l-4.669-0.787l-25.785-4.378l0,0c-1.512-0.732-3.071-1.575-4.645-2.417l-0.457-0.26  c-0.63-0.354-1.26-0.716-1.897-1.094l-0.496-0.299c-0.74-0.441-1.488-0.898-2.236-1.378l-0.087-0.047  c-0.787-0.504-1.575-1.024-2.362-1.575c-0.173-0.11-0.346-0.236-0.512-0.354c-0.598-0.402-1.189-0.787-1.779-1.236  c-0.244-0.173-0.48-0.339-0.717-0.52c-0.551-0.394-1.094-0.787-1.638-1.213l-0.669-0.504c-0.748-0.575-1.496-1.157-2.236-1.764  c-3.804-3.062-7.342-6.441-10.574-10.101c-0.614-0.693-5.944-8.251-6.519-8.968c-2.779-2.047-3.094-0.701-3.59,0.669  c1.897,2.661,2.283,4.574,4.165,7.22c0.126,0.118,12.322,11.023,16.534,15.329c2.1,2.1,4.162,4.225,6.188,6.377  c3.354,3.496,6.653,6.952,9.952,10.377l1.512,1.575l0.315,0.331l0.85-0.126l15.747,2.724c0,0,26.21,0.968,31.06-2.693  c2.244-1.693,5.031-3.559,8.188-5.511c8.936-5.637,20.762-12.243,31.265-18.542l3.197-1.937c2.606-1.575,5.086-3.149,7.393-4.661  l0.614-0.409l0.843-0.567c2.632-1.731,5.171-3.599,7.606-5.598c0.094-2.031,0.197-4.07,0.323-6.125  c0.087-1.354,0.181-2.716,0.283-4.078h-0.087h0.087C3672.461,1763.924,3672.988,1758.555,3673.681,1753.256z" style="fill:#D6293A;"/>
	<path d="M1445.64,2412.199c3.668,1.302,7.677,2.032,11.887,2.032c8.79,0,16.724-3.139,22.417-8.182  c-16.903-8.276-31.353-22.399-41.681-40.332c-7.348,4.966-12.09,12.685-12.09,21.379c0,4.194,1.131,8.149,3.094,11.695  C1432.612,2404.834,1438.443,2409.643,1445.64,2412.199z" style="fill:#BF1682;"/>
	<path d="M3705.434,1632.629c-6.972,3.144-28.01,0.229-32.769-1.205c-6.95,2.171-35.614,0.526-35.776,1.055  c-2.967,3.11-30.273,18.689-34.958,21.266l0,0l0,0c0.85,9.102,70.073,8.007,79.883,22.108  C3699.86,1678.388,3708.694,1633.07,3705.434,1632.629z M3696.632,1662.642c-0.033,0.045-0.07,0.087-0.11,0.126l0.189-0.22  C3696.689,1662.582,3696.662,1662.614,3696.632,1662.642z" style="fill:#1B8FEF;"/>
	<path d="M1139.348,594.15c-3.59-8.52-1.34-29.15-1.34-42.15s3.58-64.56,3.58-64.56l2.21-0.83  c0,0-3.59,51.56-3.59,64.57c0,13-2.24,33.62,1.35,42.14s11.21,19.73,16.59,21.52c5.38,1.8,7.17,4.04,13.9,4.49  c6.72,0.44,10.76,1.34,10.76,1.34l-2.21,0.83c0,0-4.04-0.9-10.76-1.35c-6.73-0.45-8.52-2.69-13.9-4.48  C1150.558,613.87,1142.938,602.67,1139.348,594.15z" style="opacity:0.84;fill:#F2F2F1;"/>
	<path d="M341.996,1679.578l-2.85,3.6c0,0-1.99-3.93-5.39-4.03c-2.78-0.08-5.25,2.12-6.11,2.97  c-0.2,0.21-0.31,0.48-0.31,0.76l0.16,13.84l-5.6-0.01l-0.57-22.4l5.28-0.12l0.09,2.74c0,0,1.26-3.32,8.06-2.68  C339.326,1674.668,341.996,1679.578,341.996,1679.578z" style="fill:#0A0A0A;"/>
	<polygon points="3658.298,522.654 3658.298,544.254 3629.218,544.254   3629.218,712.284 3525.908,712.284 3525.908,741.464 3504.308,741.464 3504.308,712.284 3413.708,712.284 3413.708,544.254   3384.778,544.254 3384.778,522.654 3413.708,522.654 3413.708,352.284 3504.308,352.284 3504.308,323.744 3525.908,323.744   3525.908,352.284 3629.218,352.284 3629.218,522.654 " style="fill:#282828;stroke:#231F20;stroke-miterlimit:10;"/>
	<path d="M2177.786,1326.803c0-1.1-0.9-2-2-2h-6.634c-1.1,0-2,0.9-2,2v14.357  c3.865,0.238,7.422,0.942,10.634,1.915V1326.803z" style="fill:#E22323;"/>
	<path d="M3879.577,1652.839c-0.695-1.338-1.798-2.419-3.149-3.086l0,0c-10.401-5.086-25.462-8.81-42.24-10.59  l-5.921,8.865c4.632,2.233,8.943,5.077,12.818,8.456c1.88,1.65,3.637,3.434,5.259,5.338l0.213,0.252l0.307,0.37  c1.214,1.458,2.341,2.985,3.378,4.574c0.472,0.716,0.921,1.457,1.354,2.204c0.047,0.071,0.087,0.142,0.126,0.213  c0.027,0.15,0.105,0.286,0.22,0.386c0.032,0.068,0.069,0.134,0.11,0.197c0.386,0.701,0.787,1.409,1.118,2.126  c0.583,1.173,1.134,2.362,1.63,3.59l0.094,0.22c0.409,1.024,0.787,2.047,1.149,3.102c0.166,0.512,0.323,1.039,0.48,1.575  c0.299,0.976,0.575,1.96,0.787,2.96c0.283,1.165,0.528,2.362,0.74,3.559c0.346,1.945,0.606,3.937,0.787,5.96  c0.181,2.023,0.212,4.228,0.165,6.393c0,0-24.699,36.217-36.312,46.807l-6.44,5.645l-1.464,1.22  c-3.701,3.05-7.433,5.889-11.196,8.519l-0.071,0.047c-3.202,2.236-6.412,4.283-9.629,6.141l-0.299,0.173  c-2.945,1.685-5.881,3.212-8.795,4.527c-8.285-0.535-16.258-3.361-23.03-8.165c-2.96-2.062-5.723-4.394-8.251-6.968  c-1.813-1.847-3.527-3.789-5.133-5.818c-2.133-2.688-4.108-5.498-5.913-8.417c-3.483-5.682-6.48-11.647-8.96-17.833  c-7.039-17.321-9.684-34.107-9.078-39.69c0.126-1.157,0.386-1.85,0.787-1.945c0.024-0.07,0.053-0.139,0.086-0.205  c0.079-0.205,0.157-0.401,0.252-0.598c1.252-2.732,3.882-5.921,7.495-9.314l0.724-0.661c2.687-2.421,5.499-4.7,8.425-6.826  c0.898-0.661,1.822-1.323,2.771-1.984c7.807-5.397,16.031-10.162,24.596-14.251c7.27-3.555,14.842-6.454,22.628-8.661l1.811-2.488  c-6.366,0.533-12.698,1.416-18.967,2.646l-1.574,0.323c-1.165,0.244-2.362,0.504-3.48,0.787c-1.118,0.283-2.283,0.551-3.409,0.85  l-1.26,0.346c-1.055,0.291-2.102,0.591-3.149,0.898c-0.701,0.213-1.409,0.425-2.102,0.653c-0.52,0.165-1.008,0.354-1.52,0.528  l-1.063,0.362c-2.307,0.787-4.559,1.646-6.74,2.575c-1.748,0.745-3.451,1.533-5.11,2.362l-1.252,0.646l-0.071,0.039l-0.953,0.504  c-0.512,0.276-1.016,0.567-1.52,0.858c-0.787,0.472-1.638,0.961-2.441,1.464l-0.535,0.331c-5.823,3.618-10.901,8.316-14.959,13.841  c-0.346,0.488-0.685,0.968-1.008,1.457l-0.126,0.181c-0.724,1.118-1.386,2.275-2,3.464c-0.165,0.315-0.339,0.614-0.496,0.937  c-0.75,1.532-1.403,3.109-1.953,4.724c-1.789,5.32-2.569,10.928-2.299,16.534c0.047,1.134,0.094,2.252,0.15,3.354  c0,0.142,0,0.283,0,0.433c0.11,2.1,0.239,4.139,0.386,6.118c0.047,0.685,0.11,1.354,0.166,2.024l0.086,1.126h0.094l-0.079,0.142  c0,0.236,0.039,0.48,0.055,0.716c0.047,0.496,0.103,0.976,0.15,1.472c4.165,7.582,9.094,16.573,14.117,25.793  c3.149,5.779,6.338,11.645,9.401,17.321c4.582,8.464,8.865,16.455,12.314,22.974c0.346,0.079,0.701,0.126,1.047,0.197  c3.998,0.461,8.027,0.587,12.046,0.378c5.635-0.189,11.256-0.699,16.833-1.527c7.322-1.118,13.692-2.834,16.085-5.173  c1.417-0.307,2.637,0.26,4.023,0.165l0,0c0.305-0.018,0.606-0.074,0.897-0.165c0.976-0.299,2.173-1.496,3.252-2.22  c0.261-0.182,0.541-0.335,0.835-0.457c2.808-1.495,5.724-2.777,8.724-3.834c1.134-0.583,2.281-1.197,3.441-1.842  c2.197-1.472,6.102-3.842,6.149-3.669l0.787-0.52l0,0c1.15-0.787,2.315-1.527,3.48-2.362c5.063-9.164,30.872-49.437,30.872-49.437  c2.362-3.409,6.212-11.629,8.212-14.912c2.614-4.291,8.456-12.338,10.369-16.266  C3885.797,1663.846,3882.387,1658.107,3879.577,1652.839z" style="fill:#D6293A;"/>
	<path d="M2227.469,1443.499c-7.333-20.361-18.061-34.88-33.752-34.88c-12.085,0-19.28,6.911-23.567,15.142  c5.924,2.169,12.671,5.815,15.323,11.65c5.152,11.335,12.365,44.31,12.365,44.31h11.335  C2209.173,1479.721,2204.591,1445.865,2227.469,1443.499z" style="fill:#F464BA;"/>
	<rect height="360" style="fill:#F79514;stroke:#231F20;stroke-miterlimit:10;" width="215.511" x="1078.391" y="2005.195"/>
	<rect height="210.96" style="fill:#B71515;stroke:#231F20;stroke-miterlimit:10;" width="216" x="1078.621" y="1793.23"/>
	<path d="M2088.991,2295.592c35.1-7.4,50.5-33.3,52-45.4c0.1-0.8-0.1-1.6-0.6-2.2c-10.9-15.4-46-10.3-62.7-3.5  c-0.7,0.3-1.3-0.7-0.7-1.2c38-33.6,2-54.4-37.5-37.4c35-52.5,6.4-80.3-46.1-37.5c2.1-18.9-3.1-49.3-25-62.7  c-0.8-0.5-1.8-0.7-2.7-0.6c-24.3,3.3-38.6,25.1-42,63.3c-16.1-26.7-26.7-33.2-34.7-32.6c-2.4,0.2-4.6,1.5-6,3.5  c-7,10.6-9.5,19.1-5.7,41.1c0.3,1.8-1.9,2.8-3.1,1.5c-15.8-19-46-27-64.4-11.2c-0.7,0.6-1.2,1.4-1.5,2.4  c-6.6,25.9,11.2,48.3,20.5,53.4c0.4,0.2,0.3,0.9-0.2,0.9c-20.6,0.5-27.8,9.1-31.3,15.3c-0.8,1.4-1.1,3.1-0.8,4.7  c1.3,6.7,7.8,17.1,13.8,23.9c0.3,0.4-0.1,0.9-0.5,0.6c-18.1-10.9-56-7.9-67.1,19.7c-0.8,1.9-0.8,4.1,0,6c10.7,25.5,42.5,27,55.9,27  c1.2,0,1.6,1.5,0.6,2.1c-11,7.5-19.1,21.9-15.8,29c8.4,12.7,41.9,8.8,55.5,2.4c0.7-0.4,1.5,0.5,1,1.2c-2.5,3.4-5.1,8.2-5.4,14.8  c-0.1,2.4-1.9,4.4-4.2,5c-17.5,4-40.1,20.3-33,56.7c0.3,1.5,1.5,2.7,3.1,3c29.6,4.7,54.1-10.1,62.8-29.4c0.4-0.9,1.8-0.6,1.8,0.4  c-0.4,14.3,2.3,22,4.3,25.8c0.9,1.7,0.9,3.6,0,5.3c-10.6,20.3-9.4,61.7,20.8,62.3c0.8,0,1.7-0.2,2.4-0.6  c20.8-12.1,35.1-36.1,39.7-51.2c0.5-1.8,2.9-2,3.8-0.4c8.8,15.9,23.9,21.7,29.6,20.5c4.9-1.1,10-8,13-14.8c0.6-1.4,2.7-1.2,3.1,0.3  c5.8,23,29.5,49.3,46.6,46.3c17.1-3,27-33.2,21.4-51.1c-0.6-1.9,1-3.9,3-3.6c12.8,1.4,22.4-6.7,25.9-10.3c1-1,1.6-2.3,1.7-3.7  c2.1-27.1-10.7-43-19.6-51c-1.2-1.1-0.6-3.2,1.1-3.3c13.8-1.5,20.9-7,23.7-9.9c1-1,1.5-2.4,1.4-3.8c-0.5-7-2.7-11.9-4.2-14.6  c-0.5-0.8,0.3-1.7,1.2-1.4c22.3,8.4,45.7,3.2,57-11.1c0.8-1,1.2-2.4,1.1-3.7c-3-24.8-21.8-37.2-53.1-38.7  C2088.391,2296.692,2088.391,2295.692,2088.991,2295.592z M2131.091,2247.292c1.9,0.6,2.9,2.8,2,4.6c-23.3,48.6-72,40.5-83.1,31.4  c-1.3-1-1.8-2.7-1.2-4.3c0.6-1.7,1.3-4.4,1.3-7.8c0-0.8,0.2-1.6,0.8-2.2C2077.191,2239.792,2112.291,2241.192,2131.091,2247.292z   M1983.291,2271.892l-5.5-4.4c1.1-5.5,10.9-12.2,21.4-12.8c1.4-0.1,2.6,1.2,2.3,2.6  C2000.291,2263.192,1989.891,2270.492,1983.291,2271.892l-0.8-0.7C1982.691,2271.392,1982.991,2271.692,1983.291,2271.892z   M1997.891,2296.392L1997.891,2296.392c7.6,1.8,11.4,10.8,1.5,10.9L1997.891,2296.392L1997.891,2296.392L1997.891,2296.392z   M1997.791,2321.092c13.9-4.5,23.1,6.6,22.3,19.6c-0.1,1.6-1.1,3-2.5,3.6c-13.6,5.8-24.4,1.7-27.7-6.4L1997.791,2321.092z   M2008.091,2271.792c-2.5-16.6,32.8-18,36.3,0.7c0.2,1.1,0,2.2-0.5,3.1C2035.591,2290.192,2011.491,2285.492,2008.091,2271.792z   M2026.891,2302.092c0.1-0.7,0.3-1.3,0.7-1.9c9.9-14,43.8-10.2,50.6,9.6c0.3,2.1-0.8,4.8-2.8,5.6c-6.2,2.3-19,7.2-27.3,5.7  C2036.891,2319.192,2025.091,2314.692,2026.891,2302.092z M2084.191,2215.092c-7,30.8-35.8,42.9-62.1,32.4c-1-0.4-1.7-1.4-1.8-2.5  c-2-29.3,41.9-46.4,61.8-34.7C2083.791,2211.292,2084.591,2213.192,2084.191,2215.092z M2046.991,2158.192  c5.5,11.7-5.2,46.6-28.6,51.8c-1.3,0.3-2.7-0.4-3.4-1.6c-2.4-4.3-11.8-3.7-17.8-2.5c-1.3,0.3-2.6-0.5-3-1.8  c-9.2-29.9,20.8-49.2,48.6-48.6C2044.591,2155.492,2046.191,2156.492,2046.991,2158.192z M2009.591,2211.492  c0.9,0.5,1.4,1.4,1.5,2.4c1.7,24.9-10.5,34.8-21.5,28.8C1967.491,2225.292,1997.991,2204.492,2009.591,2211.492z M1966.891,2111.192  c22.8,13.3,17.8,44.1,9.3,60.6c-0.9,1.7-3.1,2-4.4,0.7c-10-10-11.9-11.1-24.2-6c-1.4,0.6-3,0-3.7-1.4c-15.3-31.2,8-52.7,20.5-54.4  C1965.191,2110.592,1966.091,2110.792,1966.891,2111.192z M1890.791,2141.492c13,3.3,41,38.9,26.1,65.9c-0.5,1-1.6,1.6-2.8,1.4  c-4.5-0.7-6.5,0.5-8.8,3.3c-1,1.2-2.7,1.4-3.9,0.4c-9-7.2-30.6-39.2-14.9-69.1  C1887.291,2141.892,1889.091,2141.092,1890.791,2141.492z M1902.991,2325.792L1902.991,2325.792  C1902.991,2325.792,1902.991,2325.692,1902.991,2325.792c0.1,0,4.7,9.4,4.7,9.5l0,0l0,0c-3.7,1-7.4,0.9-7.8-0.3  C1899.391,2333.292,1900.191,2328.592,1902.991,2325.792L1902.991,2325.792z M1905.991,2260.792c4.5-0.5,9.1,5,10.5,10.6l-9.1,10.7  c-5.3-2.6-8.6-12.4-3.8-19.9C1904.191,2261.392,1905.091,2260.892,1905.991,2260.792z M1899.991,2306.892c0-0.1,0-0.1,0-0.2  V2306.892c-4.7,4.9-12.1,0.3-14.5-5.7c-0.6-1.5,0.1-3.2,1.5-3.9c3.9-1.9,11-2.1,14.1,0.6  C1900.891,2299.192,1900.091,2305.692,1899.991,2306.892z M1860.091,2218.792c0.5-2.4,3-4.4,5.4-4.4c23.3-0.2,32.5,11.6,23.9,38  c-0.3,1-1.1,1.7-2.2,2C1873.891,2257.492,1851.891,2257.192,1860.091,2218.792z M1877.691,2290.792c-12.1,5-20.1-8.7-18.3-19.8  c0.2-1.1,1.2-2,2.3-2.1c12.5-0.9,25.8,9.5,17.4,20.8C1878.691,2290.192,1878.191,2290.592,1877.691,2290.792z M1870.991,2309.592  c-12.6,15.9-35,16.3-47.2,0.2c-1.3-1.7-1.4-4.1-0.3-6c10.4-16.5,47.3-19.1,48.3,3.5  C1871.791,2308.092,1871.491,2308.892,1870.991,2309.592z M1858.791,2337.492c2-5.5,23-20.7,30.1-2.6c0.3,0.7,0.2,1.5-0.1,2.2  C1883.691,2348.292,1856.891,2342.892,1858.791,2337.492z M1815.091,2174.092c30.2-20.6,65.1,10.8,64.8,30.3c0,1.4-1.2,2.5-2.6,2.3  c-7.3-1-17.7,1.5-18.8,2.5c-1.1,0.9-3,2.7-4.9,9.8c-0.3,1.2-1.5,1.9-2.7,1.8c-29.5-4.4-42.6-33.8-37.2-44.9  C1813.991,2174.992,1814.491,2174.492,1815.091,2174.092z M1806.391,2242.392c18.9-14.7,53.1-8.7,51.1,18.3c-0.1,1-0.6,2-1.5,2.5  c-16,10.6-44.9,7.4-51.4-15.6C1804.091,2245.592,1804.791,2243.592,1806.391,2242.392z M1747.991,2290.592  c11.2-18.3,52.9-25.5,77.8,2.4c0.5,0.6,0.5,1.5-0.1,2.1c-10.2,9.3-9.3,12.1-7.2,15.5c0.4,0.6,0.1,1.4-0.5,1.7  c-16.4,7-49.2,13.7-69.7-15.2C1746.791,2295.192,1746.791,2292.592,1747.991,2290.592z M1791.091,2355.092c-2.2-1.2-2.9-4-1.6-6.2  c23.5-35.5,52.6-19.2,56.8-10.3c0.2,0.4,0.3,0.9,0.3,1.3C1845.591,2355.792,1810.191,2365.492,1791.091,2355.092z   M1805.691,2434.992c-1.9,0.1-3.5-1.2-4-3c-6.2-21.7,12.5-47.1,33.1-49.6c0.9-0.1,1.8,0.4,2.2,1.2c3.3,6,11.5,5.9,15.1,5.5  c1-0.1,1.9,0.6,2.1,1.5C1856.791,2404.992,1848.591,2433.792,1805.691,2434.992z M1844.691,2383.292c-1.2-0.4-2-1.5-2.1-2.8  c-0.9-28,16.7-31,33.4-20.5c0.5,0.3,1,0.9,1.1,1.5C1879.191,2369.192,1860.891,2388.392,1844.691,2383.292z M1889.491,2497.892  c-15.3,2.3-29.7-22.6-15.9-53.8c0.5-1.2,2-1.6,3.1-0.8c8.5,6.1,17.2,1.1,25.1-7.6c0.9-1,2.4-0.9,3.2,0.2  C1915.391,2449.692,1904.791,2492.292,1889.491,2497.892z M1888.891,2436.592c-3.5,2.4-8.2,1.6-10.7-1.8  c-13.9-19.3,0-41.7,15.5-47.8c0.8-0.3,1.6-0.2,2.3,0.3c1.6,1.1,5.4,2.8,11.2,0.2c1.2-0.5,2.7-0.1,3.4,1.1  C1916.891,2399.192,1908.091,2423.192,1888.891,2436.592z M1903.291,2383.592c-2.1,0.5-4.3-0.5-5.4-2.4  c-10.6-17.7,3.6-40.9,19.6-28.1C1924.891,2359.092,1919.491,2379.792,1903.291,2383.592z M1916.191,2252.992  c-18.6,0.1-20.6-25.1-6.9-39.5c0.6-0.6,1.8-1.1,2.6-1.1C1926.291,2212.292,1946.591,2252.992,1916.191,2252.992z M1930.191,2196.492  c0-12.5,5.4-22.9,26.5-27.6c1.9-0.4,2.9-0.3,4,1.5c3.3,4.9,14.3,20.1,12.7,29.9c-1.9,11.6-16.5,23.8-24.8,24.8  C1940.291,2226.092,1930.191,2209.092,1930.191,2196.492z M1946.691,2253.092c-5.3-6.8-2.9-17.6,6.5-23.1c1.2-0.7,2.8-0.3,3.6,0.9  c6.2,9.6,2.9,19.2-6.6,23.1C1948.991,2254.492,1947.591,2254.092,1946.691,2253.092z M1946.291,2373.392c13.8-1,10.4,26.4,0,32.7  C1935.991,2412.392,1926.691,2374.792,1946.291,2373.392z M1967.691,2461.892c-11.8,15.3-40.5-29.4-24.3-50.1c0.5-0.6,1.2-1,1.9-1.1  c4.6-0.4,8-3.6,9.7-5.5c0.8-0.9,2-1,3-0.4C1977.991,2416.992,1977.891,2444.092,1967.691,2461.892z M1958.391,2357.492  L1958.391,2357.492L1958.391,2357.492L1958.391,2357.492c0.1-0.1,19.9-8.4,20-8.4l0,0l0,0c1.4,4.5,0.8,9.8-2.2,14.3  c-0.6,0.9-1.7,1.4-2.7,1.3C1966.091,2364.092,1961.091,2361.192,1958.391,2357.492z M1983.291,2362.192c16.4-4.8,45.6,5.3,36.2,40.9  c-1,3.7-4.7,5.9-8.4,5.3C1964.891,2400.192,1976.691,2365.592,1983.291,2362.192z M2022.491,2495.092c-14.2-4.4-28.1-21.8-36.9-49.3  c-0.6-1.7-0.7-3.6-0.4-5.4c1.2-7.5,1.5-17.6-1.4-34.1c-0.2-0.9,0.9-1.6,1.7-1.1c4.5,3,15.2,9.5,24.7,9.2c1.1,0,2.1,0.6,2.5,1.6  c3.5,8.5,14.6,21.4,24.5,26.7c0.2,0.1,0.4,0.2,0.5,0.4c8.9,7.6,6.6,42.3-8.1,51.2  C2027.491,2495.492,2024.891,2495.792,2022.491,2495.092z M2073.291,2433.192c-13.4,10.8-45.3-1.6-52.7-19.3  c-0.5-1.2-0.1-2.5,0.8-3.3c3.4-2.9,9.9-9.7,8.7-23.4c-0.1-1.3,0.8-2.5,2.1-2.6c17.9-2.1,40.4,21.7,42.7,44.8  C2075.091,2430.792,2074.491,2432.292,2073.291,2433.192z M2076.091,2366.392c-25.9,14.8-54.7-6.7-49.7-29c0.2-0.7,0.5-1.3,1.1-1.7  c14.7-11,47.6,6.1,51.4,24.5C2079.491,2362.592,2078.291,2365.092,2076.091,2366.392z M2076.991,2341.992  c-4.3-5.2-9.4-10.5-16.8-13.9c-1-0.5-0.9-2,0.2-2.3c6.7-1.7,20.5-5.6,23.1-9.5c1.5-2.3,0.3-6.4-1.6-11.1c-0.5-1.1,0.3-2.4,1.5-2.5  c20.9-1.7,44,5.6,50.7,29.9c0.4,1.6,0,3.2-1,4.5c-12.1,13.6-41.8,10.2-53.5,6.7  C2078.591,2343.492,2077.691,2342.792,2076.991,2341.992z" style="fill:#D6293A;"/>
	<rect height="21.6" style="fill:#F79514;stroke:#231F20;stroke-miterlimit:10;" width="29.183" x="1293.798" y="2175.567"/>
	<path d="M3710.843,1828.62c-3.228-0.992-8.039-1.016-12.597-0.496l-0.945,0.11  c-0.843,0.11-1.661,0.244-2.464,0.386c-1.079,0.189-2.11,0.401-3.071,0.638c-0.961,0.236-1.732,0.457-2.472,0.709  c-1.071,0.354-2.134-0.134-2.59,1.126c0.038,0.099,0.085,0.194,0.142,0.283c0.67,1.054,1.718,1.811,2.929,2.118  c1.574,0.165,2.252-0.906,3.716-0.74c0.543,0.063,5.188,1.63,5.724,1.693c5.803,0.653,6.645-1.189,10.031-0.787h0.323  c2.984,0.354,4.724,0.559,4.724,0.551C3715.473,1831.297,3713.843,1829.541,3710.843,1828.62z M3702.608,1830.69l-0.37,0.063  C3701.954,1830.557,3702.151,1830.557,3702.608,1830.69z" style="fill:#F7CB14;"/>
	<path d="M1445.64,2412.199c-7.197-2.555-13.027-7.365-16.374-13.409l-17.43,33.756  c-3.008,5.826-4.241,12.407-3.545,18.927l26.107,244.649c0.223,2.089,0.081,4.2-0.419,6.24l-6.413,26.15  c-0.362,1.476,0.04,3.035,1.071,4.151c0.987,1.069,2.761,0.667,3.191-0.723l9.21-29.827c0.955-3.093,1.33-6.337,1.104-9.567  l-16.781-240.439c-0.33-4.724,0.865-9.429,3.409-13.423L1445.64,2412.199z" style="fill:#161616;"/>
	<path d="M930.451,1131.696c3.324,2.674,6.937,4.536,10.526,5.477c2.411,0.632,4.81,0.858,7.099,0.621  c3.677-0.38,7.211-0.943,10.598-1.657c3.615-0.762,7.053-1.704,10.296-2.808c2.339-0.796,4.575-1.676,6.703-2.633  c16.245-7.309,26.09-19.088,25.996-32.13c-0.243-33.785-18.233-45.821-39.329-45.596c-11.811,0.126-42.442,16.865-45.758,38.413  c-1.847,12.004,0.595,22.296,5.182,30.13C924.171,1125.624,927.167,1129.055,930.451,1131.696z" style="fill:#ED6D15;"/>
	<path d="M1115.458,806.29c-20.98-3.79-46.61-26.54-46.61-26.54l1.88-0.1  c0,0,25.99,22.37,47.02,25.84c21.03,3.47,44.41,7.67,44.41,7.67l-2.42,1.46C1159.738,814.62,1136.428,810.08,1115.458,806.29z" style="opacity:0.84;fill:#F2F2F1;"/>
	<path d="M1566.197,1255.583c2.204-0.27,4.795-0.726,7.435-1.492c2.582-0.75,5.599-2.305,8.383-3.971  l0.152-0.214l7.085-10.002l-4.64-11.917l-0.276-0.708l-30.765-66.291l-6.698-14.433c0,0-7.686-2.911-13.549-1.734  c-0.346,0.069-0.688,0.148-1.02,0.247c-5.947,1.784-11.893,8.92-11.893,8.92l7.34,45.057L1566.197,1255.583z" style="fill:#BF1682;"/>
	<rect height="21.6" style="fill:#F79514;stroke:#231F20;stroke-miterlimit:10;" transform="matrix(6.123234e-17 -1 1 6.123234e-17 -1199.9944 3559.5762)" width="29.183" x="1165.199" y="2368.985"/>
	<path d="M2425.904,1299.779c-3.071-2.111-11.183-2.255-19.543-1.31c-5.214,0.589-10.523,1.601-14.768,2.825  c-4.24,1.223-7.418,2.656-8.374,4.091c-3.449,5.174,1.725,23.715,1.725,23.715h4.42h44.734c0,0-0.008-0.149-0.024-0.401  C2433.873,1325.552,2432.292,1304.17,2425.904,1299.779z" style="fill:#E5B51A;"/>
	<path d="M1494.649,1679.504c2.392,1.382,4.478,3.122,6.215,5.108c3.217-4.871,8.108-8.504,13.889-9.954  c-0.869-7.933-7.284-14.096-15.08-14.096c-5.528,0-10.351,3.108-13.008,7.738c-1.31,2.284-2.09,4.934-2.16,7.776  C1488.209,1676.577,1491.65,1677.772,1494.649,1679.504z" style="fill:#BF1682;"/>
	<path d="M1503.511,1208.568l11.268,28.742l17.383,44.338c0,0,13.118,2.539,23.696-2.962  c10.579-5.501,13.964-17.772,13.964-17.772l-3.625-5.331l-38.447-56.54l-1.089-1.602c0,0-5.229-1.062-11.023,0.566  c-0.904,0.254-1.821,0.568-2.735,0.968C1506.132,1201.939,1503.511,1208.568,1503.511,1208.568z" style="fill:#161616;"/>
	<path d="M1532.118,2311.711c0-4.802-4.487-8.695-10.021-8.695s-10.021,3.893-10.021,8.695l16.131,156.436  c0.022,0.211,0.025,0.424,0.009,0.635l-16.091,213.047c-0.032,0.423,0.012,0.848,0.129,1.256l12.308,42.786  c0.584,2.031,2.795,3.113,4.758,2.328l0,0c1.617-0.647,2.531-2.365,2.165-4.067l-9.269-43.054c-0.078-0.364-0.099-0.738-0.062-1.109  l21.56-214.426c0.021-0.208,0.024-0.418,0.008-0.627L1532.118,2311.711z" style="fill:#161616;"/>
	<path d="M3849.776,1688.773c-0.081-0.094-0.132-0.208-0.15-0.331l-0.079-0.189  c-1.441-0.102-1.189-1.008-0.945-1.913c-0.724-1.386-2.622-4.197-2.646-4.346c-0.024-0.15-0.354-0.055-0.496,0.087  c-2.85,2.811-17.258,20.234-27.36,32.517c-0.038,0.053-0.08,0.103-0.126,0.15c-1.189,1.457-2.362,2.834-3.377,4.11l0.047,0.26  h-0.236c-1.323,1.575-3.385,3.787-3.346,3.559c0.039-0.228-0.402,0.181-0.449,1.055c-1.661,2.023-2.661,3.228-2.653,3.212  c-1.433,18.25-88.181-14.259-45.075,12.361c0.835,0.622,1.625,1.303,2.362,2.039c3.371,2.782,6.922,5.338,10.629,7.653  c9.338,5.858,23.699,4.299,23.722,4.283c3.283-1.858,17.518-4.33,19.4-6.952v-0.094h0.378l0.047-0.504  c8.834-12.432,19.227-30.013,25.502-43.689l3.866-9.448c0.446-1.297,0.816-2.506,1.11-3.63  C3849.854,1688.904,3849.812,1688.84,3849.776,1688.773z" style="fill:#0DCC5A;"/>
	<path d="M3491.122,1746.816c-5.238-12.062-10.298-25.094-15.503-37.934  c-11.944-13.771-30.785-37.729-19.116-1.803c2.441,11.637,5.984,25.344,11.094,28.478c0.897,0.551,14.959,8.991,17.55,11.668  C3487.648,1750.18,3494.023,1755.938,3491.122,1746.816z" style="fill:#1B8FEF;"/>
	<path d="M3705.434,1632.629c-6.972,3.144-28.01,0.229-32.769-1.205c-6.95,2.171-35.614,0.526-35.776,1.055  c-2.967,3.11-30.273,18.689-34.958,21.266l0,0l0,0c0.85,9.102,70.073,8.007,79.883,22.108  C3699.86,1678.388,3708.694,1633.07,3705.434,1632.629z M3696.632,1662.642c-0.033,0.045-0.07,0.087-0.11,0.126l0.189-0.22  C3696.689,1662.582,3696.662,1662.614,3696.632,1662.642z" style="fill:#1B8FEF;"/>
	<path d="M2787.147,1422.834c-0.252-0.015-0.501-0.01-0.749-0.005c-1.823-3.053-4.275-7.108-5.919-9.617  c-2.909-4.439,1.246-21.514,1.246-21.514l-21.762,10.075c0,0,10.723,6.6,15.936,12.455c2.591,2.909,4.452,6.829,5.669,10.039  c-2.524,1.579-4.274,4.309-4.459,7.507c-0.303,5.24,3.699,9.735,8.939,10.038c5.24,0.303,9.735-3.699,10.038-8.939  C2796.39,1427.632,2792.388,1423.137,2787.147,1422.834z" style="fill:#BF1682;"/>
	<path d="M1607.793,2293.639c-1.302-33.462-7.729-184.51-13.448-252.87  c-12.716-151.983-49.392-307.27-49.392-307.27l-11.629,0.52l-3.229,0.144l-25.219,1.128l-14.792,0.662l-17.348,0.776l-5.828,0.261  l-25.196,1.127l-4.247,0.19l-18.697,0.836l-2.589,0.116c0,0-11.992,111.353-11.992,253.543c0,173.986,14.602,288.821,16.843,305.419  c0.186,1.379,0.288,2.087,0.288,2.087c0,17.266,3.164,33.623,8.798,48.286c2.311,6.015,5.044,11.737,8.146,17.122  c10.328,17.933,24.779,32.056,41.681,40.332c10.741,5.26,22.458,8.182,34.74,8.182c1.929,0,3.839-0.094,5.738-0.235  c15.564-1.153,30.104-6.935,42.687-16.267c14.041-10.414,25.647-25.223,33.548-42.857c7.26-16.204,11.392-34.794,11.392-54.563  C1608.049,2300.308,1607.96,2297.929,1607.793,2293.639z" style="fill:#F2F2F1;"/>
	<rect height="21.6" style="fill:#F79514;stroke:#231F20;stroke-miterlimit:10;" transform="matrix(6.123234e-17 -1 1 6.123234e-17 -811.4592 3171.0408)" width="29.183" x="1165.199" y="1980.45"/>
	<path d="M1561.233,1370.498c-0.007,10.858,0.016,20.716,0.107,24.548c0.006,0.269,0.007,0.576,0.005,0.911  c1.48,3.097,2.735,5.459,3.584,6.585c2.765,3.67,5.989,12.664,8.106,19.204c0.751,2.32,0.244,4.801-1.146,6.804  c-1.313,1.89-2.079,4.188-2.065,6.668c0.035,6.131,5.034,11.309,11.16,11.548c6.631,0.258,12.087-5.041,12.087-11.615  c0-2.176-0.6-4.21-1.642-5.95c-1.112-1.857-1.674-3.991-1.417-6.141c1.091-9.124,2.982-25.883,3.059-32.982  c0.059-5.523,0.053-15.771,0.036-23.843c-8.845,2.816-18.321,4.343-28.177,4.343  C1563.689,1370.579,1562.459,1370.546,1561.233,1370.498z" style="fill:#161616;"/>
	<rect height="504" style="fill:#D6293A;" width="144" x="2272.691" y="2120.692"/>
	<path d="M3785.427,1367.502c-0.315-5.677-10.408-2.401-15.385-3.795c-1.01-0.278-2.055-0.403-3.102-0.37  c0.197,0.173-0.079,0.236-0.685,0.205c-3.653-0.181-19.683-3.637-22.226-4.244l-0.283-0.063l0,0h-0.047h-0.063l-0.646,0.205  l-0.15,0.055l-0.575,0.181c0.007,2.103,0.388,4.188,1.126,6.157c0.032,0.053,0.061,0.109,0.086,0.165  c3.567,3.299,6.031,8.109,4.96,9.22c0.237,0.457,0.266,0.993,0.079,1.472c-0.607,1.695-1.441,3.3-2.48,4.771l-6.921,20.132  c1.008,5.511,15.613,3.063,21.353,2.559c1.575-0.142,1.638-6.495,1.85-8.314c0.039-0.409-1.402-3.645-3.149-7.212l-0.48-1  c-1.11-2.275,1.701-9.621,4.11-10.968c-0.748-0.701,4.889,0.433,6.559,1.575c0.728,0.498,1.494,0.938,2.291,1.315h0.071l0.354,0.142  c0,0,5.118,3.433,5.157,3.441c1.113,0.175,2.236,0.278,3.362,0.307c0.709-1.299,1.142-2.362,0.787-2.96  c-0.787-1.283-8.551-5.511-6.425-7.944C3788.081,1368.769,3785.427,1367.502,3785.427,1367.502z" style="fill:#F7CB14;"/>
	<path d="M3575.847,1795.512c3.312,1.057,13.743,8.375,17.077,4.96c12.891-4.918,25.255-11.885,36.139-20.297  l0,0c2.446-1.906,4.863-3.856,7.117-5.937c1.076-9.808,1.523-19.675,1.339-29.541c-11.967-3.121-30.327,2.832-37.359-6.692  c-15.895-3.959-35.685,1.619-35.769,1.574c-6.3-4.754,6.167-16.512-7.243-17.062  C3515.516,1762.768,3564.461,1777.13,3575.847,1795.512z" style="fill:#1B8FEF;"/>
	<path d="M1698.476,1366.915c18.874-7.844,20.845-17.894,20.845-17.894l-1.766-3.047  c-1.408-3.764-10.08-4.158-20.869-1.407c-8.861-2.349-19.72-9.451-26.653-13.718c-11.669-7.182-30.098-28.737-30.098-28.737  s-12.994,6.344-18.74,13.526c-5.746,7.182-7.582,26.83-7.582,26.83c0.023,0.449,18.615,6.854,28.275,9.39  c6.409,1.683,20.618,4.126,26.603,6.759c-2.614,2.582-3.823,5.008-3.122,6.882l0.797,3.964l0,0  C1666.167,1369.463,1679.602,1374.759,1698.476,1366.915z" style="fill:#161616;"/>
	<path d="M2308.314,1320.173c0-2.367-1.919-4.286-4.286-4.286s-4.286,1.919-4.286,4.286  s1.919,4.286,4.286,4.286S2308.314,1322.54,2308.314,1320.173z" style="fill:#E22323;"/>
	<path d="M2776.077,1274.576c-6.822-6.443-11.086,3.032-11.086,3.032s-5.969-6.822-11.3,0  c-5.33,6.822,9.167,11.086,9.167,11.086s-1.706,6.822-4.69,16.042c-1.871,5.779-6.757,11.678-10.143,15.277  c1.87,5.195,3.387,9.342,4.181,11.505l12.785,4.969c0,0-1.706-14.108-1.706-22.91c0-8.803,6.396-24.03,6.396-24.03  S2782.9,1281.019,2776.077,1274.576z" style="fill:#F464BA;"/>
	<path d="M2177.786,1326.803c0-1.1-0.9-2-2-2h-6.634c-1.1,0-2,0.9-2,2v14.357  c3.865,0.238,7.422,0.942,10.634,1.915V1326.803z" style="fill:#E22323;"/>
	<path d="M2227.469,1443.499c-7.333-20.361-18.061-34.88-33.752-34.88c-12.085,0-19.28,6.911-23.567,15.142  c5.924,2.169,12.671,5.815,15.323,11.65c5.152,11.335,12.365,44.31,12.365,44.31h11.335  C2209.173,1479.721,2204.591,1445.865,2227.469,1443.499z" style="fill:#F464BA;"/>
	<path d="M1139.348,594.15c-3.59-8.52-1.34-29.15-1.34-42.15s3.58-64.56,3.58-64.56l2.21-0.83  c0,0-3.59,51.56-3.59,64.57c0,13-2.24,33.62,1.35,42.14s11.21,19.73,16.59,21.52c5.38,1.8,7.17,4.04,13.9,4.49  c6.72,0.44,10.76,1.34,10.76,1.34l-2.21,0.83c0,0-4.04-0.9-10.76-1.35c-6.73-0.45-8.52-2.69-13.9-4.48  C1150.558,613.87,1142.938,602.67,1139.348,594.15z" style="opacity:0.84;fill:#F2F2F1;"/>
	<path d="M3665.107,1721.093c-0.402-0.971-0.901-1.9-1.488-2.771c-0.079-0.48-0.181-0.921-0.268-1.378  c-0.286-1.502-0.673-2.983-1.157-4.433c-0.454-1.353-1.012-2.67-1.669-3.937c-0.385-0.736-0.808-1.45-1.268-2.142  c-0.78-1.175-1.674-2.269-2.669-3.267c-0.055-0.055-0.11-0.118-0.173-0.173c-9.928-9.716-28.226-8.117-48.626-2.685  c-3.013,0.803-6.07,1.68-9.173,2.63c1.664,1.241,2.908,2.961,3.567,4.929c1.685,3.397,3.584,6.684,5.685,9.842l0.197-0.197  c0.724-0.787,3.701-1.213,3.937-1.213c0.055,0,4.031,2.945-1.394,4.724l-0.394,0.126c8.976,12.637,22.715,25.36,26.399-6.566  c0,0,0-0.055,0-0.087s0-0.039,0.063-0.055c9.385-7.283,18.77,3.008,24.014,6.582c0.638,0.433,1.244,0.882,1.819,1.339  C3664.713,1724.085,3665.973,1722.826,3665.107,1721.093z M3629.197,1718.731c-0.086,8.59-4.771,3.598-8.661-2.149  c-0.535-0.787-1.055-1.575-1.575-2.362l-0.331-0.535c-1.161-1.836-2.213-3.74-3.149-5.7c1.398-0.178,2.814-0.178,4.212,0  c4.929,0.701,8.07,3.984,9.448,9.889c0-1.055-0.04-1.693-0.047-2.047c-0.019,0.683-0.003,1.366,0.047,2.047  c0.042,0.278,0.06,0.554,0.055,0.827V1718.731z" style="fill:#D6293A;"/>
</svg>
