<svg id="Layer_1" data-name="Layer 1" xmlns="http://www.w3.org/2000/svg" width="651.99" height="430.57" viewBox="0 0 651.99 430.57"><path d="M392.3,166.52c18.7-19.26,3-54.36,1.81-26.86l-10.63-.36c1-7.25.07-15-4.7-3.5-.29,8.24-14.6,41.78,1.29,21,9.05,4.7,8.93,5.81,3,13.8C387,172.6,390.66,170.39,392.3,166.52Z" style="fill:#fff;stroke:#000;stroke-miterlimit:10"/><path d="M343.46,157c9.13,4.54,9,5.65,3.2,13.75,3.93,1.91,7.59-.35,9.15-4.25,18.32-19.62,2-54.41,1.32-26.89l-10.63-.17c.94-7.32-.15-15-4.72-3.44C341.65,144.22,328,178,343.46,157Z" style="fill:#fff;stroke:#000;stroke-miterlimit:10"/><path d="M258.13,104C218.39,54.9,283.74,52.68,278.6,28.4c12.6-2.4,9.61,5.67,10.18,14.51,29.28,3.09,42.05,42.12,19.53,61,42.86-22.59,23.88-90.67-25.25-88.86C233.92,13.42,215.19,81.58,258.13,104Z" style="fill:#fff;stroke:#000;stroke-miterlimit:10"/><path d="M256.59,150.88c-5.57,14.67-5,17.37,13.36,16.37,1.64-8.9-6-27,10.3-22.56-1.15,19.12-1.78,26,19.22,22-1.77-8.66-9.82-17.61,4.53-18.43l5.8,16.38c46.2-61.19-113.68-61.72-68.57-1.45C245.17,154.51,243.8,142.77,256.59,150.88Z" style="fill:#fff;stroke:#000;stroke-miterlimit:10"/><path d="M457.59,85.91c.54-12.21,8.23-18.58,5.75-30.14,13.41-2,10.11,3.62,10.34,13.72,6,4.83,8.71,18.34,5,26.34,4.85-5.22,11-14.18,11-24.37-1.12-37.8-40.13-37.8-41.29,0C448.39,82.8,462.39,106.46,457.59,85.91Z" style="fill:#fff;stroke:#000;stroke-miterlimit:10"/><path d="M366.87,103.93c-19.48-16.68-9-52.65,16-56.32.2-10.43-3.09-16.13,10.75-14-3.81,24.12,48.48,28.1,14.64,70.32C445.77,84.22,431.08,18.51,387.59,20,344.1,18.55,329.4,84.27,366.87,103.93Z" style="fill:#fff;stroke:#000;stroke-miterlimit:10"/><path d="M447.15,161.85c.08-11.55,8.59-21.12,17.89-23.92.46-9.35-3.17-15.67,9.83-13.6-3,19.32,30.45,30.85,9.62,55.11h0c27.88-15.44,18-70.07-15.21-69.2C412,110.64,453.21,206.85,447.15,161.85Z" style="fill:#fff;stroke:#000;stroke-miterlimit:10"/><path d="M47.69,181.29C23,168.63,34.26,139.06,61.26,136.56c.14-10.66-3-16.14,10.94-14.11v14.13c26.9,2.53,37.63,32.29,13.11,44.73,46.14-15.71,29.46-74.51-18.77-72.94C18.32,106.74,1.54,165.53,47.69,181.29Z" style="fill:#fff;stroke:#000;stroke-miterlimit:10"/><path d="M57.93,94.74c-23-13.41,9.13-21.32,2.85-38.41,13.52-2.56,9.57,6.13,10.08,15,6.39.55,13.17,6.89,12.74,12.55-10.17,31,52.89-35.16-17.25-40.52C28,42.58,19.68,87.76,57.93,94.74Z" style="fill:#fff;stroke:#000;stroke-miterlimit:10"/><path d="M146.51,103.45c-23.62-18.24-8.33-52.57,20.67-55.07.49-9.35-3.17-15.85,9.91-13.85-6.39,23.6,58.27,24.94,17.76,69.44,45.72-20.27,26.79-85-23.28-83.77C121.57,17.93,101.26,82.2,146.51,103.45Z" style="fill:#fff;stroke:#000;stroke-miterlimit:10"/><path d="M181.55,227.82c-39.36-2-123.7-2.74-118.36,52.18,10.51,1.63,27.75-6.28,23.51,11-54-3.69-5.44,49.16,34.24-13.31,2.4,2,88.82,44.93,96.4,21,13.82,3.53,61.48,2.27,80.69-9.94-5.27-4.49-79.1,11-66.27-10.77.27-.33,78.54.6,78.54-.33-1.72-12.41-12.55-17.75-1.83-22.26,0,0,12.22,17.76,33.28,22.44-133.69-144.6,235.26,7,62.74,9.08,23.37,12.61,117.44,18.87,69.92-34.65-12.57,12.79-22.4-1.65-7-8.29-8.07-11.76-11.65-11.43-20.59-2.43-10.53-8.49-3-9.85,3.61-16.49-23.06-26.26-14,9.67-30.37-8.26,17.12-13-5.36-15.32-11-18.37-5.48,10.27-6.65,9.67-15.86,3.61,15-16.09-14.17-11.89-17.47-14.48l-4.47,11.23c-11.12-2.48-9.65-4.67-6.25-14-23.41,2-28.14-3.78-27.85,15.46-12.52,1-9.11-4.16-8.85-13.39-13.21,4.81-20.41,12.91-15.26,26-11.33,3-11.24.81-12.33-9.75-31.6,31.89,1,54.87-39.84,35-19.72-49-111.47-52.62-139.63-20.28C127.25,221.82,192.55,207.82,181.55,227.82Z" style="fill:#fff;stroke:#000;stroke-miterlimit:10"/><path d="M207.59,157c15.51,21,1.82-12.76,1.68-21-4.54-11.56-5.63-3.89-4.72,3.44l-10.62.17c-.69-27.52-17,7.27,1.31,26.89,1.57,3.9,5.23,6.16,9.15,4.25C198.59,162.63,198.46,161.52,207.59,157Z" style="fill:#fff;stroke:#000;stroke-miterlimit:10"/><path d="M170.94,156.8c15.89,20.78,1.58-12.76,1.3-21-4.75-11.5-5.66-3.75-4.66,3.5l-10.62.36c-1.19-27.5-16.9,7.6,1.81,26.86,1.63,3.87,5.33,6.08,9.23,4.08C162,162.61,162,161.5,170.94,156.8Z" style="fill:#fff;stroke:#000;stroke-miterlimit:10"/></svg>