<svg id="Layer_1" data-name="Layer 1" xmlns="http://www.w3.org/2000/svg" width="1679.18" height="1173.62" viewBox="0 0 1679.18 1173.62"><path d="M1630.36,53.21H1637V29.3H1624.5V17.06h-11.61V4.59h-23.24V17.06h-22.73V4.59h-23.24V17.06H1521V4.59h-23.24V17.06H1475V4.59h-23.24V17.06H1429V4.59h-23.24V17.06h-22.73V4.59h-23.24V17.06h-22.72V4.59h-23.24V17.06h-22.73V4.59h-23.24V17.06h-22.73V4.59h-23.24V17.06h-22.73V4.59h-23.24V17.06h-22.72V4.59H1130V17.06h-22.73V4.59H1084V17.06h-22.73V4.59H1038V17.06h-22.73V4.59H992.07V17.06H969.35V4.59H946.11V17.06H923.38V4.59H900.14V17.06H877.41V4.59H854.17V17.06H831.44V4.59H808.21V17.06H796.59v11H784.12V50.71h12.47V72.83H784.12V95.47h12.47v22.12H784.12v22.63h12.47v22.13H784.12V185h12.47V207.1H784.12v22.64h12.47v22.12H784.12V274.5h12.47v22.12H784.12v22.63h12.47v22.13H784.12V364h12.47v22.13H784.12v22.63h12.47v22.12H784.12v22.64h12.47v22.12H784.12v22.63h12.47v22.13H784.12V543h12.47v22.12H784.12V587.8h12.47v22.12H784.12v22.64h12.47v22.12H784.12v22.63h12.47v22.13H784.12v22.63h12.47v22.12H784.12v22.64h12.47V789H784.12v22.63h12.47v22.13H784.12V855H763v12.47h-22V855H718.41v12.47h-22V855H673.86v12.47h-22V855H629.32v12.47h-22V855H584.77v12.47h-22V855H540.23v12.47h-22V855H495.68v12.47h-22V855H451.14v12.47h-22V855H406.6v12.47h-22V855H362.05v12.47H340V855H317.51v12.47h-22V855H273v12.47H251V855H228.42v12.47h-22V855H183.87v12.47h-22V855H139.33v12.47h-22V855H94.78v12.47h-22V855H50.24v12.47h-22V855H4.6v25H17.06v23.34H4.6v23.9H17.06v23.34H4.6v23.91H17.06v12.24H28.65v12.47H51.86V986.71H74.57v12.47H97.78V986.71h22.7v12.47h23.21V986.71h22.7v12.47H189.6V986.71h22.7v12.47h23.22V986.71h22.7v12.47h23.21V986.71h22.7v12.47h23.21V986.71H350v12.47h23.21V986.71H396v12.47h23.21V986.71h22.7v12.47h23.21V986.71h22.7v12.47H511V986.71h22.7v12.47h23.21V986.71h22.7v12.47h23.21V986.71h22.7v12.47h23.21V986.71h22.71v12.47h23.21V986.71h22.7v12.47h23.21V986.71h22.71v12.47h23.21V986.71h22.7v12.47h23.21V986.71h22.7v12.47H878.3V986.71H901v12.47h23.22V986.71h22.7v12.47h23.21V986.71h22.7v12.47H1016V986.71h22.7v12.47H1062V986.71h22.71v12.47h23.21V986.71h22.7v12.47h23.21V986.71h22.7v12.47h23.22V986.71h22.7v12.47h23.21V986.71h22.7v12.47h23.21V986.71h22.7v12.47h23.21V986.71h22.71v12.47h23.21V986.71h22.7v12.47h23.21V986.71H1452v12.47h23.22V986.71h22.7v12.47h23.21V986.71h22.7v12.47H1567V986.71h22.7v12.47h23.21V986.71H1637v-9.15H1624.5v-20H1637V937.06H1624.5v-20H1637V896.57H1624.5v-20H1637V855h-21.62v12.47h-20V855h-20.53v12.47h-20V855h-20.53v12.47h-20V855h-19.16V833.23h-12.47V810.62h12.47V787.51h-12.47V764.9h12.47V741.79h-12.47V719.18h12.47V696.07h-12.47V673.46h12.47V650.35h-12.47V627.74h12.47V604.63h-12.47V582h12.47V558.91h-12.47V536.3h12.47V513.19h-12.47V490.58h12.47V467.47h-12.47V444.86h12.47V421.75h-12.47V399.14h12.47V376h-12.47V353.42h12.47V330.31h-12.47V307.7h12.47V284.59h-12.47V262h12.47V238.87h-12.47V216.26h12.47V193.15h-12.47V170.54h12.47V148.78h19.16V136.31h20v12.47h20.53V136.31h20v12.47h20.53V136.31h20v12.47H1637v-25H1624.5V100.45H1637V76.55H1624.5V53.21ZM1363.52,193.15h-12.47v23.11h12.47v22.61h-12.47V262h12.47v22.61h-12.47V307.7h12.47v22.61h-12.47v23.11h12.47V376h-12.47v23.11h12.47v22.61h-12.47v23.11h12.47v22.61h-12.47v23.11h12.47v22.61h-12.47V536.3h12.47v22.61h-12.47V582h12.47v22.61h-12.47v23.11h12.47v22.61h-12.47v23.11h12.47v22.61h-12.47v23.11h12.47v22.61h-12.47V764.9h12.47v22.61h-12.47v23.11h12.47v22.61h-12.47V855h-21.28v12.47h-22.12V855H1285v12.47h-22.13V855h-22.63v12.47h-22.12V855H1195.5v12.47h-22.12V855h-22.64v12.47h-22.12V855H1106v12.47h-22.13V855h-22.63v12.47H1039.1V855h-22.63v12.47H994.35V855H971.71v12.47H949.59V855H928.31V833.23H915.84V810.62h12.47V787.51H915.84V764.9h12.47V741.79H915.84V719.18h12.47V696.07H915.84V673.46h12.47V650.35H915.84V627.74h12.47V604.63H915.84V582h12.47V558.91H915.84V536.3h12.47V513.19H915.84V490.58h12.47V467.47H915.84V444.86h12.47V421.75H915.84V399.14h12.47V376H915.84V353.42h12.47V330.31H915.84V307.7h12.47V284.59H915.84V262h12.47V238.87H915.84V216.26h12.47V193.15H915.84V170.54h12.47V148.78h21.28V136.31h22.12v12.47h22.64V136.31h22.12v12.47h22.63V136.31h22.13v12.47h22.63V136.31H1106v12.47h22.63V136.31h22.12v12.47h22.64V136.31h22.12v12.47h22.64V136.31h22.12v12.47h22.63V136.31H1285v12.47h22.63V136.31h22.12v12.47h21.28v21.76h12.47Z" transform="translate(-4.6 -4.59)"/><path d="M150.79,58.08h-5.85V22.86H132.41V35.34H109.08V22.86H85.17V35.34H61.83V22.86H37.93V35.34H25.69V57.58H13.22V80.1H25.69v22H13.22v22.53H25.69v22H13.22v22.53H25.69v22H13.22v22.53H25.69v22H13.22v22.53H25.69v22H13.22v22.52H25.69v22H13.22v22.53H25.69v22H13.22v22.52H25.69v22H13.22v22.53H25.69v22H13.22V481H25.69v22H13.22v22.53H25.69v22H13.22v22.53H25.69v22H13.22v22.52H25.69v22H13.22v22.53H25.69v22H13.22v22.52H25.69v22H13.22v22.53H25.69v22H13.22v22.52H25.69v10.9H37v12.48H59.93V803.71H82.35v12.48h22.93V803.71h22.43v12.48h22.93V803.71h22.42v12.48H196V803.71h22.43v12.48h22.93V803.71h22.42v12.48H286.7V803.71h22.42v12.48h22.94V803.71h22.42v12.48h22.93V803.71h22.42v12.48h22.93V803.71h22.43v12.48h22.93V803.71h22.42v12.48h22.93V803.71H535.9v12.48h22.93V803.71h35.11V791.19H581.47V767.86h12.47V744H581.47V720.61h12.47v-23.9H581.47V684.47H557.88V672H534v12.47H510.64V672H486.76v12.47H463.39V672H439.52v12.47H416.15V672H392.27v12.47H368.91V672H345v12.47H321.66V672H297.79v12.47H274.42V672H250.54v12.47H227.17V672H203.3v12.47H179.93V672H157.41V650.32H144.94V627.8h12.47v-23H144.94V582.24h12.47v-23H144.94V536.68h12.47v-23H144.94V491.13h12.47v-23H144.94V445.57h12.47v-23H144.94V400h12.47V377H144.94V354.46h12.47v-23H144.94V308.9h12.47v-23H144.94V263.34h12.47v-23H144.94V217.78h12.47v-23H144.94V172.23h12.47v-23H144.94V126.67h12.47v-23H144.94V81.11h12.47v-23h-5.86" transform="translate(-4.6 -4.59)"/><path d="M747.33,128.88V117.7H734.86V82.4H722.34V94.87H699V82.4H675.09V94.87H651.75V82.4h-23.9V94.87H615.61V117.7H603.14v23.12h12.47v22.6H603.14v23.12h12.47v22.6H603.14v23.12h12.47v22.6H603.14V278h12.47v22.6H603.14V323.7h12.47v22.6H603.14v23.12h12.47V392H603.14v23.12h12.47v22.6H603.14v23.12h12.47v22.6H603.14v23.12h12.47v22.6H603.14V552.3h12.47v22.6H603.14V598h12.47v22.6H603.14v23.12h12.47v22.6H603.14v23.12h12.47v22.6H603.14v23.12h12.47v22.6H603.14V780.9h12.47v35.3h12.52V803.73h23.34V816.2h23.9V803.73h23.34V816.2h23.91V803.73h12.24V780.9h12.47V757.78H734.86v-22.6h12.47V712.06H734.86v-22.6h12.47V666.34H734.86v-22.6h12.47V620.62H734.86V598h12.47V574.9H734.86V552.3h12.47V529.18H734.86v-22.6h12.47V483.46H734.86v-22.6h12.47V437.74H734.86v-22.6h12.47V392H734.86v-22.6h12.47V346.3H734.86V323.7h12.47V300.58H734.86V278h12.47V254.86H734.86v-22.6h12.47V209.14H734.86v-22.6h12.47V163.42H734.86v-22.6h12.47V129.64" transform="translate(-4.6 -4.59)"/><path d="M187.94,1040.64v5.85H165.33V1034H142.22v12.47H119.61V1034H96.5v12.47H73.89V1034H50.78v12.47H15.48V1059H28v23.34H15.48v23.91H28v23.34H15.48v23.9H28v12.24H50.78v12.47H73.89v-12.47H96.5v12.47h23.11v-12.47h22.61v12.47h23.11v-12.47h22.61v12.47h23.11v-12.47h22.61v12.47h23.11v-12.47h22.61v12.47h23.11v-12.47H325.1v12.47h23.11v-12.47h22.61v12.47h23.11v-12.47h22.61v12.47h23.11v-12.47h22.61v12.47h23.11v-12.47H508v12.47h23.11v-12.47H553.7v12.47h23.11v-12.47h22.61v12.47h23.11v-12.47h22.61v12.47h23.11v-12.47h22.61v12.47H714v-12.47h35.3v-12.52H736.8v-23.34h12.47V1106H736.8v-23.34h12.47v-23.91H736.8v-12.24H714V1034H690.86v12.47H668.25V1034H645.14v12.47H622.53V1034H599.42v12.47H576.81V1034H553.7v12.47H531.09V1034H508v12.47H485.37V1034H462.26v12.47H439.65V1034H416.54v12.47H393.93V1034H370.82v12.47H348.21V1034H325.1v12.47H302.49V1034H279.38v12.47H256.77V1034H233.66v12.47H211.05V1034H187.94v5.86" transform="translate(-4.6 -4.59)"/><path d="M310.79,438V449H298.32v22.11h12.47v22.65H298.32v22.11h12.47V538.5H298.32v22.11h12.47v22.65H298.32v22.11h12.47V628H298.32v22.34H286.08v12.47h-23.9V650.35H238.85v12.47H214.93V650.35H191.6v12.47H179.07V628H166.6V605.37h12.47V583.26H166.6V560.61h12.47V538.5H166.6V515.85h12.47V493.74H166.6V471.09h12.47V449H166.6V426.33h12.47V404.22H166.6V381.58h12.47V359.46H166.6V336.82h12.47V314.7H166.6V292.06h12.47V269.94H166.6V247.3h12.47V225h9V213.82H188v-1.33h20.51v1.33h-.08V225h20.16V213.82h-.12v-1.33H249v1.33h-.11V225H269V213.82h-.09v-1.33h20.52v1.33h-.09V225h9V247.3h12.47v22.64H298.32v22.12h12.47V314.7H298.32v22.12h12.47v22.64H298.32v22.12h12.47v22.64H298.32v22.11h12.47v10.95" transform="translate(-4.6 -4.59)"/><path d="M1054.55,1040.54v-5.19h.06V1034h-23.86v1.33h.06v11.14H1007.3v-11.14h.06V1034H983.5v1.33h0v11.14H960.08v-11.14h0V1034H936.24v1.33h.06v11.14H912.82v-11.14h.06V1034H889v1.33h.05v11.14h-23.5v-11.14h.06V1034H841.76v1.33h.06v11.14H818.34v-11.14h.06V1034H794.51v1.33h.06v11.14H758.45V1059h12.48v23.33H758.45v23.92h12.48v23.34H758.45v23.89h12.48v12.24h22.33v12.47h22.65v-12.47H838v12.47h22.65v-12.47h22.11v12.47h22.64v-12.47h22.12v12.47h22.64v-12.47H972.3v12.47h22.64v-12.47h22.12v12.47h22.64v-12.47h22.12v12.47h22.64v-12.47h22.12v12.47h22.64v-12.47h22.12v12.47H1174v-12.47h34.81v-12.52h-1.33v.08h-11.14v-23.5h11.14v.08h1.33V1106h-1.33v.12h-11.14v-23.54h11.14v.09h1.33v-23.89h-1.33v.08h-11.14V1034h-23.84v1.33h.06v11.14H1149v-11.14h.06V1034h-23.86v1.33h0v11.14h-23.47v-11.14h.06V1034H1078v1.33h.06v11.14h-23.48v-5.19" transform="translate(-4.6 -4.59)"/><path d="M1487.52,1034h-10.94v12.47h-22.13V1034h-22.63v12.47H1409.7V1034h-22.64v12.47h-22.12V1034h-22.63v12.47h-22.13V1034h-22.63v12.47h-22.13V1034h-22.63v12.47H1218V1059h12.47v23.34H1218v23.91h12.47v23.34H1218v23.9h12.47v12.24h22.35v12.47h22.63v-12.47h22.13v12.47h22.63v-12.47h22.13v12.47h22.63v-12.47h22.12v12.47h22.64v-12.47h22.12v12.47h22.63v-12.47h22.13v12.47h22.63v-12.47h22.13v12.47H1544v-12.47h22.12v12.47h22.64v-12.47h22.12v12.47h22.63v-12.47h34.82v-12.52h-12.47v-23.34h12.47V1106h-12.47v-23.34h12.47v-23.91h-12.47v-12.24h-22.35V1034h-22.63v12.47h-22.12V1034h-22.64v12.47H1544V1034h-22.63v12.47h-22.13V1034h-10.94" transform="translate(-4.6 -4.59)"/><path d="M320,393.28v10.94h12.48v22.12H320V449h12.48V471.1H320v22.63h12.48v22.13H320v22.63h12.48v22.12H320v22.64h12.48v22.12H320V628h12.48v34.82H345V650.35h23.34v12.47h23.9V650.35h23.34v12.47h23.91V650.35H451.7V628h12.47V605.37H451.7V583.25h12.47V560.61H451.7V538.49h12.47V515.86H451.7V493.73h12.47V471.1H451.7V449h12.47V426.34H451.7V404.22h12.47V381.58H451.7V359.46h12.47V336.83H451.7V314.7h12.47V292.07H451.7V269.94h12.47V247.31H451.7V212.49H439.17V225H415.83V212.49h-23.9V225H368.59V212.49H344.68V225H332.45v22.35H320v22.63h12.48v22.13H320V314.7h12.48v22.13H320v22.63h12.48v22.12H320v10.94" transform="translate(-4.6 -4.59)"/><path d="M270.66,71.59h9.6V59.12H300.8V71.59H321V83.82h12.47v23.91H321v23.34h12.47V155H321v23.34h12.47v12.53H300.8v12.47H280.26V190.84h-20v12.47H239.77V190.84h-20v12.47H199.28V190.84H179.07V178.6H166.6V154.69h12.47V131.35H166.6v-23.9h12.47V84.11H166.6V71.59h32.68V59.12h20.53V71.59h20V59.12H260.3V71.59h9.6" transform="translate(-4.6 -4.59)"/><path d="M474.37,139.74v-9.6h12.47V109.61H474.37v-20h12.47V69.11H474.37V36.44H461.85V48.91H438.51V36.44h-23.9V48.91H391.27V36.44H367.36V48.91H355.12v20.2H342.65V89.64h12.47v20H342.65v20.53h12.47v20H342.65v20.53h12.47v32.68h12.53V190.84H391v12.47h23.9V190.84h23.34v12.47h23.91V190.84h12.23V170.63h12.47V150.1H474.37v-9.6" transform="translate(-4.6 -4.59)"/><path d="M1570.12,683.8v-5.86h-20.54v12.47h-32.67v12.52h12.47v23.34h-12.47v23.9h12.47v23.34h-12.47v23.91h12.47v12.24h20.2v12.47h20.54V809.66h20v12.47h20.53V809.66h20v12.47h20.53V809.66h32.68V797.14h-12.47V773.8h12.47V749.89h-12.47V726.55h12.47v-23.9h-12.47V690.41H1651.1V677.94h-20.53v12.47h-20V677.94h-20.53v12.47h-20v-5.86" transform="translate(-4.6 -4.59)"/><path d="M1522.77,615.55h-5.86v20.53h12.47v32.68h12.52V656.28h23.34v12.48h23.91V656.28h23.34v12.48h23.9V656.28h12.24v-20.2h12.47V615.55h-12.47v-20h12.47V575.06h-12.47v-20h12.47V534.56h-12.47V501.89h-12.52v12.47h-23.34V501.89h-23.91v12.47h-23.33V501.89h-23.91v12.47h-12.24v20.2h-12.47v20.53h12.47v20h-12.47v20.52h12.47v20h-5.85" transform="translate(-4.6 -4.59)"/><path d="M1612.49,486.84v5.86h23.9V480.23h12.24v-8.86h12.47V450.84h-12.47v-20h12.47V410.34h-12.47v-20h12.47V369.85h-12.47V337.17h-12.52v12.47h-23.34V337.17h-23.91v12.47h-23.33V337.17h-23.91v12.47h-12.24v20.21h-12.47v20.53h12.47v20h-12.47v20.53h12.47v20h-12.47v20.53h12.47V492.7h12.52V480.23h23.34V492.7h23.91V480.23h23.34v5.86" transform="translate(-4.6 -4.59)"/><path d="M1516.91,255.51v-9.88h12.47v-20h-12.47V205.13h12.47v-20.2h12.24V172.46h23.91v12.47h23.33V172.46h23.91v12.47h23.34V172.46h12.52v32.67h12.47v20.54h-12.47v20h12.47v20.53h-12.47v20h12.47v20.53h-12.47v8.87h-8.86V328h-20.54V315.52h-20V328h-20.53V315.52h-20V328h-20.53V315.52h-8.87v-8.87h-12.47V286.12h12.47v-20h-12.47v-9.89" transform="translate(-4.6 -4.59)"/></svg>