<svg id="svg2" xmlns="http://www.w3.org/2000/svg" width="1210.2" height="510.22" viewBox="0 0 1210.2 510.22"><polygon points="482.22 0.95 452.24 0.95 419.77 0.95 385.26 0.95 349.17 0.95 311.95 0.95 274.06 0.95 235.93 0.95 198.04 0.95 160.82 0.95 124.73 0.95 90.22 0.95 57.75 0.95 27.77 0.95 0.72 0.95 0.72 6.21 0.72 12.05 0.72 18.37 0.72 25.09 0.72 32.11 0.72 39.36 0.72 46.74 0.72 54.16 0.72 61.54 0.72 68.78 0.72 75.81 0.72 82.52 0.72 88.84 0.72 94.68 0.72 99.95 27.77 99.95 45.89 99.95 45.89 86.32 54.89 86.32 54.89 99.95 57.75 99.95 90.22 99.95 124.73 99.95 160.82 99.95 198.04 99.95 235.93 99.95 274.06 99.95 311.95 99.95 349.17 99.95 385.26 99.95 419.77 99.95 452.24 99.95 457.4 99.95 457.4 85.68 466.4 85.68 466.4 99.95 482.22 99.95 509.27 99.95 509.27 94.68 509.27 88.85 509.27 82.52 509.27 75.81 509.27 68.78 509.27 61.54 509.27 54.16 509.27 46.74 509.27 39.36 509.27 32.11 509.27 25.09 509.27 18.37 509.27 12.05 509.27 6.21 509.27 0.95 482.22 0.95" style="fill:none;stroke:#f60;stroke-width:1.4399999380111694px"/><polygon points="603.01 0.95 597.17 0.95 590.85 0.95 584.13 0.95 577.1 0.95 569.86 0.95 562.48 0.95 555.06 0.95 547.68 0.95 540.44 0.95 533.41 0.95 526.7 0.95 520.37 0.95 514.54 0.95 509.27 0.95 509.27 28 509.27 57.98 509.27 90.45 509.27 124.96 509.27 161.05 509.27 198.26 509.27 236.16 509.27 274.28 509.27 312.18 509.27 349.4 509.27 385.49 509.27 419.99 509.27 452.46 509.27 482.45 509.27 509.5 514.54 509.5 520.37 509.5 526.7 509.5 533.41 509.5 540.44 509.5 547.68 509.5 555.06 509.5 562.48 509.5 569.86 509.5 577.1 509.5 584.13 509.5 590.85 509.5 597.17 509.5 603.01 509.5 608.27 509.5 608.27 482.45 608.27 452.46 608.27 419.99 608.27 385.49 608.27 349.4 608.27 312.18 608.27 274.28 608.27 236.16 608.27 198.26 608.27 161.05 608.27 124.96 608.27 90.45 608.27 57.98 608.27 55.12 592.88 55.12 592.88 46.12 608.27 46.12 608.27 28 608.27 0.95 603.01 0.95" style="fill:none;stroke:#c03;stroke-width:1.4399999380111694px"/><polygon points="965.5 258.63 963.86 257.12 962.25 255.61 960.65 254.1 959.07 252.56 957.48 251 955.89 249.37 954.28 247.68 952.64 245.9 950.97 244.02 949.26 242.02 947.49 239.89 945.66 237.61 943.75 235.17 941.77 232.54 939.71 235.12 937.37 237.74 934.77 240.41 931.93 243.12 928.88 245.85 925.62 248.62 922.2 251.39 918.63 254.18 914.93 256.98 911.13 259.76 907.24 262.55 903.3 265.31 899.32 268.05 895.32 270.76 891.33 273.44 885.85 277.08 880.7 280.44 875.86 283.51 871.32 286.26 867.04 288.69 863.01 290.77 859.21 292.5 855.6 293.87 852.17 294.85 848.89 295.43 845.74 295.61 842.7 295.36 839.75 294.67 836.86 293.52 834 291.91 834.12 287.84 834.11 284.11 833.99 280.61 833.81 277.23 833.6 273.85 833.4 270.36 833.23 266.65 833.14 262.61 833.15 258.12 833.32 253.07 833.65 247.36 834.21 240.86 835.01 233.46 836.09 225.06 837.49 215.53 840.02 206.32 844.37 198.53 850.32 192.02 857.63 186.66 866.09 182.31 875.45 178.81 885.5 176.03 896.01 173.83 906.75 172.07 917.5 170.61 928.02 169.31 938.09 168.02 947.49 166.6 955.98 164.92 963.34 162.83 962.39 161.01 961.34 159.02 960.2 156.85 958.98 154.49 957.68 151.92 956.31 149.12 954.87 146.09 953.37 142.8 951.81 139.25 950.19 135.42 948.54 131.29 946.84 126.85 945.1 122.09 943.34 117 941.55 111.54 934.45 113.98 927.37 116.73 920.25 119.73 913.03 122.95 905.64 126.32 898.02 129.81 890.13 133.36 881.88 136.92 873.23 140.44 864.12 143.87 854.48 147.17 844.25 150.28 833.37 153.16 821.79 155.75 809.44 158 808.81 150.21 808.12 141.03 807.37 130.72 806.58 119.53 805.79 107.73 805.02 95.57 804.28 83.31 803.6 71.22 803 59.54 802.5 48.53 802.12 38.46 801.9 29.58 801.84 22.15 801.98 16.43 802.33 12.67 799.18 11.69 795.78 10.77 792.15 9.9 788.32 9.08 784.34 8.3 780.24 7.54 776.06 6.82 775.57 6.73 775.57 20.25 766.57 20.25 766.57 5.98 771.07 5.98 767.58 5.4 763.36 4.69 759.2 3.98 755.13 3.26 751.19 2.52 747.42 1.75 743.86 0.95 745.36 8.3 747.16 16.93 749.2 26.67 751.41 37.34 753.73 48.79 756.08 60.84 758.4 73.32 760.62 86.06 762.67 98.9 764.48 111.66 765.99 124.18 767.12 136.28 767.82 147.81 768.01 158.57 767.62 168.42 766.66 180 765.59 190.67 764.43 200.5 763.17 209.56 761.81 217.9 760.37 225.59 758.84 232.69 757.23 239.25 755.54 245.35 753.78 251.05 751.95 256.4 750.06 261.48 748.11 266.33 746.1 271.03 744.04 275.63 740.51 276.47 737.09 276.89 733.72 276.92 730.39 276.57 727.03 275.87 723.63 274.83 720.14 273.49 716.52 271.86 712.73 269.95 708.73 267.8 704.49 265.42 699.97 262.84 695.13 260.07 689.93 257.13 684.33 254.05 680.87 252.15 677.44 250.25 674.01 248.32 670.56 246.38 667.07 244.4 663.51 242.4 659.86 240.37 656.08 238.3 652.16 236.18 648.07 234.02 643.79 231.81 639.28 229.55 634.53 227.22 629.51 224.84 624.2 222.39 622.65 225.71 621.26 228.73 620.02 231.48 618.89 233.99 617.86 236.3 616.91 238.46 616.01 240.5 615.15 242.46 614.3 244.38 613.44 246.29 612.55 248.24 611.61 250.27 610.6 252.4 609.49 254.68 608.27 257.15 612.43 258.91 616.57 260.65 620.68 262.41 624.79 264.18 628.92 265.98 633.09 267.82 637.3 269.71 641.58 271.67 645.95 273.7 650.42 275.82 655 278.05 659.73 280.38 664.6 282.84 669.64 285.43 674.87 288.17 680.77 291.84 686.65 295.29 692.5 298.5 698.33 301.5 704.12 304.29 709.88 306.87 715.6 309.23 721.27 311.4 726.9 313.37 732.47 315.15 737.99 316.74 743.45 318.14 748.84 319.37 754.17 320.42 759.42 321.3 756.42 322.63 753.57 324.03 750.87 325.52 748.33 327.13 745.94 328.86 743.71 330.72 741.63 332.75 739.71 334.95 737.94 337.34 736.34 339.93 734.88 342.75 733.59 345.8 732.46 349.11 731.48 352.69 730.66 356.55 730.18 360.6 730.16 364.73 730.58 368.9 731.43 373.08 732.68 377.2 734.3 381.23 736.27 385.11 738.57 388.82 741.17 392.29 744.05 395.48 747.19 398.35 750.56 400.86 754.14 402.95 757.9 404.59 761.83 405.72 766.57 406.42 771.29 406.51 775.97 406.04 780.55 405.05 785 403.59 789.27 401.7 793.34 399.44 797.16 396.85 800.69 393.96 803.9 390.84 806.74 387.52 809.17 384.05 811.15 380.49 812.66 376.86 813.63 373.23 814.2 369.43 814.42 365.72 814.32 362.09 813.92 358.57 813.25 355.14 812.32 351.82 811.16 348.62 809.8 345.54 808.26 342.58 806.56 339.76 804.72 337.09 802.77 334.55 800.72 332.17 798.61 329.95 796.46 327.9 800.88 328.74 805.81 329.38 811.21 329.81 817.01 330 823.18 329.94 829.65 329.61 836.38 328.98 843.32 328.05 850.42 326.8 857.62 325.19 864.88 323.23 872.14 320.88 879.35 318.14 886.46 314.97 893.42 311.37 898.63 308.42 903.87 305.35 909.14 302.17 914.4 298.89 919.66 295.52 924.87 292.09 930.03 288.6 935.13 285.06 940.13 281.5 945.02 277.91 949.78 274.32 954.4 270.74 958.85 267.18 963.12 263.66 967.18 260.18 965.5 258.63" style="fill:none;stroke:#f09;stroke-width:1.4399999380111694px"/><polygon points="1151.59 0.95 1149.67 0.95 1149.58 0.95 1151.59 0.95" style="fill:none;stroke:#90c;stroke-width:1.4399999380111694px"/><polygon points="1209.46 218.3 1209.19 211.69 1208.59 205.29 1207.59 199.09 1206.12 193.05 1204.11 187.15 1201.48 181.35 1198.16 175.64 1194.09 169.98 1189.18 164.34 1183.37 158.71 1176.57 153.04 1168.74 147.31 1159.77 141.5 1158.39 144.17 1157.2 146.44 1156.19 148.35 1155.31 150 1154.52 151.43 1153.81 152.71 1153.13 153.91 1152.46 155.1 1151.75 156.34 1150.98 157.7 1150.11 159.25 1149.11 161.04 1147.95 163.15 1146.59 165.64 1145 168.57 1148.32 170.38 1151.7 172.5 1155.11 174.94 1158.5 177.66 1161.83 180.66 1165.05 183.91 1168.12 187.4 1171 191.12 1173.65 195.04 1176.03 199.15 1178.09 203.43 1179.78 207.86 1181.07 212.43 1181.92 217.13 1182.28 221.92 1181.66 228.23 1180.37 234.3 1178.46 240.1 1176.03 245.59 1173.14 250.71 1169.87 255.43 1166.29 259.71 1162.48 263.49 1158.52 266.75 1154.47 269.42 1150.42 271.48 1146.44 272.88 1142.61 273.57 1138.99 273.51 1135.67 272.67 1135 268.29 1134.25 263.63 1133.45 258.65 1132.61 253.36 1131.75 247.73 1130.86 241.74 1129.97 235.37 1129.09 228.61 1128.22 221.44 1127.39 213.85 1126.61 205.82 1125.88 197.33 1125.22 188.36 1124.64 178.89 1124.16 168.92 1124.38 158.39 1125.77 147.08 1128.19 135.15 1131.46 122.77 1135.44 110.1 1139.95 97.31 1144.84 84.56 1149.95 72.02 1155.11 59.86 1160.17 48.23 1164.97 37.3 1169.35 27.25 1173.14 18.22 1176.18 10.4 1178.33 3.93 1175.16 3.07 1171.92 2.38 1168.58 1.85 1165.13 1.46 1161.53 1.19 1157.77 1.02 1156.08 0.99 1156.08 16.34 1147.08 16.34 1147.08 0.98 1145.29 1 1140.66 1.09 1135.75 1.2 1130.55 1.32 1125.03 1.43 1119.17 1.5 1112.95 1.53 1112.17 11.96 1111.2 22.01 1110.04 31.74 1108.71 41.22 1107.22 50.51 1105.57 59.66 1103.78 68.74 1101.86 77.81 1099.81 86.93 1097.65 96.16 1095.39 105.56 1093.03 115.2 1090.59 125.13 1088.08 135.41 1085.5 146.11 1083.37 138.58 1080.9 129.71 1078.15 119.74 1075.21 108.92 1072.14 97.5 1069.01 85.73 1065.9 73.85 1062.87 62.12 1060.01 50.78 1057.38 40.08 1055.05 30.27 1053.1 21.61 1051.59 14.33 1050.61 8.69 1050.22 4.94 1046.95 4.59 1043.44 4.35 1039.7 4.21 1035.79 4.14 1031.74 4.15 1027.57 4.21 1023.32 4.31 1019.03 4.43 1017.5 4.48 1022 4.48 1022 18.11 1013 18.11 1013 4.62 1010.45 4.7 1006.23 4.82 1002.1 4.9 998.09 4.94 994.25 4.92 990.6 4.83 993.49 11.74 996.94 19.86 1000.84 29.01 1005.09 39.05 1009.59 49.83 1014.25 61.19 1018.95 72.98 1023.61 85.05 1028.12 97.24 1032.38 109.41 1036.3 121.39 1039.77 133.04 1042.69 144.21 1044.97 154.73 1046.51 164.47 1047.82 176.01 1048.86 186.68 1049.63 196.56 1050.16 205.68 1050.45 214.13 1050.53 221.95 1050.41 229.21 1050.11 235.97 1049.65 242.28 1049.03 248.21 1048.28 253.81 1047.41 259.16 1046.44 264.3 1045.39 269.3 1044.26 274.21 1040.68 275.4 1036.65 275.56 1032.29 274.79 1027.69 273.18 1022.97 270.83 1018.23 267.83 1013.59 264.28 1009.15 260.26 1005.03 255.88 1001.33 251.23 998.16 246.41 995.63 241.5 993.84 236.6 992.91 231.8 992.95 227.21 993.68 222.88 994.77 218.64 996.18 214.48 997.88 210.42 999.85 206.45 1002.05 202.6 1004.46 198.86 1007.05 195.25 1009.79 191.77 1012.65 188.42 1015.6 185.22 1018.61 182.18 1021.65 179.29 1024.7 176.57 1027.73 174.03 1026.36 171.76 1025.05 169.61 1023.8 167.55 1022.6 165.56 1021.44 163.6 1020.31 161.67 1019.2 159.74 1018.1 157.77 1017 155.76 1015.9 153.67 1014.79 151.49 1013.65 149.18 1012.47 146.73 1011.26 144.11 1010 141.3 1005.21 144.3 1000.45 148.1 995.76 152.64 991.22 157.88 986.88 163.77 982.82 170.26 979.09 177.31 975.75 184.87 972.87 192.89 970.51 201.33 968.73 210.13 967.6 219.25 967.18 228.64 967.54 238.26 968.72 248.06 970.84 256.04 974.36 263.67 979.12 270.9 984.95 277.71 991.65 284.07 999.06 289.94 1007 295.3 1015.29 300.11 1023.76 304.35 1032.22 307.98 1040.49 310.98 1048.41 313.31 1055.8 314.95 1062.46 315.86 1068.24 316.01 1065.56 317.9 1063.03 319.83 1060.68 321.82 1058.5 323.89 1056.49 326.05 1054.66 328.32 1053.02 330.71 1051.56 333.24 1050.3 335.93 1049.23 338.79 1048.35 341.83 1047.68 345.08 1047.21 348.54 1046.95 352.24 1046.9 356.19 1047.21 360.25 1047.99 364.31 1049.22 368.32 1050.87 372.25 1052.89 376.05 1055.27 379.69 1057.96 383.12 1060.93 386.3 1064.16 389.2 1067.61 391.77 1071.25 393.98 1075.04 395.78 1078.96 397.13 1082.97 398 1087.04 398.35 1091.83 398.11 1096.48 397.28 1100.97 395.91 1105.27 394.05 1109.35 391.75 1113.18 389.07 1116.73 386.06 1119.97 382.76 1122.87 379.25 1125.41 375.56 1127.54 371.75 1129.25 367.88 1130.51 363.99 1131.28 360.15 1131.53 356.39 1131.34 352.56 1130.84 348.87 1130.03 345.34 1128.95 341.95 1127.62 338.73 1126.07 335.65 1124.31 332.74 1122.38 329.98 1120.29 327.38 1118.07 324.95 1115.74 322.68 1113.34 320.57 1110.87 318.64 1108.37 316.87 1105.86 315.27 1110.86 314.91 1117.19 313.62 1124.62 311.45 1132.9 308.45 1141.78 304.65 1151 300.1 1160.34 294.84 1169.54 288.92 1178.35 282.37 1186.53 275.23 1193.82 267.56 1200 259.38 1204.8 250.75 1207.99 241.71 1209.31 232.29 1209.48 225.16 1209.46 218.3" style="fill:none;stroke:#90c;stroke-width:1.4399999380111694px"/></svg>